<?xml version="1.0" encoding="UTF-8"?>
<svg width="695px" height="322px" viewBox="0 0 695 322" version="1.1" xmlns="http://www.w3.org/2000/svg" xmlns:xlink="http://www.w3.org/1999/xlink">
    <!-- Generator: Sketch 50.2 (55047) - http://www.bohemiancoding.com/sketch -->
    <title>首页推广注册页</title>
    <desc>Created with Sketch.</desc>
    <defs>
        <rect id="path-1" x="0" y="0" width="2625" height="558"></rect>
        <path d="M26.5062034,90.6217721 C22.2765782,90.6217721 19.6124234,93.7647751 19.6124234,96.544869 C19.6124234,99.324963 19.6124234,240.934389 19.6124234,244.975582 C19.6124234,249.016774 21.9539383,252.456629 26.5062034,252.456629 C31.0584685,252.456629 241.343631,252.456629 245.204432,252.456629 C249.065233,252.456629 252.03938,249.275738 252.03938,244.975582 C252.03938,240.675426 252.03938,100.314304 252.03938,96.544869 C252.03938,92.7754342 249.599094,90.6217721 245.204432,90.6217721 C240.80977,90.6217721 30.7358286,90.6217721 26.5062034,90.6217721 Z" id="path-3"></path>
        <path d="M4.12678551,3.27092468 C7.82762149,3.27092468 265.089161,3.27092468 268.900623,3.27092468 C272.712086,3.27092468 273.371009,6.03836228 272.712086,9.07561969 C272.053163,12.1128771 253.45006,87.8574289 252.724746,90.808064 C252.241202,92.775154 250.641565,94.0384485 247.925834,94.5979475 L26.5075322,94.5979475 C23.0162066,94.5979475 20.9164107,93.074051 20.2081444,90.0262578 C19.145745,85.4545681 1.11764663,11.8972945 0.425949527,9.07561969 C-0.265747577,6.25394487 0.425949527,3.27092468 4.12678551,3.27092468 Z" id="path-5"></path>
        <path d="M1196.86128,456.684633 C1195.28301,457.96731 1194.71741,460.157929 1195.78935,462.725862 C1196.86128,465.293795 1201.75845,474.935926 1201.95987,475.676905 C1202.16129,476.417884 1206.45435,486.250434 1206.54041,487.010666 C1206.62647,487.770898 1210.89901,503.54589 1210.35334,507.290331 C1209.80767,511.034772 1203.89374,500.220767 1202.84925,495.050835 C1201.80475,489.880903 1195.75297,481.089897 1190.96274,481.089897 C1186.17251,481.089897 1189.58032,488.153013 1190.02238,490.620895 C1190.46443,493.088777 1190.96274,496.28781 1190.96274,499.833953 C1190.96274,503.380095 1200.46853,518.777022 1203.51383,522.21697 C1206.55913,525.656918 1219.97012,539.300983 1224.68877,542.111991 C1227.83454,543.985996 1235.56861,552.957189 1247.89098,569.025571 L1283.5139,558.018827 C1270.001,538.114228 1262.90918,527.478063 1262.23844,526.110335 C1261.23233,524.058741 1261.16034,495.400628 1260.47315,493.088777 C1259.78595,490.776925 1259.19596,471.754847 1257.17183,468.672348 C1255.95151,466.813964 1252.54464,462.3073 1247.31617,459.435575 C1243.87219,457.543974 1241.23564,458.652692 1240.04354,457.96731 C1239.36349,457.351668 1236.21614,454.273893 1231.99051,452.778301 C1228.88565,451.679388 1226.54499,453.374204 1224.68877,453.088079 C1221.30993,452.56725 1216.90815,449.369529 1214.63007,449.779138 C1212.35198,450.188748 1209.12084,452.469341 1208.07024,453.563839 C1207.01964,454.658337 1205.28545,457.291262 1207.7514,459.144285 C1210.21736,460.997308 1212.56036,459.73117 1213.55181,460.17794 C1214.63007,460.007873 1217.49008,462.438302 1217.90021,463.368026 C1218.31033,464.297751 1221.00795,478.88966 1221.8859,480.657139 C1222.76385,482.424617 1220.85964,482.456056 1219.97012,481.617129 C1219.0806,480.778202 1214.63007,470.21706 1213.8851,468.672348 C1213.14013,467.127636 1208.07024,460.17794 1202.84925,457.363551 C1201.94807,456.877768 1198.43956,455.401957 1196.86128,456.684633 Z" id="path-7"></path>
        <path d="M1340.41931,455.925179 C1338.84235,457.204818 1338.27722,459.390248 1339.34827,461.952097 C1340.41931,464.513947 1345.31241,474.133237 1345.51366,474.872461 C1345.71492,475.611685 1350.00441,485.420944 1350.0904,486.179375 C1350.17639,486.937806 1354.44538,502.67543 1353.90017,506.411001 C1353.35495,510.146572 1347.44593,499.358183 1346.4023,494.200498 C1345.35868,489.042813 1339.31192,480.272631 1334.52567,480.272631 C1329.73941,480.272631 1333.14439,487.319016 1333.58608,489.781052 C1334.02777,492.243087 1334.52567,495.434543 1334.52567,498.972285 C1334.52567,502.510028 1344.02356,517.870482 1347.06634,521.302281 C1350.10911,524.73408 1363.50896,538.345825 1368.2237,541.150174 C1371.36686,543.01974 1379.09451,551.969682 1391.40666,568 L1427,557.01933 C1413.49832,537.161881 1406.41238,526.550912 1405.7422,525.186423 C1404.73692,523.13969 1404.665,494.549462 1403.97837,492.243087 C1403.29175,489.936713 1402.70225,470.959694 1400.67979,467.884497 C1399.46049,466.030515 1396.05645,461.534527 1390.83232,458.669604 C1387.39119,456.782484 1384.75684,457.888576 1383.56572,457.204818 C1382.88624,456.590634 1379.74151,453.52015 1375.51938,452.0281 C1372.41709,450.931791 1370.07838,452.622592 1368.2237,452.337145 C1364.84766,451.81755 1360.44954,448.627403 1358.17335,449.036042 C1355.89715,449.444681 1352.66869,451.719872 1351.61896,452.811777 C1350.56924,453.903683 1348.83649,456.530371 1351.30039,458.379005 C1353.7643,460.227638 1356.10536,458.964499 1357.09599,459.410211 C1358.17335,459.240547 1361.03099,461.665218 1361.44077,462.592741 C1361.85056,463.520263 1364.54594,478.077606 1365.42316,479.840898 C1366.30038,481.604189 1364.39774,481.635554 1363.50896,480.798614 C1362.62018,479.961674 1358.17335,469.42555 1357.429,467.884497 C1356.68465,466.343444 1351.61896,459.410211 1346.4023,456.602489 C1345.50187,456.117857 1341.99627,454.645541 1340.41931,455.925179 Z" id="path-9"></path>
    </defs>
    <g id="Page-1" stroke="none" stroke-width="1" fill="none" fill-rule="evenodd">
        <g id="首页推广注册页" transform="translate(-894.000000, -4060.000000)">
            <g id="办公桌" transform="translate(-84.000000, 3825.000000)">
                <mask id="mask-2" fill="white">
                    <use xlink:href="#path-1"></use>
                </mask>
                <use id="Mask" fill="#EB0128" xlink:href="#path-1"></use>
                <g id="Group-14" mask="url(#mask-2)" fill="#FFFFFF" fill-rule="nonzero">
                    <g transform="translate(1494.173827, 496.687149) rotate(24.000000) translate(-1494.173827, -496.687149) translate(1486.173827, 439.687149)" id="Shape">
                        <path d="M1.32373935,93.0041033 C0.972638496,93.0043711 0.635837243,92.8628485 0.387540338,92.6107162 C0.139243433,92.3585838 -0.000175659077,92.0165299 1.66101612e-07,91.6599163 L1.66101612e-07,8.31325958 C-0.000175659077,7.95664603 0.139243433,7.61459205 0.387540338,7.36245969 C0.635837243,7.11032734 0.972638496,6.96880477 1.32373935,6.96907254 C1.67478286,6.96889404 2.01149902,7.11045602 2.2597243,7.36257869 C2.50794958,7.61470137 2.64732325,7.95670432 2.64714751,8.31325958 L2.64714751,91.6595801 C2.64732319,92.0161662 2.50796007,92.3582037 2.25974433,92.6103798 C2.01152859,92.8625558 1.67481331,93.0041926 1.32373935,93.0041033 Z M11.9116667,93.0041033 C11.5606232,93.0042818 11.223907,92.8627199 10.9756817,92.6105972 C10.7274564,92.3584745 10.5880828,92.0164716 10.5882585,91.6599163 L10.5882585,8.31325958 C10.5882585,7.57022472 11.1801179,6.96907254 11.9116667,6.96907254 C12.6432155,6.96907254 13.2350748,7.57022472 13.2350748,8.31325958 L13.2350748,91.6595801 C13.2353385,92.0161936 13.0960036,92.358283 12.8477688,92.6104784 C12.599534,92.8626738 12.2627676,93.0042819 11.9116667,93.0041033 Z" transform="translate(6.617538, 49.986588) rotate(-360.000000) translate(-6.617538, -49.986588) "></path>
                        <path d="M11.9116667,91.0616962 L1.32373953,91.0616962 C0.972638688,91.0619159 0.63583744,90.9457999 0.387540539,90.738931 C0.139243638,90.5320621 -0.000175451588,90.2514146 3.73587868e-07,89.9588213 C-0.000263357832,89.6661801 0.139116925,89.3854617 0.387423365,89.1785331 C0.635729806,88.9716045 0.972581296,88.8554506 1.32373953,88.8556704 L11.9116667,88.8556704 C12.2627676,88.8555239 12.599534,88.9717101 12.8477688,89.1786308 C13.0960036,89.3855514 13.2353385,89.666228 13.2350748,89.9588213 C13.2353386,90.2513892 13.0959932,90.5320375 12.8477488,90.7389143 C12.5995044,90.9457912 12.2627371,91.061916 11.9116667,91.0616962 Z" transform="translate(6.617538, 89.958683) rotate(-360.000000) translate(-6.617538, -89.958683) "></path>
                        <path d="M1.10089944,101.164312 C0.93512494,101.164312 0.767143793,101.115402 0.60992006,101.009124 C0.348135522,100.834892 0.14905378,100.529039 0.0565438536,100.15896 C-0.0359660725,99.7888822 -0.0143121494,99.3849504 0.116734033,99.0361742 L2.3222796,93.1548353 C2.59369741,92.431114 3.25734706,92.1295635 3.80211351,92.4973081 C4.34650963,92.8608689 4.56720059,93.7435601 4.29529954,94.4698899 L2.08975397,100.351229 C1.90193084,100.849692 1.51930387,101.164306 1.10089944,101.164312 Z" transform="translate(2.205846, 96.752259) rotate(-360.000000) translate(-2.205846, -96.752259) "></path>
                        <path d="M7.56336268,113.009195 C7.08588918,113.009179 6.64937619,112.733868 6.4357068,112.297977 L0.133506989,99.4307245 C-0.0163409797,99.1255683 -0.041127105,98.7720973 0.0646148117,98.4482642 C0.170356728,98.1244311 0.397940958,97.8568358 0.697177304,97.7044922 C1.32011497,97.3826741 2.07577366,97.646565 2.3885035,98.279903 L8.69070331,111.147156 C8.88568207,111.546031 8.86462712,112.019491 8.63504709,112.39869 C8.40546707,112.77789 8.00004481,113.008846 7.56336268,113.009195 Z" transform="translate(4.411692, 105.288103) rotate(-360.000000) translate(-4.411692, -105.288103) "></path>
                        <path d="M8.2270391,113.00919 C8.03211602,113.009781 7.8398263,112.963242 7.66590882,112.873383 C7.3666268,112.721096 7.13898072,112.453526 7.03318124,112.129687 C6.92738176,111.805849 6.95212064,111.452347 7.10194136,111.147151 L13.404254,98.2799027 C13.7166586,97.6465649 14.4700863,97.3826742 15.0952107,97.7044922 C15.7173899,98.0226489 15.969613,98.7951033 15.6588629,99.4307238 L9.35686546,112.297972 C9.1421695,112.733955 8.70504143,113.009124 8.2270391,113.00919 Z" transform="translate(11.380193, 105.288103) rotate(-360.000000) translate(-11.380193, -105.288103) "></path>
                        <path d="M14.0379228,99.1136884 C13.5061502,99.1137161 13.0200451,98.8269494 12.7824304,98.373039 L9.97477561,93.015642 C9.80798982,92.6979861 9.78043722,92.330088 9.89819041,91.9930326 C10.0159436,91.6559773 10.2693368,91.377432 10.6025218,91.2187885 C11.2966238,90.8838046 12.1378319,91.1584914 12.4861117,91.8177396 L15.2934153,97.1751367 C15.5103024,97.5903881 15.4867422,98.0831185 15.2311275,98.4778021 C14.9755128,98.8724857 14.5241857,99.1130083 14.0379228,99.1136884 Z M12.6339199,61.6112389 L1.4040031,61.6112389 C0.627746419,61.6112389 1.7720884e-07,61.0119527 1.7720884e-07,60.2716384 C1.7720884e-07,59.531324 0.627746419,58.9323728 1.4040031,58.9323728 L12.6339199,58.9323728 C13.4098255,58.9323728 14.0375718,59.531324 14.0375718,60.2716384 C14.0375718,61.0119527 13.4098255,61.6112389 12.6339199,61.6112389 Z M7.01896151,112.507349 C6.64657197,112.507615 6.28934908,112.366611 6.02599691,112.115402 C5.76264475,111.864193 5.6147721,111.523391 5.61495859,111.168083 L5.61495859,100.453289 C5.61495859,99.7129745 6.24305592,99.1140234 7.01896151,99.1140234 C7.7948671,99.1140234 8.42261334,99.7129745 8.42261334,100.453289 L8.42261334,111.168083 C8.42279974,111.523333 8.27497527,111.864084 8.01169908,112.115283 C7.74842288,112.366483 7.39129023,112.507526 7.01896151,112.507349 Z M12.6339199,8.03592813 C12.2615626,8.03619502 11.9043757,7.89517994 11.6410793,7.64396106 C11.3777829,7.39274217 11.2299884,7.05193966 11.2302681,6.6966626 C11.2302681,2.67853105 8.06064109,2.67853105 7.01896151,2.67853105 C5.97693083,2.67853105 2.80765493,2.67853105 2.80765493,6.6966626 C2.80784132,7.0519124 2.66001686,7.39266317 2.39674066,7.64386273 C2.13346447,7.8950623 1.77633182,8.03610598 1.4040031,8.03592813 C1.03161356,8.03619492 0.674390665,7.89519052 0.411038499,7.6439813 C0.147686333,7.39277208 -0.000186310008,7.05197048 1.76173035e-07,6.6966626 C1.76173035e-07,2.50333448 2.62403564,0 7.01896151,0 C11.4138874,0 14.0375718,2.50333448 14.0375718,6.6966626 C14.0378515,7.05193966 13.890057,7.39274217 13.6267605,7.64396106 C13.3634641,7.89517994 13.0062772,8.03619502 12.6339199,8.03592813 Z" transform="translate(7.720461, 56.253674) rotate(-360.000000) translate(-7.720461, -56.253674) "></path>
                        <path d="M7.2567401,33.7089994 C6.89097376,33.7091769 6.54013567,33.5683493 6.28149978,33.3175346 C6.02286389,33.0667199 5.87764485,32.7264912 5.87782792,32.3717857 L5.87782792,8.30595149 C5.87782792,7.56695617 6.49470061,6.96907216 7.2567401,6.96907216 C8.01877959,6.96907216 8.63530746,7.56695617 8.63530746,8.30595149 L8.63530746,32.3717857 C8.63558209,32.7264604 8.49043979,33.06669 8.23185863,33.3175144 C7.97327748,33.5683387 7.62247477,33.709177 7.2567401,33.7089994 Z M3.12069318,95.2101298 C2.75499023,95.2103962 2.40418658,95.0696324 2.14559548,94.8188611 C1.88700437,94.5680898 1.74185109,94.2278945 1.74212581,93.8732505 L1.74212581,91.1994918 C1.74212581,90.4601621 2.35865369,89.8622781 3.12069318,89.8622781 C3.88273267,89.8622781 4.49926055,90.4601621 4.49926055,91.1994918 L4.49926055,93.8732505 C4.49953527,94.2278945 4.35438199,94.5680898 4.09579088,94.8188611 C3.83719978,95.0696324 3.48639613,95.2103962 3.12069318,95.2101298 Z M11.392787,95.2101298 C11.0270524,95.2103961 10.6762134,95.0696429 10.4175675,94.8188813 C10.1589217,94.5681197 10.0136917,94.2279253 10.0138748,93.8732505 L10.0138748,91.1994918 C10.0136001,90.8447591 10.1587897,90.5044787 10.4174455,90.2536447 C10.6761013,90.0028107 11.0269926,89.8620117 11.392787,89.8622781 C11.7585217,89.8621005 12.1093244,90.0029387 12.3679056,90.2537631 C12.6264867,90.5045875 12.771629,90.8448171 12.7713544,91.1994918 L12.7713544,93.8732505 C12.7715374,94.2278673 12.6263547,94.568011 12.3677835,94.818763 C12.1092123,95.069515 11.7584619,95.2103073 11.392787,95.2101298 Z" transform="translate(7.256740, 51.089601) rotate(-360.000000) translate(-7.256740, -51.089601) "></path>
                    </g>
                </g>
                <g id="Group-10" mask="url(#mask-2)" fill="#FFFFFF" fill-rule="nonzero">
                    <g transform="translate(1076.617398, 449.222924) rotate(-35.000000) translate(-1076.617398, -449.222924) translate(1013.617398, 374.222924)" id="Shape">
                        <path d="M115.674247,149.835052 L8.01694475,149.835052 C3.59656847,149.835052 0,146.159542 0,141.642795 L0,78.4446333 C0,74.2135674 2.86528149,68.9597867 6.38737499,66.7343427 L9.70580806,64.6394455 C10.241455,64.2987357 10.9472486,64.4690906 11.2818131,65.0199634 C11.4413561,65.2839826 11.491724,65.6019537 11.4218359,65.9039225 C11.3519478,66.2058914 11.167529,66.4671206 10.9091518,66.6301393 L7.59186451,68.7250364 C4.71884907,70.5412774 2.29039196,74.9915801 2.29039196,78.4443406 L2.29039196,141.642209 C2.29039196,144.869879 4.8594922,147.493989 8.01694475,147.493989 L115.67396,147.493989 C118.830267,147.493989 121.400227,144.869879 121.400227,141.642209 L121.400227,78.4446333 C121.400227,74.9918728 118.971197,70.5415701 116.096463,68.7253292 L115.069854,68.0761071 C114.531819,67.7367204 114.364528,67.0161128 114.696047,66.4659312 C114.855744,66.201683 115.111641,66.0130996 115.407427,65.9416808 C115.703212,65.870262 116.014647,65.9218602 116.273197,66.0851206 L117.302098,66.7343427 C120.825337,68.9597867 123.690905,74.2135674 123.690905,78.4446333 L123.690905,141.642502 C123.691191,146.159542 120.09405,149.835052 115.674247,149.835052 Z" transform="translate(61.845453, 107.149485) rotate(-360.000000) translate(-61.845453, -107.149485) "></path>
                        <path d="M3.6250826,146.350513 C3.22434396,146.350478 2.85156855,146.145776 2.63740822,145.80815 C2.29496837,145.265319 2.45839193,144.54859 3.00257671,144.206625 L47.8192123,116.076095 C48.364012,115.734458 49.0834401,115.896907 49.4273525,116.439219 C49.769766,116.982215 49.6062166,117.699054 49.0618926,118.041034 L4.24554845,146.171274 C4.06012134,146.288811 3.8448255,146.351005 3.6250826,146.350513 Z M123.553932,146.350513 C123.34235,146.350513 123.128436,146.293865 122.934923,146.171274 L78.1296537,118.045682 C77.5857293,117.70349 77.4219221,116.987234 77.7633195,116.443867 C78.1069217,115.904119 78.8258927,115.733886 79.372334,116.080743 L124.177604,144.206625 C124.439169,144.370677 124.624551,144.631677 124.692886,144.932096 C124.761222,145.232515 124.706901,145.547689 124.541898,145.80815 C124.327916,146.146111 123.954859,146.350908 123.553932,146.350513 Z M48.4452154,100.806563 C48.2390702,100.807134 48.0365916,100.752236 47.8591389,100.64766 L2.32003514,74.1793683 C1.76481208,73.8554201 1.57713534,73.1447981 1.90036824,72.5903354 C2.22671673,72.0387045 2.93787394,71.8519609 3.49451957,72.1717254 L49.0336234,98.6426317 C49.5889796,98.9660366 49.7768584,99.6765404 49.4535817,100.230793 C49.2439243,100.587631 48.8600783,100.806805 48.4452154,100.806563 Z M78.7375878,100.804239 C78.3227127,100.804243 77.9389352,100.584998 77.7292215,100.228179 C77.406437,99.6736519 77.5946577,98.9633345 78.1500542,98.6400172 L123.681289,72.1714349 C124.238805,71.8515948 124.951073,72.0378051 125.274566,72.5900449 C125.597948,73.1442801 125.41068,73.8548332 124.855774,74.1790778 L79.32483,100.645336 C79.1470145,100.750061 78.9441208,100.804962 78.7375878,100.804239 Z M15.8137829,78.1165096 C15.504639,78.1166638 15.2081123,77.9943195 14.9895145,77.7764235 C14.7709167,77.5585276 14.6481783,77.262953 14.648333,76.9548016 L14.648333,1.16170812 C14.6481783,0.853556754 14.7709167,0.557982166 14.9895145,0.340086218 C15.2081123,0.122190269 15.504639,-0.0001540843 15.8137829,1.45642336e-07 C16.1229269,-0.0001540843 16.4194536,0.122190269 16.6380514,0.340086218 C16.8566492,0.557982166 16.9793876,0.853556754 16.9792329,1.16170812 L16.9792329,76.9545111 C16.979465,77.2627128 16.8567607,77.5583621 16.6381545,77.7763209 C16.4195483,77.9942797 16.1229774,78.1166639 15.8137829,78.1165096 Z M113.694966,76.8275628 C113.385875,76.8277943 113.089378,76.7055053 112.870818,76.4876471 C112.652258,76.2697889 112.529575,75.9742433 112.529807,75.6661453 L112.529807,22.0712897 C112.529807,21.4292855 113.050894,20.9095817 113.694966,20.9095817 C114.339038,20.9095817 114.860124,21.428995 114.860124,22.0712897 L114.860124,75.6661453 C114.860356,75.9742433 114.737674,76.2697889 114.519114,76.4876471 C114.300554,76.7055053 114.004056,76.8277943 113.694966,76.8275628 Z" transform="translate(63.587578, 73.175258) rotate(-360.000000) translate(-63.587578, -73.175258) "></path>
                        <path d="M91.1798675,2.3231648 L15.0900715,2.3231648 C14.7842384,2.32339617 14.4908614,2.20111441 14.2745777,1.9832609 C14.058294,1.76540739 13.9368504,1.46985762 13.9370035,1.16172773 C13.9368504,0.85357116 14.0582849,0.557991583 14.2745603,0.340091957 C14.4908356,0.122192332 14.7842119,-0.000154086773 15.0900715,1.45772545e-07 L91.1798675,1.45772545e-07 C91.4857006,-0.000154160274 91.7790473,0.122201517 91.9952769,0.340109522 C92.2115065,0.558017526 92.3328767,0.853597887 92.3326471,1.16172773 C92.3328768,1.46983089 92.2114974,1.76538145 91.9952595,1.98324335 C91.7790215,2.20110524 91.485674,2.32339626 91.1798675,2.3231648 Z M62.3577828,121.958737 C61.2890822,121.962604 60.2633026,121.53536 59.5092812,120.772316 C58.60851,119.86478 56.700282,119.068507 55.4269767,119.068507 C53.2024408,119.068507 51.3954199,117.246754 51.3942665,115.007545 C51.3931132,113.718867 50.6027758,111.795146 49.7022929,110.892258 C48.13171,109.306393 48.13171,106.731652 49.7011395,105.150436 C50.6039292,104.2429 51.3954199,102.319179 51.3942665,101.032825 C51.3931132,99.9527288 51.8132232,98.93422 52.5753034,98.1652545 C53.3373835,97.3983226 54.3485886,96.974186 55.4214983,96.974186 C56.6982637,96.974186 58.6087983,96.1779131 59.5107229,95.2680529 C61.026233,93.7414517 63.688756,93.7368036 65.2042661,95.270377 C66.1059024,96.1755891 68.0190321,96.971862 69.2955091,96.971862 C71.5157199,96.971862 73.3215875,98.7912918 73.3215875,101.028177 C73.3215875,102.316855 74.1130782,104.240576 75.0161562,105.150145 C76.5844323,106.733395 76.5844323,109.306103 75.0184629,110.889643 C74.1130782,111.799503 73.3215875,113.723224 73.3215875,115.011612 C73.3215875,117.248497 71.5157199,119.067926 69.2955091,119.067926 C68.0187437,119.067926 66.1070557,119.864199 65.2051311,120.771735 C64.4516142,121.534897 63.4262118,121.962367 62.3577828,121.958737 Z M62.3577828,96.4050876 C61.901222,96.402602 61.4627663,96.5848062 61.1407036,96.910856 C59.8123256,98.2492103 57.3003156,99.2973506 55.4212099,99.2973506 C54.9648825,99.297236 54.5274684,99.4810262 54.2064374,99.8077671 C53.8816675,100.131489 53.6991976,100.572831 53.6998257,101.033115 C53.7009791,102.925171 52.6606517,105.456918 51.3296786,106.792948 C50.6598669,107.468952 50.6598669,108.571707 51.3308319,109.247421 C52.6560383,110.57677 53.6986724,113.108807 53.6998257,115.007545 C53.7009791,115.965048 54.4734394,116.745343 55.4212099,116.745343 C57.3026223,116.745343 59.8123256,117.793193 61.1407036,119.129513 C61.7868715,119.782858 62.9284058,119.782858 63.5745737,119.129513 C64.9029518,117.793193 67.4158267,116.745343 69.2949324,116.745343 C70.244641,116.744222 71.0142099,115.968743 71.0151633,115.011902 C71.0151633,113.115489 72.056644,110.583451 73.3873288,109.247131 C74.0559871,108.571417 74.0559871,107.468662 73.3850221,106.792658 C72.056644,105.456337 71.0151633,102.924881 71.0151633,101.028177 C71.0140514,100.071402 70.2445753,99.2960167 69.2949324,99.2947361 C67.4169801,99.2947361 64.9041051,98.2489198 63.5734203,96.9128895 C63.252412,96.5858998 62.8142647,96.4028748 62.3577828,96.4050876 Z" transform="translate(53.134825, 60.979381) rotate(-360.000000) translate(-53.134825, -60.979381) "></path>
                        <path d="M63.5876868,116.731958 C63.3566224,116.732182 63.1349687,116.614268 62.971561,116.404196 C62.8081533,116.194125 62.7163996,115.909132 62.7165153,115.612009 L62.7165153,102.171776 C62.7165153,101.552694 63.1062442,101.051546 63.5876868,101.051546 C64.0691294,101.051546 64.4586404,101.552694 64.4586404,102.171776 L64.4586404,115.612009 C64.458814,115.909106 64.3671088,116.1941 64.2037357,116.404179 C64.0403625,116.614259 63.8187312,116.732182 63.5876868,116.731958 Z" transform="translate(63.587578, 108.891753) rotate(-360.000000) translate(-63.587578, -108.891753) "></path>
                        <path d="M66.896514,104.536081 C66.6904855,104.53594 66.4891123,104.485007 66.3177486,104.389695 L63.1821156,102.647661 C62.9513824,102.519619 62.7911876,102.320402 62.736812,102.093885 C62.6824364,101.867369 62.7383397,101.63213 62.8922101,101.439978 C63.2108709,101.038289 63.8568191,100.931331 64.3417378,101.198398 L67.4773708,102.940433 C67.7081177,103.06847 67.8683051,103.267706 67.9226353,103.494238 C67.9769655,103.72077 67.9209798,103.956007 67.7670149,104.148115 C67.5732718,104.39089 67.2463917,104.536574 66.896514,104.536081 Z" transform="translate(65.329703, 102.793814) rotate(-360.000000) translate(-65.329703, -102.793814) "></path>
                        <path d="M58.7982375,106.27872 C58.3607949,106.279451 57.9520916,106.060912 57.7097621,105.696698 C57.5174202,105.408434 57.4475395,105.055531 57.5155105,104.715713 C57.5834814,104.375896 57.783729,104.077033 58.0721515,103.884946 L61.991774,101.271566 C62.2799389,101.078949 62.6328951,101.008909 62.9727668,101.076901 C63.3126386,101.144892 63.6114941,101.345327 63.8033944,101.633981 C63.9957363,101.922246 64.0656169,102.275148 63.997646,102.614966 C63.9296751,102.954784 63.7294274,103.253646 63.4410049,103.445733 L59.5213825,106.059113 C59.3072997,106.202108 59.0556788,106.278521 58.7982375,106.27872 Z M66.6348682,111.505153 C66.3773271,111.504941 66.1256055,111.428532 65.9113964,111.285547 L61.991774,108.672167 C61.7033515,108.48008 61.5031038,108.181217 61.4351329,107.841399 C61.367162,107.501581 61.4370426,107.148679 61.6293845,106.860415 C61.821461,106.571879 62.1203642,106.371553 62.4602369,106.303574 C62.8001096,106.235594 63.1530632,106.30554 63.4413317,106.497999 L67.3609541,109.111379 C67.6494156,109.303521 67.8496607,109.602469 67.9175733,109.942363 C67.9854858,110.282257 67.9154936,110.635208 67.7230168,110.923458 C67.4806763,111.287451 67.0721329,111.505848 66.6348682,111.505153 Z" transform="translate(62.716515, 106.278351) rotate(-360.000000) translate(-62.716515, -106.278351) "></path>
                        <path d="M58.7989653,109.762879 C58.2226992,109.76408 57.7137573,109.387359 57.5464767,108.835783 C57.3791961,108.284207 57.5931197,107.688161 58.0729352,107.368933 L61.9922561,104.755365 C62.592627,104.355522 63.4033419,104.51773 63.8037372,105.117807 C63.9960643,105.406092 64.0659395,105.759019 63.9979738,106.098862 C63.9300081,106.438704 63.7297759,106.737588 63.4413756,106.929689 L59.5220547,109.543257 C59.3079884,109.686263 59.0563868,109.762681 58.7989653,109.762879 Z M66.6349932,114.989689 C66.3774719,114.989477 66.1257697,114.913063 65.911577,114.770067 L61.9922561,112.156825 C61.7038341,111.964664 61.5035951,111.665722 61.435631,111.325826 C61.3676669,110.985931 61.4375508,110.632953 61.6298946,110.344616 C62.0281982,109.74229 62.8355881,109.581495 63.4417024,109.982175 L67.3610233,112.595743 C67.6494408,112.787837 67.8496638,113.08675 67.9175727,113.426615 C67.9854816,113.76648 67.9155034,114.119406 67.7230581,114.407625 C67.4808928,114.771859 67.0723157,114.990428 66.6349932,114.989689 Z" transform="translate(62.716515, 109.762887) rotate(-360.000000) translate(-62.716515, -109.762887) "></path>
                        <path d="M58.6529299,114.989689 C58.2640798,114.990346 57.9007765,114.794097 57.6853657,114.46703 C57.5143897,114.208167 57.4522716,113.891259 57.5126921,113.586101 C57.5731126,113.280942 57.7511162,113.012562 58.0074998,112.840067 L61.4917186,110.493236 C61.7478966,110.320343 62.0616216,110.257494 62.3637162,110.318546 C62.6658107,110.379598 62.9314641,110.559538 63.1020987,110.818688 C63.2730895,111.077597 63.3352153,111.39455 63.2747962,111.699757 C63.2143771,112.004963 63.0363676,112.273395 62.7799646,112.445945 L59.2957458,114.792481 C59.1054966,114.921004 58.881792,114.989634 58.6529299,114.989689 Z M91.1713376,23.4674212 C90.8632416,23.467655 90.5676938,23.3441275 90.3498097,23.1240548 C90.1319256,22.9039821 90.0095834,22.6054216 90.0097377,22.2941529 L90.0097377,1.17356181 C90.0097377,0.525006773 90.5293932,0 91.1713376,0 C91.8132821,0 92.3326471,0.525006773 92.3326471,1.17356181 L92.3326471,22.2941529 C92.3328785,22.6053946 92.2106009,22.9039559 91.992763,23.1240371 C91.774925,23.3441183 91.4794069,23.467655 91.1713376,23.4674212 Z" transform="translate(74.911393, 57.494845) rotate(-360.000000) translate(-74.911393, -57.494845) "></path>
                        <path d="M112.106517,22.6494845 L91.7401954,22.6486136 C91.3316358,22.6535847 90.9513156,22.4887367 90.7451478,22.217315 C90.53898,21.9458932 90.53898,21.6100462 90.7451478,21.3386244 C90.9513156,21.0672027 91.3316358,20.9023547 91.7401954,20.9073258 L112.106517,20.9081968 C112.731502,20.9081968 113.238152,21.2979973 113.238152,21.7788407 C113.238152,22.259684 112.731502,22.6494845 112.106517,22.6494845 Z" transform="translate(101.914337, 21.778351) rotate(-360.000000) translate(-101.914337, -21.778351) "></path>
                        <path d="M113.818522,23.8439085 C113.510471,23.8441691 113.214993,23.7185444 112.99735,23.4947816 L92.0918817,2.03495073 C91.8740234,1.81145005 91.7516229,1.50825215 91.7516229,1.19209678 C91.7516229,0.875941414 91.8740234,0.57274351 92.0918817,0.349242829 C92.309633,0.125632316 92.6050313,-2.06879171e-17 92.9130538,0 C93.2210763,2.06879171e-17 93.5164747,0.125632316 93.734226,0.349242829 L114.639694,21.8090737 C114.972124,22.1498716 115.071668,22.6627206 114.891866,23.1082622 C114.712065,23.5538037 114.288367,23.8441969 113.818522,23.8439085 Z M63.8789401,30.9940053 L32.519576,30.9940053 C32.2114777,30.9941637 31.9159582,30.8685902 31.698127,30.6449516 C31.4802958,30.421313 31.3580266,30.1179593 31.3582579,29.8017262 C31.3580265,29.4855204 31.480305,29.1821974 31.6981446,28.9586061 C31.9159841,28.7350148 32.2115044,28.6095077 32.519576,28.6097453 L63.8789401,28.6097453 C64.1870117,28.6095077 64.482532,28.7350148 64.7003716,28.9586061 C64.9182111,29.1821974 65.0404896,29.4855204 65.0402582,29.8017262 C65.0404895,30.1179593 64.9182203,30.421313 64.7003891,30.6449516 C64.4825579,30.8685902 64.1870384,30.9941637 63.8789401,30.9940053 Z M95.2362709,45.2989691 L32.519576,45.2989691 C31.8776268,45.2989691 31.3582579,44.7658871 31.3582579,44.1069881 C31.3582579,43.4480892 31.8776268,42.9147091 32.519576,42.9147091 L95.2362709,42.9147091 C95.8779296,42.9147091 96.397589,43.4480892 96.397589,44.1069881 C96.397589,44.7658871 95.8779296,45.2989691 95.2362709,45.2989691 Z" transform="translate(73.169268, 22.649485) rotate(-360.000000) translate(-73.169268, -22.649485) "></path>
                        <path d="M96.3769675,57.4948454 L32.5403138,57.4948454 C31.8869011,57.4948454 31.3582576,57.1052537 31.3582576,56.6237113 C31.3582576,56.142169 31.8869011,55.7525773 32.5403138,55.7525773 L96.3769675,55.7525773 C97.0300846,55.7525773 97.5590237,56.142169 97.5590237,56.6237113 C97.5590237,57.1052537 97.0300846,57.4948454 96.3769675,57.4948454 Z" transform="translate(64.458641, 56.623711) rotate(-360.000000) translate(-64.458641, -56.623711) "></path>
                        <path d="M96.3769675,71.4329897 L32.5403138,71.4329897 C31.8869011,71.4329897 31.3582576,71.0432776 31.3582576,70.5618557 C31.3582576,70.0804338 31.8869011,69.6907216 32.5403138,69.6907216 L96.3769675,69.6907216 C97.0300846,69.6907216 97.5590237,70.0804338 97.5590237,70.5618557 C97.5590237,71.0432776 97.0300846,71.4329897 96.3769675,71.4329897 Z" transform="translate(64.458641, 70.561856) rotate(-360.000000) translate(-64.458641, -70.561856) "></path>
                        <path d="M7.83967326,135.896907 C7.60858879,135.897061 7.38693571,135.774717 7.22353429,135.556822 C7.06013287,135.338926 6.96838614,135.043352 6.9685018,134.735201 L6.9685018,88.2748173 C6.9685018,87.6328144 7.35823067,87.1134021 7.83967326,87.1134021 C8.32111585,87.1134021 8.71062687,87.6328144 8.71062687,88.2748173 L8.71062687,134.735201 C8.71080037,135.043325 8.61910213,135.3389 8.45573529,135.556804 C8.29236845,135.774708 8.07073773,135.897061 7.83967326,135.896907 Z" transform="translate(7.839564, 111.505155) rotate(-360.000000) translate(-7.839564, -111.505155) "></path>
                        <path d="M117.593466,135.896907 C117.362373,135.897061 117.140714,135.774708 116.977327,135.556804 C116.81394,135.3389 116.72223,135.043325 116.722404,134.735201 L116.722404,88.2748173 C116.722404,87.6328144 117.111963,87.1134021 117.593466,87.1134021 C118.074969,87.1134021 118.464529,87.6328144 118.464529,88.2748173 L118.464529,134.735201 C118.464702,135.043325 118.372992,135.3389 118.209605,135.556804 C118.046218,135.774708 117.824559,135.897061 117.593466,135.896907 Z" transform="translate(117.593466, 111.505155) rotate(-360.000000) translate(-117.593466, -111.505155) "></path>
                        <path d="M82.4607886,135.896907 L42.9719515,135.896907 C42.6639532,135.897023 42.3685297,135.805262 42.1507692,135.64184 C41.9330087,135.478419 41.8107792,135.256748 41.8110105,135.025664 C41.8108563,134.794619 41.9331199,134.573003 42.150872,134.409629 C42.3686241,134.246255 42.6640036,134.154524 42.9719515,134.154639 L82.4607886,134.154639 C82.7687868,134.154466 83.0642409,134.246172 83.2820559,134.409552 C83.4998708,134.572932 83.6221742,134.794581 83.62202,135.025664 C83.6222513,135.256785 83.499982,135.47849 83.2821586,135.641918 C83.0643353,135.805345 82.7688372,135.897081 82.4607886,135.896907 Z" transform="translate(62.716515, 135.025773) rotate(-360.000000) translate(-62.716515, -135.025773) "></path>
                        <path d="M72.0087055,139.381443 L53.4246152,139.381443 C52.7830838,139.381443 52.2637627,138.991852 52.2637627,138.510309 C52.2637627,138.028767 52.7830838,137.639175 53.4246152,137.639175 L72.0087055,137.639175 C72.6502369,137.639175 73.1692678,138.028767 73.1692678,138.510309 C73.1692678,138.991852 72.6502369,139.381443 72.0087055,139.381443 Z" transform="translate(62.716515, 138.510309) rotate(-360.000000) translate(-62.716515, -138.510309) "></path>
                    </g>
                </g>
                <g id="咖啡" mask="url(#mask-2)" fill="#FFFFFF" fill-rule="nonzero">
                    <g transform="translate(1573.780269, 449.000000)" id="Shape">
                        <path d="M35.549676,0.767722813 C22.1026246,3.65355091 10.6133815,12.6202311 4.58539299,24.9365331 C1.23651047,31.7903749 0,37.2013025 0,44.828134 C0,67.8116934 16.8474551,86.724174 39.9289839,89.6100021 C49.2543336,90.7437203 59.8677152,88.4247513 68.3687246,83.3230195 C72.1812986,81.0555831 78.8275423,74.7686005 81.7127334,70.7490542 C90.7289556,58.1235563 92.4291575,40.5509244 86.0920413,26.4825125 C80.1155741,13.3932207 67.5443843,3.34435504 53.7366841,0.664657524 C48.945206,-0.262930079 39.9805051,-0.211397435 35.549676,0.767722813 Z M54.9216733,3.55048562 C83.2583715,10.7650559 96.2417314,43.3336873 80.5792655,67.8632261 C74.757362,76.9329715 64.9167996,83.7352806 53.8397266,86.3119129 C48.6875997,87.4971637 40.0320264,87.3940984 34.7768569,86.0542496 C4.84299933,78.3758856 -7.36754154,42.7668282 11.6438069,18.5464852 C17.1565827,11.4349802 26.0182411,5.76638934 34.7768569,3.60201827 C40.5472391,2.21063686 49.4604187,2.15910422 54.9216733,3.55048562 Z"></path>
                        <path d="M41.0392211,23.3768817 C34.3954579,24.2507521 27.9561181,29.1341455 24.7875541,35.5596631 C23.254378,38.7467199 23.1521663,39.2093571 23.1521663,44.8638127 C23.1521663,50.5696723 23.2032722,50.9295013 24.83866,54.2707704 C31.5335291,67.9442719 49.1139487,70.9771163 59.7439698,60.3364591 C62.1459457,57.8690603 64.4457099,54.1679622 65.5189332,50.8780971 C65.7744626,50.1584392 66.4388389,50.0042267 70.1695674,50.0042267 C74.3602489,50.0042267 74.6668841,49.9528226 76.0978485,48.5135067 C78.0398716,46.5087452 78.1420833,43.527305 76.3533778,41.4197352 C75.1779428,40.0832275 74.7690958,39.9804193 70.3739909,39.7233986 L65.6722508,39.4663779 L64.7012393,36.8447667 C61.2260401,27.5920213 51.2603952,21.9375658 41.0392211,23.3768817 Z M49.1650545,26.1013012 C54.9400179,27.6434254 59.5906522,31.5501401 62.1459457,37.0503832 C63.3213808,39.5691861 63.5258042,40.6486731 63.5258042,44.8638127 C63.5258042,49.0789522 63.3213808,50.1584392 62.1459457,52.6772421 C57.0353586,63.6777282 44.0033616,67.6358471 34.0377168,61.2103295 C30.8180469,59.1541638 28.6716003,56.6353609 26.7806831,52.5744338 C25.4008246,49.6443978 25.1964011,48.6677191 25.1964011,44.8638127 C25.1964011,41.0599062 25.4008246,40.0832275 26.7806831,37.1017874 C28.8760238,32.7324354 31.3291056,30.0080159 35.0598342,28.0032544 C40.1193154,25.2788349 44.0544675,24.7647935 49.1650545,26.1013012 Z M73.4914491,42.2936056 C75.075731,43.167476 75.6890015,44.6581961 74.9735193,45.9947038 C74.0536136,47.7424445 73.5425549,47.9480611 69.8118264,47.9480611 L66.3366271,47.9480611 L66.3366271,41.7795642 L69.4540853,41.7795642 C71.140579,41.7795642 72.9803903,42.0365849 73.4914491,42.2936056 Z"></path>
                        <path d="M41.2766569,28.9396456 C26.2576902,32.7013337 23.9393262,52.8639818 37.7991109,59.6350204 C40.7726647,61.0895397 41.6294514,61.2901631 45.2077958,61.2901631 C50.1973183,61.2400073 53.8260619,59.6851762 57.0516118,56.2244232 C60.2771617,52.7135143 61.285146,50.0552547 61.285146,44.9895147 C61.285146,40.174554 60.3275609,37.6166061 57.2532087,34.0555414 C53.8260619,30.0430741 46.417377,27.6857495 41.2766569,28.9396456 Z M49.4917292,31.7483727 C53.1204729,32.8016453 57.0516118,36.6636451 58.3115922,40.4253332 C59.3699758,43.635307 59.1683789,48.4001119 57.8076001,51.0082157 C56.3460228,53.9172545 53.0196744,56.9266049 50.0965199,58.0300334 C43.2422263,60.5879813 36.1863359,57.9798776 32.6583908,51.5599299 C28.4752557,43.8860862 32.2047978,34.7075673 40.7726647,31.648061 C43.3430248,30.7452558 46.2157801,30.7954117 49.4917292,31.7483727 Z"></path>
                    </g>
                </g>
                <g id="日常家电—耳麦" mask="url(#mask-2)" fill="#FFFFFF" fill-rule="nonzero">
                    <g transform="translate(1530.137372, 367.691388) rotate(34.000000) translate(-1530.137372, -367.691388) translate(1483.637372, 318.191388)" id="Shape">
                        <path d="M1.36153875,44.6520455 C1.36153875,19.9917022 21.5766556,0 46.5130544,0 C71.4494532,0 92.5642334,19.9917022 92.5642334,44.6520455 C92.5642334,44.7628439 92.5606323,44.8727535 92.560032,44.9832556 C92.4913119,45.54021 92.6200495,45.7766195 92.439997,46.5116216 C92.2389382,47.332537 91.7936078,47.9928835 90.9395578,47.9928835 C90.0678423,48.294812 89.1598861,48.4829462 88.2387672,48.5525042 L88.2387672,57.1767069 L85.2390892,57.1767069 L85.2390892,48.3389061 C84.5819128,48.1809641 83.9426559,47.9576322 83.3311308,47.6723384 C82.4770808,47.6723384 81.8781055,47.1192352 81.6380353,46.2153692 C81.5600124,45.9214868 81.5780178,45.0039932 81.7313625,44.8152806 C81.1530933,26.7172234 65.5665312,12.2141888 47.1312354,12.2141888 C28.7094434,12.2141888 13.1327842,26.9805917 12.5329086,45.0709463 C12.7078598,45.2649917 12.6178334,45.7709907 12.3177455,46.5116216 C11.9999526,47.2958017 11.6713564,47.9928835 10.8173064,47.9928835 C9.94559091,48.2948119 9.03763479,48.4829461 8.11651593,48.5525042 L8.11651593,57.1767069 L5.1156376,57.1767069 L5.1156376,48.3389061 C4.45847352,48.1809231 3.81922078,47.9575926 3.20767915,47.6723384 C2.35362915,47.6723384 1.36123873,46.3951945 1.36123873,45.5505789 L1.36153875,44.6520455 Z M46.8221449,2.47548475 C23.7708979,2.47548475 3.8642714,21.8640171 3.86427127,44.6618218 C3.86427127,44.7376624 3.86607179,44.8129104 3.86727214,44.8884549 C4.68711209,45.3197984 5.92167342,45.8364624 7.13402831,45.8364624 C8.12998415,45.7949336 9.10986551,45.5740529 10.0253747,45.1847073 C10.5436264,25.3592026 26.9584309,9.44422931 47.1315354,9.44422918 C67.2452226,9.44422918 83.6204154,25.2655868 84.2307941,45.0108071 C85.1645104,45.50595 86.1987351,45.7882805 87.2574801,45.8370549 C88.1180543,45.8084532 88.9675939,45.636891 89.7704156,45.3295746 C89.7743168,45.1070891 89.7803185,44.885196 89.7803185,44.6618218 C89.7803185,21.8634246 69.8745922,2.47607725 46.8221449,2.47607725 L46.8221449,2.47548475 Z"></path>
                        <polygon points="87.1192785 68.8992103 84.7778257 66.706158 73.5068912 75.4036138 75.8480293 77.5969593"></polygon>
                        <polygon points="5.4449549 68.8994955 7.78640829 66.706158 19.0573422 75.403622 16.7158888 77.5969593"></polygon>
                        <path d="M66.2423167,87.5000258 L66.2423167,85.3002244 C69.7886006,84.4769246 72.4033983,81.6824842 72.4033983,78.3523849 C72.4033983,75.0222855 69.7886006,72.2278451 66.2423167,71.4042428 L66.2423167,69.2044415 C71.1637086,70.069481 74.8681299,73.8363345 74.8681299,78.3523849 C74.8681299,82.8684352 71.1637086,86.6358937 66.2423167,87.5000258 Z M63.4006261,98.0172117 L52.1274309,98.0172117 C51.3395391,98.0129583 50.5860924,97.6898765 50.0351158,97.1200161 C49.4841391,96.5501557 49.1814551,95.78091 49.1945648,94.9838269 L49.1945648,57.4786201 C49.1945648,56.6764427 49.5095148,55.9071204 50.0701295,55.3398953 C50.6307443,54.7726703 51.391101,54.4540065 52.18393,54.4540065 L63.5435177,54.4540065 C65.1945441,54.4540065 66.2339463,55.808126 66.2339465,57.4786201 L66.2339465,94.9838269 C66.2339465,96.6543209 65.0516525,98.0172117 63.4006261,98.0172117 Z M64.4403273,58.6884654 C64.4403273,57.3521071 63.3696198,56.2687746 62.0488351,56.2687746 L53.3796761,56.2687746 C52.0588915,56.2687746 50.988184,57.3521071 50.988184,58.6884654 L50.988184,93.7739816 C50.988184,95.1103398 52.0588915,96.1936722 53.3796761,96.1936722 L62.0488351,96.1936722 C63.3696197,96.1936722 64.4403272,95.1103398 64.4403273,93.7739816 L64.4403273,58.6884654 Z M37.9910219,98.0172117 L26.7178269,98.0172117 C25.9299349,98.0129584 25.1764883,97.6898765 24.6255116,97.1200161 C24.0745349,96.5501558 23.7718509,95.78091 23.7849606,94.9838269 L23.7849606,86.6002033 C19.4629363,85.3840063 16.3348646,81.8751522 16.3348647,77.7278022 C16.3348648,73.5804522 19.4629364,70.0715981 23.7849606,68.8554011 L23.7849606,57.4786201 C23.7849605,56.6764427 24.0999106,55.9071204 24.6605253,55.3398953 C25.22114,54.7726703 25.9814968,54.4540065 26.7743258,54.4540065 L38.1339136,54.4540065 C39.78494,54.4540065 40.8243422,55.808126 40.8243422,57.4786201 L40.8243422,94.9838269 C40.8243422,96.6543209 39.6420483,98.0172117 37.9910219,98.0172117 Z M23.7849606,71.1404966 C20.8523933,72.2523445 18.7992973,74.7785016 18.7992973,77.7278022 C18.7992973,80.6771028 20.8523933,83.2023526 23.7849606,84.3151078 L23.7849606,71.1404966 Z M39.0307231,58.6884654 C39.0307231,57.3521072 37.9600156,56.2687747 36.639231,56.2687746 L27.9700719,56.2687746 C26.6492873,56.2687746 25.5785797,57.3521071 25.5785797,58.6884654 L25.5785797,93.7739816 C25.5785798,95.1103398 26.6492873,96.1936722 27.9700719,96.1936722 L36.639231,96.1936722 C37.9600156,96.1936721 39.030723,95.1103398 39.0307231,93.7739816 L39.0307231,58.6884654 Z"></path>
                        <path d="M12.2511462,63.3134826 C12.2452397,66.6954216 9.5001151,69.4327904 6.11844808,69.4288541 C2.73678107,69.4249178 -0.00196440095,66.6811656 1.05722005e-06,63.299222 C0.00196651539,59.9172784 2.74389926,57.1767119 6.12556857,57.1767069 C7.75159176,57.1781252 9.31045383,57.8254734 10.4592226,58.9763423 C11.6079914,60.1272111 12.2525656,61.6873272 12.2511462,63.3134826 Z M6.12556857,59.3247418 C4.51169187,59.3222163 3.0553289,60.2925435 2.43600221,61.7829797 C1.81667552,63.2734158 2.15644512,64.9902183 3.29677834,66.1323464 C4.43711157,67.2744744 6.15326583,67.6168318 7.64450287,66.9996784 C9.13573992,66.382525 10.1081593,64.9274924 10.108041,63.3134826 C10.1089084,62.2563668 9.68979597,61.2422119 8.94292037,60.4941607 C8.19604476,59.7461096 7.18259849,59.325451 6.12556857,59.3247418 Z"></path>
                        <path d="M92.564231,63.3134826 C92.5583245,66.6954216 89.8132,69.4327904 86.431533,69.4288541 C83.049866,69.4249178 80.3111205,66.6811657 80.3130859,63.2992221 C80.3150513,59.9172785 83.056984,57.176712 86.4386533,57.1767069 C88.0646765,57.1781251 89.6235386,57.8254734 90.7723074,58.9763422 C91.9210762,60.127211 92.5656504,61.6873272 92.564231,63.3134826 Z M86.4386533,59.3244446 C84.8248036,59.3219192 83.3684595,60.2922144 82.7491155,61.782614 C82.1297715,63.2730136 82.4694866,64.9897927 83.6097582,66.1319441 C84.7500298,67.2740955 86.4661353,67.6165262 87.9573818,66.9994664 C89.4486283,66.3824067 90.4211239,64.9274654 90.4211259,63.3134826 C90.4220721,62.2563153 90.0029945,61.2420841 89.2561103,60.4939686 C88.5092261,59.7458531 87.4957347,59.3251537 86.4386533,59.3244446 Z"></path>
                    </g>
                </g>
                <g id="Group-15" mask="url(#mask-2)">
                    <g transform="translate(1171.312493, 241.000000)">
                        <mask id="mask-4" fill="white">
                            <use xlink:href="#path-3"></use>
                        </mask>
                        <use id="Mask" stroke="#FFFFFF" stroke-width="2" fill="none" xlink:href="#path-3"></use>
                        <rect id="Rectangle" stroke="#FFFFFF" stroke-width="2" fill="none" mask="url(#mask-4)" x="120.096944" y="251.198402" width="30.7782092" height="2.86092784" rx="1.43046392"></rect>
                        <path d="M90.6584954,185.680412 C90.0433031,185.726071 89.8483966,185.963841 89.8483966,186.738685 C89.8483966,187.119982 89.8483966,187.119982 89.8483966,188.053516 C89.8483966,189.263168 89.8483966,189.263168 89.8483966,191.025058 C89.8483966,195.377192 89.8483966,195.377192 89.8483966,201.938274 C89.8483966,218.373861 89.8483966,218.373861 89.8439209,243.550734 C89.9205063,244.35749 90.201846,244.627301 90.9515116,244.642695 C91.7680201,244.659461 109.507795,244.663136 138.514719,244.657125 C145.688384,244.655638 153.29493,244.653605 161.209283,244.651139 C170.817053,244.648146 186.267351,244.642484 186.111185,244.642484 C186.853998,244.642484 187.149546,244.307916 187.149546,243.630527 C187.149546,242.621103 187.149546,242.621103 187.149546,239.126842 C187.149546,234.63849 187.149546,234.63849 187.149546,228.658609 C187.149546,222.170684 187.149546,222.170684 187.149546,215.183751 C187.149546,204.725353 187.149546,204.725353 187.149546,195.940521 C187.149546,192.175692 187.149546,192.175692 187.149546,189.456842 C187.149546,187.365578 187.149546,187.365578 187.149546,186.738685 C187.149546,186.077047 186.769401,185.680412 186.000404,185.680412 C185.582017,185.680412 185.582017,185.680412 184.199698,185.680412 C182.335413,185.680412 182.335413,185.680412 179.507195,185.680412 C172.404859,185.680412 172.404859,185.680412 161.446793,185.680412 C133.754364,185.680412 133.747067,185.680412 90.6584954,185.680412 Z" id="Rectangle-14" stroke="#FFFFFF" stroke-width="2" fill="none" mask="url(#mask-4)"></path>
                        <rect id="Rectangle-2" stroke="#FFFFFF" stroke-width="2" fill="none" mask="url(#mask-4)" x="230.960556" y="110.762887" width="17.1633797" height="67.6907216"></rect>
                        <rect id="Rectangle-2-Copy-2" stroke="#FFFFFF" stroke-width="2" fill="none" mask="url(#mask-4)" x="25.3897559" y="110.762887" width="17.1633797" height="67.6907216"></rect>
                        <rect id="Rectangle-3" stroke="#FFFFFF" stroke-width="2" fill="none" mask="url(#mask-4)" x="46.295261" y="110.762887" width="180.923169" height="6.71134021" rx="2"></rect>
                        <rect id="Rectangle-17-Copy-59" stroke="#FFFFFF" stroke-width="2" fill="none" mask="url(#mask-4)" x="180.011028" y="169.217488" width="9.23212444" height="9.23234927" rx="2"></rect>
                        <rect id="Rectangle-17-Copy-60" stroke="#FFFFFF" stroke-width="2" fill="none" mask="url(#mask-4)" x="192.669454" y="169.217488" width="9.23212444" height="9.23234927" rx="2"></rect>
                        <rect id="Rectangle-17-Copy-61" stroke="#FFFFFF" stroke-width="2" fill="none" mask="url(#mask-4)" x="205.32788" y="169.217488" width="9.23212444" height="9.23234927" rx="2"></rect>
                        <rect id="Rectangle-17-Copy-62" stroke="#FFFFFF" stroke-width="2" fill="none" mask="url(#mask-4)" x="217.986306" y="169.217488" width="9.23212444" height="9.23234927" rx="2"></rect>
                        <rect id="Rectangle-17-Copy-58" stroke="#FFFFFF" stroke-width="2" fill="none" mask="url(#mask-4)" x="164.143424" y="169.217488" width="12.4413028" height="9.23234927" rx="2"></rect>
                        <rect id="Rectangle-17-Copy-53" stroke="#FFFFFF" stroke-width="2" fill="none" mask="url(#mask-4)" x="46.295261" y="169.217488" width="9.23212444" height="9.23234927" rx="2"></rect>
                        <rect id="Rectangle-17-Copy-54" stroke="#FFFFFF" stroke-width="2" fill="none" mask="url(#mask-4)" x="58.953687" y="169.217488" width="9.23212444" height="9.23234927" rx="2"></rect>
                        <rect id="Rectangle-17-Copy-55" stroke="#FFFFFF" stroke-width="2" fill="none" mask="url(#mask-4)" x="71.6121129" y="169.217488" width="9.23212444" height="9.23234927" rx="2"></rect>
                        <rect id="Rectangle-17-Copy-56" stroke="#FFFFFF" stroke-width="2" fill="none" mask="url(#mask-4)" x="84.2705389" y="169.217488" width="12.4413028" height="9.23234927" rx="2"></rect>
                        <rect id="Rectangle-17-Copy-57" stroke="#FFFFFF" stroke-width="2" fill="none" mask="url(#mask-4)" x="100.138143" y="169.217488" width="60.578979" height="9.23234927" rx="2"></rect>
                        <rect id="Rectangle-17-Copy-42" stroke="#FFFFFF" stroke-width="2" fill="none" mask="url(#mask-4)" x="189.249572" y="156.861904" width="9.23212444" height="9.23234927" rx="2"></rect>
                        <rect id="Rectangle-17-Copy-43" stroke="#FFFFFF" stroke-width="2" fill="none" mask="url(#mask-4)" x="176.55873" y="156.861904" width="9.23212444" height="9.23234927" rx="2"></rect>
                        <rect id="Rectangle-17-Copy-44" stroke="#FFFFFF" stroke-width="2" fill="none" mask="url(#mask-4)" x="163.867888" y="156.861904" width="9.23212444" height="9.23234927" rx="2"></rect>
                        <rect id="Rectangle-17-Copy-45" stroke="#FFFFFF" stroke-width="2" fill="none" mask="url(#mask-4)" x="151.177046" y="156.861904" width="9.23212444" height="9.23234927" rx="2"></rect>
                        <rect id="Rectangle-17-Copy-46" stroke="#FFFFFF" stroke-width="2" fill="none" mask="url(#mask-4)" x="138.486204" y="156.861904" width="9.23212444" height="9.23234927" rx="2"></rect>
                        <rect id="Rectangle-17-Copy-47" stroke="#FFFFFF" stroke-width="2" fill="none" mask="url(#mask-4)" x="125.795363" y="156.861904" width="9.23212444" height="9.23234927" rx="2"></rect>
                        <rect id="Rectangle-17-Copy-48" stroke="#FFFFFF" stroke-width="2" fill="none" mask="url(#mask-4)" x="113.104521" y="156.861904" width="9.23212444" height="9.23234927" rx="2"></rect>
                        <rect id="Rectangle-17-Copy-49" stroke="#FFFFFF" stroke-width="2" fill="none" mask="url(#mask-4)" x="100.413679" y="156.861904" width="9.23212444" height="9.23234927" rx="2"></rect>
                        <rect id="Rectangle-17-Copy-50" stroke="#FFFFFF" stroke-width="2" fill="none" mask="url(#mask-4)" x="87.7228368" y="156.861904" width="9.23212444" height="9.23234927" rx="2"></rect>
                        <rect id="Rectangle-17-Copy-51" stroke="#FFFFFF" stroke-width="2" fill="none" mask="url(#mask-4)" x="75.0319949" y="156.861904" width="9.23212444" height="9.23234927" rx="2"></rect>
                        <rect id="Rectangle-17-Copy-52" stroke="#FFFFFF" stroke-width="2" fill="none" mask="url(#mask-4)" x="46.295261" y="156.861904" width="25.2780165" height="9.23234927" rx="2"></rect>
                        <rect id="Rectangle-17-Copy-41" stroke="#FFFFFF" stroke-width="2" fill="none" mask="url(#mask-4)" x="201.940414" y="156.861904" width="25.2780165" height="9.23234927" rx="2"></rect>
                        <rect id="Rectangle-17-Copy-28" stroke="#FFFFFF" stroke-width="2" fill="none" mask="url(#mask-4)" x="68.5589362" y="144.506319" width="9.23212444" height="9.23234927" rx="2"></rect>
                        <rect id="Rectangle-17-Copy-30" stroke="#FFFFFF" stroke-width="2" fill="none" mask="url(#mask-4)" x="81.1950762" y="144.506319" width="9.23212444" height="9.23234927" rx="2"></rect>
                        <rect id="Rectangle-17-Copy-31" stroke="#FFFFFF" stroke-width="2" fill="none" mask="url(#mask-4)" x="93.8312162" y="144.506319" width="9.23212444" height="9.23234927" rx="2"></rect>
                        <rect id="Rectangle-17-Copy-32" stroke="#FFFFFF" stroke-width="2" fill="none" mask="url(#mask-4)" x="106.467356" y="144.506319" width="9.23212444" height="9.23234927" rx="2"></rect>
                        <rect id="Rectangle-17-Copy-33" stroke="#FFFFFF" stroke-width="2" fill="none" mask="url(#mask-4)" x="119.103496" y="144.506319" width="9.23212444" height="9.23234927" rx="2"></rect>
                        <rect id="Rectangle-17-Copy-34" stroke="#FFFFFF" stroke-width="2" fill="none" mask="url(#mask-4)" x="131.739636" y="144.506319" width="9.23212444" height="9.23234927" rx="2"></rect>
                        <rect id="Rectangle-17-Copy-35" stroke="#FFFFFF" stroke-width="2" fill="none" mask="url(#mask-4)" x="144.375776" y="144.506319" width="9.23212444" height="9.23234927" rx="2"></rect>
                        <rect id="Rectangle-17-Copy-36" stroke="#FFFFFF" stroke-width="2" fill="none" mask="url(#mask-4)" x="157.011916" y="144.506319" width="9.23212444" height="9.23234927" rx="2"></rect>
                        <rect id="Rectangle-17-Copy-37" stroke="#FFFFFF" stroke-width="2" fill="none" mask="url(#mask-4)" x="169.648056" y="144.506319" width="9.23212444" height="9.23234927" rx="2"></rect>
                        <rect id="Rectangle-17-Copy-38" stroke="#FFFFFF" stroke-width="2" fill="none" mask="url(#mask-4)" x="182.284196" y="144.506319" width="9.23212444" height="9.23234927" rx="2"></rect>
                        <rect id="Rectangle-17-Copy-39" stroke="#FFFFFF" stroke-width="2" fill="none" mask="url(#mask-4)" x="194.920336" y="144.506319" width="9.23212444" height="9.23234927" rx="2"></rect>
                        <rect id="Rectangle-17-Copy-40" stroke="#FFFFFF" stroke-width="2" fill="none" mask="url(#mask-4)" x="207.556476" y="144.506319" width="19.6619543" height="9.23234927" rx="2"></rect>
                        <rect id="Rectangle-17-Copy-29" stroke="#FFFFFF" stroke-width="2" fill="none" mask="url(#mask-4)" x="46.295261" y="144.506319" width="18.8596597" height="9.23234927" rx="2"></rect>
                        <rect id="Rectangle-17-Copy-14" stroke="#FFFFFF" stroke-width="2" fill="none" mask="url(#mask-4)" x="217.986306" y="132.150735" width="9.23212444" height="9.23234927" rx="2"></rect>
                        <rect id="Rectangle-17-Copy-15" stroke="#FFFFFF" stroke-width="2" fill="none" mask="url(#mask-4)" x="205.273022" y="132.150735" width="9.23212444" height="9.23234927" rx="2"></rect>
                        <rect id="Rectangle-17-Copy-16" stroke="#FFFFFF" stroke-width="2" fill="none" mask="url(#mask-4)" x="192.559739" y="132.150735" width="9.23212444" height="9.23234927" rx="2"></rect>
                        <rect id="Rectangle-17-Copy-17" stroke="#FFFFFF" stroke-width="2" fill="none" mask="url(#mask-4)" x="179.846455" y="132.150735" width="9.23212444" height="9.23234927" rx="2"></rect>
                        <rect id="Rectangle-17-Copy-18" stroke="#FFFFFF" stroke-width="2" fill="none" mask="url(#mask-4)" x="154.419887" y="132.150735" width="9.23212444" height="9.23234927" rx="2"></rect>
                        <rect id="Rectangle-17-Copy-20" stroke="#FFFFFF" stroke-width="2" fill="none" mask="url(#mask-4)" x="141.706604" y="132.150735" width="9.23212444" height="9.23234927" rx="2"></rect>
                        <rect id="Rectangle-17-Copy-21" stroke="#FFFFFF" stroke-width="2" fill="none" mask="url(#mask-4)" x="128.99332" y="132.150735" width="9.23212444" height="9.23234927" rx="2"></rect>
                        <rect id="Rectangle-17-Copy-22" stroke="#FFFFFF" stroke-width="2" fill="none" mask="url(#mask-4)" x="116.280036" y="132.150735" width="9.23212444" height="9.23234927" rx="2"></rect>
                        <rect id="Rectangle-17-Copy-23" stroke="#FFFFFF" stroke-width="2" fill="none" mask="url(#mask-4)" x="103.566753" y="132.150735" width="9.23212444" height="9.23234927" rx="2"></rect>
                        <rect id="Rectangle-17-Copy-24" stroke="#FFFFFF" stroke-width="2" fill="none" mask="url(#mask-4)" x="90.8534689" y="132.150735" width="9.23212444" height="9.23234927" rx="2"></rect>
                        <rect id="Rectangle-17-Copy-25" stroke="#FFFFFF" stroke-width="2" fill="none" mask="url(#mask-4)" x="78.1401852" y="132.150735" width="9.23212444" height="9.23234927" rx="2"></rect>
                        <rect id="Rectangle-17-Copy-26" stroke="#FFFFFF" stroke-width="2" fill="none" mask="url(#mask-4)" x="65.4269015" y="132.150735" width="9.23212444" height="9.23234927" rx="2"></rect>
                        <rect id="Rectangle-17-Copy-27" stroke="#FFFFFF" stroke-width="2" fill="none" mask="url(#mask-4)" x="46.295261" y="132.150735" width="15.6504813" height="9.23234927" rx="2"></rect>
                        <rect id="Rectangle-17-Copy-19" stroke="#FFFFFF" stroke-width="2" fill="none" mask="url(#mask-4)" x="167.133171" y="132.150735" width="9.23212444" height="9.23234927" rx="2"></rect>
                        <rect id="Rectangle-17" stroke="#FFFFFF" stroke-width="2" fill="none" mask="url(#mask-4)" x="46.295261" y="119.795151" width="9.23212444" height="9.23234927" rx="2"></rect>
                        <rect id="Rectangle-17-Copy" stroke="#FFFFFF" stroke-width="2" fill="none" mask="url(#mask-4)" x="59.0085447" y="119.795151" width="9.23212444" height="9.23234927" rx="2"></rect>
                        <rect id="Rectangle-17-Copy-2" stroke="#FFFFFF" stroke-width="2" fill="none" mask="url(#mask-4)" x="71.7218284" y="119.795151" width="9.23212444" height="9.23234927" rx="2"></rect>
                        <rect id="Rectangle-17-Copy-3" stroke="#FFFFFF" stroke-width="2" fill="none" mask="url(#mask-4)" x="84.4351121" y="119.795151" width="9.23212444" height="9.23234927" rx="2"></rect>
                        <rect id="Rectangle-17-Copy-4" stroke="#FFFFFF" stroke-width="2" fill="none" mask="url(#mask-4)" x="97.1483958" y="119.795151" width="9.23212444" height="9.23234927" rx="2"></rect>
                        <rect id="Rectangle-17-Copy-5" stroke="#FFFFFF" stroke-width="2" fill="none" mask="url(#mask-4)" x="109.86168" y="119.795151" width="9.23212444" height="9.23234927" rx="2"></rect>
                        <rect id="Rectangle-17-Copy-6" stroke="#FFFFFF" stroke-width="2" fill="none" mask="url(#mask-4)" x="122.574963" y="119.795151" width="9.23212444" height="9.23234927" rx="2"></rect>
                        <rect id="Rectangle-17-Copy-7" stroke="#FFFFFF" stroke-width="2" fill="none" mask="url(#mask-4)" x="135.288247" y="119.795151" width="9.23212444" height="9.23234927" rx="2"></rect>
                        <rect id="Rectangle-17-Copy-8" stroke="#FFFFFF" stroke-width="2" fill="none" mask="url(#mask-4)" x="148.001531" y="119.795151" width="9.23212444" height="9.23234927" rx="2"></rect>
                        <rect id="Rectangle-17-Copy-9" stroke="#FFFFFF" stroke-width="2" fill="none" mask="url(#mask-4)" x="160.714814" y="119.795151" width="9.23212444" height="9.23234927" rx="2"></rect>
                        <rect id="Rectangle-17-Copy-10" stroke="#FFFFFF" stroke-width="2" fill="none" mask="url(#mask-4)" x="173.428098" y="119.795151" width="9.23212444" height="9.23234927" rx="2"></rect>
                        <rect id="Rectangle-17-Copy-11" stroke="#FFFFFF" stroke-width="2" fill="none" mask="url(#mask-4)" x="186.141382" y="119.795151" width="9.23212444" height="9.23234927" rx="2"></rect>
                        <rect id="Rectangle-17-Copy-12" stroke="#FFFFFF" stroke-width="2" fill="none" mask="url(#mask-4)" x="198.854665" y="119.795151" width="9.23212444" height="9.23234927" rx="2"></rect>
                        <rect id="Rectangle-17-Copy-13" stroke="#FFFFFF" stroke-width="2" fill="none" mask="url(#mask-4)" x="211.567949" y="119.795151" width="15.6504813" height="9.23234927" rx="2"></rect>
                        <path d="M4.12678551,0.463458173 C7.82762149,0.463458173 265.089161,0.463458173 268.900623,0.463458173 C272.712086,0.463458173 273.371009,3.26641044 272.712086,6.34264512 C272.053163,9.4188798 253.45006,86.1354651 252.724746,89.1239659 C252.241202,91.1162997 250.641565,92.3958061 247.925834,92.9624852 L26.5075322,92.9624852 C23.0162066,92.9624852 20.9164107,91.4190324 20.2081444,88.3321268 C19.145745,83.7017683 1.11764663,9.20053063 0.425949527,6.34264512 C-0.265747577,3.48475961 0.425949527,0.463458173 4.12678551,0.463458173 Z" id="Path-85" stroke="#FFFFFF" stroke-width="2" fill="none" mask="url(#mask-4)"></path>
                        <mask id="mask-6" fill="white">
                            <use xlink:href="#path-5"></use>
                        </mask>
                        <use id="Mask" stroke="#FFFFFF" stroke-width="2" fill="none" xlink:href="#path-5"></use>
                    </g>
                </g>
                <mask id="mask-8" fill="white">
                    <use xlink:href="#path-7"></use>
                </mask>
                <use id="Path-98" stroke="#FFFFFF" stroke-width="2" fill="#EB0128" transform="translate(1235.974437, 509.384290) scale(-1, 1) translate(-1235.974437, -509.384290) " xlink:href="#path-7"></use>
                <mask id="mask-10" fill="white">
                    <use xlink:href="#path-9"></use>
                </mask>
                <use id="Path-98" stroke="#FFFFFF" stroke-width="2" fill="#EB0128" xlink:href="#path-9"></use>
            </g>
        </g>
    </g>
</svg>