<?xml version="1.0" standalone="no"?><!DOCTYPE svg PUBLIC "-//W3C//DTD SVG 1.1//EN" "http://www.w3.org/Graphics/SVG/1.1/DTD/svg11.dtd"><svg t="1590117060255" class="icon" viewBox="0 0 1024 1024" version="1.1" xmlns="http://www.w3.org/2000/svg" p-id="1565" xmlns:xlink="http://www.w3.org/1999/xlink" width="16" height="16"><defs><style type="text/css"></style></defs><path d="M353.59 558.4c-12.31 0-24.56-4.69-33.94-14.06-18.75-18.75-18.75-49.12 0-67.87l316.81-316.78c18.75-18.75 49.12-18.75 67.88 0s18.75 49.12 0 67.88L387.53 544.34c-9.37 9.37-21.62 14.06-33.94 14.06z" fill="#131414" p-id="1566"></path><path d="M670.41 878.4c-12.31 0-24.56-4.69-33.94-14.06L319.66 547.56c-18.75-18.75-18.75-49.12 0-67.87s49.12-18.75 67.88 0l316.81 316.78c18.75 18.75 18.75 49.12 0 67.88-9.38 9.36-21.63 14.05-33.94 14.05z" fill="#131414" p-id="1567"></path></svg>