<?xml version="1.0" encoding="UTF-8"?>
<svg width="26px" height="26px" viewBox="0 0 26 26" version="1.1" xmlns="http://www.w3.org/2000/svg" xmlns:xlink="http://www.w3.org/1999/xlink">
    <!-- Generator: Sketch 57 (83077) - https://sketch.com -->
    <title>京东配送</title>
    <desc>Created with Sketch.</desc>
    <g id="页面-1" stroke="none" stroke-width="1" fill="none" fill-rule="evenodd">
        <g id="商品详情" transform="translate(-1055.000000, -412.000000)">
            <g id="编组-3" transform="translate(1055.000000, 412.000000)">
                <g id="京东配送">
                    <g id="编组-2">
                        <ellipse id="椭圆形-copy-19" fill="#702A2A" cx="13" cy="12.8602151" rx="13" ry="12.8602151"></ellipse>
                        <g id="加号" transform="translate(7.913043, 7.913043)" fill="#FFFFFF" fill-rule="nonzero">
                            <path d="M5.08254507,0 C5.61709551,0 6.05075897,0.433663457 6.05075897,0.968213902 L6.05000608,4.11433117 L9.19762913,4.11433117 C9.7323589,4.11433117 10.165843,4.5478153 10.165843,5.08254507 C10.165843,5.61727484 9.7323589,6.05075897 9.19762913,6.05075897 L6.05000608,6.05000608 L6.05000608,9.19762913 C6.02950801,9.71710255 5.60242275,10.1276677 5.08254507,10.1276677 C4.56266739,10.1276677 4.13558213,9.71710255 4.11508406,9.19762913 L4.11433117,6.05000608 L0.968213902,6.05000608 C0.448740486,6.02950801 0.0381753545,5.60242275 0.0381753545,5.08254507 C0.0381753545,4.56266739 0.448740486,4.13558213 0.968213902,4.11508406 L4.11433117,4.11433117 L4.11433117,0.968213902 C4.11433117,0.433663457 4.54799462,0 5.08254507,0 Z" id="路径"></path>
                        </g>
                    </g>
                </g>
            </g>
        </g>
    </g>
</svg>