<?xml version="1.0" encoding="UTF-8"?>
<svg width="14px" height="14px" viewBox="0 0 14 14" version="1.1" xmlns="http://www.w3.org/2000/svg" xmlns:xlink="http://www.w3.org/1999/xlink">
    <!-- Generator: Sketch 57 (83077) - https://sketch.com -->
    <title>搜索</title>
    <desc>Created with Sketch.</desc>
    <g id="页面-1" stroke="none" stroke-width="1" fill="none" fill-rule="evenodd">
        <g id="订单管理" transform="translate(-1475.000000, -175.000000)" fill="#000000" fill-rule="nonzero">
            <g id="搜索" transform="translate(1474.000000, 174.000000)">
                <rect id="矩形" opacity="0" x="0" y="0" width="16" height="16"></rect>
                <path d="M14.7268072,13.6059911 L12.5606119,11.4385806 C13.404136,10.351014 13.9063715,8.98549183 13.9063715,7.50262522 C13.9063715,3.95260014 11.0284827,1.07475931 7.47850558,1.07475931 C3.9284645,1.07475931 1.05063967,3.95260014 1.05063967,7.50262522 C1.05063967,11.0525863 3.92844852,13.9304911 7.47850558,13.9304911 C8.96242748,13.9304911 10.328845,13.4275361 11.4167794,12.5829408 L13.5830387,14.7504152 C13.7344488,14.9025708 13.9402529,14.9881139 14.154907,14.9881139 C14.369561,14.9881139 14.5753651,14.9025708 14.7267752,14.7504152 C14.87888,14.5988299 14.9643582,14.3929208 14.9643582,14.1781792 C14.9643582,13.9634543 14.8789079,13.7575569 14.7268072,13.6059911 Z M3.48378998,10.1777235 C2.20748731,8.27007289 2.45656644,5.72653341 4.0786027,4.10270636 C4.9780032,3.19723542 6.20226428,2.68920605 7.47850558,2.69184462 C9.77368545,2.69008013 11.7505052,4.30989389 12.1998805,6.56068786 C12.6491918,8.81144984 11.4460076,11.0662411 9.32606892,11.9459646 C7.20616222,12.8256722 4.76007667,12.0853581 3.48378998,10.1777235 Z M8.60833155,4.45099822 C8.31064538,4.12293264 7.83076273,4.12293264 7.53315652,4.45099822 C7.23807658,4.78189387 7.23807658,5.31540416 7.53315652,5.64637975 L9.14783777,7.43740544 C9.44552394,7.76539106 9.92532663,7.76539106 10.2230128,7.43740544 C10.5170215,7.10529461 10.5153426,6.57178433 10.2192394,6.24194397 L8.60833155,4.45099822 L8.60833155,4.45099822 Z" id="形状"></path>
            </g>
        </g>
    </g>
</svg>