<?xml version="1.0" encoding="UTF-8"?>
<svg width="52px" height="52px" viewBox="0 0 52 52" version="1.1" xmlns="http://www.w3.org/2000/svg" xmlns:xlink="http://www.w3.org/1999/xlink">
    <!-- Generator: Sketch 57 (83077) - https://sketch.com -->
    <title>编组 4</title>
    <desc>Created with Sketch.</desc>
    <g id="页面-1" stroke="none" stroke-width="1" fill="none" fill-rule="evenodd">
        <g id="首页" transform="translate(-618.000000, -2758.000000)">
            <g id="编组-4" transform="translate(618.000000, 2758.000000)">
                <circle id="椭圆形备份-2" fill="#2C353F" cx="26" cy="26" r="26"></circle>
                <g id="邮箱" transform="translate(13.000000, 13.000000)" fill-rule="nonzero">
                    <rect id="矩形" fill="#000000" opacity="0" x="0" y="0" width="26" height="26"></rect>
                    <path d="M22.1341295,4.06968611 L3.84939687,4.06968611 C2.16386475,4.06968611 0.801984727,5.43135826 0.801984727,7.11356445 L0.801984727,18.9001809 C0.801984727,20.5824131 2.16386475,21.9455923 3.84939687,21.9455923 L22.1341295,21.9455923 C23.8133736,21.9455923 25.1815676,20.5824131 25.1815676,18.9001809 L25.1815676,7.11356445 C25.1815676,5.43135823 23.8133736,4.06968611 22.1341295,4.06968611 Z M22.0149426,10.9223229 L13.4314582,16.4546276 C13.2980842,16.5418546 13.1442092,16.5848056 12.9917892,16.5848056 C12.8394472,16.5848056 12.6854162,16.5418806 12.5521462,16.4546276 L3.96528389,10.9223229 C3.58742993,10.6796358 3.4795719,10.1765148 3.72090786,9.7987388 C3.96528389,9.42262575 4.46679396,9.31471574 4.84464789,9.55753277 L12.9917892,14.8057844 L21.1357085,9.55753277 C21.5087295,9.31471574 22.0149686,9.42265175 22.2579675,9.7987388 C22.5023435,10.1765148 22.3927965,10.6796358 22.0149426,10.9223229 Z" id="形状" fill="#FFFFFF"></path>
                </g>
            </g>
        </g>
    </g>
</svg>