<?xml version="1.0" encoding="UTF-8"?>
<svg width="52px" height="52px" viewBox="0 0 52 52" version="1.1" xmlns="http://www.w3.org/2000/svg" xmlns:xlink="http://www.w3.org/1999/xlink">
    <!-- Generator: Sketch 57 (83077) - https://sketch.com -->
    <title>编组 6</title>
    <desc>Created with Sketch.</desc>
    <g id="页面-1" stroke="none" stroke-width="1" fill="none" fill-rule="evenodd">
        <g id="首页" transform="translate(-360.000000, -2758.000000)">
            <g id="编组-6" transform="translate(360.000000, 2758.000000)">
                <circle id="椭圆形" fill="#2C353F" cx="26" cy="26" r="26"></circle>
                <g id="电话" transform="translate(13.000000, 13.000000)" fill-rule="nonzero">
                    <rect id="矩形" fill="#000000" opacity="0" x="0" y="0" width="25" height="25"></rect>
                    <path d="M15.5833224,18.1037848 L16.2666557,17.6787848 C16.5333224,17.5183681 16.7520724,17.3975348 16.9729057,17.2996181 C18.5208224,16.5933681 19.8854057,17.0912848 21.6895724,19.1996181 C22.806239,20.5079514 23.1354057,21.6642014 22.7041557,22.6975348 C22.3833224,23.4683681 21.7666557,23.9996181 20.662489,24.6558681 C20.593739,24.6975348 19.9604057,25.0683681 19.7958224,25.1683681 C17.2333224,26.7517014 11.3583224,23.1287848 7.13332235,16.9412848 C2.89165568,10.7392014 1.79790568,4.12670141 4.39582235,2.52045141 L4.737489,2.30170141 L5.11040568,2.06211809 C6.42290568,1.21211809 7.26457235,0.874618088 8.26040568,1.04128476 C9.256239,1.21211809 10.1020724,1.94753476 10.818739,3.28920141 C12.3291557,6.12670141 11.9958223,7.47253474 10.0541557,8.69753476 C9.91457235,8.78711809 9.418739,9.08503476 9.37082235,9.11420141 C8.89582235,9.41003474 9.70207235,11.3850347 11.5791557,14.1287848 C13.474989,16.9037848 15.0604057,18.4246181 15.5791557,18.1037848 L15.5833224,18.1037848 Z" id="路径" fill="#FFFFFF"></path>
                </g>
            </g>
        </g>
    </g>
</svg>