<?xml version="1.0" encoding="UTF-8"?>
<svg width="230px" height="23px" viewBox="0 0 230 23" version="1.1" xmlns="http://www.w3.org/2000/svg" xmlns:xlink="http://www.w3.org/1999/xlink">
    <!-- Generator: Sketch 59 (86127) - https://sketch.com -->
    <title>Cultural&amp;Creative</title>
    <desc>Created with Sketch.</desc>
    <g id="页面-1" stroke="none" stroke-width="1" fill="none" fill-rule="evenodd">
        <g id="首页" transform="translate(-395.000000, -483.000000)" fill="#000000" fill-rule="nonzero">
            <path d="M395.885,490.42 C396.325002,489.199994 396.939996,488.180004 397.73,487.36 C398.520004,486.539996 399.439995,485.880002 400.49,485.38 C401.540005,484.879998 402.709994,484.525001 404,484.315 C405.290006,484.104999 406.654993,484 408.095,484 C408.355001,484.360002 408.594999,484.789998 408.815,485.29 C409.035001,485.790003 409.204999,486.279998 409.325,486.76 C409.445001,487.240002 409.495,487.659998 409.475,488.02 C409.455,488.380002 409.345001,488.6 409.145,488.68 C408.964999,488.439999 408.630002,488.230001 408.14,488.05 C407.649998,487.869999 407.125003,487.725001 406.565,487.615 C406.004997,487.504999 405.460003,487.445 404.93,487.435 C404.399997,487.425 403.995001,487.469999 403.715,487.57 C402.554994,488.010002 401.610004,488.599996 400.88,489.34 C400.149996,490.080004 399.615002,490.899995 399.275,491.8 C398.934998,492.700004 398.78,493.629995 398.81,494.59 C398.84,495.550005 399.039998,496.464996 399.41,497.335 C399.780002,498.205004 400.304997,498.989997 400.985,499.69 C401.665003,500.390003 402.479995,500.929998 403.43,501.31 C404.380005,501.690002 405.459994,501.865 406.67,501.835 C407.880006,501.805 409.194993,501.490003 410.615,500.89 C410.374999,501.690004 409.910003,502.379997 409.22,502.96 C408.529997,503.540003 407.715005,503.969999 406.775,504.25 C405.834995,504.530001 404.835005,504.65 403.775,504.61 C402.714995,504.57 401.695005,504.330002 400.715,503.89 C399.354993,503.289997 398.245004,502.505005 397.385,501.535 C396.524996,500.564995 395.900002,499.485006 395.51,498.295 C395.119998,497.104994 394.955,495.835007 395.015,494.485 C395.075,493.134993 395.364997,491.780007 395.885,490.42 Z M402.785,485.26 C402.758333,485.326667 402.738333,485.382222 402.725,485.426667 L402.71,485.485 C402.7,485.535 402.685,485.659999 402.665,485.86 C402.705,485.88 402.75,485.895 402.8,485.905 C402.85,485.915 402.925,485.92 403.025,485.92 C403.125,485.84 403.244999,485.79 403.385,485.77 C403.525001,485.75 403.674999,485.74 403.835,485.74 L403.895,485.64 L403.895,485.64 L403.985,485.41 L403.985,485.41 L403.775,485.32 C403.735,485.3 403.635001,485.28 403.475,485.26 C403.448333,485.233333 403.412778,485.215555 403.368333,485.206667 L403.295,485.2 C403.215,485.2 403.125,485.18 403.025,485.14 C402.965,485.2 402.885,485.24 402.785,485.26 Z M397.835,495.37 L397.595,495.37 L397.505,495.58 C397.485,495.62 397.465,495.719999 397.445,495.88 L397.595,495.88 L397.655,495.933333 C397.661667,495.937778 397.666667,495.94 397.67,495.94 L397.768437,495.956875 C397.787812,495.960625 397.81,495.965 397.835,495.97 L397.91,495.775 L397.91,495.775 C397.92,495.745 397.935,495.67 397.955,495.55 L397.835,495.37 Z M408.245,502.24 C408.285,502.2 408.318333,502.171111 408.345,502.153333 L408.38,502.135 C408.41,502.125 408.455,502.1 408.515,502.06 L408.515,501.97 L408.335,501.97 L408.235,502.063333 L408.235,502.063333 L408.073438,502.185625 C408.052813,502.201875 408.03,502.22 408.005,502.24 L408.245,502.24 Z M405.125,503.29 L404.885,503.29 L404.8634,503.3836 C404.857,503.406 404.8514,503.4196 404.8466,503.4244 C404.83,503.415 404.845,503.459999 404.885,503.56 L404.945,503.586667 L404.945,503.586667 L405.125,503.62 L405.125,503.62 C405.125,503.56 405.145,503.470001 405.185,503.35 C405.145,503.35 405.125,503.33 405.125,503.29 Z M423.905,501.73 C424.085001,502.310003 424.259999,502.859997 424.43,503.38 C424.600001,503.900003 424.754999,504.269999 424.895,504.49 C424.750999,504.49 424.575001,504.506 424.367,504.538 L424.205,504.565 C423.924999,504.615 423.645001,504.66 423.365,504.7 C423.084999,504.74 422.820001,504.765 422.57,504.775 C422.369999,504.783 422.2116,504.7558 422.0948,504.6934 L422.015,504.64 C421.798332,504.506666 421.626806,504.314306 421.500417,504.062917 L421.43,503.905 C421.299999,503.574998 421.135001,503.310001 420.935,503.11 C420.094996,503.730003 419.215005,504.114999 418.295,504.265 C417.374995,504.415001 416.520004,504.380001 415.73,504.16 C414.939996,503.939999 414.270003,503.550003 413.72,502.99 C413.169997,502.429997 412.855,501.750004 412.775,500.95 C412.695,500.209996 412.655,499.405004 412.655,498.535 C412.655,497.664996 412.66,496.790004 412.67,495.91 L412.7,493.3 L412.7,493.3 C412.71,492.439996 412.685,491.640004 412.625,490.9 L412.8725,490.79875 C412.9675,490.76125 413.074999,490.72 413.195,490.675 C413.435001,490.585 413.694999,490.5 413.975,490.42 C414.255001,490.34 414.534999,490.28 414.815,490.24 C415.095001,490.2 415.344999,490.21 415.565,490.27 L415.517891,491.045547 C415.490547,491.519765 415.46125,492.066247 415.43,492.685 C415.38,493.675005 415.345,494.679995 415.325,495.7 C415.305,496.720005 415.325,497.669996 415.385,498.55 C415.445,499.430004 415.564999,500.069998 415.745,500.47 C415.825,500.850002 416.004999,501.154999 416.285,501.385 C416.565001,501.615001 416.889998,501.77 417.26,501.85 C417.630002,501.93 418.019998,501.94 418.43,501.88 C418.840002,501.82 419.209998,501.700001 419.54,501.52 C419.870002,501.339999 420.129999,501.105001 420.32,500.815 C420.510001,500.524999 420.575,500.180002 420.515,499.78 L420.5366,499.0456 C420.5462,498.659201 420.554,498.244002 420.56,497.8 C420.57,497.059996 420.575,496.290004 420.575,495.49 C420.575,494.956664 420.572778,494.418889 420.568333,493.876668 L420.56,493.06 C420.55,492.239996 420.545,491.450004 420.545,490.69 C420.605,490.65 420.774999,490.59 421.055,490.51 C421.335001,490.43 421.654998,490.36 422.015,490.3 C422.375002,490.24 422.724998,490.205 423.065,490.195 C423.405002,490.185 423.654999,490.21 423.815,490.27 C423.714999,490.910003 423.635,491.724995 423.575,492.715 C423.515,493.705005 423.48,494.744995 423.47,495.835 C423.46,496.925005 423.485,497.994995 423.545,499.045 C423.605,500.095005 423.724999,500.989996 423.905,501.73 Z M421.505,494.74 L421.505,495.28 C421.505,495.460001 421.525,495.629999 421.565,495.79 L421.625,495.79 L421.625,495.16 L421.505,494.74 Z M414.365,498.55 C414.305,498.730001 414.29,498.865 414.32,498.955 L414.412812,499.216562 C414.425937,499.252187 414.44,499.29 414.455,499.33 L414.575,499.33 L414.575,498.73 L414.365,498.55 Z M414.455,500.29 C414.415,500.29 414.385,500.349999 414.365,500.47 L414.455,500.47 L414.455,500.29 Z M422.285,501.73 C422.315,501.805 422.336563,501.905312 422.349688,502.030937 L422.36,502.165 C422.37,502.355001 422.395,502.48 422.435,502.54 C422.435,502.419999 422.443437,502.3225 422.460312,502.2475 L422.48,502.18 C422.51,502.1 422.535,502.000001 422.555,501.88 L422.495,501.73 L422.285,501.73 Z M426.635,484.78 C426.655,484.659999 426.759999,484.545001 426.95,484.435 C427.140001,484.324999 427.384998,484.22 427.685,484.12 C427.985002,484.019999 428.319998,483.93 428.69,483.85 C429.060002,483.77 429.434998,483.7 429.815,483.64 L429.825651,483.879911 C429.833935,484.213046 429.830385,484.768073 429.815,485.545 L429.786172,486.761407 C429.770547,487.337655 429.751172,487.961403 429.728047,488.632654 L429.66,490.568335 L429.66,490.568335 L429.5306,494.559402 L429.5306,494.559402 L429.295,502.900002 C429.281667,503.473335 429.275,503.893332 429.275,504.16 C428.714997,504.660003 427.655008,504.999999 426.095,505.18 L426.134259,504.878518 C426.172778,504.542222 426.209074,504.101484 426.243148,503.556297 L426.300408,502.494999 C426.325714,501.952143 426.347755,501.363574 426.366531,500.729287 L426.425,498.445 L426.425,498.445 L426.47,496.495 C426.49,495.594995 426.507778,494.688333 426.523333,493.775002 L426.559063,491.371561 L426.559063,491.371561 L426.605612,486.744081 C426.613775,486.051837 426.623571,485.397146 426.635,484.78 Z M428.705,486.82 L428.375,486.43 L428.285,486.43 L428.615,486.82 L428.705,486.82 Z M428.135,487.75 C428.255001,487.69 428.31,487.67 428.3,487.69 C428.29,487.71 428.305,487.640001 428.345,487.48 L428.105,487.48 C428.12,487.54 428.126563,487.5775 428.124688,487.5925 C428.11,487.6 428.125,487.62 428.165,487.66 L428.135,487.75 Z M427.115,501.13 L427.175,501.13 C427.235,500.969999 427.27,500.785001 427.28,500.575 C427.29,500.364999 427.305,500.160001 427.325,499.96 C427.295,499.99 427.267813,500.039687 427.243438,500.109062 L427.145,500.44 L427.145,500.44 L427.115,501.13 Z M443.465,501.16 C443.405,501.550002 443.370312,501.934375 443.360937,502.313124 L443.36,502.69 C443.37,503.190002 443.345,503.589998 443.285,503.89 C442.864998,504.310002 442.335003,504.624999 441.695,504.835 C441.054997,505.045001 440.400003,505.15 439.73,505.15 C439.059997,505.15 438.420003,505.060001 437.81,504.88 C437.199997,504.699999 436.725002,504.440002 436.385,504.1 C436.004998,503.739998 435.765,503.280003 435.665,502.72 C435.564999,502.159997 435.515,501.490004 435.515,500.71 C435.515,499.93 435.535,499.040005 435.575,498.04 C435.615,497.039995 435.595,495.920006 435.515,494.68 C435.354999,494.64 435.150001,494.62 434.9,494.62 C434.733332,494.62 434.553333,494.622222 434.36,494.626667 L434.06,494.635 C433.749998,494.645 433.430002,494.66 433.1,494.68 C432.769998,494.7 432.455001,494.7 432.155,494.68 C432.075,494.64 431.985001,494.530001 431.885,494.35 L431.678333,493.97 C431.642778,493.903334 431.606667,493.835 431.57,493.765 C431.496666,493.624999 431.427778,493.482778 431.363333,493.338334 L431.27,493.12 C431.18,492.899999 431.095,492.730001 431.015,492.61 L431.387,492.6052 C431.590999,492.6004 431.821999,492.592 432.08,492.58 L432.953333,492.533333 C433.10111,492.524445 433.249999,492.515 433.4,492.505 C433.850002,492.475 434.274998,492.44 434.675,492.4 L435.2075,492.34 C435.3625,492.32 435.494999,492.3 435.605,492.28 L435.605,486.97 C435.785001,486.849999 436.044998,486.715001 436.385,486.565 C436.725002,486.414999 437.074998,486.285001 437.435,486.175 C437.795002,486.064999 438.129998,485.99 438.44,485.95 C438.750002,485.91 438.964999,485.93 439.085,486.01 L438.98,487.45 C438.93,488.110003 438.89,488.774997 438.86,489.445 C438.836,489.981003 438.8216,490.465799 438.8168,490.899399 L438.815,491.215 C438.815,491.725003 438.855,491.97 438.935,491.95 L439.475,491.92 L439.475,491.92 L441.095,491.80375 L441.095,491.80375 L442.2902,491.734 C442.4054,491.726 442.507,491.718 442.595,491.71 C442.775001,491.890001 442.944999,492.104999 443.105,492.355 C443.265001,492.605001 443.399999,492.844999 443.51,493.075 C443.620001,493.305001 443.695,493.509999 443.735,493.69 C443.775,493.870001 443.765,493.98 443.705,494.02 C443.544999,494.08 443.245002,494.115 442.805,494.125 L442.11125,494.13625 L442.11125,494.13625 L441.35,494.14 C440.819997,494.14 440.315002,494.15 439.835,494.17 C439.354998,494.19 438.995001,494.23 438.755,494.29 C438.695,494.670002 438.66,495.149997 438.65,495.73 C438.64,496.310003 438.64,496.889997 438.65,497.47 C438.656667,497.856669 438.665556,498.23 438.676667,498.589999 L438.720714,499.716939 C438.732143,499.950408 438.743571,500.141428 438.755,500.29 C438.755,501.050004 438.874999,501.619998 439.115,502 C439.355001,502.380002 439.684998,502.595 440.105,502.645 C440.525002,502.695 441.024997,502.595001 441.605,502.345 C442.185003,502.094999 442.804997,501.700003 443.465,501.16 Z M437.585,502.75 C437.444999,502.409998 437.425,502.105001 437.525,501.835 C437.6,501.632499 437.658125,501.444063 437.699375,501.269688 L437.735,501.1 C437.755,501.02 437.77,500.925001 437.78,500.815 C437.79,500.704999 437.775,500.64 437.735,500.62 L437.62625,500.77375 C437.58375,500.83625 437.535,500.91 437.48,500.995 C437.369999,501.165001 437.28,501.354999 437.21,501.565 C437.14,501.775001 437.125,501.984999 437.165,502.195 C437.205,502.405001 437.344999,502.589999 437.585,502.75 Z M457.265,501.73 C457.445001,502.310003 457.619999,502.859997 457.79,503.38 C457.960001,503.900003 458.114999,504.269999 458.255,504.49 C458.110999,504.49 457.935001,504.506 457.727,504.538 L457.565,504.565 C457.284999,504.615 457.005001,504.66 456.725,504.7 C456.444999,504.74 456.180001,504.765 455.93,504.775 C455.729999,504.783 455.5716,504.7558 455.4548,504.6934 L455.375,504.64 C455.114999,504.479999 454.920001,504.235002 454.79,503.905 C454.659999,503.574998 454.495001,503.310001 454.295,503.11 C453.454996,503.730003 452.575005,504.114999 451.655,504.265 C450.734995,504.415001 449.880004,504.380001 449.09,504.16 C448.299996,503.939999 447.630003,503.550003 447.08,502.99 C446.529997,502.429997 446.215,501.750004 446.135,500.95 C446.055,500.209996 446.015,499.405004 446.015,498.535 L446.01875,497.22625 L446.01875,497.22625 L446.03,495.91 C446.04,495.029996 446.05,494.160004 446.06,493.3 C446.07,492.439996 446.045,491.640004 445.985,490.9 L446.2325,490.79875 C446.3275,490.76125 446.434999,490.72 446.555,490.675 C446.795001,490.585 447.054999,490.5 447.335,490.42 C447.615001,490.34 447.894999,490.28 448.175,490.24 C448.455001,490.2 448.704999,490.21 448.925,490.27 L448.877891,491.045547 C448.850547,491.519765 448.82125,492.066247 448.79,492.685 C448.74,493.675005 448.705,494.679995 448.685,495.7 C448.665,496.720005 448.685,497.669996 448.745,498.55 C448.805,499.430004 448.924999,500.069998 449.105,500.47 C449.185,500.850002 449.364999,501.154999 449.645,501.385 C449.925001,501.615001 450.249998,501.77 450.62,501.85 C450.990002,501.93 451.379998,501.94 451.79,501.88 C452.200002,501.82 452.569998,501.700001 452.9,501.52 C453.230002,501.339999 453.489999,501.105001 453.68,500.815 C453.870001,500.524999 453.935,500.180002 453.875,499.78 L453.8966,499.0456 C453.903,498.788 453.9086,498.517601 453.9134,498.234401 L453.92,497.8 C453.93,497.059996 453.935,496.290004 453.935,495.49 C453.935,494.956664 453.932778,494.418889 453.928333,493.876668 L453.92,493.06 C453.91,492.239996 453.905,491.450004 453.905,490.69 C453.965,490.65 454.134999,490.59 454.415,490.51 C454.695001,490.43 455.014998,490.36 455.375,490.3 C455.735002,490.24 456.084998,490.205 456.425,490.195 C456.765002,490.185 457.014999,490.21 457.175,490.27 C457.074999,490.910003 456.995,491.724995 456.935,492.715 C456.875,493.705005 456.84,494.744995 456.83,495.835 C456.82,496.925005 456.845,497.994995 456.905,499.045 C456.965,500.095005 457.084999,500.989996 457.265,501.73 Z M454.865,494.74 L454.865,495.28 C454.865,495.460001 454.885,495.629999 454.925,495.79 L454.985,495.79 L454.985,495.16 L454.865,494.74 Z M447.725,498.55 C447.665,498.730001 447.65,498.865 447.68,498.955 L447.772812,499.216562 C447.785937,499.252187 447.8,499.29 447.815,499.33 L447.935,499.33 L447.935,498.73 L447.725,498.55 Z M447.815,500.29 C447.775,500.29 447.745,500.349999 447.725,500.47 L447.815,500.47 L447.815,500.29 Z M455.645,501.73 C455.675,501.805 455.696563,501.905312 455.709688,502.030937 L455.72,502.165 C455.73,502.355001 455.755,502.48 455.795,502.54 C455.795,502.419999 455.803437,502.3225 455.820312,502.2475 L455.84,502.18 C455.87,502.1 455.895,502.000001 455.915,501.88 L455.855,501.73 L455.645,501.73 Z M468.605,493.66 C468.124998,493.66 467.625003,493.729999 467.105,493.87 C466.584997,494.010001 466.085002,494.214999 465.605,494.485 C465.124998,494.755001 464.675002,495.089998 464.255,495.49 C463.834998,495.890002 463.485001,496.359997 463.205,496.9 C463.145,497.720004 463.105,498.534996 463.085,499.345 L463.0466,501.154599 L463.0466,501.154599 L463.01,503.245 L463.01,503.245 L462.999688,503.547813 C462.986563,503.815939 462.965,503.98 462.935,504.04 L461.975,504.355 L461.975,504.355 C461.634998,504.465001 461.320001,504.555 461.03,504.625 C460.739999,504.695 460.505001,504.735 460.325,504.745 C460.144999,504.755 460.055,504.71 460.055,504.61 L460.058704,504.135925 C460.064876,503.712469 460.078765,503.218027 460.10037,502.652594 L460.1876,500.555199 C460.2152,499.842401 460.241,499.099004 460.265,498.325 C460.305,497.034994 460.325,495.740006 460.325,494.44 C460.325,493.139994 460.265001,491.980005 460.145,490.96 C460.209,490.96 460.317799,490.9312 460.4714,490.8736 L460.955,490.6825 C461.085,490.6325 461.224999,490.58 461.375,490.525 C461.675002,490.414999 461.994998,490.310001 462.335,490.21 C462.675002,490.11 462.984999,490.04 463.265,490 L463.182969,490.851484 L463.182969,490.851484 L463.175,490.915 C463.161667,491.015001 463.150556,491.119444 463.141667,491.228333 L463.13,491.395 C463.123333,491.508334 463.118889,491.663888 463.116667,491.861666 L463.115,494.05 C463.475002,493.489997 463.994997,492.920003 464.675,492.34 C465.355003,491.759997 466.154995,491.300002 467.075,490.96 C467.335001,491.180001 467.574999,491.439999 467.795,491.74 C468.015001,492.040002 468.194999,492.334999 468.335,492.625 C468.475001,492.915001 468.57,493.159999 468.62,493.36 C468.67,493.560001 468.665,493.66 468.605,493.66 Z M473.825,491.5 C474.925005,491.079998 475.909996,490.89 476.78,490.93 C477.650004,490.97 478.514996,491.219998 479.375,491.68 C479.695002,491.519999 480.099998,491.355001 480.59,491.185 C481.080002,491.014999 481.524998,490.820001 481.925,490.6 C481.764999,492.360009 481.665,494.039992 481.625,495.64 L481.599687,496.805315 C481.5825,497.747502 481.575078,498.617419 481.577422,499.415077 L481.58,499.885 C481.588889,500.978339 481.605679,501.885986 481.63037,502.607962 L481.674896,503.642918 C481.689965,503.920973 481.703333,504.083333 481.715,504.13 C481.494999,504.350001 481.215002,504.529999 480.875,504.67 C480.534998,504.810001 480.200002,504.925 479.87,505.015 C479.539998,505.105 479.255001,505.17 479.015,505.21 L478.625,505.27 L478.625,505.27 L478.625,503.26 C478.224998,503.640002 477.815002,503.974999 477.395,504.265 C476.974998,504.555001 476.475003,504.72 475.895,504.76 C474.654994,504.860001 473.590004,504.655003 472.7,504.145 C471.809996,503.634997 471.115002,502.955004 470.615,502.105 C470.114997,501.254996 469.805001,500.305005 469.685,499.255 C469.564999,498.204995 469.634999,497.170005 469.895,496.15 C470.155001,495.129995 470.609997,494.200004 471.26,493.36 C471.910003,492.519996 472.764995,491.900002 473.825,491.5 Z M477.305,493.18 C476.104994,493.320001 475.150004,493.674997 474.44,494.245 C473.729996,494.815003 473.240001,495.479996 472.97,496.24 C472.699999,497.000004 472.634999,497.784996 472.775,498.595 C472.915001,499.405004 473.229998,500.114997 473.72,500.725 C474.210002,501.335003 474.869996,501.779999 475.7,502.06 C476.530004,502.340001 477.494994,502.320002 478.595,502 L478.663148,500.444443 C478.686605,499.848148 478.703889,499.316669 478.715,498.85 L478.735204,497.836122 C478.741735,497.414898 478.745,497.032859 478.745,496.69 L478.7396,495.6748 L478.7396,495.6748 L478.73,495.07 C478.72,494.589998 478.725,494.070003 478.745,493.51 L478.1,493.27 L478.1,493.27 C477.829999,493.17 477.565001,493.14 477.305,493.18 Z M471.635,496.03 C471.755001,496.03 471.85,496.025 471.92,496.015 C471.99,496.005 472.074999,495.98 472.175,495.94 L472.0094,495.9424 C471.9398,495.9448 471.89,495.949 471.86,495.955 C471.81,495.965 471.735,495.99 471.635,496.03 Z M475.325,503.26 C475.645002,503.360001 475.999998,503.415 476.39,503.425 C476.780002,503.435 477.164998,503.370001 477.545,503.23 C477.364999,503.19 477.185001,503.175 477.005,503.185 L476.465,503.215 C476.284999,503.225 476.105001,503.23 475.925,503.23 C475.744999,503.23 475.565001,503.2 475.385,503.14 L475.235,503.23 L475.325,503.26 Z M483.965,484.78 C483.985,484.659999 484.089999,484.545001 484.28,484.435 C484.470001,484.324999 484.714998,484.22 485.015,484.12 C485.315001,484.019999 485.649998,483.93 486.02,483.85 C486.390002,483.77 486.764998,483.7 487.145,483.64 L487.155651,483.879911 C487.163935,484.213046 487.160385,484.768073 487.145,485.545 L487.116172,486.761407 C487.100547,487.337655 487.081172,487.961403 487.058047,488.632654 L486.99,490.568335 L486.99,490.568335 L486.8606,494.559402 L486.8606,494.559402 L486.625,502.900002 C486.611667,503.473335 486.605,503.893332 486.605,504.16 C486.044997,504.660003 484.985008,504.999999 483.425,505.18 L483.464259,504.878518 C483.502778,504.542222 483.539074,504.101484 483.573148,503.556297 L483.630408,502.494999 C483.655714,501.952143 483.677755,501.363574 483.696531,500.729287 L483.755,498.445 L483.755,498.445 L483.8,496.495 C483.82,495.594995 483.837778,494.688333 483.853333,493.775002 L483.875,492.4 C483.89,491.364995 483.902188,490.349689 483.911562,489.354064 L483.935612,486.744081 C483.943775,486.051837 483.953571,485.397146 483.965,484.78 Z M486.035,486.82 L485.705,486.43 L485.615,486.43 L485.945,486.82 L486.035,486.82 Z M485.465,487.75 C485.585001,487.69 485.64,487.67 485.63,487.69 C485.62,487.71 485.635,487.640001 485.675,487.48 L485.435,487.48 C485.45,487.54 485.456563,487.5775 485.454688,487.5925 C485.44,487.6 485.455,487.62 485.495,487.66 L485.465,487.75 Z M484.445,501.13 L484.505,501.13 C484.565,500.969999 484.6,500.785001 484.61,500.575 C484.62,500.364999 484.635,500.160001 484.655,499.96 C484.615,500 484.58,500.074999 484.55,500.185 L484.496667,500.371667 C484.488889,500.397222 484.481667,500.42 484.475,500.44 L484.445,501.13 Z M507.515,500.41 C507.154998,500.790002 506.690003,501.124999 506.12,501.415 C505.549997,501.705001 504.945003,501.929999 504.305,502.09 C503.664997,502.250001 503.010003,502.34 502.34,502.36 C501.669997,502.38 501.045003,502.295001 500.465,502.105 C499.885,501.914999 499.380002,501.610002 498.95,501.19 C498.519998,500.769998 498.225001,500.220003 498.065,499.54 C497.885,498.859997 497.84,498.240003 497.93,497.68 C498.02,497.119997 498.179999,496.615002 498.41,496.165 C498.640001,495.714998 498.904998,495.315002 499.205,494.965 C499.505001,494.614998 499.794999,494.300001 500.075,494.02 C500.215001,493.879999 500.359999,493.77 500.51,493.69 C500.660001,493.61 500.799999,493.52 500.93,493.42 C501.060001,493.319999 501.175,493.200001 501.275,493.06 C501.375,492.919999 501.435,492.710001 501.455,492.43 C501.194999,492.129998 501.015,491.735002 500.915,491.245 C500.814999,490.754998 500.78,490.225003 500.81,489.655 C500.84,489.084997 500.919999,488.515003 501.05,487.945 C501.180001,487.374997 501.339999,486.845002 501.53,486.355 C501.720001,485.864998 501.934999,485.450002 502.175,485.11 C502.415001,484.769998 502.664999,484.550001 502.925,484.45 C503.065001,484.329999 503.229999,484.265 503.42,484.255 C503.610001,484.245 503.804999,484.255 504.005,484.285 C504.205001,484.315 504.394999,484.365 504.575,484.435 C504.755001,484.505 504.914999,484.56 505.055,484.6 C505.375002,484.7 505.719998,484.864999 506.09,485.095 C506.460002,485.325001 506.794998,485.614998 507.095,485.965 C507.395001,486.315002 507.619999,486.704998 507.77,487.135 C507.920001,487.565002 507.935001,488.019998 507.815,488.5 C507.714999,488.920002 507.525001,489.369998 507.245,489.85 C506.964999,490.330002 506.655002,490.799998 506.315,491.26 C505.974998,491.720002 505.615002,492.139998 505.235,492.52 C504.854998,492.900002 504.505002,493.189999 504.185,493.39 C504.525002,494.070003 504.969997,494.639998 505.52,495.1 C506.070003,495.560002 506.624997,496.019998 507.185,496.48 L507.44,496.72 L507.44,496.72 C507.550001,496.82 507.669999,496.915 507.8,497.005 C507.930001,497.095 508.054999,497.165 508.175,497.215 C508.295001,497.265 508.385,497.26 508.445,497.2 C508.805002,497.079999 509.109999,496.800002 509.36,496.36 C509.610001,495.919998 509.765,495.500002 509.825,495.1 C509.664999,495.1 509.525001,495.095 509.405,495.085 C509.284999,495.075 509.185,495.04 509.105,494.98 C508.944999,494.94 508.735001,494.845001 508.475,494.695 C508.214999,494.544999 507.950001,494.370001 507.68,494.17 C507.409999,493.969999 507.175001,493.765001 506.975,493.555 C506.774999,493.344999 506.665,493.150001 506.645,492.97 C506.805,492.996667 506.969444,493.03 507.138333,493.07 L507.395,493.135 C507.655001,493.205 507.929999,493.27 508.22,493.33 C508.510001,493.39 508.809998,493.425 509.12,493.435 C509.430002,493.445 509.744998,493.400001 510.065,493.3 C510.345001,493.199999 510.604999,493.080001 510.845,492.94 C511.085001,492.799999 511.339999,492.670001 511.61,492.55 C511.880001,492.429999 512.169998,492.345 512.48,492.295 C512.790002,492.245 513.144998,492.25 513.545,492.31 C513.645,492.430001 513.735,492.544999 513.815,492.655 C513.895,492.765001 513.984999,492.87 514.085,492.97 C514.325,493.550003 514.385,493.944999 514.265,494.155 C514.144999,494.365001 513.935001,494.505 513.635,494.575 C513.409999,494.6275 513.162501,494.665938 512.892501,494.690313 L512.615,494.71 C512.234998,494.73 511.915001,494.819999 511.655,494.98 L511.535,494.98 C511.535,495.440002 511.475001,495.824998 511.355,496.135 C511.234999,496.445002 511.100001,496.729999 510.95,496.99 C510.799999,497.250001 510.645001,497.499999 510.485,497.74 C510.324999,497.980001 510.215,498.259998 510.155,498.58 L510.587421,498.751093 L510.587421,498.751093 L511.01,498.91 C511.440002,499.070001 511.885,499.239999 512.345,499.42 C512.690002,499.555001 513.006875,499.684375 513.295625,499.808125 L513.575,499.93 C513.890002,500.070001 514.0825,500.179375 514.1525,500.258125 L514.175,500.29 C514.201667,500.33 514.219445,500.361111 514.228333,500.383333 L514.2446,500.458 C514.2542,500.494 514.271,500.548 514.295,500.62 C514.144999,500.755001 513.989374,500.906875 513.828125,501.075625 L513.665,501.25 C513.444999,501.490001 513.215001,501.719999 512.975,501.94 C512.734999,502.160001 512.485001,502.364999 512.225,502.555 C511.964999,502.745001 511.695001,502.88 511.415,502.96 C511.231666,502.743332 510.992779,502.582222 510.698334,502.476667 L510.515,502.42 C510.210998,502.34 509.939,502.2344 509.699,502.1032 L508.76,501.55 L508.76,501.55 C508.489999,501.389999 508.245001,501.220001 508.025,501.04 C507.913,500.96 507.8394,500.8736 507.8042,500.7808 L507.785,500.71 C507.765,500.589999 507.675001,500.49 507.515,500.41 Z M504.095,485.65 C503.814999,486.090002 503.560001,486.529998 503.33,486.97 C503.099999,487.410002 502.925001,487.869998 502.805,488.35 C502.684999,488.830002 502.62,489.344997 502.61,489.895 C502.6,490.445003 502.674999,491.049997 502.835,491.71 L503.135,491.71 C503.455002,491.229998 503.784998,490.775002 504.125,490.345 C504.465002,489.914998 504.734999,489.465002 504.935,488.995 C505.135001,488.524998 505.22,488.020003 505.19,487.48 C505.16,486.939997 504.935002,486.330003 504.515,485.65 L504.095,485.65 Z M506.645,488.92 C506.825001,488.719999 506.92,488.495001 506.93,488.245 C506.94,487.994999 506.905,487.750001 506.825,487.51 C506.745,487.269999 506.630001,487.050001 506.48,486.85 C506.329999,486.649999 506.175001,486.5 506.015,486.4 C506.035,486.540001 506.05,486.674999 506.06,486.805 C506.07,486.935001 506.095,487.079999 506.135,487.24 L506.3006,487.3048 C506.3702,487.3336 506.42,487.357 506.45,487.375 C506.49,487.399 506.5396,487.4646 506.5988,487.5718 L506.645,487.66 C506.745,487.820001 506.76,488.039999 506.69,488.32 C506.62,488.600001 506.565,488.869999 506.525,489.13 L506.645,489.13 L506.645,488.92 Z M501.455,499.12 C501.555,499.400001 501.689999,499.589999 501.86,499.69 C502.030001,499.790001 502.204999,499.919999 502.385,500.08 C503.265004,500.12 503.959997,500.070001 504.47,499.93 C504.980003,499.789999 505.494997,499.590001 506.015,499.33 L506.015,499.24 C505.634998,498.979999 505.300001,498.660002 505.01,498.28 C504.816666,498.026665 504.627778,497.771111 504.443334,497.513334 L504.17,497.125 C503.899999,496.734998 503.625001,496.360002 503.345,496 C503.064999,495.639998 502.745002,495.340001 502.385,495.1 L502.01,495.835 L502.01,495.835 C501.839999,496.165002 501.685001,496.524998 501.545,496.915 C501.404999,497.305002 501.31,497.699998 501.26,498.1 C501.21,498.500002 501.274999,498.839999 501.455,499.12 Z M499.205,499.45 C499.205,499.289999 499.2146,499.075601 499.2338,498.806801 L499.25,498.595 C499.28,498.224998 499.315,497.860002 499.355,497.5 C499.415,497.079998 499.475,496.630002 499.535,496.15 L499.415,496.345 C499.395,496.375 499.365,496.459999 499.325,496.6 C499.245,496.68 499.18,496.849999 499.13,497.11 C499.08,497.370001 499.045,497.654998 499.025,497.965 C499.005,498.275002 499.01,498.569999 499.04,498.85 C499.07,499.130001 499.125,499.329999 499.205,499.45 Z M507.605,497.95 C507.538333,497.883333 507.471667,497.827778 507.405,497.783333 L507.305,497.725 C507.204999,497.675 507.095001,497.61 506.975,497.53 C507.075,497.670001 507.16,497.765 507.23,497.815 C507.3,497.865 507.424999,497.91 507.605,497.95 Z M499.325,499.54 L499.205,499.54 L499.205,499.78 L499.325,499.78 L499.325,499.54 Z M501.245,500.62 L501.29,500.66125 C501.295,500.665 501.29875,500.667188 501.30125,500.667813 C501.305,500.655 501.354999,500.67 501.455,500.71 L501.215,500.47375 L501.215,500.47375 L500.975,500.245 C500.814999,500.094999 500.655001,499.940001 500.495,499.78 C500.575,499.980001 500.66,500.149999 500.75,500.29 C500.84,500.430001 501.004999,500.54 501.245,500.62 Z M511.955,500.53 C512.055001,500.63 512.135,500.685 512.195,500.695 L512.3006,500.7046 C512.3702,500.7082 512.464999,500.71 512.585,500.71 L512.585,500.62 C512.545,500.56 512.515,500.53 512.495,500.53 L511.955,500.53 Z M510.455,501.37 C510.334999,501.31 510.225,501.25 510.125,501.19 C510.024999,501.13 509.885001,501.08 509.705,501.04 C509.805,501.200001 509.895,501.305 509.975,501.355 C510.055,501.405 510.214999,501.44 510.455,501.46 L510.455,501.37 Z M524.885,490.42 C525.325002,489.199994 525.939996,488.180004 526.73,487.36 C527.520004,486.539996 528.439995,485.880002 529.49,485.38 C530.540005,484.879998 531.709994,484.525001 533,484.315 C534.290006,484.104999 535.654993,484 537.095,484 C537.355001,484.360002 537.594999,484.789998 537.815,485.29 C538.035001,485.790003 538.204999,486.279998 538.325,486.76 C538.445001,487.240002 538.495,487.659998 538.475,488.02 C538.455,488.380002 538.345001,488.6 538.145,488.68 C537.964999,488.439999 537.630002,488.230001 537.14,488.05 C536.649998,487.869999 536.125003,487.725001 535.565,487.615 C535.004997,487.504999 534.460003,487.445 533.93,487.435 C533.399997,487.425 532.995001,487.469999 532.715,487.57 C531.554994,488.010002 530.610004,488.599996 529.88,489.34 C529.149996,490.080004 528.615002,490.899995 528.275,491.8 C527.934998,492.700004 527.78,493.629995 527.81,494.59 C527.84,495.550005 528.039998,496.464996 528.41,497.335 C528.780002,498.205004 529.304997,498.989997 529.985,499.69 C530.665003,500.390003 531.479995,500.929998 532.43,501.31 C533.380005,501.690002 534.459994,501.865 535.67,501.835 C536.880006,501.805 538.194993,501.490003 539.615,500.89 C539.374999,501.690004 538.910003,502.379997 538.22,502.96 C537.529997,503.540003 536.715005,503.969999 535.775,504.25 C534.834995,504.530001 533.835005,504.65 532.775,504.61 C531.714995,504.57 530.695005,504.330002 529.715,503.89 C528.354993,503.289997 527.245004,502.505005 526.385,501.535 C525.524996,500.564995 524.900002,499.485006 524.51,498.295 C524.119998,497.104994 523.955,495.835007 524.015,494.485 C524.075,493.134993 524.364997,491.780007 524.885,490.42 Z M531.785,485.26 C531.745,485.360001 531.72,485.435 531.71,485.485 L531.6866,485.656 C531.6802,485.712 531.673,485.78 531.665,485.86 C531.705,485.88 531.75,485.895 531.8,485.905 C531.85,485.915 531.925,485.92 532.025,485.92 C532.125,485.84 532.244999,485.79 532.385,485.77 C532.525001,485.75 532.674999,485.74 532.835,485.74 C532.861667,485.7 532.881667,485.666667 532.895,485.64 L532.985,485.41 L532.985,485.41 L532.775,485.32 C532.735,485.3 532.635001,485.28 532.475,485.26 C532.448333,485.233333 532.412778,485.215555 532.368333,485.206667 L532.295,485.2 C532.215,485.2 532.125,485.18 532.025,485.14 C531.965,485.2 531.885,485.24 531.785,485.26 Z M526.835,495.37 L526.595,495.37 L526.505,495.58 C526.485,495.62 526.465,495.719999 526.445,495.88 L526.595,495.88 C526.635,495.92 526.66,495.94 526.67,495.94 L526.768437,495.956875 C526.787812,495.960625 526.81,495.965 526.835,495.97 L526.91,495.775 L526.91,495.775 L526.92875,495.69625 C526.93625,495.65875 526.945,495.61 526.955,495.55 L526.835,495.37 Z M537.245,502.24 C537.285,502.2 537.318333,502.171111 537.345,502.153333 L537.38,502.135 C537.41,502.125 537.455,502.1 537.515,502.06 L537.515,501.97 L537.335,501.97 L537.235,502.063333 L537.235,502.063333 L537.073438,502.185625 C537.052813,502.201875 537.03,502.22 537.005,502.24 L537.245,502.24 Z M534.125,503.29 L533.885,503.29 L533.8634,503.3836 C533.857,503.406 533.8514,503.4196 533.8466,503.4244 C533.83,503.415 533.845,503.459999 533.885,503.56 L533.945,503.586667 C533.951667,503.588889 533.956667,503.59 533.96,503.59 L534.058437,503.606875 C534.077812,503.610625 534.1,503.615 534.125,503.62 C534.125,503.56 534.145,503.470001 534.185,503.35 C534.145,503.35 534.125,503.33 534.125,503.29 Z M550.205,493.66 C549.724998,493.66 549.225003,493.729999 548.705,493.87 C548.184997,494.010001 547.685002,494.214999 547.205,494.485 C546.724998,494.755001 546.275002,495.089998 545.855,495.49 C545.434998,495.890002 545.085001,496.359997 544.805,496.9 C544.745,497.720004 544.705,498.534996 544.685,499.345 L544.6466,501.154599 L544.6466,501.154599 L544.61,503.245 L544.61,503.245 L544.599688,503.547813 C544.586563,503.815939 544.565,503.98 544.535,504.04 L543.575,504.355 L543.575,504.355 L543.08375,504.505 C542.92625,504.55 542.775001,504.59 542.63,504.625 C542.339999,504.695 542.105001,504.735 541.925,504.745 C541.744999,504.755 541.655,504.71 541.655,504.61 C541.655,504.096664 541.670123,503.4442 541.70037,502.652594 L541.7876,500.555199 C541.8152,499.842401 541.841,499.099004 541.865,498.325 C541.905,497.034994 541.925,495.740006 541.925,494.44 C541.925,493.139994 541.865001,491.980005 541.745,490.96 C541.809,490.96 541.917799,490.9312 542.0714,490.8736 L542.555,490.6825 C542.685,490.6325 542.824999,490.58 542.975,490.525 C543.275001,490.414999 543.594998,490.310001 543.935,490.21 C544.275002,490.11 544.584999,490.04 544.865,490 L544.775,490.915 L544.775,490.915 C544.761667,491.015001 544.750556,491.119444 544.741667,491.228333 L544.73,491.395 C544.72,491.565001 544.715,491.829998 544.715,492.19 L544.715,494.05 C545.075002,493.489997 545.594997,492.920003 546.275,492.34 C546.955003,491.759997 547.754995,491.300002 548.675,490.96 C548.935001,491.180001 549.174999,491.439999 549.395,491.74 C549.615001,492.040002 549.794999,492.334999 549.935,492.625 C550.075001,492.915001 550.17,493.159999 550.22,493.36 C550.27,493.560001 550.265,493.66 550.205,493.66 Z M562.445,501.88 L562.678333,501.793333 L562.678333,501.793333 L562.82,501.745 C562.970001,501.695 563.124999,501.64 563.285,501.58 C563.465001,501.5 563.654999,501.42 563.855,501.34 C563.054996,502.540006 562.130005,503.439997 561.08,504.04 C560.029995,504.640003 558.975005,504.975 557.915,505.045 C556.854995,505.115 555.840005,504.945002 554.87,504.535 C553.899995,504.124998 553.080003,503.515004 552.41,502.705 C551.739997,501.894996 551.285001,500.905006 551.045,499.735 C550.804999,498.564994 550.874998,497.260007 551.255,495.82 C551.575002,494.639994 552.064997,493.645004 552.725,492.835 C553.385003,492.024996 554.119996,491.405002 554.93,490.975 C555.740004,490.544998 556.594995,490.31 557.495,490.27 C558.395004,490.23 559.229996,490.389998 560,490.75 C560.770004,491.110002 561.444997,491.669996 562.025,492.43 C562.605003,493.190004 562.994999,494.149994 563.195,495.31 C563.211,495.454001 563.2462,495.639599 563.3006,495.866799 L563.345,496.045 C563.425,496.355002 563.49,496.669998 563.54,496.99 C563.59,497.310002 563.61,497.619999 563.6,497.92 C563.59,498.220002 563.525001,498.439999 563.405,498.58 L561.9725,498.61 L561.9725,498.61 L560.2148,498.637 L560.2148,498.637 L558.845,498.655 C558.244997,498.6625 557.670313,498.667188 557.120938,498.669063 L556.58,498.67 C555.869996,498.67 555.265003,498.66 554.765,498.64 L554.461295,498.623704 C554.141542,498.601235 553.942778,498.566667 553.865,498.52 C553.704999,499.040003 553.704999,499.514998 553.865,499.945 C554.025001,500.375002 554.304998,500.754998 554.705,501.085 C555.105002,501.415002 555.599997,501.684999 556.19,501.895 C556.780003,502.105001 557.424996,502.25 558.125,502.33 C558.825003,502.41 559.544996,502.415 560.285,502.345 C561.025004,502.275 561.744996,502.120001 562.445,501.88 Z M556.025,491.56 L556.115,491.56 L556.115,491.38 L556.205,491.38 L556.115,491.29 L556.025,491.56 Z M557.285,491.38 C557.317,491.46 557.3394,491.575199 557.3522,491.7256 L557.36,491.845 C557.37,492.055001 557.395,492.2 557.435,492.28 C557.448333,492.173333 557.463889,492.08 557.481667,492 L557.51,491.89 C557.54,491.79 557.565,491.670001 557.585,491.53 L557.525,491.38 L557.285,491.38 Z M555.515,492.64 L555.275,492.64 L555.321667,492.84 C555.323889,492.853333 555.323333,492.856667 555.32,492.85 C555.31,492.83 555.354999,492.85 555.455,492.91 L555.455,492.82 L555.49625,492.775 C555.5,492.77 555.502188,492.76625 555.502813,492.76375 C555.49,492.76 555.495,492.72 555.515,492.64 Z M560.5946,495.4336 L560.525,495.22 C560.284999,494.419996 559.880003,493.835002 559.31,493.465 C558.739997,493.094998 558.125003,492.955 557.465,493.045 C556.804997,493.135 556.170003,493.464997 555.56,494.035 C554.949997,494.605003 554.475002,495.419995 554.135,496.48 L555.155917,496.472347 C555.319591,496.470306 555.494285,496.467857 555.68,496.465 C556.330003,496.455 556.989997,496.43 557.66,496.39 C558.330003,496.35 558.959997,496.3 559.55,496.24 C560.140003,496.18 560.554999,496.11 560.795,496.03 C560.78,495.909999 560.756563,495.809687 560.724688,495.729063 L560.69,495.655 C560.66,495.601 560.6282,495.5272 560.5946,495.4336 Z M561.755,494.65 L561.735,494.581667 L561.735,494.581667 L561.695,494.395 C561.675,494.284999 561.645,494.21 561.605,494.17 C561.605,494.370001 561.61,494.574999 561.62,494.785 C561.63,494.995001 561.655,495.179999 561.695,495.34 L561.755,495.34 L561.755,494.65 Z M554.285,495.04 L553.865,495.25 L554.111667,495.216667 C554.147222,495.212222 554.18,495.208333 554.21,495.205 C554.3,495.195 554.325,495.14 554.285,495.04 Z M559.955,496.75 C560.008334,496.71 560.061667,496.678889 560.115,496.656667 L560.195,496.63 C560.275,496.61 560.345,496.57 560.405,496.51 L560.315,496.51 C560.255,496.555 560.180938,496.58875 560.092813,496.61125 L560,496.63 C559.869999,496.65 559.775,496.69 559.715,496.75 L559.955,496.75 Z M553.505,500.86 C553.465,500.86 553.435,500.919999 553.415,501.04 L553.505,501.04 L553.505,500.86 Z M568.925,491.5 C570.025005,491.079998 571.009996,490.89 571.88,490.93 C572.750004,490.97 573.614996,491.219998 574.475,491.68 C574.795002,491.519999 575.199998,491.355001 575.69,491.185 C576.180002,491.014999 576.624998,490.820001 577.025,490.6 C576.864999,492.360009 576.765,494.039992 576.725,495.64 L576.699687,496.805315 C576.6825,497.747502 576.675078,498.617419 576.677422,499.415077 L576.68,499.885 C576.688889,500.978339 576.705679,501.885986 576.73037,502.607962 L576.774896,503.642918 C576.789965,503.920973 576.803333,504.083333 576.815,504.13 C576.594999,504.350001 576.315002,504.529999 575.975,504.67 C575.634998,504.810001 575.300002,504.925 574.97,505.015 C574.639998,505.105 574.355001,505.17 574.115,505.21 L573.725,505.27 L573.725,505.27 L573.725,503.26 C573.324998,503.640002 572.915002,503.974999 572.495,504.265 C572.074998,504.555001 571.575003,504.72 570.995,504.76 C569.754994,504.860001 568.690004,504.655003 567.8,504.145 C566.909996,503.634997 566.215002,502.955004 565.715,502.105 C565.214997,501.254996 564.905001,500.305005 564.785,499.255 C564.664999,498.204995 564.734999,497.170005 564.995,496.15 C565.255001,495.129995 565.709997,494.200004 566.36,493.36 C567.010003,492.519996 567.864995,491.900002 568.925,491.5 Z M572.405,493.18 C571.204994,493.320001 570.250004,493.674997 569.54,494.245 C568.829996,494.815003 568.340001,495.479996 568.07,496.24 C567.799999,497.000004 567.734999,497.784996 567.875,498.595 C568.015001,499.405004 568.329998,500.114997 568.82,500.725 C569.310002,501.335003 569.969996,501.779999 570.8,502.06 C571.630004,502.340001 572.594994,502.320002 573.695,502 L573.763148,500.444443 C573.781914,499.967407 573.796728,499.531853 573.807593,499.137779 L573.835204,497.836122 C573.841735,497.414898 573.845,497.032859 573.845,496.69 L573.8396,495.6748 L573.8396,495.6748 L573.83,495.07 C573.82,494.589998 573.825,494.070003 573.845,493.51 L573.2,493.27 L573.2,493.27 C572.929999,493.17 572.665001,493.14 572.405,493.18 Z M566.735,496.03 C566.855001,496.03 566.95,496.025 567.02,496.015 C567.09,496.005 567.175,495.98 567.275,495.94 L567.1094,495.9424 C567.0398,495.9448 566.99,495.949 566.96,495.955 C566.91,495.965 566.835,495.99 566.735,496.03 Z M570.425,503.26 C570.745002,503.360001 571.099998,503.415 571.49,503.425 C571.880002,503.435 572.264998,503.370001 572.645,503.23 C572.464999,503.19 572.285001,503.175 572.105,503.185 L571.565,503.215 C571.384999,503.225 571.205001,503.23 571.025,503.23 C570.844999,503.23 570.665001,503.2 570.485,503.14 L570.335,503.23 L570.425,503.26 Z M590.075,501.16 C590.015,501.550002 589.980312,501.934375 589.970937,502.313124 L589.97,502.69 C589.98,503.190002 589.955,503.589998 589.895,503.89 C589.474998,504.310002 588.945003,504.624999 588.305,504.835 C587.664997,505.045001 587.010003,505.15 586.34,505.15 C585.669997,505.15 585.030003,505.060001 584.42,504.88 C583.809997,504.699999 583.335002,504.440002 582.995,504.1 C582.614998,503.739998 582.375,503.280003 582.275,502.72 C582.175,502.159997 582.125,501.490004 582.125,500.71 C582.125,499.93 582.145,499.040005 582.185,498.04 C582.225,497.039995 582.205,495.920006 582.125,494.68 C581.964999,494.64 581.760001,494.62 581.51,494.62 C581.343332,494.62 581.163333,494.622222 580.97,494.626667 L580.67,494.635 C580.359998,494.645 580.040002,494.66 579.71,494.68 C579.379998,494.7 579.065001,494.7 578.765,494.68 C578.685,494.64 578.595,494.530001 578.495,494.35 L578.288333,493.97 C578.252778,493.903334 578.216667,493.835 578.18,493.765 C578.106666,493.624999 578.037778,493.482778 577.973333,493.338334 L577.88,493.12 C577.79,492.899999 577.705,492.730001 577.625,492.61 L577.997,492.6052 C578.200999,492.6004 578.431999,492.592 578.69,492.58 L579.563333,492.533333 C579.71111,492.524445 579.859999,492.515 580.01,492.505 C580.460002,492.475 580.884998,492.44 581.285,492.4 L581.8175,492.34 C581.9725,492.32 582.104999,492.3 582.215,492.28 L582.215,486.97 C582.395001,486.849999 582.654998,486.715001 582.995,486.565 C583.335002,486.414999 583.684998,486.285001 584.045,486.175 C584.405002,486.064999 584.739998,485.99 585.05,485.95 C585.360002,485.91 585.574999,485.93 585.695,486.01 L585.608047,487.210937 C585.602266,487.287812 585.59625,487.3675 585.59,487.45 C585.54,488.110003 585.5,488.774997 585.47,489.445 C585.446,489.981003 585.4316,490.465799 585.4268,490.899399 L585.425,491.215 C585.425,491.725003 585.465,491.97 585.545,491.95 L586.085,491.92 L586.085,491.92 L587.705,491.80375 L587.705,491.80375 L588.9002,491.734 C589.0154,491.726 589.117,491.718 589.205,491.71 C589.385001,491.890001 589.554999,492.104999 589.715,492.355 C589.875001,492.605001 590.009999,492.844999 590.12,493.075 C590.230001,493.305001 590.305,493.509999 590.345,493.69 C590.385,493.870001 590.375,493.98 590.315,494.02 C590.154999,494.08 589.855002,494.115 589.415,494.125 L588.72125,494.13625 L588.72125,494.13625 L587.96,494.14 C587.429997,494.14 586.925002,494.15 586.445,494.17 C585.964998,494.19 585.605001,494.23 585.365,494.29 C585.305,494.670002 585.27,495.149997 585.26,495.73 C585.25,496.310003 585.25,496.889997 585.26,497.47 C585.266667,497.856669 585.275556,498.23 585.286667,498.589999 L585.330714,499.716939 C585.342143,499.950408 585.353571,500.141428 585.365,500.29 C585.365,501.050004 585.484999,501.619998 585.725,502 C585.965001,502.380002 586.294998,502.595 586.715,502.645 C587.135002,502.695 587.634997,502.595001 588.215,502.345 C588.795003,502.094999 589.414997,501.700003 590.075,501.16 Z M584.195,502.75 C584.054999,502.409998 584.034999,502.105001 584.135,501.835 C584.21,501.632499 584.268125,501.444063 584.309375,501.269688 L584.345,501.1 C584.365,501.02 584.38,500.925001 584.39,500.815 C584.4,500.704999 584.385,500.64 584.345,500.62 L584.23625,500.77375 C584.19375,500.83625 584.145,500.91 584.09,500.995 C583.979999,501.165001 583.89,501.354999 583.82,501.565 C583.75,501.775001 583.735,501.984999 583.775,502.195 C583.815,502.405001 583.954999,502.589999 584.195,502.75 Z M594.245,489.61 C594.185,489.61 594.045001,489.430002 593.825,489.07 L593.5514,488.6092 C593.4098,488.364401 593.261001,488.098001 593.105,487.81 C592.844999,487.329998 592.610001,486.835003 592.4,486.325 C592.189999,485.814997 592.065,485.410002 592.025,485.11 C592.865004,485.15 593.674996,485.359998 594.455,485.74 C595.235004,486.120002 595.824998,486.579997 596.225,487.12 L595.9658,487.5328 C595.9386,487.5776 595.91,487.625 595.88,487.675 C595.729999,487.925001 595.560001,488.179999 595.37,488.44 C595.179999,488.700001 594.985001,488.939999 594.785,489.16 C594.584999,489.380001 594.405001,489.53 594.245,489.61 Z M593.075,491.32 C593.235001,491.32 593.479998,491.28 593.81,491.2 L594.815,490.96 C595.070001,490.9 595.305312,490.845625 595.520937,490.796875 L595.73,490.75 C596.000001,490.69 596.165,490.69 596.225,490.75 L596.1962,491.585199 L596.1962,491.585199 L595.8848,498.478601 C595.8596,499.0822 595.838,499.665997 595.82,500.23 L595.73463,503.121112 C595.725988,503.582594 595.729444,503.898888 595.745,504.07 C595.725,504.15 595.605001,504.244999 595.385,504.355 C595.164999,504.465001 594.895002,504.569999 594.575,504.67 C594.254998,504.77 593.930002,504.85 593.6,504.91 C593.269998,504.97 592.995001,504.99 592.775,504.97 L592.824592,503.140918 C592.839286,502.687857 592.857245,502.187451 592.878469,501.639695 L592.895,501.22 C592.919,500.619997 592.9412,499.9912 592.9616,499.333601 L593.117422,493.737108 C593.129141,493.201953 593.135,492.731252 593.135,492.325 L593.133017,492.001693 C593.127066,491.563593 593.107727,491.336364 593.075,491.32 Z M594.455,500.44 L594.275,499.93 C594.235,500.410002 594.225,500.779999 594.245,501.04 C594.265,501.300001 594.305,501.629998 594.365,502.03 L594.455,502.03 L594.455,500.44 Z M611.675,490.9 C611.755,491.080001 611.8,491.239999 611.81,491.38 C611.82,491.520001 611.765001,491.729999 611.645,492.01 L611.526224,492.278163 C611.458878,492.426326 611.379592,492.595611 611.288368,492.78602 L610.055,495.31 L610.055,495.31 L608.987024,497.53025 C608.590827,498.346446 608.23182,499.07636 607.91,499.72 L607.349999,500.826668 C606.996666,501.515557 606.683335,502.106664 606.41,502.6 L606.147036,503.065186 C605.852345,503.575063 605.600001,503.969999 605.39,504.25 C605.119999,504.610002 604.880001,504.854999 604.67,504.985 C604.459999,505.115001 604.265001,505.165 604.085,505.135 C603.904999,505.105 603.705001,505.06 603.485,505 C603.405,504.871999 603.3122,504.705601 603.2066,504.5008 L602.838334,503.76 L602.838334,503.76 L602.69,503.455 C602.589999,503.248332 602.494444,503.046111 602.403333,502.848334 L601.955,501.85 L601.955,501.85 C601.434997,500.649994 600.960002,499.425006 600.53,498.175 L599.527917,495.237501 C599.465973,495.054168 599.405,494.873334 599.345,494.695 L599.041326,493.813366 C598.792347,493.108264 598.553573,492.477146 598.325,491.92 C598.004998,491.139996 597.685002,490.610001 597.365,490.33 C597.425,490.189999 597.649998,490.08 598.04,490 C598.430002,489.92 598.859998,489.88 599.33,489.88 C599.800002,489.88 600.234998,489.93 600.635,490.03 C600.985002,490.1175 601.204844,490.235624 601.294531,490.384375 L601.325,490.45 C601.345,490.49 601.439999,490.769997 601.61,491.29 L601.845102,492.027449 L601.845102,492.027449 L602.498,494.173 C602.598,494.497 602.702,494.828999 602.81,495.168999 L603.3038,496.700201 L603.3038,496.700201 L604.324694,499.768061 L604.324694,499.768061 L604.4942,500.260001 C604.6094,500.580002 604.683,500.74 604.715,500.74 C604.815,500.74 605.004999,500.410003 605.285,499.75 L605.501563,499.219374 C605.724688,498.653125 605.967499,497.980004 606.23,497.2 C606.580002,496.159995 606.929998,495.005006 607.28,493.735 C607.630002,492.464994 607.924999,491.220006 608.165,490 C608.338334,490.026667 608.520555,490.046667 608.711666,490.06 L609.005,490.075 C609.305002,490.085 609.604998,490.115 609.905,490.165 C610.205001,490.215 610.504999,490.294999 610.805,490.405 C611.105002,490.515001 611.394999,490.679999 611.675,490.9 Z M609.155,493.24 C609.168333,493.133333 609.183889,493.04 609.201667,492.96 L609.23,492.85 C609.26,492.75 609.285,492.630001 609.305,492.49 L609.245,492.34 L609.005,492.34 C609.037,492.42 609.0594,492.535199 609.0722,492.6856 L609.08,492.805 C609.09,493.015001 609.115,493.16 609.155,493.24 Z M608.705,494.74 L608.685,494.671667 L608.685,494.671667 L608.645,494.485 C608.625,494.374999 608.595,494.3 608.555,494.26 C608.555,494.460001 608.56,494.664999 608.57,494.875 C608.58,495.085001 608.605,495.269999 608.645,495.43 L608.705,495.43 L608.705,494.74 Z M601.235,495.13 L600.815,495.34 L601.061667,495.306667 C601.097222,495.302222 601.13,495.298333 601.16,495.295 C601.25,495.285 601.275,495.230001 601.235,495.13 Z M606.905,496.84 C606.958334,496.8 607.011667,496.768889 607.065,496.746667 L607.145,496.72 C607.225,496.7 607.295,496.66 607.355,496.6 L607.265,496.6 C607.205,496.645 607.130938,496.67875 607.042813,496.70125 L606.95,496.72 C606.819999,496.74 606.725,496.78 606.665,496.84 L606.905,496.84 Z M623.435,501.88 L623.543333,501.838333 L623.543333,501.838333 L623.81,501.745 C623.960001,501.695 624.114999,501.64 624.275,501.58 C624.455001,501.5 624.644999,501.42 624.845,501.34 C624.044996,502.540006 623.120005,503.439997 622.07,504.04 C621.019995,504.640003 619.965005,504.975 618.905,505.045 C617.844995,505.115 616.830005,504.945002 615.86,504.535 C614.889995,504.124998 614.070003,503.515004 613.4,502.705 C612.729997,501.894996 612.275001,500.905006 612.035,499.735 C611.794999,498.564994 611.864998,497.260007 612.245,495.82 C612.565002,494.639994 613.054997,493.645004 613.715,492.835 C614.375003,492.024996 615.109996,491.405002 615.92,490.975 C616.730004,490.544998 617.584995,490.31 618.485,490.27 C619.385004,490.23 620.219996,490.389998 620.99,490.75 C621.760004,491.110002 622.434997,491.669996 623.015,492.43 C623.595003,493.190004 623.984999,494.149994 624.185,495.31 C624.201,495.454001 624.2362,495.639599 624.2906,495.866799 L624.335,496.045 C624.415,496.355002 624.48,496.669998 624.53,496.99 C624.58,497.310002 624.6,497.619999 624.59,497.92 C624.58,498.220002 624.515001,498.439999 624.395,498.58 L622.9625,498.61 L622.9625,498.61 L621.2048,498.637 L621.2048,498.637 L619.835,498.655 C619.234997,498.6625 618.660313,498.667188 618.110938,498.669063 L617.57,498.67 C616.859996,498.67 616.255003,498.66 615.755,498.64 L615.451295,498.623704 C615.131542,498.601235 614.932778,498.566667 614.855,498.52 C614.694999,499.040003 614.694999,499.514998 614.855,499.945 C615.015001,500.375002 615.294998,500.754998 615.695,501.085 C616.095002,501.415002 616.589997,501.684999 617.18,501.895 C617.770003,502.105001 618.414996,502.25 619.115,502.33 C619.815003,502.41 620.534996,502.415 621.275,502.345 C622.015004,502.275 622.734996,502.120001 623.435,501.88 Z M617.015,491.56 L617.105,491.56 L617.105,491.38 L617.195,491.38 L617.105,491.29 L617.015,491.56 Z M618.275,491.38 C618.307,491.46 618.3294,491.575199 618.3422,491.7256 L618.35,491.845 C618.36,492.055001 618.385,492.2 618.425,492.28 C618.438333,492.173333 618.453889,492.08 618.471667,492 L618.5,491.89 C618.53,491.79 618.555,491.670001 618.575,491.53 L618.515,491.38 L618.275,491.38 Z M616.505,492.64 L616.265,492.64 L616.311667,492.84 C616.313889,492.853333 616.313333,492.856667 616.31,492.85 C616.3,492.83 616.344999,492.85 616.445,492.91 L616.445,492.82 L616.48625,492.775 C616.49,492.77 616.492188,492.76625 616.492813,492.76375 C616.48,492.76 616.485,492.72 616.505,492.64 Z M621.5846,495.4336 L621.515,495.22 C621.274999,494.419996 620.870003,493.835002 620.3,493.465 C619.729997,493.094998 619.115003,492.955 618.455,493.045 C617.794997,493.135 617.160003,493.464997 616.55,494.035 C615.939997,494.605003 615.465002,495.419995 615.125,496.48 L616.145917,496.472347 C616.309591,496.470306 616.484285,496.467857 616.67,496.465 C617.320003,496.455 617.979997,496.43 618.65,496.39 C619.320003,496.35 619.949997,496.3 620.54,496.24 C621.130003,496.18 621.544999,496.11 621.785,496.03 C621.765,495.869999 621.73,495.745 621.68,495.655 C621.65,495.601 621.6182,495.5272 621.5846,495.4336 Z M622.745,494.65 L622.725,494.581667 L622.725,494.581667 L622.685,494.395 C622.665,494.284999 622.635,494.21 622.595,494.17 C622.595,494.370001 622.6,494.574999 622.61,494.785 C622.62,494.995001 622.645,495.179999 622.685,495.34 L622.745,495.34 L622.745,494.65 Z M615.275,495.04 L614.855,495.25 L615.101667,495.216667 C615.137222,495.212222 615.17,495.208333 615.2,495.205 C615.29,495.195 615.315,495.14 615.275,495.04 Z M620.945,496.75 C620.998334,496.71 621.051667,496.678889 621.105,496.656667 L621.185,496.63 C621.265,496.61 621.335,496.57 621.395,496.51 L621.305,496.51 C621.245,496.555 621.170938,496.58875 621.082813,496.61125 L620.99,496.63 C620.859999,496.65 620.765,496.69 620.705,496.75 L620.945,496.75 Z M614.495,500.86 L614.495,501.04 L614.405,501.04 C614.425,500.919999 614.455,500.86 614.495,500.86 Z" id="Cultural&amp;Creative"></path>
        </g>
    </g>
</svg>