<?xml version="1.0" encoding="UTF-8"?>
<svg width="197px" height="28px" viewBox="0 0 197 28" version="1.1" xmlns="http://www.w3.org/2000/svg" xmlns:xlink="http://www.w3.org/1999/xlink">
    <!-- Generator: Sketch 59 (86127) - https://sketch.com -->
    <title>CultureJiangnan</title>
    <desc>Created with Sketch.</desc>
    <g id="页面-1" stroke="none" stroke-width="1" fill="none" fill-rule="evenodd">
        <g id="首页" transform="translate(-1012.000000, -483.000000)" fill="#000000" fill-rule="nonzero">
            <path d="M1013.265,490.42 C1013.705,489.199994 1014.32,488.180004 1015.11,487.36 C1015.9,486.539996 1016.81999,485.880002 1017.87,485.38 C1018.92001,484.879998 1020.08999,484.525001 1021.38,484.315 C1022.67001,484.104999 1024.03499,484 1025.475,484 C1025.735,484.360002 1025.975,484.789998 1026.195,485.29 C1026.415,485.790003 1026.585,486.279998 1026.705,486.76 C1026.825,487.240002 1026.875,487.659998 1026.855,488.02 C1026.835,488.380002 1026.725,488.6 1026.525,488.68 C1026.345,488.439999 1026.01,488.230001 1025.52,488.05 C1025.03,487.869999 1024.505,487.725001 1023.945,487.615 C1023.385,487.504999 1022.84,487.445 1022.31,487.435 C1021.78,487.425 1021.375,487.469999 1021.095,487.57 C1019.93499,488.010002 1018.99,488.599996 1018.26,489.34 C1017.53,490.080004 1016.995,490.899995 1016.655,491.8 C1016.315,492.700004 1016.16,493.629995 1016.19,494.59 C1016.22,495.550005 1016.42,496.464996 1016.79,497.335 C1017.16,498.205004 1017.685,498.989997 1018.365,499.69 C1019.045,500.390003 1019.86,500.929998 1020.81,501.31 C1021.76,501.690002 1022.83999,501.865 1024.05,501.835 C1025.26001,501.805 1026.57499,501.490003 1027.995,500.89 C1027.755,501.690004 1027.29,502.379997 1026.6,502.96 C1025.91,503.540003 1025.095,503.969999 1024.155,504.25 C1023.215,504.530001 1022.21501,504.65 1021.155,504.61 C1020.09499,504.57 1019.075,504.330002 1018.095,503.89 C1016.73499,503.289997 1015.625,502.505005 1014.765,501.535 C1013.905,500.564995 1013.28,499.485006 1012.89,498.295 C1012.5,497.104994 1012.335,495.835007 1012.395,494.485 C1012.455,493.134993 1012.745,491.780007 1013.265,490.42 Z M1020.165,485.26 C1020.13833,485.326667 1020.11833,485.382222 1020.105,485.426667 L1020.09,485.485 C1020.08,485.535 1020.065,485.659999 1020.045,485.86 C1020.085,485.88 1020.13,485.895 1020.18,485.905 C1020.23,485.915 1020.305,485.92 1020.405,485.92 C1020.505,485.84 1020.625,485.79 1020.765,485.77 C1020.905,485.75 1021.055,485.74 1021.215,485.74 L1021.275,485.64 C1021.28167,485.626667 1021.28667,485.615 1021.29,485.605 L1021.33781,485.478438 C1021.34594,485.457813 1021.355,485.435 1021.365,485.41 L1021.155,485.32 C1021.115,485.3 1021.015,485.28 1020.855,485.26 C1020.82833,485.233333 1020.79278,485.215555 1020.74833,485.206667 L1020.675,485.2 C1020.595,485.2 1020.505,485.18 1020.405,485.14 C1020.345,485.2 1020.265,485.24 1020.165,485.26 Z M1015.215,495.37 L1014.975,495.37 L1014.885,495.58 C1014.865,495.62 1014.845,495.719999 1014.825,495.88 L1014.975,495.88 C1015.015,495.92 1015.04,495.94 1015.05,495.94 L1015.14844,495.956875 C1015.16781,495.960625 1015.19,495.965 1015.215,495.97 L1015.29,495.775 L1015.29,495.775 L1015.30875,495.69625 C1015.31625,495.65875 1015.325,495.61 1015.335,495.55 L1015.215,495.37 Z M1025.625,502.24 C1025.665,502.2 1025.69833,502.171111 1025.725,502.153333 L1025.76,502.135 C1025.79,502.125 1025.835,502.1 1025.895,502.06 L1025.895,501.97 L1025.715,501.97 L1025.615,502.063333 L1025.615,502.063333 L1025.45344,502.185625 C1025.43281,502.201875 1025.41,502.22 1025.385,502.24 L1025.625,502.24 Z M1022.505,503.29 L1022.265,503.29 L1022.2434,503.3836 C1022.237,503.406 1022.2314,503.4196 1022.2266,503.4244 C1022.21,503.415 1022.225,503.459999 1022.265,503.56 L1022.325,503.586667 L1022.325,503.586667 L1022.505,503.62 L1022.505,503.62 C1022.505,503.56 1022.525,503.470001 1022.565,503.35 C1022.525,503.35 1022.505,503.33 1022.505,503.29 Z M1041.285,501.73 C1041.465,502.310003 1041.64,502.859997 1041.81,503.38 C1041.98,503.900003 1042.135,504.269999 1042.275,504.49 C1042.131,504.49 1041.955,504.506 1041.747,504.538 L1041.585,504.565 C1041.305,504.615 1041.025,504.66 1040.745,504.7 C1040.465,504.74 1040.2,504.765 1039.95,504.775 C1039.75,504.783 1039.5916,504.7558 1039.4748,504.6934 L1039.395,504.64 C1039.17833,504.506666 1039.00681,504.314306 1038.88042,504.062917 L1038.81,503.905 C1038.68,503.574998 1038.515,503.310001 1038.315,503.11 C1037.475,503.730003 1036.595,504.114999 1035.675,504.265 C1034.755,504.415001 1033.9,504.380001 1033.11,504.16 C1032.32,503.939999 1031.65,503.550003 1031.1,502.99 C1030.55,502.429997 1030.235,501.750004 1030.155,500.95 C1030.075,500.209996 1030.035,499.405004 1030.035,498.535 C1030.035,497.664996 1030.04,496.790004 1030.05,495.91 L1030.08,493.3 L1030.08,493.3 C1030.09,492.439996 1030.065,491.640004 1030.005,490.9 L1030.2525,490.79875 C1030.3475,490.76125 1030.455,490.72 1030.575,490.675 C1030.815,490.585 1031.075,490.5 1031.355,490.42 C1031.635,490.34 1031.915,490.28 1032.195,490.24 C1032.475,490.2 1032.725,490.21 1032.945,490.27 L1032.84656,491.977186 C1032.83469,492.201561 1032.8225,492.437499 1032.81,492.685 C1032.76,493.675005 1032.725,494.679995 1032.705,495.7 C1032.685,496.720005 1032.705,497.669996 1032.765,498.55 C1032.825,499.430004 1032.945,500.069998 1033.125,500.47 C1033.205,500.850002 1033.385,501.154999 1033.665,501.385 C1033.945,501.615001 1034.27,501.77 1034.64,501.85 C1035.01,501.93 1035.4,501.94 1035.81,501.88 C1036.22,501.82 1036.59,501.700001 1036.92,501.52 C1037.25,501.339999 1037.51,501.105001 1037.7,500.815 C1037.89,500.524999 1037.955,500.180002 1037.895,499.78 L1037.9166,499.0456 C1037.9262,498.659201 1037.934,498.244002 1037.94,497.8 C1037.94667,497.306664 1037.95111,496.8 1037.95333,496.280001 L1037.955,495.49 C1037.955,494.956664 1037.95278,494.418889 1037.94833,493.876668 L1037.94,493.06 C1037.93,492.239996 1037.925,491.450004 1037.925,490.69 C1037.985,490.65 1038.155,490.59 1038.435,490.51 C1038.715,490.43 1039.035,490.36 1039.395,490.3 C1039.755,490.24 1040.105,490.205 1040.445,490.195 C1040.785,490.185 1041.035,490.21 1041.195,490.27 C1041.095,490.910003 1041.015,491.724995 1040.955,492.715 C1040.895,493.705005 1040.86,494.744995 1040.85,495.835 C1040.84,496.925005 1040.865,497.994995 1040.925,499.045 C1040.985,500.095005 1041.105,500.989996 1041.285,501.73 Z M1038.885,494.74 L1038.885,495.28 C1038.885,495.460001 1038.905,495.629999 1038.945,495.79 L1039.005,495.79 L1039.005,495.16 L1038.885,494.74 Z M1031.745,498.55 C1031.685,498.730001 1031.67,498.865 1031.7,498.955 L1031.79281,499.216562 C1031.80594,499.252187 1031.82,499.29 1031.835,499.33 L1031.955,499.33 L1031.955,498.73 L1031.745,498.55 Z M1031.835,500.29 C1031.795,500.29 1031.765,500.349999 1031.745,500.47 L1031.835,500.47 L1031.835,500.29 Z M1039.665,501.73 C1039.695,501.805 1039.71656,501.905312 1039.72969,502.030937 L1039.74,502.165 C1039.75,502.355001 1039.775,502.48 1039.815,502.54 C1039.815,502.379999 1039.83,502.26 1039.86,502.18 C1039.89,502.1 1039.915,502.000001 1039.935,501.88 L1039.875,501.73 L1039.665,501.73 Z M1044.015,484.78 C1044.035,484.659999 1044.14,484.545001 1044.33,484.435 C1044.52,484.324999 1044.765,484.22 1045.065,484.12 C1045.365,484.019999 1045.7,483.93 1046.07,483.85 C1046.44,483.77 1046.815,483.7 1047.195,483.64 L1047.20565,483.879911 C1047.21311,484.179733 1047.21098,484.659287 1047.19926,485.318579 L1047.16617,486.761407 C1047.15055,487.337655 1047.13117,487.961403 1047.10805,488.632654 L1047.04,490.568335 L1047.04,490.568335 L1046.9106,494.559402 L1046.9106,494.559402 L1046.675,502.900002 C1046.66167,503.473335 1046.655,503.893332 1046.655,504.16 C1046.095,504.660003 1045.03501,504.999999 1043.475,505.18 L1043.51426,504.878518 C1043.55278,504.542222 1043.58907,504.101484 1043.62315,503.556297 L1043.68041,502.494999 C1043.70571,501.952143 1043.72776,501.363574 1043.74653,500.729287 L1043.79,499.061666 C1043.81,498.250556 1043.83,497.395005 1043.85,496.495 C1043.87,495.594995 1043.88778,494.688333 1043.90333,493.775002 L1043.93906,491.371561 L1043.93906,491.371561 L1043.98561,486.744081 C1043.99378,486.051837 1044.00357,485.397146 1044.015,484.78 Z M1046.085,486.82 L1045.755,486.43 L1045.665,486.43 L1045.995,486.82 L1046.085,486.82 Z M1045.515,487.75 C1045.635,487.69 1045.69,487.67 1045.68,487.69 C1045.67,487.71 1045.685,487.640001 1045.725,487.48 L1045.485,487.48 C1045.5,487.54 1045.50656,487.5775 1045.50469,487.5925 C1045.49,487.6 1045.505,487.62 1045.545,487.66 L1045.515,487.75 Z M1044.495,501.13 L1044.555,501.13 C1044.615,500.969999 1044.65,500.785001 1044.66,500.575 C1044.67,500.364999 1044.685,500.160001 1044.705,499.96 C1044.665,500 1044.63,500.074999 1044.6,500.185 L1044.525,500.44 L1044.525,500.44 L1044.495,501.13 Z M1060.845,501.16 C1060.785,501.550002 1060.75031,501.934375 1060.74094,502.313124 L1060.74,502.69 C1060.75,503.190002 1060.725,503.589998 1060.665,503.89 C1060.245,504.310002 1059.715,504.624999 1059.075,504.835 C1058.435,505.045001 1057.78,505.15 1057.11,505.15 C1056.44,505.15 1055.8,505.060001 1055.19,504.88 C1054.58,504.699999 1054.105,504.440002 1053.765,504.1 C1053.385,503.739998 1053.145,503.280003 1053.045,502.72 C1052.945,502.159997 1052.895,501.490004 1052.895,500.71 C1052.895,499.93 1052.915,499.040005 1052.955,498.04 C1052.995,497.039995 1052.975,495.920006 1052.895,494.68 C1052.735,494.64 1052.53,494.62 1052.28,494.62 C1052.11333,494.62 1051.93333,494.622222 1051.74,494.626667 L1051.44,494.635 C1051.13,494.645 1050.81,494.66 1050.48,494.68 C1050.15,494.7 1049.835,494.7 1049.535,494.68 C1049.455,494.64 1049.365,494.530001 1049.265,494.35 L1049.05833,493.97 C1049.02278,493.903334 1048.98667,493.835 1048.95,493.765 C1048.87667,493.624999 1048.80778,493.482778 1048.74333,493.338334 L1048.65,493.12 C1048.56,492.899999 1048.475,492.730001 1048.395,492.61 L1048.767,492.6052 C1048.971,492.6004 1049.202,492.592 1049.46,492.58 L1050.33333,492.533333 C1050.48111,492.524445 1050.63,492.515 1050.78,492.505 C1051.23,492.475 1051.655,492.44 1052.055,492.4 L1052.5875,492.34 C1052.7425,492.32 1052.875,492.3 1052.985,492.28 L1052.985,486.97 C1053.165,486.849999 1053.425,486.715001 1053.765,486.565 C1054.105,486.414999 1054.455,486.285001 1054.815,486.175 C1055.175,486.064999 1055.51,485.99 1055.82,485.95 C1056.13,485.91 1056.345,485.93 1056.465,486.01 L1056.36,487.45 C1056.31,488.110003 1056.27,488.774997 1056.24,489.445 C1056.216,489.981003 1056.2016,490.465799 1056.1968,490.899399 L1056.195,491.215 C1056.195,491.725003 1056.235,491.97 1056.315,491.95 L1056.855,491.92 L1056.855,491.92 L1058.475,491.80375 L1058.475,491.80375 L1059.6702,491.734 C1059.7854,491.726 1059.887,491.718 1059.975,491.71 C1060.155,491.890001 1060.325,492.104999 1060.485,492.355 C1060.645,492.605001 1060.78,492.844999 1060.89,493.075 C1061,493.305001 1061.075,493.509999 1061.115,493.69 C1061.155,493.870001 1061.145,493.98 1061.085,494.02 C1060.925,494.08 1060.625,494.115 1060.185,494.125 L1059.49125,494.13625 L1059.49125,494.13625 L1058.73,494.14 C1058.2,494.14 1057.695,494.15 1057.215,494.17 C1056.735,494.19 1056.375,494.23 1056.135,494.29 C1056.075,494.670002 1056.04,495.149997 1056.03,495.73 C1056.02,496.310003 1056.02,496.889997 1056.03,497.47 C1056.03667,497.856669 1056.04556,498.23 1056.05667,498.589999 L1056.10071,499.716939 C1056.11214,499.950408 1056.12357,500.141428 1056.135,500.29 C1056.135,501.050004 1056.255,501.619998 1056.495,502 C1056.735,502.380002 1057.065,502.595 1057.485,502.645 C1057.905,502.695 1058.405,502.595001 1058.985,502.345 C1059.565,502.094999 1060.185,501.700003 1060.845,501.16 Z M1054.965,502.75 C1054.825,502.409998 1054.805,502.105001 1054.905,501.835 C1054.98,501.632499 1055.03813,501.444063 1055.07937,501.269688 L1055.115,501.1 C1055.135,501.02 1055.15,500.925001 1055.16,500.815 C1055.17,500.704999 1055.155,500.64 1055.115,500.62 L1055.00625,500.77375 C1054.96375,500.83625 1054.915,500.91 1054.86,500.995 C1054.75,501.165001 1054.66,501.354999 1054.59,501.565 C1054.52,501.775001 1054.505,501.984999 1054.545,502.195 C1054.585,502.405001 1054.725,502.589999 1054.965,502.75 Z M1074.645,501.73 C1074.825,502.310003 1075,502.859997 1075.17,503.38 C1075.34,503.900003 1075.495,504.269999 1075.635,504.49 C1075.491,504.49 1075.315,504.506 1075.107,504.538 L1074.945,504.565 C1074.665,504.615 1074.385,504.66 1074.105,504.7 C1073.825,504.74 1073.56,504.765 1073.31,504.775 C1073.11,504.783 1072.9516,504.7558 1072.8348,504.6934 L1072.755,504.64 C1072.53833,504.506666 1072.36681,504.314306 1072.24042,504.062917 L1072.17,503.905 C1072.04,503.574998 1071.875,503.310001 1071.675,503.11 C1070.835,503.730003 1069.955,504.114999 1069.035,504.265 C1068.115,504.415001 1067.26,504.380001 1066.47,504.16 C1065.68,503.939999 1065.01,503.550003 1064.46,502.99 C1063.91,502.429997 1063.595,501.750004 1063.515,500.95 C1063.435,500.209996 1063.395,499.405004 1063.395,498.535 C1063.395,497.664996 1063.4,496.790004 1063.41,495.91 L1063.44,493.3 L1063.44,493.3 C1063.45,492.439996 1063.425,491.640004 1063.365,490.9 L1063.6125,490.79875 C1063.7075,490.76125 1063.815,490.72 1063.935,490.675 C1064.175,490.585 1064.435,490.5 1064.715,490.42 C1064.995,490.34 1065.275,490.28 1065.555,490.24 C1065.835,490.2 1066.085,490.21 1066.305,490.27 L1066.25789,491.045547 C1066.23055,491.519765 1066.20125,492.066247 1066.17,492.685 C1066.12,493.675005 1066.085,494.679995 1066.065,495.7 C1066.045,496.720005 1066.065,497.669996 1066.125,498.55 C1066.185,499.430004 1066.305,500.069998 1066.485,500.47 C1066.565,500.850002 1066.745,501.154999 1067.025,501.385 C1067.305,501.615001 1067.63,501.77 1068,501.85 C1068.37,501.93 1068.76,501.94 1069.17,501.88 C1069.58,501.82 1069.95,501.700001 1070.28,501.52 C1070.61,501.339999 1070.87,501.105001 1071.06,500.815 C1071.25,500.524999 1071.315,500.180002 1071.255,499.78 L1071.2766,499.0456 C1071.2862,498.659201 1071.294,498.244002 1071.3,497.8 C1071.31,497.059996 1071.315,496.290004 1071.315,495.49 C1071.315,494.956664 1071.31278,494.418889 1071.30833,493.876668 L1071.3,493.06 C1071.29,492.239996 1071.285,491.450004 1071.285,490.69 C1071.345,490.65 1071.515,490.59 1071.795,490.51 C1072.075,490.43 1072.395,490.36 1072.755,490.3 C1073.115,490.24 1073.465,490.205 1073.805,490.195 C1074.145,490.185 1074.395,490.21 1074.555,490.27 C1074.455,490.910003 1074.375,491.724995 1074.315,492.715 C1074.255,493.705005 1074.22,494.744995 1074.21,495.835 C1074.2,496.925005 1074.225,497.994995 1074.285,499.045 C1074.345,500.095005 1074.465,500.989996 1074.645,501.73 Z M1072.245,494.74 L1072.245,495.28 C1072.245,495.460001 1072.265,495.629999 1072.305,495.79 L1072.365,495.79 L1072.365,495.16 L1072.245,494.74 Z M1065.105,498.55 C1065.045,498.730001 1065.03,498.865 1065.06,498.955 L1065.15281,499.216562 C1065.16594,499.252187 1065.18,499.29 1065.195,499.33 L1065.315,499.33 L1065.315,498.73 L1065.105,498.55 Z M1065.195,500.29 C1065.155,500.29 1065.125,500.349999 1065.105,500.47 L1065.195,500.47 L1065.195,500.29 Z M1073.025,501.73 C1073.055,501.805 1073.07656,501.905312 1073.08969,502.030937 L1073.1,502.165 C1073.11,502.355001 1073.135,502.48 1073.175,502.54 C1073.175,502.419999 1073.18344,502.3225 1073.20031,502.2475 L1073.22,502.18 C1073.25,502.1 1073.275,502.000001 1073.295,501.88 L1073.235,501.73 L1073.025,501.73 Z M1085.985,493.66 C1085.505,493.66 1085.005,493.729999 1084.485,493.87 C1083.965,494.010001 1083.465,494.214999 1082.985,494.485 C1082.505,494.755001 1082.055,495.089998 1081.635,495.49 C1081.215,495.890002 1080.865,496.359997 1080.585,496.9 C1080.525,497.720004 1080.485,498.534996 1080.465,499.345 L1080.4266,501.154599 L1080.4266,501.154599 L1080.39,503.245 L1080.39,503.245 L1080.37969,503.547813 C1080.36656,503.815939 1080.345,503.98 1080.315,504.04 L1079.355,504.355 L1079.355,504.355 L1078.86375,504.505 C1078.70625,504.55 1078.555,504.59 1078.41,504.625 C1078.12,504.695 1077.885,504.735 1077.705,504.745 C1077.525,504.755 1077.435,504.71 1077.435,504.61 C1077.435,504.096664 1077.45012,503.4442 1077.48037,502.652594 L1077.5676,500.555199 C1077.5952,499.842401 1077.621,499.099004 1077.645,498.325 C1077.685,497.034994 1077.705,495.740006 1077.705,494.44 C1077.705,493.139994 1077.645,491.980005 1077.525,490.96 C1077.589,490.96 1077.6978,490.9312 1077.8514,490.8736 L1078.335,490.6825 C1078.465,490.6325 1078.605,490.58 1078.755,490.525 C1079.055,490.414999 1079.375,490.310001 1079.715,490.21 C1080.055,490.11 1080.365,490.04 1080.645,490 L1080.555,490.915 L1080.555,490.915 C1080.54167,491.015001 1080.53056,491.119444 1080.52167,491.228333 L1080.51,491.395 C1080.50333,491.508334 1080.49889,491.663888 1080.49667,491.861666 L1080.495,494.05 C1080.855,493.489997 1081.375,492.920003 1082.055,492.34 C1082.735,491.759997 1083.535,491.300002 1084.455,490.96 C1084.715,491.180001 1084.955,491.439999 1085.175,491.74 C1085.395,492.040002 1085.575,492.334999 1085.715,492.625 C1085.855,492.915001 1085.95,493.159999 1086,493.36 C1086.05,493.560001 1086.045,493.66 1085.985,493.66 Z M1098.225,501.88 L1098.33333,501.838333 L1098.33333,501.838333 L1098.6,501.745 C1098.75,501.695 1098.905,501.64 1099.065,501.58 C1099.245,501.5 1099.435,501.42 1099.635,501.34 C1098.835,502.540006 1097.91001,503.439997 1096.86,504.04 C1095.80999,504.640003 1094.75501,504.975 1093.695,505.045 C1092.63499,505.115 1091.62,504.945002 1090.65,504.535 C1089.68,504.124998 1088.86,503.515004 1088.19,502.705 C1087.52,501.894996 1087.065,500.905006 1086.825,499.735 C1086.585,498.564994 1086.655,497.260007 1087.035,495.82 C1087.355,494.639994 1087.845,493.645004 1088.505,492.835 C1089.165,492.024996 1089.9,491.405002 1090.71,490.975 C1091.52,490.544998 1092.375,490.31 1093.275,490.27 C1094.175,490.23 1095.01,490.389998 1095.78,490.75 C1096.55,491.110002 1097.225,491.669996 1097.805,492.43 C1098.385,493.190004 1098.775,494.149994 1098.975,495.31 C1098.991,495.454001 1099.0262,495.639599 1099.0806,495.866799 L1099.125,496.045 C1099.205,496.355002 1099.27,496.669998 1099.32,496.99 C1099.37,497.310002 1099.39,497.619999 1099.38,497.92 C1099.37,498.220002 1099.305,498.439999 1099.185,498.58 L1097.7525,498.61 L1097.7525,498.61 L1095.9948,498.637 L1095.9948,498.637 L1094.625,498.655 C1094.025,498.6625 1093.45031,498.667188 1092.90094,498.669063 L1092.36,498.67 C1091.65,498.67 1091.045,498.66 1090.545,498.64 L1090.2413,498.623704 C1089.92154,498.601235 1089.72278,498.566667 1089.645,498.52 C1089.485,499.040003 1089.485,499.514998 1089.645,499.945 C1089.805,500.375002 1090.085,500.754998 1090.485,501.085 C1090.885,501.415002 1091.38,501.684999 1091.97,501.895 C1092.56,502.105001 1093.205,502.25 1093.905,502.33 C1094.605,502.41 1095.325,502.415 1096.065,502.345 C1096.805,502.275 1097.525,502.120001 1098.225,501.88 Z M1091.805,491.56 L1091.895,491.56 L1091.895,491.38 L1091.985,491.38 L1091.895,491.29 L1091.805,491.56 Z M1093.065,491.38 C1093.097,491.46 1093.1194,491.575199 1093.1322,491.7256 L1093.14,491.845 C1093.15,492.055001 1093.175,492.2 1093.215,492.28 C1093.22833,492.173333 1093.24389,492.08 1093.26167,492 L1093.29,491.89 C1093.32,491.79 1093.345,491.670001 1093.365,491.53 L1093.305,491.38 L1093.065,491.38 Z M1091.295,492.64 L1091.055,492.64 L1091.10167,492.84 C1091.10389,492.853333 1091.10333,492.856667 1091.1,492.85 C1091.09,492.83 1091.135,492.85 1091.235,492.91 L1091.235,492.82 L1091.27625,492.775 C1091.28,492.77 1091.28219,492.76625 1091.28281,492.76375 C1091.27,492.76 1091.275,492.72 1091.295,492.64 Z M1096.3746,495.4336 L1096.305,495.22 C1096.065,494.419996 1095.66,493.835002 1095.09,493.465 C1094.52,493.094998 1093.905,492.955 1093.245,493.045 C1092.585,493.135 1091.95,493.464997 1091.34,494.035 C1090.73,494.605003 1090.255,495.419995 1089.915,496.48 L1090.93592,496.472347 C1091.09959,496.470306 1091.27428,496.467857 1091.46,496.465 C1092.11,496.455 1092.77,496.43 1093.44,496.39 C1094.11,496.35 1094.74,496.3 1095.33,496.24 C1095.92,496.18 1096.335,496.11 1096.575,496.03 C1096.555,495.869999 1096.52,495.745 1096.47,495.655 C1096.44,495.601 1096.4082,495.5272 1096.3746,495.4336 Z M1097.535,494.65 L1097.515,494.581667 L1097.515,494.581667 L1097.475,494.395 C1097.455,494.284999 1097.425,494.21 1097.385,494.17 C1097.385,494.370001 1097.39,494.574999 1097.4,494.785 C1097.41,494.995001 1097.435,495.179999 1097.475,495.34 L1097.535,495.34 L1097.535,494.65 Z M1090.065,495.04 L1089.645,495.25 L1089.89167,495.216667 C1089.92722,495.212222 1089.96,495.208333 1089.99,495.205 C1090.08,495.195 1090.105,495.14 1090.065,495.04 Z M1095.735,496.75 C1095.78833,496.71 1095.84167,496.678889 1095.895,496.656667 L1095.975,496.63 C1096.055,496.61 1096.125,496.57 1096.185,496.51 L1096.095,496.51 C1096.035,496.555 1095.96094,496.58875 1095.87281,496.61125 L1095.78,496.63 C1095.65,496.65 1095.555,496.69 1095.495,496.75 L1095.735,496.75 Z M1089.285,500.86 C1089.245,500.86 1089.215,500.919999 1089.195,501.04 L1089.285,501.04 L1089.285,500.86 Z M1109.295,484.93 C1109.495,484.99 1109.835,485.025 1110.315,485.035 C1110.795,485.045 1111.35,485.035 1111.98,485.005 C1112.61,484.975 1113.285,484.925 1114.005,484.855 C1114.725,484.785 1115.405,484.705 1116.045,484.615 C1116.685,484.525 1117.25,484.430001 1117.74,484.33 C1118.23,484.23 1118.585,484.120001 1118.805,484 C1119.025,484.06 1119.245,484.189999 1119.465,484.39 C1119.685,484.590001 1119.89,484.809999 1120.08,485.05 C1120.27,485.290001 1120.435,485.534999 1120.575,485.785 C1120.715,486.035001 1120.825,486.249999 1120.905,486.43 C1120.685,486.570001 1120.36,486.675 1119.93,486.745 C1119.5,486.815 1119.07,486.865 1118.64,486.895 L1117.9254,486.949 L1117.9254,486.949 L1117.515,486.985 C1117.235,487.01125 1117.09281,487.041328 1117.08844,487.075234 L1117.095,487.09 C1117.135,487.15 1117.155,487.549996 1117.155,488.29 L1117.14328,489.882577 C1117.13859,490.242107 1117.1325,490.626248 1117.125,491.035 L1117.0875,492.7375 C1117.0725,493.327498 1117.055,493.939997 1117.035,494.575 L1116.9846,496.060601 C1116.967,496.543 1116.9486,497.012598 1116.9294,497.469398 L1116.81211,500.044609 L1116.81211,500.044609 L1116.72021,501.832918 C1116.70174,502.134307 1116.68667,502.32 1116.675,502.39 C1116.455,503.570006 1116.14,504.614995 1115.73,505.525 C1115.32,506.435005 1114.785,507.199997 1114.125,507.82 C1113.465,508.440003 1112.66,508.909998 1111.71,509.23 C1110.76,509.550002 1109.62501,509.71 1108.305,509.71 C1108.525,509.489999 1108.895,509.195002 1109.415,508.825 C1109.935,508.454998 1110.47,507.910004 1111.02,507.19 C1111.57,506.469996 1112.08,505.530006 1112.55,504.37 C1112.98385,503.299225 1113.2771,501.938764 1113.42976,500.288582 L1113.48961,499.562735 C1113.50445,499.346329 1113.52125,499.053752 1113.54,498.685 L1113.56833,498.058333 C1113.58611,497.616112 1113.60167,497.125003 1113.615,496.585 L1113.6456,495.056801 C1113.6512,494.701602 1113.656,494.336002 1113.66,493.96 C1113.67,493.019995 1113.67,492.110004 1113.66,491.23 C1113.65,490.349996 1113.625,489.545004 1113.585,488.815 C1113.545,488.084996 1113.475,487.510002 1113.375,487.09 L1113.13125,487.09375 L1113.13125,487.09375 L1112.115,487.135 L1112.115,487.135 C1111.875,487.145 1111.64,487.145 1111.41,487.135 C1111.18,487.125 1110.995,487.09 1110.855,487.03 C1110.635,486.95 1110.435,486.825001 1110.255,486.655 C1110.075,486.484999 1109.92,486.300001 1109.79,486.1 C1109.66,485.899999 1109.55,485.695001 1109.46,485.485 C1109.37,485.274999 1109.315,485.090001 1109.295,484.93 Z M1116.5475,489.07 L1116.5325,489.16 C1116.5475,489.22 1116.565,489.27 1116.585,489.31 C1116.575,489.209999 1116.5625,489.13 1116.5475,489.07 L1116.5325,489.16 L1116.5475,489.07 Z M1115.565,491.95 C1115.565,491.89 1115.575,491.85 1115.595,491.83 C1115.515,491.77 1115.445,491.695 1115.385,491.605 C1115.325,491.515 1115.265,491.43 1115.205,491.35 L1114.965,491.35 C1114.95167,491.376667 1114.94056,491.394445 1114.93167,491.403333 L1114.92,491.41 C1114.91,491.41 1114.895,491.43 1114.875,491.47 L1114.8375,491.4925 C1114.835,491.495 1114.83437,491.496875 1114.83562,491.498125 L1114.845,491.5 C1114.865,491.5 1114.875,491.53 1114.875,491.59 C1114.905,491.695001 1114.94062,491.774688 1114.98187,491.829062 L1115.025,491.875 C1115.085,491.925 1115.145,492.009999 1115.205,492.13 L1115.445,492.07 L1115.565,491.95 Z M1116.405,493.24 L1116.44625,493.195 C1116.45,493.19 1116.45219,493.18625 1116.45281,493.18375 C1116.44,493.18 1116.425,493.14 1116.405,493.06 C1116.245,493.12 1116.135,493.18 1116.075,493.24 C1116.015,493.3 1115.955,493.409999 1115.895,493.57 C1115.94833,493.516666 1116.00833,493.474444 1116.075,493.443333 L1116.18,493.405 C1116.29,493.375 1116.365,493.32 1116.405,493.24 Z M1112.865,506.2 C1113.005,506.12 1113.13,505.930002 1113.24,505.63 C1113.35,505.329998 1113.335,505.070001 1113.195,504.85 C1113.155,505.130001 1113.095,505.384999 1113.015,505.615 C1112.935,505.845001 1112.855,506.099999 1112.775,506.38 L1112.865,506.38 L1112.865,506.2 Z M1124.235,489.61 C1124.175,489.61 1124.035,489.430002 1123.815,489.07 C1123.595,488.709998 1123.355,488.290002 1123.095,487.81 C1122.835,487.329998 1122.6,486.835003 1122.39,486.325 C1122.18,485.814997 1122.055,485.410002 1122.015,485.11 C1122.855,485.15 1123.665,485.359998 1124.445,485.74 C1125.225,486.120002 1125.815,486.579997 1126.215,487.12 C1126.135,487.240001 1126.02,487.424999 1125.87,487.675 C1125.72,487.925001 1125.55,488.179999 1125.36,488.44 C1125.17,488.700001 1124.975,488.939999 1124.775,489.16 C1124.575,489.380001 1124.395,489.53 1124.235,489.61 Z M1123.065,491.32 C1123.225,491.32 1123.47,491.28 1123.8,491.2 L1124.805,490.96 C1125.06,490.9 1125.29531,490.845625 1125.51094,490.796875 L1125.72,490.75 C1125.99,490.69 1126.155,490.69 1126.215,490.75 L1126.1862,491.585199 L1126.1862,491.585199 L1125.8748,498.478601 C1125.858,498.881 1125.8428,499.274599 1125.8292,499.659399 L1125.74388,502.382652 L1125.74388,502.382652 L1125.72463,503.121112 C1125.71599,503.582594 1125.71944,503.898888 1125.735,504.07 C1125.715,504.15 1125.595,504.244999 1125.375,504.355 C1125.155,504.465001 1124.885,504.569999 1124.565,504.67 C1124.245,504.77 1123.92,504.85 1123.59,504.91 C1123.26,504.97 1122.985,504.99 1122.765,504.97 L1122.81459,503.140918 C1122.82929,502.687857 1122.84724,502.187451 1122.86847,501.639695 L1122.885,501.22 C1122.909,500.619997 1122.9312,499.9912 1122.9516,499.333601 L1123.10742,493.737108 C1123.11914,493.201953 1123.125,492.731252 1123.125,492.325 L1123.12302,492.001693 C1123.11707,491.563593 1123.09773,491.336364 1123.065,491.32 Z M1124.445,500.44 L1124.265,499.93 C1124.225,500.410002 1124.215,500.779999 1124.235,501.04 C1124.255,501.300001 1124.295,501.629998 1124.355,502.03 L1124.445,502.03 L1124.445,500.44 Z M1132.215,491.5 C1133.31501,491.079998 1134.3,490.89 1135.17,490.93 C1136.04,490.97 1136.905,491.219998 1137.765,491.68 C1138.085,491.519999 1138.49,491.355001 1138.98,491.185 C1139.47,491.014999 1139.915,490.820001 1140.315,490.6 C1140.155,492.360009 1140.055,494.039992 1140.015,495.64 L1139.98969,496.805315 C1139.9725,497.747502 1139.96508,498.617419 1139.96742,499.415077 L1139.97,499.885 C1139.97889,500.978339 1139.99568,501.885986 1140.02037,502.607962 L1140.0649,503.642918 C1140.07997,503.920973 1140.09333,504.083333 1140.105,504.13 C1139.885,504.350001 1139.605,504.529999 1139.265,504.67 C1138.925,504.810001 1138.59,504.925 1138.26,505.015 C1137.93,505.105 1137.645,505.17 1137.405,505.21 L1137.015,505.27 L1137.015,505.27 L1137.015,503.26 C1136.615,503.640002 1136.205,503.974999 1135.785,504.265 C1135.365,504.555001 1134.865,504.72 1134.285,504.76 C1133.04499,504.860001 1131.98,504.655003 1131.09,504.145 C1130.2,503.634997 1129.505,502.955004 1129.005,502.105 C1128.505,501.254996 1128.195,500.305005 1128.075,499.255 C1127.955,498.204995 1128.025,497.170005 1128.285,496.15 C1128.545,495.129995 1129,494.200004 1129.65,493.36 C1130.3,492.519996 1131.15499,491.900002 1132.215,491.5 Z M1135.695,493.18 C1134.49499,493.320001 1133.54,493.674997 1132.83,494.245 C1132.12,494.815003 1131.63,495.479996 1131.36,496.24 C1131.09,497.000004 1131.025,497.784996 1131.165,498.595 C1131.305,499.405004 1131.62,500.114997 1132.11,500.725 C1132.6,501.335003 1133.26,501.779999 1134.09,502.06 C1134.92,502.340001 1135.88499,502.320002 1136.985,502 L1137.05315,500.444443 C1137.0766,499.848148 1137.09389,499.316669 1137.105,498.85 L1137.1252,497.836122 C1137.13173,497.414898 1137.135,497.032859 1137.135,496.69 L1137.1296,495.6748 L1137.1296,495.6748 L1137.12,495.07 C1137.11,494.589998 1137.115,494.070003 1137.135,493.51 L1136.49,493.27 L1136.49,493.27 C1136.22,493.17 1135.955,493.14 1135.695,493.18 Z M1130.025,496.03 C1130.145,496.03 1130.24,496.025 1130.31,496.015 C1130.38,496.005 1130.465,495.98 1130.565,495.94 L1130.3994,495.9424 C1130.3298,495.9448 1130.28,495.949 1130.25,495.955 C1130.2,495.965 1130.125,495.99 1130.025,496.03 Z M1133.715,503.26 C1134.035,503.360001 1134.39,503.415 1134.78,503.425 C1135.17,503.435 1135.555,503.370001 1135.935,503.23 C1135.755,503.19 1135.575,503.175 1135.395,503.185 L1134.855,503.215 C1134.675,503.225 1134.495,503.23 1134.315,503.23 C1134.135,503.23 1133.955,503.2 1133.775,503.14 L1133.625,503.23 L1133.715,503.26 Z M1150.96219,497.53 L1150.965,497.41 C1151.005,496.389995 1150.915,495.545003 1150.695,494.875 C1150.475,494.204997 1150.18,493.695002 1149.81,493.345 C1149.44,492.994998 1149.02,492.795 1148.55,492.745 C1148.08,492.695 1147.625,492.759999 1147.185,492.94 C1146.745,493.120001 1146.345,493.414998 1145.985,493.825 C1145.625,494.235002 1145.365,494.719997 1145.205,495.28 C1145.11611,495.706669 1145.05883,496.303207 1145.03315,497.069629 L1145.025,497.365 C1145.01,498.047503 1144.99781,498.755311 1144.98844,499.488436 L1144.9656,501.401201 C1144.9572,501.9724 1144.947,502.521997 1144.935,503.05 L1144.9187,503.602594 C1144.89623,504.207533 1144.86167,504.673332 1144.815,505 C1144.475,504.899999 1144.06,504.800001 1143.57,504.7 C1143.08,504.6 1142.595,504.440001 1142.115,504.22 C1142.08389,504.157777 1142.07395,503.947347 1142.08519,503.588705 L1142.11347,502.992142 L1142.11347,502.992142 L1142.28,500.059 C1142.31,499.513001 1142.34,498.940003 1142.37,498.34 C1142.42,497.339995 1142.45,496.370005 1142.46,495.43 C1142.47,494.489995 1142.445,493.645004 1142.385,492.895 C1142.325,492.144996 1142.215,491.590002 1142.055,491.23 C1142.115,491.129999 1142.275,491.144999 1142.535,491.275 C1142.795,491.405001 1143.075,491.569999 1143.375,491.77 C1143.575,491.903334 1143.76167,492.036667 1143.935,492.17 L1144.49847,492.624694 C1144.55235,492.666327 1144.58786,492.691429 1144.605,492.7 C1144.765,492.179997 1145.105,491.740002 1145.625,491.38 C1146.145,491.019998 1146.74,490.765001 1147.41,490.615 C1148.08,490.464999 1148.775,490.42 1149.495,490.48 C1150.215,490.54 1150.88,490.734998 1151.49,491.065 C1152.1,491.395002 1152.59,491.854997 1152.96,492.445 C1153.28889,492.969447 1153.4637,493.616355 1153.48444,494.38574 L1153.4801,495.066938 L1153.4801,495.066938 L1153.47,495.55 C1153.462,495.902002 1153.4572,496.308399 1153.4556,496.769199 L1153.455,497.125 C1153.455,497.735003 1153.45,498.384997 1153.44,499.075 L1153.41,501.085 C1153.402,501.605003 1153.3908,502.086599 1153.3764,502.529799 L1153.33929,503.467552 C1153.32786,503.709184 1153.31643,503.909999 1153.305,504.07 C1153.17,504.1 1153.02094,504.144062 1152.85781,504.202187 L1152.45667,504.356667 L1152.45667,504.356667 L1151.97,504.55 C1151.72,504.65 1151.475,504.745 1151.235,504.835 C1150.995,504.925 1150.785,504.98 1150.605,505 C1150.5925,505.025 1150.58781,504.979688 1150.59094,504.864063 L1150.635,504.02125 L1150.635,504.02125 L1150.665,503.305 C1150.68,502.907498 1150.70062,502.481876 1150.72687,502.028126 L1150.755,501.565 C1150.785,501.092498 1150.80938,500.636875 1150.82812,500.198126 L1150.8714,499.112199 C1150.881,498.905 1150.8914,498.708201 1150.9026,498.521801 L1150.96219,497.53 L1150.96219,497.53 Z M1151.835,492.97 C1151.775,492.689999 1151.685,492.480001 1151.565,492.34 C1151.565,492.540001 1151.57,492.694999 1151.58,492.805 C1151.59,492.915001 1151.605,493.019999 1151.625,493.12 L1151.685,493.06 L1151.745,492.97 L1151.835,492.97 Z M1143.855,498.31 C1143.755,498.109999 1143.715,497.925001 1143.735,497.755 C1143.755,497.584999 1143.765,497.420001 1143.765,497.26 L1143.765,497.095 C1143.765,497.025 1143.745,496.99 1143.705,496.99 L1143.615,497.26 C1143.575,497.380001 1143.55,497.504999 1143.54,497.635 C1143.53,497.765001 1143.545,497.894999 1143.585,498.025 C1143.625,498.155001 1143.715,498.25 1143.855,498.31 Z M1152.465,503.26 C1152.365,502.739997 1152.325,502.245002 1152.345,501.775 C1152.36,501.422498 1152.36938,501.089688 1152.37313,500.776563 L1152.375,500.005 L1152.3702,499.837 C1152.3654,499.771 1152.357,499.732 1152.345,499.72 L1152.24,500.395 L1152.24,500.395 C1152.19,500.705002 1152.155,501.039998 1152.135,501.4 C1152.115,501.760002 1152.125,502.114998 1152.165,502.465 C1152.205,502.815002 1152.305,503.079999 1152.465,503.26 Z M1168.095,490.66 L1168.08,492.145 L1168.08,492.145 L1168.035,494.515 L1168.035,494.515 L1168.00125,495.88 L1168.00125,495.88 L1167.8976,499.527399 L1167.8976,499.527399 L1167.84459,502.007958 L1167.84459,502.007958 L1167.825,503.56 L1167.825,503.56 C1167.825,504.220003 1167.8,504.939996 1167.75,505.72 C1167.7,506.500004 1167.53,507.234997 1167.24,507.925 C1166.95,508.615003 1166.485,509.219997 1165.845,509.74 C1165.205,510.260003 1164.29501,510.589999 1163.115,510.73 C1162.595,510.79 1162.005,510.81 1161.345,510.79 C1160.685,510.77 1160.035,510.685001 1159.395,510.535 C1158.755,510.384999 1158.155,510.175001 1157.595,509.905 C1157.035,509.634999 1156.595,509.280002 1156.275,508.84 C1156.09722,508.59111 1155.96685,508.188151 1155.88389,507.631112 L1155.585,505.24 L1155.585,505.24 C1156.065,505.520001 1156.585,505.839998 1157.145,506.2 C1157.705,506.560002 1158.305,506.884999 1158.945,507.175 C1159.585,507.465001 1160.265,507.669999 1160.985,507.79 C1161.705,507.910001 1162.465,507.860001 1163.265,507.64 C1163.565,507.56 1163.805,507.360002 1163.985,507.04 C1164.165,506.719998 1164.305,506.335002 1164.405,505.885 C1164.505,505.434998 1164.575,504.940003 1164.615,504.4 C1164.655,503.859997 1164.68,503.330003 1164.69,502.81 C1164.69667,502.463332 1164.69889,502.127778 1164.69667,501.803334 L1164.69,501.325 C1164.68,500.854998 1164.685,500.470002 1164.705,500.17 C1164.485,500.670003 1164.15,501.099998 1163.7,501.46 C1163.25,501.820002 1162.73,502.094999 1162.14,502.285 C1161.55,502.475001 1160.93,502.585 1160.28,502.615 C1159.63,502.645 1159.005,502.565001 1158.405,502.375 C1157.805,502.184999 1157.255,501.890002 1156.755,501.49 C1156.255,501.089998 1155.865,500.570003 1155.585,499.93 C1155.165,498.969995 1154.95,497.940005 1154.94,496.84 C1154.93,495.739995 1155.11,494.700005 1155.48,493.72 C1155.85,492.739995 1156.405,491.885004 1157.145,491.155 C1157.885,490.424996 1158.78499,489.960001 1159.845,489.76 C1161.34501,489.479999 1162.59,489.474999 1163.58,489.745 C1164.57,490.015001 1165.415,490.569996 1166.115,491.41 L1166.4075,491.24125 L1166.4075,491.24125 L1166.535,491.17 C1166.715,491.069999 1166.905,490.975 1167.105,490.885 C1167.305,490.795 1167.495,490.725 1167.675,490.675 C1167.855,490.625 1167.995,490.62 1168.095,490.66 Z M1160.565,499.57 C1160.845,499.55 1161.205,499.54 1161.645,499.54 C1162.085,499.54 1162.515,499.505 1162.935,499.435 C1163.355,499.365 1163.73,499.235001 1164.06,499.045 C1164.39,498.854999 1164.605,498.570002 1164.705,498.19 C1164.825,498.049999 1164.905,497.800002 1164.945,497.44 C1164.985,497.079998 1165.005,496.660002 1165.005,496.18 L1165.00125,495.43375 L1165.00125,495.43375 L1164.99,494.635 C1164.98,494.084997 1164.975,493.540003 1164.975,493 C1164.975,492.899999 1164.87,492.765001 1164.66,492.595 C1164.45,492.424999 1164.16,492.285001 1163.79,492.175 C1163.42,492.064999 1162.97,492.015 1162.44,492.025 C1161.91,492.035 1161.315,492.159999 1160.655,492.4 C1160.115,492.600001 1159.665,492.919998 1159.305,493.36 C1158.945,493.800002 1158.67,494.294997 1158.48,494.845 C1158.29,495.395003 1158.195,495.954997 1158.195,496.525 C1158.195,497.095003 1158.28,497.609998 1158.45,498.07 C1158.62,498.530002 1158.88,498.904999 1159.23,499.195 C1159.58,499.485001 1160.025,499.61 1160.565,499.57 Z M1158.285,499.81 C1158.125,499.75 1157.995,499.665001 1157.895,499.555 C1157.795,499.444999 1157.705,499.330001 1157.625,499.21 C1157.545,499.089999 1157.465,498.965001 1157.385,498.835 C1157.305,498.704999 1157.205,498.59 1157.085,498.49 L1157.085,498.67 C1157.277,498.830001 1157.437,499.009199 1157.565,499.2076 L1157.655,499.36 C1157.795,499.620001 1158.005,499.829999 1158.285,499.99 L1158.285,499.81 Z M1157.925,500.95 L1157.925,500.74 L1157.46,500.335 L1157.46,500.335 C1157.31,500.204999 1157.155,500.060001 1156.995,499.9 L1156.935,500.05 L1156.995,500.2 C1157.095,500.380001 1157.225,500.524999 1157.385,500.635 C1157.545,500.745001 1157.725,500.85 1157.925,500.95 Z M1166.745,504.07 C1166.645,503.549997 1166.605,503.045002 1166.625,502.555 C1166.64,502.187498 1166.64938,501.845313 1166.65313,501.528438 L1166.655,500.74 C1166.655,500.559999 1166.635,500.46 1166.595,500.44 L1166.49,501.145 L1166.49,501.145 C1166.44,501.475002 1166.405,501.824998 1166.385,502.195 C1166.365,502.565002 1166.375,502.924998 1166.415,503.275 C1166.455,503.625002 1166.565,503.889999 1166.745,504.07 Z M1159.515,500.95 C1159.56,500.92 1159.62469,500.892813 1159.70906,500.868438 L1159.8,500.845 C1159.93,500.815 1160.025,500.78 1160.085,500.74 L1159.9575,500.7175 C1159.9225,500.7125 1159.895,500.71 1159.875,500.71 C1159.835,500.71 1159.775,500.69 1159.695,500.65 C1159.635,500.71 1159.515,500.74 1159.335,500.74 L1159.335,500.95 L1159.515,500.95 Z M1179.28219,497.53 L1179.285,497.41 C1179.325,496.389995 1179.235,495.545003 1179.015,494.875 C1178.795,494.204997 1178.5,493.695002 1178.13,493.345 C1177.76,492.994998 1177.34,492.795 1176.87,492.745 C1176.4,492.695 1175.945,492.759999 1175.505,492.94 C1175.065,493.120001 1174.665,493.414998 1174.305,493.825 C1173.945,494.235002 1173.685,494.719997 1173.525,495.28 C1173.43611,495.706669 1173.37883,496.303207 1173.35315,497.069629 L1173.345,497.365 C1173.33,498.047503 1173.31781,498.755311 1173.30844,499.488436 L1173.2856,501.401201 C1173.2772,501.9724 1173.267,502.521997 1173.255,503.05 L1173.2387,503.602594 C1173.21623,504.207533 1173.18167,504.673332 1173.135,505 C1172.795,504.899999 1172.38,504.800001 1171.89,504.7 C1171.4,504.6 1170.915,504.440001 1170.435,504.22 C1170.40389,504.157777 1170.39395,503.947347 1170.40519,503.588705 L1170.43347,502.992142 L1170.43347,502.992142 L1170.6,500.059 C1170.63,499.513001 1170.66,498.940003 1170.69,498.34 C1170.74,497.339995 1170.77,496.370005 1170.78,495.43 C1170.79,494.489995 1170.765,493.645004 1170.705,492.895 C1170.645,492.144996 1170.535,491.590002 1170.375,491.23 C1170.435,491.129999 1170.595,491.144999 1170.855,491.275 C1171.115,491.405001 1171.395,491.569999 1171.695,491.77 C1171.895,491.903334 1172.08167,492.036667 1172.255,492.17 L1172.81847,492.624694 C1172.87235,492.666327 1172.90786,492.691429 1172.925,492.7 C1173.085,492.179997 1173.425,491.740002 1173.945,491.38 C1174.465,491.019998 1175.06,490.765001 1175.73,490.615 C1176.4,490.464999 1177.095,490.42 1177.815,490.48 C1178.535,490.54 1179.2,490.734998 1179.81,491.065 C1180.42,491.395002 1180.91,491.854997 1181.28,492.445 C1181.60889,492.969447 1181.7837,493.616355 1181.80444,494.38574 L1181.8001,495.066938 L1181.8001,495.066938 L1181.79,495.55 C1181.782,495.902002 1181.7772,496.308399 1181.7756,496.769199 L1181.775,497.125 C1181.775,497.735003 1181.77,498.384997 1181.76,499.075 L1181.73,501.085 C1181.722,501.605003 1181.7108,502.086599 1181.6964,502.529799 L1181.65929,503.467552 C1181.64786,503.709184 1181.63643,503.909999 1181.625,504.07 C1181.49,504.1 1181.34094,504.144062 1181.17781,504.202187 L1180.77667,504.356667 L1180.77667,504.356667 L1180.29,504.55 C1180.04,504.65 1179.795,504.745 1179.555,504.835 C1179.315,504.925 1179.105,504.98 1178.925,505 C1178.9125,505.025 1178.90781,504.979688 1178.91094,504.864063 L1178.955,504.02125 L1178.955,504.02125 L1178.985,503.305 C1179,502.907498 1179.02062,502.481876 1179.04687,502.028126 L1179.075,501.565 C1179.105,501.092498 1179.12938,500.636875 1179.14812,500.198126 L1179.1914,499.112199 C1179.201,498.905 1179.2114,498.708201 1179.2226,498.521801 L1179.28219,497.53 L1179.28219,497.53 Z M1180.155,492.97 C1180.095,492.689999 1180.005,492.480001 1179.885,492.34 C1179.885,492.540001 1179.89,492.694999 1179.9,492.805 C1179.91,492.915001 1179.925,493.019999 1179.945,493.12 L1180.005,493.06 L1180.065,492.97 L1180.155,492.97 Z M1172.175,498.31 C1172.075,498.109999 1172.035,497.925001 1172.055,497.755 C1172.075,497.584999 1172.085,497.420001 1172.085,497.26 L1172.085,497.095 C1172.085,497.025 1172.065,496.99 1172.025,496.99 L1171.935,497.26 C1171.895,497.380001 1171.87,497.504999 1171.86,497.635 C1171.85,497.765001 1171.865,497.894999 1171.905,498.025 C1171.945,498.155001 1172.035,498.25 1172.175,498.31 Z M1180.785,503.26 C1180.685,502.739997 1180.645,502.245002 1180.665,501.775 C1180.68,501.422498 1180.68938,501.089688 1180.69313,500.776563 L1180.695,500.005 L1180.6902,499.837 C1180.6854,499.771 1180.677,499.732 1180.665,499.72 L1180.56,500.395 L1180.56,500.395 C1180.51,500.705002 1180.475,501.039998 1180.455,501.4 C1180.435,501.760002 1180.445,502.114998 1180.485,502.465 C1180.525,502.815002 1180.625,503.079999 1180.785,503.26 Z M1187.535,491.5 C1188.63501,491.079998 1189.62,490.89 1190.49,490.93 C1191.36,490.97 1192.225,491.219998 1193.085,491.68 C1193.405,491.519999 1193.81,491.355001 1194.3,491.185 C1194.79,491.014999 1195.235,490.820001 1195.635,490.6 C1195.475,492.360009 1195.375,494.039992 1195.335,495.64 L1195.30969,496.805315 C1195.2925,497.747502 1195.28508,498.617419 1195.28742,499.415077 L1195.29,499.885 C1195.29889,500.978339 1195.31568,501.885986 1195.34037,502.607962 L1195.3849,503.642918 C1195.39997,503.920973 1195.41333,504.083333 1195.425,504.13 C1195.205,504.350001 1194.925,504.529999 1194.585,504.67 C1194.245,504.810001 1193.91,504.925 1193.58,505.015 C1193.25,505.105 1192.965,505.17 1192.725,505.21 L1192.335,505.27 L1192.335,505.27 L1192.335,503.26 C1191.935,503.640002 1191.525,503.974999 1191.105,504.265 C1190.685,504.555001 1190.185,504.72 1189.605,504.76 C1188.36499,504.860001 1187.3,504.655003 1186.41,504.145 C1185.52,503.634997 1184.825,502.955004 1184.325,502.105 C1183.825,501.254996 1183.515,500.305005 1183.395,499.255 C1183.275,498.204995 1183.345,497.170005 1183.605,496.15 C1183.865,495.129995 1184.32,494.200004 1184.97,493.36 C1185.62,492.519996 1186.47499,491.900002 1187.535,491.5 Z M1191.015,493.18 C1189.81499,493.320001 1188.86,493.674997 1188.15,494.245 C1187.44,494.815003 1186.95,495.479996 1186.68,496.24 C1186.41,497.000004 1186.345,497.784996 1186.485,498.595 C1186.625,499.405004 1186.94,500.114997 1187.43,500.725 C1187.92,501.335003 1188.58,501.779999 1189.41,502.06 C1190.24,502.340001 1191.20499,502.320002 1192.305,502 L1192.37315,500.444443 C1192.3966,499.848148 1192.41389,499.316669 1192.425,498.85 L1192.4452,497.836122 C1192.45173,497.414898 1192.455,497.032859 1192.455,496.69 L1192.4496,495.6748 L1192.4496,495.6748 L1192.44,495.07 C1192.43,494.589998 1192.435,494.070003 1192.455,493.51 L1191.81,493.27 L1191.81,493.27 C1191.54,493.17 1191.275,493.14 1191.015,493.18 Z M1185.345,496.03 C1185.465,496.03 1185.56,496.025 1185.63,496.015 C1185.7,496.005 1185.785,495.98 1185.885,495.94 L1185.7194,495.9424 C1185.6498,495.9448 1185.6,495.949 1185.57,495.955 C1185.52,495.965 1185.445,495.99 1185.345,496.03 Z M1189.035,503.26 C1189.355,503.360001 1189.71,503.415 1190.1,503.425 C1190.49,503.435 1190.875,503.370001 1191.255,503.23 C1191.075,503.19 1190.895,503.175 1190.715,503.185 L1190.175,503.215 C1189.995,503.225 1189.815,503.23 1189.635,503.23 C1189.455,503.23 1189.275,503.2 1189.095,503.14 L1188.945,503.23 L1189.035,503.26 Z M1206.28219,497.53 L1206.285,497.41 C1206.325,496.389995 1206.235,495.545003 1206.015,494.875 C1205.795,494.204997 1205.5,493.695002 1205.13,493.345 C1204.76,492.994998 1204.34,492.795 1203.87,492.745 C1203.4,492.695 1202.945,492.759999 1202.505,492.94 C1202.065,493.120001 1201.665,493.414998 1201.305,493.825 C1200.945,494.235002 1200.685,494.719997 1200.525,495.28 C1200.43611,495.706669 1200.37883,496.303207 1200.35315,497.069629 L1200.345,497.365 C1200.33,498.047503 1200.31781,498.755311 1200.30844,499.488436 L1200.2856,501.401201 C1200.2772,501.9724 1200.267,502.521997 1200.255,503.05 L1200.2387,503.602594 C1200.21623,504.207533 1200.18167,504.673332 1200.135,505 C1199.795,504.899999 1199.38,504.800001 1198.89,504.7 C1198.4,504.6 1197.915,504.440001 1197.435,504.22 C1197.40389,504.157777 1197.39395,503.947347 1197.40519,503.588705 L1197.43347,502.992142 L1197.43347,502.992142 L1197.6,500.059 C1197.63,499.513001 1197.66,498.940003 1197.69,498.34 C1197.74,497.339995 1197.77,496.370005 1197.78,495.43 C1197.79,494.489995 1197.765,493.645004 1197.705,492.895 C1197.645,492.144996 1197.535,491.590002 1197.375,491.23 C1197.435,491.129999 1197.595,491.144999 1197.855,491.275 C1198.115,491.405001 1198.395,491.569999 1198.695,491.77 C1198.895,491.903334 1199.08167,492.036667 1199.255,492.17 L1199.81847,492.624694 C1199.87235,492.666327 1199.90786,492.691429 1199.925,492.7 C1200.085,492.179997 1200.425,491.740002 1200.945,491.38 C1201.465,491.019998 1202.06,490.765001 1202.73,490.615 C1203.4,490.464999 1204.095,490.42 1204.815,490.48 C1205.535,490.54 1206.2,490.734998 1206.81,491.065 C1207.42,491.395002 1207.91,491.854997 1208.28,492.445 C1208.60889,492.969447 1208.7837,493.616355 1208.80444,494.38574 L1208.8001,495.066938 L1208.8001,495.066938 L1208.79,495.55 C1208.782,495.902002 1208.7772,496.308399 1208.7756,496.769199 L1208.775,497.125 C1208.775,497.735003 1208.77,498.384997 1208.76,499.075 L1208.73,501.085 C1208.722,501.605003 1208.7108,502.086599 1208.6964,502.529799 L1208.65929,503.467552 C1208.64786,503.709184 1208.63643,503.909999 1208.625,504.07 C1208.49,504.1 1208.34094,504.144062 1208.17781,504.202187 L1207.77667,504.356667 L1207.77667,504.356667 L1207.29,504.55 C1207.04,504.65 1206.795,504.745 1206.555,504.835 C1206.315,504.925 1206.105,504.98 1205.925,505 C1205.9125,505.025 1205.90781,504.979688 1205.91094,504.864063 L1205.955,504.02125 L1205.955,504.02125 L1205.985,503.305 C1206,502.907498 1206.02062,502.481876 1206.04687,502.028126 L1206.075,501.565 C1206.105,501.092498 1206.12938,500.636875 1206.14812,500.198126 L1206.1914,499.112199 C1206.201,498.905 1206.2114,498.708201 1206.2226,498.521801 L1206.28219,497.53 L1206.28219,497.53 Z M1207.155,492.97 C1207.095,492.689999 1207.005,492.480001 1206.885,492.34 C1206.885,492.540001 1206.89,492.694999 1206.9,492.805 C1206.91,492.915001 1206.925,493.019999 1206.945,493.12 L1207.005,493.06 L1207.065,492.97 L1207.155,492.97 Z M1199.175,498.31 C1199.075,498.109999 1199.035,497.925001 1199.055,497.755 C1199.075,497.584999 1199.085,497.420001 1199.085,497.26 L1199.085,497.095 C1199.085,497.025 1199.065,496.99 1199.025,496.99 L1198.935,497.26 C1198.895,497.380001 1198.87,497.504999 1198.86,497.635 C1198.85,497.765001 1198.865,497.894999 1198.905,498.025 C1198.945,498.155001 1199.035,498.25 1199.175,498.31 Z M1207.785,503.26 C1207.625,503.079999 1207.525,502.815002 1207.485,502.465 C1207.445,502.114998 1207.435,501.760002 1207.455,501.4 C1207.475,501.039998 1207.51,500.705002 1207.56,500.395 L1207.665,499.72 L1207.665,499.72 C1207.685,499.74 1207.695,499.834999 1207.695,500.005 L1207.695,500.47 C1207.695,500.870002 1207.685,501.304998 1207.665,501.775 C1207.645,502.245002 1207.685,502.739997 1207.785,503.26 Z" id="CultureJiangnan"></path>
        </g>
    </g>
</svg>