<?xml version="1.0" encoding="UTF-8"?>
<svg width="148px" height="23px" viewBox="0 0 148 23" version="1.1" xmlns="http://www.w3.org/2000/svg" xmlns:xlink="http://www.w3.org/1999/xlink">
    <!-- Generator: Sketch 59 (86127) - https://sketch.com -->
    <title>E-commerce</title>
    <desc>Created with Sketch.</desc>
    <g id="页面-1" stroke="none" stroke-width="1" fill="none" fill-rule="evenodd">
        <g id="首页" transform="translate(-1338.000000, -483.000000)" fill="#000000" fill-rule="nonzero">
            <path d="M1352.96706,492.252479 C1353.16655,492.492717 1353.39086,492.886887 1353.64,493.435 C1353.89,493.985003 1354.075,494.709995 1354.195,495.61 L1353.625,495.58 C1353.40786,495.568571 1353.1499,495.558775 1352.85112,495.550612 L1349.95,495.49 C1349.14,495.47 1348.3,495.465 1347.43,495.475 C1346.56,495.485 1345.69,495.505 1344.82,495.535 C1343.95,495.565 1343.145,495.61 1342.405,495.67 L1342.37875,496.27 C1342.37125,496.46 1342.365,496.639999 1342.36,496.81 C1342.35,497.150002 1342.345,497.489998 1342.345,497.83 L1342.345,498.94 L1342.3402,499.4584 C1342.3354,499.736799 1342.327,500.043998 1342.315,500.38 L1342.97008,500.336641 L1342.97008,500.336641 L1344.5125,500.2525 L1344.5125,500.2525 L1345.6,500.185 C1346.1775,500.1475 1346.77469,500.112813 1347.39156,500.080938 L1348.015,500.05 C1348.645,500.02 1349.24687,499.995625 1349.82062,499.976875 L1350.385,499.96 C1351.00167,499.943333 1351.55236,499.940555 1352.03708,499.951667 L1352.32,499.96 C1352.87,499.98 1353.225,500.03 1353.385,500.11 C1353.445,500.19 1353.535,500.389998 1353.655,500.71 C1353.775,501.030002 1353.885,501.364998 1353.985,501.715 C1354.085,502.065002 1354.145,502.384999 1354.165,502.675 C1354.185,502.965001 1354.125,503.11 1353.985,503.11 C1353.105,502.989999 1352.17,502.905 1351.18,502.855 C1350.19,502.805 1349.19501,502.77 1348.195,502.75 C1347.195,502.73 1346.2,502.73 1345.21,502.75 C1344.22,502.77 1343.275,502.8 1342.375,502.84 L1342.315,503.74 L1341.88,503.908333 C1341.56667,504.026111 1341.20667,504.154999 1340.8,504.295 C1340.19,504.505001 1339.605,504.61 1339.045,504.61 L1339.1032,504.023799 C1339.1784,503.196599 1339.244,502.187006 1339.3,500.995 C1339.37,499.504993 1339.415,497.905009 1339.435,496.195 C1339.455,494.484991 1339.445,492.765009 1339.405,491.035 C1339.365,489.304991 1339.285,487.740007 1339.165,486.34 C1339.145,486.059999 1339.1,485.815001 1339.03,485.605 L1338.89,485.205 L1338.89,485.205 L1338.82,485.02 C1338.75,484.839999 1338.69,484.670001 1338.64,484.51 C1338.59,484.349999 1338.565,484.180001 1338.565,484 C1338.565,483.870769 1338.85044,483.89491 1339.42133,484.072426 L1339.57,484.12 C1340.24,484.340001 1341.19499,484.699997 1342.435,485.2 C1343.32834,485.12 1344.21278,485.044444 1345.08833,484.973333 L1346.395,484.87 C1347.50929,484.784285 1348.52806,484.713265 1349.45133,484.656939 L1349.905,484.63 C1350.815,484.5775 1351.59101,484.547969 1352.23305,484.541406 L1352.5,484.54 C1353.19,484.54 1353.585,484.57 1353.685,484.63 C1353.845,484.730001 1353.995,484.934998 1354.135,485.245 C1354.275,485.555002 1354.395,485.879998 1354.495,486.22 C1354.595,486.600002 1354.695,487.019998 1354.795,487.48 L1353.9749,487.428571 C1353.57735,487.405714 1353.13572,487.382857 1352.65,487.36 C1351.8,487.32 1350.905,487.3 1349.965,487.3 C1349.025,487.3 1348.095,487.31 1347.175,487.33 L1346.28667,487.355 C1345.85833,487.37 1345.45375,487.38875 1345.07292,487.41125 L1344.7,487.435 C1343.97,487.485 1343.395,487.555 1342.975,487.645 C1342.555,487.735 1342.375,487.839999 1342.435,487.96 L1342.4296,488.4766 C1342.4272,488.5782 1342.424,488.671 1342.42,488.755 L1342.3975,489.303437 L1342.3975,489.303437 L1342.39,489.52 C1342.38167,489.770001 1342.38028,490.085971 1342.38583,490.467916 L1342.435,492.76 L1342.435,492.76 L1343.425,492.715 L1343.425,492.715 L1346.12688,492.58 L1346.12688,492.58 L1349.6416,492.418 L1349.6416,492.418 L1352.96706,492.252479 L1352.96706,492.252479 Z M1340.785,486.13 C1341.025,486.330001 1341.29,486.415 1341.58,486.385 C1341.87,486.355 1342.215,486.36 1342.615,486.4 L1342.615,486.19 C1342.475,486.13 1342.325,486.105 1342.165,486.115 L1341.205,486.175 C1341.045,486.185 1340.905,486.17 1340.785,486.13 Z M1350.445,500.68 C1350.415,500.71 1350.36531,500.734375 1350.29594,500.753125 L1350.22,500.77 C1350.11,500.79 1350.035,500.82 1349.995,500.86 C1350.215,500.88 1350.405,500.885 1350.565,500.875 C1350.725,500.865 1350.835,500.800001 1350.895,500.68 L1350.445,500.68 Z M1346.185,501.16 L1344.955,501.16 L1344.79,501.235 C1344.72,501.265 1344.665,501.3 1344.625,501.34 L1346.065,501.34 L1346.185,501.22 L1346.185,501.16 Z M1368.595,494.74 C1368.715,494.880001 1368.78,495.019999 1368.79,495.16 C1368.8,495.300001 1368.795,495.449999 1368.775,495.61 L1368.72833,495.943333 C1368.71944,496.001111 1368.71,496.06 1368.7,496.12 C1368.67,496.300001 1368.675,496.489999 1368.715,496.69 C1368.355,496.850001 1367.97,496.95 1367.56,496.99 C1367.15,497.03 1366.71,497.05 1366.24,497.05 C1365.8875,497.05 1365.51531,497.041563 1365.12344,497.024688 L1364.725,497.005 C1364.185,496.975 1363.615,496.97 1363.015,496.99 L1361.775,496.983333 C1361.615,496.981111 1361.47833,496.978333 1361.365,496.975 L1359.75813,496.9225 L1359.75813,496.9225 L1359.49,496.915 C1359.12,496.905 1358.525,496.9 1357.705,496.9 C1357.655,496.866667 1357.62236,496.767362 1357.60708,496.602084 L1357.59,496.258333 L1357.59,496.258333 L1357.57,495.745 C1357.56333,495.564999 1357.55889,495.393889 1357.55667,495.231667 L1357.555,494.995 C1357.555,494.764999 1357.545,494.63 1357.525,494.59 C1357.965,494.770001 1359.05499,494.86 1360.795,494.86 L1362.5932,494.8492 C1364.1724,494.8324 1366.17299,494.796 1368.595,494.74 Z M1379.545,492.49 C1378.46499,492.630001 1377.555,492.924998 1376.815,493.375 C1376.075,493.825002 1375.495,494.359997 1375.075,494.98 C1374.655,495.600003 1374.395,496.269996 1374.295,496.99 C1374.195,497.710004 1374.24,498.399997 1374.43,499.06 C1374.62,499.720003 1374.95,500.314997 1375.42,500.845 C1375.89,501.375003 1376.485,501.769999 1377.205,502.03 C1377.925,502.290001 1378.76,502.375 1379.71,502.285 C1380.66,502.195 1381.72499,501.850003 1382.905,501.25 C1382.925,501.29 1382.81,501.494998 1382.56,501.865 C1382.31,502.235002 1381.955,502.634998 1381.495,503.065 C1381.035,503.495002 1380.485,503.894998 1379.845,504.265 C1379.205,504.635002 1378.505,504.83 1377.745,504.85 C1376.36499,504.91 1375.19,504.665003 1374.22,504.115 C1373.25,503.564997 1372.48,502.840005 1371.91,501.94 C1371.34,501.039995 1370.985,500.040006 1370.845,498.94 C1370.705,497.839994 1370.78,496.770005 1371.07,495.73 C1371.36,494.689995 1371.87,493.740004 1372.6,492.88 C1373.33,492.019996 1374.28499,491.380002 1375.465,490.96 C1376.145,490.719999 1376.755,490.540001 1377.295,490.42 C1377.835,490.299999 1378.345,490.255 1378.825,490.285 C1379.305,490.315 1379.775,490.419999 1380.235,490.6 C1380.695,490.780001 1381.205,491.049998 1381.765,491.41 L1382.11,491.665 L1382.11,491.665 C1382.26,491.775001 1382.395,491.894999 1382.515,492.025 C1382.635,492.155001 1382.72,492.294999 1382.77,492.445 C1382.82,492.595001 1382.785,492.729999 1382.665,492.85 C1382.617,492.866 1382.5498,492.9268 1382.4634,493.0324 L1382.005,493.63 L1382.005,493.63 C1381.865,493.810001 1381.725,493.974999 1381.585,494.125 C1381.445,494.275001 1381.335,494.35 1381.255,494.35 C1381.191,494.286 1381.1078,494.180401 1381.0054,494.0332 L1380.925,493.915 C1380.785,493.704999 1380.63,493.495001 1380.46,493.285 C1380.29,493.074999 1380.125,492.885001 1379.965,492.715 C1379.805,492.544999 1379.665,492.47 1379.545,492.49 Z M1373.665,495.61 C1373.525,495.61 1373.425,495.615 1373.365,495.625 C1373.305,495.635 1373.225,495.66 1373.125,495.7 C1373.325,495.7 1373.505,495.67 1373.665,495.61 Z M1376.935,503.35 L1377.085,503.38 C1377.385,503.520001 1377.745,503.585 1378.165,503.575 C1378.585,503.565 1378.995,503.490001 1379.395,503.35 C1379.215,503.31 1379.03,503.295 1378.84,503.305 L1378.255,503.335 L1378.255,503.335 L1377.86833,503.348333 C1377.80611,503.349444 1377.745,503.35 1377.685,503.35 C1377.505,503.35 1377.325,503.32 1377.145,503.26 L1376.935,503.35 Z M1389.775,505 C1388.35499,505 1387.16,504.630004 1386.19,503.89 C1385.22,503.149996 1384.48,502.225006 1383.97,501.115 C1383.46,500.004994 1383.19,498.800006 1383.16,497.5 C1383.13,496.199994 1383.355,494.995006 1383.835,493.885 C1384.315,492.774994 1385.045,491.850004 1386.025,491.11 C1387.005,490.369996 1388.25499,490 1389.775,490 C1391.41501,490 1392.76999,490.369996 1393.84,491.11 C1394.91001,491.850004 1395.695,492.774994 1396.195,493.885 C1396.695,494.995006 1396.925,496.199994 1396.885,497.5 C1396.845,498.800006 1396.555,500.004994 1396.015,501.115 C1395.475,502.225006 1394.68001,503.149996 1393.63,503.89 C1392.57999,504.630004 1391.29501,505 1389.775,505 Z M1393.555,495.19 C1393.375,494.309996 1393,493.625002 1392.43,493.135 C1391.86,492.644998 1391.23,492.36 1390.54,492.28 C1389.85,492.2 1389.18,492.339998 1388.53,492.7 C1387.88,493.060002 1387.385,493.649996 1387.045,494.47 C1386.885,494.830002 1386.75,495.259997 1386.64,495.76 C1386.53,496.260002 1386.465,496.779997 1386.445,497.32 C1386.425,497.860003 1386.455,498.394997 1386.535,498.925 C1386.615,499.455003 1386.775,499.944998 1387.015,500.395 C1387.255,500.845002 1387.575,501.219998 1387.975,501.52 C1388.375,501.820001 1388.885,502.01 1389.505,502.09 C1390.265,502.210001 1390.94,502.105002 1391.53,501.775 C1392.12,501.444998 1392.595,500.955003 1392.955,500.305 C1393.315,499.654997 1393.55,498.890004 1393.66,498.01 C1393.77,497.129996 1393.735,496.190005 1393.555,495.19 Z M1395.475,496.87 C1395.575,496.85 1395.645,496.760001 1395.685,496.6 C1395.725,496.439999 1395.785,496.310001 1395.865,496.21 L1395.745,496 C1395.605,496.160001 1395.515,496.304999 1395.475,496.435 C1395.435,496.565001 1395.395,496.709999 1395.355,496.87 L1395.475,496.87 Z M1385.515,499.78 L1385.6254,499.7824 C1385.6638,499.7848 1385.677,499.789 1385.665,499.795 L1385.785,499.75 L1385.785,499.75 C1385.565,499.589999 1385.375,499.440001 1385.215,499.3 C1385.055,499.159999 1384.805,499.030001 1384.465,498.91 L1384.465,499.21 C1384.59833,499.276667 1384.72278,499.352222 1384.83833,499.436666 L1385.005,499.57 C1385.165,499.710001 1385.335,499.78 1385.515,499.78 Z M1414.795,502.78 L1414.81833,502.85 C1414.83611,502.916666 1414.85833,503.023333 1414.885,503.17 C1414.925,503.390001 1414.965,503.629999 1415.005,503.89 L1415.11,504.61 L1415.11,504.61 L1415.15,504.93 C1415.15333,504.963333 1415.155,504.986667 1415.155,505 C1415.155,504.985 1415.05375,504.978437 1414.85125,504.980312 L1414.615,504.985 C1414.255,504.995 1413.86,504.995 1413.43,504.985 C1413,504.975 1412.605,504.95 1412.245,504.91 C1411.885,504.87 1411.715,504.780001 1411.735,504.64 C1411.635,504.860001 1411.575,504.870001 1411.555,504.67 C1411.53786,504.498571 1411.53541,504.224287 1411.54765,503.847144 L1411.72,499.675 L1411.72,499.675 C1411.75,498.904996 1411.765,498.135004 1411.765,497.365 C1411.765,496.594996 1411.735,495.885003 1411.675,495.235 C1411.615,494.584997 1411.515,494.045002 1411.375,493.615 C1411.235,493.184998 1411.035,492.920001 1410.775,492.82 C1410.215,492.619999 1409.665,492.659999 1409.125,492.94 C1408.585,493.220001 1408.275,493.689997 1408.195,494.35 L1408.19667,502.136667 C1408.19889,502.372222 1408.20333,502.656665 1408.21,502.99 C1408.22,503.490003 1408.295,504.159996 1408.435,505 L1408.12,505.03 C1407.91,505.05 1407.665,505.065 1407.385,505.075 C1407.105,505.085 1406.83,505.09 1406.56,505.09 L1406.2672,505.0852 C1406.2236,505.0836 1406.1826,505.0816 1406.1442,505.0792 L1405.945,505.06 C1405.665,505.04 1405.475,504.975001 1405.375,504.865 C1405.275,504.754999 1405.22,504.595001 1405.21,504.385 C1405.2,504.174999 1405.205,503.905002 1405.225,503.575 C1405.245,503.244998 1405.235,502.850002 1405.195,502.39 L1405.22425,501.018848 C1405.24175,500.005948 1405.247,499.118004 1405.24,498.355 L1405.23037,497.658702 C1405.21568,496.881788 1405.18889,496.228892 1405.15,495.7 C1405.1,495.019997 1405.02,494.505002 1404.91,494.155 C1404.8,493.804998 1404.66,493.560001 1404.49,493.42 C1404.32,493.279999 1404.12,493.205 1403.89,493.195 L1403.51875,493.18375 C1403.38625,493.18125 1403.245,493.18 1403.095,493.18 C1402.855,493.18 1402.625,493.205 1402.405,493.255 C1402.185,493.305 1401.995,493.424999 1401.835,493.615 C1401.675,493.805001 1401.545,494.099998 1401.445,494.5 C1401.3575,494.850002 1401.30828,495.314842 1401.29734,495.89453 L1401.295,496.15 C1401.295,496.535002 1401.31031,497.053982 1401.34094,497.706952 L1401.355,497.995 C1401.395,498.785004 1401.42,499.614996 1401.43,500.485 C1401.44,501.355004 1401.43,502.199996 1401.4,503.02 C1401.37,503.840004 1401.275,504.499998 1401.115,505 C1400.415,505 1399.78,504.975 1399.21,504.925 C1398.64,504.875 1398.275,504.800001 1398.115,504.7 C1398.075,504.62 1398.06,504.54 1398.07,504.46 C1398.0775,504.4 1398.09344,504.320313 1398.11781,504.220938 L1398.145,504.115 C1398.177,503.994999 1398.2218,503.843001 1398.2794,503.659 L1398.325,503.515 C1398.405,503.264999 1398.495,502.930002 1398.595,502.51 C1398.61136,502.559091 1398.62103,502.400663 1398.62401,502.034712 L1398.62406,501.310937 C1398.62219,500.832813 1398.6175,500.267503 1398.61,499.615 L1398.58,496.78 C1398.572,495.963996 1398.5672,495.189601 1398.5656,494.456801 L1398.5699,492.531326 L1398.5699,492.531326 L1398.58,491.68 C1398.59,491.079997 1398.625,490.77 1398.685,490.75 C1398.825,490.71 1398.96,490.69 1399.09,490.69 C1399.22,490.69 1399.37,490.73 1399.54,490.81 C1399.6675,490.87 1399.81469,490.949687 1399.98156,491.049062 L1400.155,491.155 C1400.395,491.305001 1400.695,491.499999 1401.055,491.74 C1401.535,491.239998 1402.06,490.885001 1402.63,490.675 C1403.2,490.464999 1403.755,490.405 1404.295,490.495 C1404.835,490.585 1405.32,490.824998 1405.75,491.215 C1406.18,491.605002 1406.495,492.139997 1406.695,492.82 C1407.395,491.759995 1408.185,491.025002 1409.065,490.615 C1409.945,490.204998 1410.785,490.064999 1411.585,490.195 C1412.385,490.325001 1413.09,490.704997 1413.7,491.335 C1414.31,491.965003 1414.705,492.779995 1414.885,493.78 C1414.925,494.000001 1414.945,494.469996 1414.945,495.19 L1414.9375,496.34125 C1414.9325,496.748749 1414.925,497.179998 1414.915,497.635 L1414.81214,502.194693 C1414.80643,502.40204 1414.80071,502.597142 1414.795,502.78 Z M1403.035,492.46 C1403.06167,492.353333 1403.09056,492.26 1403.12167,492.18 L1403.17,492.07 C1403.22,491.969999 1403.255,491.850001 1403.275,491.71 L1403.2225,491.6125 C1403.2075,491.5875 1403.195,491.57 1403.185,491.56 L1402.795,491.56 C1402.819,491.62 1402.8394,491.6998 1402.8562,491.7994 L1402.885,492.025 C1402.905,492.235001 1402.955,492.38 1403.035,492.46 Z M1407.265,497.2 L1407.265,495.85 L1407.1975,495.64 C1407.1725,495.56 1407.145,495.47 1407.115,495.37 C1407.055,495.169999 1406.985,495.02 1406.905,494.92 C1406.905,495.300002 1406.915,495.694998 1406.935,496.105 C1406.955,496.515002 1407.015,496.879998 1407.115,497.2 L1407.265,497.2 Z M1399.015,501.61 C1398.975,501.61 1398.945,501.669999 1398.925,501.79 L1399.015,501.79 L1399.015,501.61 Z M1413.685,503.2 L1413.725,502.96 C1413.73167,502.926667 1413.73833,502.896667 1413.745,502.87 C1413.765,502.79 1413.775,502.7 1413.775,502.6 C1413.775,502.54 1413.765,502.5 1413.745,502.48 L1413.595,502.48 C1413.61,502.54 1413.61938,502.625312 1413.62313,502.735937 L1413.625,502.855 C1413.625,503.025001 1413.645,503.14 1413.685,503.2 Z M1433.395,502.78 L1433.41833,502.85 C1433.43611,502.916666 1433.45833,503.023333 1433.485,503.17 C1433.525,503.390001 1433.565,503.629999 1433.605,503.89 L1433.71,504.61 L1433.71,504.61 L1433.75,504.93 C1433.75333,504.963333 1433.755,504.986667 1433.755,505 C1433.755,504.985 1433.65375,504.978437 1433.45125,504.980312 L1433.215,504.985 C1432.855,504.995 1432.46,504.995 1432.03,504.985 C1431.6,504.975 1431.205,504.95 1430.845,504.91 C1430.485,504.87 1430.315,504.780001 1430.335,504.64 C1430.235,504.860001 1430.175,504.870001 1430.155,504.67 C1430.13786,504.498571 1430.13541,504.224287 1430.14765,503.847144 L1430.32,499.675 L1430.32,499.675 C1430.35,498.904996 1430.365,498.135004 1430.365,497.365 C1430.365,496.594996 1430.335,495.885003 1430.275,495.235 C1430.215,494.584997 1430.115,494.045002 1429.975,493.615 C1429.835,493.184998 1429.635,492.920001 1429.375,492.82 C1428.815,492.619999 1428.265,492.659999 1427.725,492.94 C1427.185,493.220001 1426.875,493.689997 1426.795,494.35 L1426.79667,502.136667 C1426.79889,502.372222 1426.80333,502.656665 1426.81,502.99 C1426.82,503.490003 1426.895,504.159996 1427.035,505 L1426.72,505.03 C1426.51,505.05 1426.265,505.065 1425.985,505.075 C1425.705,505.085 1425.43,505.09 1425.16,505.09 L1424.8672,505.0852 C1424.8236,505.0836 1424.7826,505.0816 1424.7442,505.0792 L1424.545,505.06 C1424.265,505.04 1424.075,504.975001 1423.975,504.865 C1423.875,504.754999 1423.82,504.595001 1423.81,504.385 C1423.8,504.174999 1423.805,503.905002 1423.825,503.575 C1423.845,503.244998 1423.835,502.850002 1423.795,502.39 L1423.82425,501.018848 C1423.84175,500.005948 1423.847,499.118004 1423.84,498.355 L1423.83037,497.658702 C1423.81568,496.881788 1423.78889,496.228892 1423.75,495.7 C1423.7,495.019997 1423.62,494.505002 1423.51,494.155 C1423.4,493.804998 1423.26,493.560001 1423.09,493.42 C1422.92,493.279999 1422.72,493.205 1422.49,493.195 L1422.11875,493.18375 C1421.98625,493.18125 1421.845,493.18 1421.695,493.18 C1421.455,493.18 1421.225,493.205 1421.005,493.255 C1420.785,493.305 1420.595,493.424999 1420.435,493.615 C1420.275,493.805001 1420.145,494.099998 1420.045,494.5 C1419.9575,494.850002 1419.90828,495.314842 1419.89734,495.89453 L1419.895,496.15 C1419.895,496.535002 1419.91031,497.053982 1419.94094,497.706952 L1419.955,497.995 C1419.995,498.785004 1420.02,499.614996 1420.03,500.485 C1420.04,501.355004 1420.03,502.199996 1420,503.02 C1419.97,503.840004 1419.875,504.499998 1419.715,505 C1419.015,505 1418.38,504.975 1417.81,504.925 C1417.24,504.875 1416.875,504.800001 1416.715,504.7 C1416.675,504.62 1416.66,504.54 1416.67,504.46 C1416.6775,504.4 1416.69344,504.320313 1416.71781,504.220938 L1416.745,504.115 C1416.777,503.994999 1416.8218,503.843001 1416.8794,503.659 L1416.925,503.515 C1417.005,503.264999 1417.095,502.930002 1417.195,502.51 C1417.21136,502.559091 1417.22103,502.400663 1417.22401,502.034712 L1417.22406,501.310937 C1417.22219,500.832813 1417.2175,500.267503 1417.21,499.615 L1417.18,496.78 C1417.172,495.963996 1417.1672,495.189601 1417.1656,494.456801 L1417.1699,492.531326 L1417.1699,492.531326 L1417.18,491.68 C1417.19,491.079997 1417.225,490.77 1417.285,490.75 C1417.425,490.71 1417.56,490.69 1417.69,490.69 C1417.82,490.69 1417.97,490.73 1418.14,490.81 C1418.2675,490.87 1418.41469,490.949687 1418.58156,491.049062 L1418.755,491.155 C1418.995,491.305001 1419.295,491.499999 1419.655,491.74 C1420.135,491.239998 1420.66,490.885001 1421.23,490.675 C1421.8,490.464999 1422.355,490.405 1422.895,490.495 C1423.435,490.585 1423.92,490.824998 1424.35,491.215 C1424.78,491.605002 1425.095,492.139997 1425.295,492.82 C1425.995,491.759995 1426.785,491.025002 1427.665,490.615 C1428.545,490.204998 1429.385,490.064999 1430.185,490.195 C1430.985,490.325001 1431.69,490.704997 1432.3,491.335 C1432.91,491.965003 1433.305,492.779995 1433.485,493.78 C1433.525,494.000001 1433.545,494.469996 1433.545,495.19 L1433.5375,496.34125 C1433.5325,496.748749 1433.525,497.179998 1433.515,497.635 L1433.41214,502.194693 C1433.40643,502.40204 1433.40071,502.597142 1433.395,502.78 Z M1421.635,492.46 C1421.66167,492.353333 1421.69056,492.26 1421.72167,492.18 L1421.77,492.07 C1421.82,491.969999 1421.855,491.850001 1421.875,491.71 L1421.8225,491.6125 C1421.8075,491.5875 1421.795,491.57 1421.785,491.56 L1421.395,491.56 C1421.419,491.62 1421.4394,491.6998 1421.4562,491.7994 L1421.485,492.025 C1421.505,492.235001 1421.555,492.38 1421.635,492.46 Z M1425.865,497.2 L1425.865,495.85 L1425.7975,495.64 C1425.7725,495.56 1425.745,495.47 1425.715,495.37 C1425.655,495.169999 1425.585,495.02 1425.505,494.92 C1425.505,495.300002 1425.515,495.694998 1425.535,496.105 C1425.555,496.515002 1425.615,496.879998 1425.715,497.2 L1425.865,497.2 Z M1417.615,501.61 C1417.575,501.61 1417.545,501.669999 1417.525,501.79 L1417.615,501.79 L1417.615,501.61 Z M1432.285,503.2 L1432.325,502.96 C1432.33167,502.926667 1432.33833,502.896667 1432.345,502.87 C1432.365,502.79 1432.375,502.7 1432.375,502.6 C1432.375,502.54 1432.365,502.5 1432.345,502.48 L1432.195,502.48 C1432.21,502.54 1432.21938,502.625312 1432.22313,502.735937 L1432.225,502.855 C1432.225,503.025001 1432.245,503.14 1432.285,503.2 Z M1446.265,501.88 L1446.37333,501.838333 L1446.37333,501.838333 L1446.64,501.745 C1446.79,501.695 1446.945,501.64 1447.105,501.58 C1447.285,501.5 1447.475,501.42 1447.675,501.34 C1446.875,502.540006 1445.95001,503.439997 1444.9,504.04 C1443.84999,504.640003 1442.79501,504.975 1441.735,505.045 C1440.67499,505.115 1439.66,504.945002 1438.69,504.535 C1437.72,504.124998 1436.9,503.515004 1436.23,502.705 C1435.56,501.894996 1435.105,500.905006 1434.865,499.735 C1434.625,498.564994 1434.695,497.260007 1435.075,495.82 C1435.395,494.639994 1435.885,493.645004 1436.545,492.835 C1437.205,492.024996 1437.94,491.405002 1438.75,490.975 C1439.56,490.544998 1440.415,490.31 1441.315,490.27 C1442.215,490.23 1443.05,490.389998 1443.82,490.75 C1444.59,491.110002 1445.265,491.669996 1445.845,492.43 C1446.425,493.190004 1446.815,494.149994 1447.015,495.31 C1447.031,495.454001 1447.0662,495.639599 1447.1206,495.866799 L1447.165,496.045 C1447.245,496.355002 1447.31,496.669998 1447.36,496.99 C1447.41,497.310002 1447.43,497.619999 1447.42,497.92 C1447.41,498.220002 1447.345,498.439999 1447.225,498.58 L1445.7925,498.61 L1445.7925,498.61 L1444.0348,498.637 L1444.0348,498.637 L1442.665,498.655 C1442.065,498.6625 1441.49031,498.667188 1440.94094,498.669063 L1440.4,498.67 C1439.69,498.67 1439.085,498.66 1438.585,498.64 L1438.2813,498.623704 C1437.96154,498.601235 1437.76278,498.566667 1437.685,498.52 C1437.525,499.040003 1437.525,499.514998 1437.685,499.945 C1437.845,500.375002 1438.125,500.754998 1438.525,501.085 C1438.925,501.415002 1439.42,501.684999 1440.01,501.895 C1440.6,502.105001 1441.245,502.25 1441.945,502.33 C1442.645,502.41 1443.365,502.415 1444.105,502.345 C1444.845,502.275 1445.565,502.120001 1446.265,501.88 Z M1439.845,491.56 L1439.935,491.56 L1439.935,491.38 L1440.025,491.38 L1439.935,491.29 L1439.845,491.56 Z M1441.105,491.38 C1441.137,491.46 1441.1594,491.575199 1441.1722,491.7256 L1441.18,491.845 C1441.19,492.055001 1441.215,492.2 1441.255,492.28 C1441.26833,492.173333 1441.28389,492.08 1441.30167,492 L1441.33,491.89 C1441.36,491.79 1441.385,491.670001 1441.405,491.53 L1441.345,491.38 L1441.105,491.38 Z M1439.335,492.64 L1439.095,492.64 L1439.14167,492.84 C1439.14389,492.853333 1439.14333,492.856667 1439.14,492.85 C1439.13,492.83 1439.175,492.85 1439.275,492.91 L1439.275,492.82 L1439.31625,492.775 C1439.32,492.77 1439.32219,492.76625 1439.32281,492.76375 C1439.31,492.76 1439.315,492.72 1439.335,492.64 Z M1444.4146,495.4336 L1444.345,495.22 C1444.105,494.419996 1443.7,493.835002 1443.13,493.465 C1442.56,493.094998 1441.945,492.955 1441.285,493.045 C1440.625,493.135 1439.99,493.464997 1439.38,494.035 C1438.77,494.605003 1438.295,495.419995 1437.955,496.48 L1438.97592,496.472347 C1439.13959,496.470306 1439.31428,496.467857 1439.5,496.465 C1440.15,496.455 1440.81,496.43 1441.48,496.39 C1442.15,496.35 1442.78,496.3 1443.37,496.24 C1443.96,496.18 1444.375,496.11 1444.615,496.03 C1444.595,495.869999 1444.56,495.745 1444.51,495.655 C1444.48,495.601 1444.4482,495.5272 1444.4146,495.4336 L1444.4146,495.4336 Z M1445.575,494.65 L1445.555,494.581667 L1445.555,494.581667 L1445.515,494.395 C1445.495,494.284999 1445.465,494.21 1445.425,494.17 C1445.425,494.370001 1445.43,494.574999 1445.44,494.785 C1445.45,494.995001 1445.475,495.179999 1445.515,495.34 L1445.575,495.34 L1445.575,494.65 Z M1438.105,495.04 L1437.685,495.25 L1437.93167,495.216667 C1437.96722,495.212222 1438,495.208333 1438.03,495.205 C1438.12,495.195 1438.145,495.14 1438.105,495.04 Z M1443.775,496.75 C1443.82833,496.71 1443.88167,496.678889 1443.935,496.656667 L1444.015,496.63 C1444.095,496.61 1444.165,496.57 1444.225,496.51 L1444.135,496.51 C1444.075,496.555 1444.00094,496.58875 1443.91281,496.61125 L1443.82,496.63 C1443.69,496.65 1443.595,496.69 1443.535,496.75 L1443.775,496.75 Z M1437.325,500.86 C1437.285,500.86 1437.255,500.919999 1437.235,501.04 L1437.325,501.04 L1437.325,500.86 Z M1457.995,493.66 C1457.515,493.66 1457.015,493.729999 1456.495,493.87 C1455.975,494.010001 1455.475,494.214999 1454.995,494.485 C1454.515,494.755001 1454.065,495.089998 1453.645,495.49 C1453.225,495.890002 1452.875,496.359997 1452.595,496.9 C1452.535,497.720004 1452.495,498.534996 1452.475,499.345 L1452.4366,501.154599 L1452.4366,501.154599 L1452.4,503.245 L1452.4,503.245 L1452.38969,503.547813 C1452.37656,503.815939 1452.355,503.98 1452.325,504.04 L1451.365,504.355 L1451.365,504.355 L1450.87375,504.505 C1450.71625,504.55 1450.565,504.59 1450.42,504.625 C1450.13,504.695 1449.895,504.735 1449.715,504.745 C1449.535,504.755 1449.445,504.71 1449.445,504.61 C1449.445,504.096664 1449.46012,503.4442 1449.49037,502.652594 L1449.5776,500.555199 C1449.6052,499.842401 1449.631,499.099004 1449.655,498.325 C1449.695,497.034994 1449.715,495.740006 1449.715,494.44 C1449.715,493.139994 1449.655,491.980005 1449.535,490.96 C1449.599,490.96 1449.7078,490.9312 1449.8614,490.8736 L1450.345,490.6825 C1450.475,490.6325 1450.615,490.58 1450.765,490.525 C1451.065,490.414999 1451.385,490.310001 1451.725,490.21 C1452.065,490.11 1452.375,490.04 1452.655,490 L1452.565,490.915 L1452.565,490.915 C1452.55167,491.015001 1452.54056,491.119444 1452.53167,491.228333 L1452.52,491.395 C1452.51333,491.508334 1452.50889,491.663888 1452.50667,491.861666 L1452.505,494.05 C1452.865,493.489997 1453.385,492.920003 1454.065,492.34 C1454.745,491.759997 1455.545,491.300002 1456.465,490.96 C1456.725,491.180001 1456.965,491.439999 1457.185,491.74 C1457.405,492.040002 1457.585,492.334999 1457.725,492.625 C1457.865,492.915001 1457.96,493.159999 1458.01,493.36 C1458.06,493.560001 1458.055,493.66 1457.995,493.66 Z M1468.315,492.49 C1467.23499,492.630001 1466.325,492.924998 1465.585,493.375 C1464.845,493.825002 1464.265,494.359997 1463.845,494.98 C1463.425,495.600003 1463.165,496.269996 1463.065,496.99 C1462.965,497.710004 1463.01,498.399997 1463.2,499.06 C1463.39,499.720003 1463.72,500.314997 1464.19,500.845 C1464.66,501.375003 1465.255,501.769999 1465.975,502.03 C1466.695,502.290001 1467.53,502.375 1468.48,502.285 C1469.43,502.195 1470.49499,501.850003 1471.675,501.25 C1471.695,501.29 1471.58,501.494998 1471.33,501.865 C1471.08,502.235002 1470.725,502.634998 1470.265,503.065 C1469.805,503.495002 1469.255,503.894998 1468.615,504.265 C1467.975,504.635002 1467.275,504.83 1466.515,504.85 C1465.13499,504.91 1463.96,504.665003 1462.99,504.115 C1462.02,503.564997 1461.25,502.840005 1460.68,501.94 C1460.11,501.039995 1459.755,500.040006 1459.615,498.94 C1459.475,497.839994 1459.55,496.770005 1459.84,495.73 C1460.13,494.689995 1460.64,493.740004 1461.37,492.88 C1462.1,492.019996 1463.05499,491.380002 1464.235,490.96 C1464.915,490.719999 1465.525,490.540001 1466.065,490.42 C1466.605,490.299999 1467.115,490.255 1467.595,490.285 C1468.075,490.315 1468.545,490.419999 1469.005,490.6 C1469.465,490.780001 1469.975,491.049998 1470.535,491.41 L1470.88,491.665 L1470.88,491.665 C1471.03,491.775001 1471.165,491.894999 1471.285,492.025 C1471.405,492.155001 1471.49,492.294999 1471.54,492.445 C1471.59,492.595001 1471.555,492.729999 1471.435,492.85 C1471.387,492.866 1471.3198,492.9268 1471.2334,493.0324 L1470.775,493.63 L1470.775,493.63 C1470.635,493.810001 1470.495,493.974999 1470.355,494.125 C1470.215,494.275001 1470.105,494.35 1470.025,494.35 C1469.961,494.286 1469.8778,494.180401 1469.7754,494.0332 L1469.695,493.915 C1469.555,493.704999 1469.4,493.495001 1469.23,493.285 C1469.06,493.074999 1468.895,492.885001 1468.735,492.715 C1468.575,492.544999 1468.435,492.47 1468.315,492.49 Z M1462.435,495.61 C1462.295,495.61 1462.195,495.615 1462.135,495.625 C1462.075,495.635 1461.995,495.66 1461.895,495.7 C1462.095,495.7 1462.275,495.67 1462.435,495.61 Z M1465.705,503.35 L1465.855,503.38 C1466.155,503.520001 1466.515,503.585 1466.935,503.575 C1467.355,503.565 1467.765,503.490001 1468.165,503.35 C1467.985,503.31 1467.8,503.295 1467.61,503.305 L1467.025,503.335 L1467.025,503.335 L1466.63833,503.348333 C1466.57611,503.349444 1466.515,503.35 1466.455,503.35 C1466.275,503.35 1466.095,503.32 1465.915,503.26 L1465.705,503.35 Z M1483.735,501.88 L1483.84333,501.838333 L1483.84333,501.838333 L1484.11,501.745 C1484.26,501.695 1484.415,501.64 1484.575,501.58 C1484.755,501.5 1484.945,501.42 1485.145,501.34 C1484.345,502.540006 1483.42001,503.439997 1482.37,504.04 C1481.31999,504.640003 1480.26501,504.975 1479.205,505.045 C1478.14499,505.115 1477.13,504.945002 1476.16,504.535 C1475.19,504.124998 1474.37,503.515004 1473.7,502.705 C1473.03,501.894996 1472.575,500.905006 1472.335,499.735 C1472.095,498.564994 1472.165,497.260007 1472.545,495.82 C1472.865,494.639994 1473.355,493.645004 1474.015,492.835 C1474.675,492.024996 1475.41,491.405002 1476.22,490.975 C1477.03,490.544998 1477.885,490.31 1478.785,490.27 C1479.685,490.23 1480.52,490.389998 1481.29,490.75 C1482.06,491.110002 1482.735,491.669996 1483.315,492.43 C1483.895,493.190004 1484.285,494.149994 1484.485,495.31 C1484.501,495.454001 1484.5362,495.639599 1484.5906,495.866799 L1484.635,496.045 C1484.715,496.355002 1484.78,496.669998 1484.83,496.99 C1484.88,497.310002 1484.9,497.619999 1484.89,497.92 C1484.88,498.220002 1484.815,498.439999 1484.695,498.58 L1483.2625,498.61 L1483.2625,498.61 L1481.5048,498.637 L1481.5048,498.637 L1480.135,498.655 C1479.535,498.6625 1478.96031,498.667188 1478.41094,498.669063 L1477.87,498.67 C1477.16,498.67 1476.555,498.66 1476.055,498.64 L1475.7513,498.623704 C1475.43154,498.601235 1475.23278,498.566667 1475.155,498.52 C1474.995,499.040003 1474.995,499.514998 1475.155,499.945 C1475.315,500.375002 1475.595,500.754998 1475.995,501.085 C1476.395,501.415002 1476.89,501.684999 1477.48,501.895 C1478.07,502.105001 1478.715,502.25 1479.415,502.33 C1480.115,502.41 1480.835,502.415 1481.575,502.345 C1482.315,502.275 1483.035,502.120001 1483.735,501.88 Z M1477.315,491.56 L1477.405,491.56 L1477.405,491.38 L1477.495,491.38 L1477.405,491.29 L1477.315,491.56 Z M1478.575,491.38 C1478.607,491.46 1478.6294,491.575199 1478.6422,491.7256 L1478.65,491.845 C1478.66,492.055001 1478.685,492.2 1478.725,492.28 C1478.73833,492.173333 1478.75389,492.08 1478.77167,492 L1478.8,491.89 C1478.83,491.79 1478.855,491.670001 1478.875,491.53 L1478.815,491.38 L1478.575,491.38 Z M1476.805,492.64 L1476.565,492.64 L1476.61167,492.84 C1476.61389,492.853333 1476.61333,492.856667 1476.61,492.85 C1476.6,492.83 1476.645,492.85 1476.745,492.91 L1476.745,492.82 L1476.78625,492.775 C1476.79,492.77 1476.79219,492.76625 1476.79281,492.76375 C1476.78,492.76 1476.785,492.72 1476.805,492.64 Z M1481.8846,495.4336 L1481.815,495.22 C1481.575,494.419996 1481.17,493.835002 1480.6,493.465 C1480.03,493.094998 1479.415,492.955 1478.755,493.045 C1478.095,493.135 1477.46,493.464997 1476.85,494.035 C1476.24,494.605003 1475.765,495.419995 1475.425,496.48 L1476.44592,496.472347 C1476.60959,496.470306 1476.78428,496.467857 1476.97,496.465 C1477.62,496.455 1478.28,496.43 1478.95,496.39 C1479.62,496.35 1480.25,496.3 1480.84,496.24 C1481.43,496.18 1481.845,496.11 1482.085,496.03 C1482.065,495.869999 1482.03,495.745 1481.98,495.655 C1481.95,495.601 1481.9182,495.5272 1481.8846,495.4336 Z M1483.045,494.65 L1483.025,494.581667 L1483.025,494.581667 L1482.985,494.395 C1482.965,494.284999 1482.935,494.21 1482.895,494.17 C1482.895,494.370001 1482.9,494.574999 1482.91,494.785 C1482.92,494.995001 1482.945,495.179999 1482.985,495.34 L1483.045,495.34 L1483.045,494.65 Z M1475.575,495.04 L1475.155,495.25 L1475.40167,495.216667 C1475.43722,495.212222 1475.47,495.208333 1475.5,495.205 C1475.59,495.195 1475.615,495.14 1475.575,495.04 Z M1481.245,496.75 C1481.29833,496.71 1481.35167,496.678889 1481.405,496.656667 L1481.485,496.63 C1481.565,496.61 1481.635,496.57 1481.695,496.51 L1481.605,496.51 C1481.545,496.555 1481.47094,496.58875 1481.38281,496.61125 L1481.29,496.63 C1481.16,496.65 1481.065,496.69 1481.005,496.75 L1481.245,496.75 Z M1474.795,500.86 L1474.795,501.04 L1474.705,501.04 C1474.725,500.919999 1474.755,500.86 1474.795,500.86 Z" id="E-commerce"></path>
        </g>
    </g>
</svg>