<?xml version="1.0" encoding="UTF-8"?>
<svg width="76px" height="22px" viewBox="0 0 76 22" version="1.1" xmlns="http://www.w3.org/2000/svg" xmlns:xlink="http://www.w3.org/1999/xlink">
    <!-- Generator: Sketch 59 (86127) - https://sketch.com -->
    <title>Fusion</title>
    <desc>Created with Sketch.</desc>
    <g id="页面-1" stroke="none" stroke-width="1" fill="none" fill-rule="evenodd">
        <g id="首页" transform="translate(-772.000000, -483.000000)" fill="#000000" fill-rule="nonzero">
            <path d="M786.12,484.15 L786.541531,484.883776 C786.668265,485.107245 786.781224,485.309591 786.880408,485.490816 L786.975,485.665 C787.185001,486.055002 787.325,486.364999 787.395,486.595 C787.465,486.825001 787.475,486.99 787.425,487.09 C787.375,487.19 787.290001,487.26 787.17,487.3 C786.865998,487.252 786.510801,487.2136 786.104401,487.1848 L785.79,487.165 C785.384998,487.1425 784.890001,487.13125 784.305001,487.13125 L783.69,487.135 C783.044997,487.1425 782.295939,487.155625 781.442814,487.174375 L776.07,487.3 L776.07,487.3 L776.07,492.85 L776.770312,492.833125 L776.770312,492.833125 L777.135,492.82 C777.453002,492.808 777.798,492.7978 778.169999,492.7894 L784.065,492.70375 C784.335,492.70125 784.58,492.7 784.8,492.7 L785.55,492.7 C785.790001,492.820001 785.989999,493.014999 786.15,493.285 C786.310001,493.555001 786.439999,493.839998 786.54,494.14 C786.640001,494.440001 786.72,494.734999 786.78,495.025 L786.8424,495.3418 C786.8688,495.4846 786.888,495.604 786.9,495.7 L784.98,495.7 C784.299997,495.7 783.535004,495.695 782.685,495.685 L781.528775,495.663878 C781.122246,495.654082 780.694594,495.641531 780.245818,495.626225 L776.587502,495.482031 C776.417501,495.474844 776.245001,495.4675 776.07,495.46 L776.055,496.533335 C776.048333,497.204445 776.048333,497.786664 776.055,498.28 L776.079,499.892799 L776.079,499.892799 L776.123333,502.433334 C776.127778,502.824444 776.13,503.26 776.13,503.74 C775.669998,504.020001 775.215002,504.234999 774.765,504.385 L774.12375,504.59125 C773.92125,504.65375 773.730001,504.71 773.55,504.76 C773.129998,504.860001 772.730002,504.94 772.35,505 C772.35,504.439997 772.365123,503.746916 772.39537,502.920743 L772.575,498.4 L772.575,498.4 L772.64625,496.3225 C772.66875,495.617502 772.69,494.900004 772.71,494.17 C772.75,492.709993 772.76,491.310007 772.74,489.97 C772.72,488.629993 772.660001,487.415005 772.56,486.325 C772.459999,485.234995 772.300001,484.380003 772.08,483.76 L774.24,484.27 C774.500001,484.33 774.739999,484.395 774.96,484.465 C775.180001,484.535 775.419999,484.629999 775.68,484.75 C775.76,484.79 776.054997,484.805 776.565,484.795 L777.108334,484.778333 C777.396666,484.766667 777.709999,484.75 778.048332,484.728333 L784.1025,484.3 L784.1025,484.3 L785.707501,484.16875 C785.8925,484.15625 786.03,484.15 786.12,484.15 Z M782.79,486.34 L782.85375,486.10375 C782.86125,486.07125 782.87,486.03 782.88,485.98 L782.34,485.41 L782.01,485.41 L781.986,485.5228 C781.978,485.55 781.97,485.5668 781.962,485.5732 L781.95,485.575 C781.93,485.565 781.95,485.61 782.01,485.71 C782.11,485.850001 782.224999,485.979999 782.355,486.1 C782.485001,486.220001 782.629999,486.3 782.79,486.34 Z M774.03,500.83 C774.130001,500.629999 774.234999,500.425001 774.345,500.215 C774.455001,500.004999 774.47,499.730002 774.39,499.39 L774.315,499.51 C774.285,499.56 774.25,499.62 774.21,499.69 C774.13,499.830001 774.05,499.979999 773.97,500.14 L773.76,500.56 C773.7,500.680001 773.67,500.75 773.67,500.77 C773.7,500.815 773.721563,500.840313 773.734688,500.845938 L773.745,500.845 C773.755,500.835 773.8,500.85 773.88,500.89 L773.925,500.845 C773.915,500.855 773.95,500.85 774.03,500.83 Z M801.03,501.73 C801.210001,502.310003 801.384999,502.859997 801.555,503.38 C801.725001,503.900003 801.879999,504.269999 802.02,504.49 C801.875999,504.49 801.700001,504.506 801.492,504.538 L801.33,504.565 C801.049999,504.615 800.770001,504.66 800.49,504.7 C800.209999,504.74 799.945001,504.765 799.695,504.775 C799.494999,504.783 799.3366,504.7558 799.2198,504.6934 L799.14,504.64 C798.923332,504.506666 798.751806,504.314306 798.625417,504.062917 L798.555,503.905 C798.424999,503.574998 798.260001,503.310001 798.06,503.11 C797.219996,503.730003 796.340005,504.114999 795.42,504.265 C794.499995,504.415001 793.645004,504.380001 792.855,504.16 C792.064996,503.939999 791.395003,503.550003 790.845,502.99 C790.294997,502.429997 789.98,501.750004 789.9,500.95 C789.82,500.209996 789.78,499.405004 789.78,498.535 C789.78,497.664996 789.785,496.790004 789.795,495.91 L789.825,493.3 L789.825,493.3 C789.835,492.439996 789.81,491.640004 789.75,490.9 L789.9975,490.79875 C790.0925,490.76125 790.199999,490.72 790.32,490.675 C790.560001,490.585 790.819999,490.5 791.1,490.42 C791.380001,490.34 791.659999,490.28 791.94,490.24 C792.220001,490.2 792.469999,490.21 792.69,490.27 L792.642891,491.045547 C792.615547,491.519765 792.58625,492.066247 792.555,492.685 C792.505,493.675005 792.47,494.679995 792.45,495.7 C792.43,496.720005 792.45,497.669996 792.51,498.55 C792.57,499.430004 792.689999,500.069998 792.87,500.47 C792.95,500.850002 793.129999,501.154999 793.41,501.385 C793.690001,501.615001 794.014998,501.77 794.385,501.85 C794.755002,501.93 795.144998,501.94 795.555,501.88 C795.965002,501.82 796.334998,501.700001 796.665,501.52 C796.995002,501.339999 797.254999,501.105001 797.445,500.815 C797.635001,500.524999 797.7,500.180002 797.64,499.78 L797.6616,499.0456 C797.6712,498.659201 797.679,498.244002 797.685,497.8 C797.695,497.059996 797.7,496.290004 797.7,495.49 C797.7,494.956664 797.697778,494.418889 797.693333,493.876668 L797.685,493.06 C797.675,492.239996 797.67,491.450004 797.67,490.69 C797.73,490.65 797.899999,490.59 798.18,490.51 C798.460001,490.43 798.779998,490.36 799.14,490.3 C799.500002,490.24 799.849998,490.205 800.19,490.195 C800.530002,490.185 800.779999,490.21 800.94,490.27 C800.839999,490.910003 800.76,491.724995 800.7,492.715 C800.64,493.705005 800.605,494.744995 800.595,495.835 C800.585,496.925005 800.61,497.994995 800.67,499.045 C800.73,500.095005 800.849999,500.989996 801.03,501.73 Z M798.63,494.74 L798.63,495.28 C798.63,495.460001 798.65,495.629999 798.69,495.79 L798.75,495.79 L798.75,495.16 L798.63,494.74 Z M791.49,498.55 C791.43,498.730001 791.415,498.865 791.445,498.955 L791.537812,499.216562 C791.550937,499.252187 791.565,499.29 791.58,499.33 L791.7,499.33 L791.7,498.73 L791.49,498.55 Z M791.58,500.29 C791.54,500.29 791.51,500.349999 791.49,500.47 L791.58,500.47 L791.58,500.29 Z M799.41,501.73 C799.44,501.805 799.461563,501.905312 799.474688,502.030937 L799.485,502.165 C799.495,502.355001 799.52,502.48 799.56,502.54 C799.56,502.419999 799.568437,502.3225 799.585312,502.2475 L799.605,502.18 C799.635,502.1 799.66,502.000001 799.68,501.88 L799.62,501.73 L799.41,501.73 Z M806.55,493.63 C806.449999,493.850001 806.494999,494.139998 806.685,494.5 C806.875001,494.860002 807.079999,495.189999 807.3,495.49 C807.440001,495.690001 807.689998,495.864999 808.05,496.015 C808.338001,496.135001 808.661199,496.255 809.019599,496.375 L810.261666,496.778333 C810.427221,496.832777 810.594999,496.888333 810.765,496.945 C811.275003,497.115001 811.749998,497.319999 812.19,497.56 C812.630002,497.800001 813.009998,498.089998 813.33,498.43 C813.650002,498.770002 813.859999,499.169998 813.96,499.63 C814.140001,500.650005 814.050001,501.514996 813.69,502.225 C813.329998,502.935004 812.825003,503.509998 812.175,503.95 C811.524997,504.390002 810.805004,504.689999 810.015,504.85 C809.224996,505.010001 808.500003,505.06 807.84,505 C807.299997,504.96 806.750003,504.875001 806.19,504.745 C805.629997,504.614999 805.125002,504.450001 804.675,504.25 C804.224998,504.049999 803.860001,503.835001 803.58,503.605 C803.299999,503.374999 803.18,503.140001 803.22,502.9 L803.97,499.12 C804.210001,499.640003 804.519998,500.114998 804.9,500.545 C805.280002,500.975002 805.609999,501.319999 805.89,501.58 C806.470003,502.140003 807.064997,502.484999 807.675,502.615 C808.285003,502.745001 808.829998,502.735001 809.31,502.585 C809.790002,502.434999 810.164999,502.175002 810.435,501.805 C810.705001,501.434998 810.805,501.045002 810.735,500.635 C810.665,500.224998 810.380003,499.820002 809.88,499.42 C809.379997,499.019998 808.590005,498.700001 807.51,498.46 C806.169993,498.159999 805.175003,497.625004 804.525,496.855 C803.874997,496.084996 803.525,495.255004 803.475,494.365 C803.425,493.474996 803.669997,492.620004 804.21,491.8 C804.750003,490.979996 805.529995,490.380002 806.55,490 C806.970002,489.839999 807.439997,489.725 807.96,489.655 C808.480003,489.585 809.024997,489.59 809.595,489.67 C810.165003,489.75 810.769997,489.924999 811.41,490.195 C812.050003,490.465001 812.699997,490.849997 813.36,491.35 C813.36,492.030003 813.200002,492.589998 812.88,493.03 C812.559998,493.470002 812.180002,493.7 811.74,493.72 C811.479999,493.079997 811.120002,492.600002 810.66,492.28 C810.199998,491.959998 809.715003,491.8 809.205,491.8 C808.694997,491.8 808.200002,491.954998 807.72,492.265 C807.239998,492.575002 806.850001,493.029997 806.55,493.63 Z M811.74,502.18 C811.519999,502.400001 811.290001,502.614999 811.05,502.825 C810.809999,503.035001 810.570001,503.239999 810.33,503.44 C810.39,503.46 810.489999,503.415001 810.63,503.305 L810.923333,503.065 C810.974444,503.021667 811.026666,502.976667 811.08,502.93 C811.240001,502.789999 811.384999,502.650001 811.515,502.51 L811.6446,502.366 C811.6962,502.306 811.728,502.264 811.74,502.24 L811.83,502.24 L811.74,502.18 Z M817.98,489.61 C817.92,489.61 817.780001,489.430002 817.56,489.07 C817.339999,488.709998 817.100001,488.290002 816.84,487.81 C816.579999,487.329998 816.345001,486.835003 816.135,486.325 C815.924999,485.814997 815.8,485.410002 815.76,485.11 C816.600004,485.15 817.409996,485.359998 818.19,485.74 C818.970004,486.120002 819.559998,486.579997 819.96,487.12 C819.88,487.240001 819.765001,487.424999 819.615,487.675 C819.464999,487.925001 819.295001,488.179999 819.105,488.44 C818.914999,488.700001 818.720001,488.939999 818.52,489.16 C818.319999,489.380001 818.140001,489.53 817.98,489.61 Z M816.81,491.32 C816.970001,491.32 817.214998,491.28 817.545,491.2 L818.55,490.96 C818.805001,490.9 819.040312,490.845625 819.255937,490.796875 L819.465,490.75 C819.735001,490.69 819.9,490.69 819.96,490.75 L819.9312,491.585199 L819.9312,491.585199 L819.6198,498.478601 C819.603,498.881 819.5878,499.274599 819.5742,499.659399 L819.488878,502.382652 L819.488878,502.382652 L819.46963,503.121112 C819.460988,503.582594 819.464444,503.898888 819.48,504.07 C819.46,504.15 819.340001,504.244999 819.12,504.355 C818.899999,504.465001 818.630002,504.569999 818.31,504.67 C817.989998,504.77 817.665002,504.85 817.335,504.91 C817.004998,504.97 816.730001,504.99 816.51,504.97 L816.559592,503.140918 C816.574286,502.687857 816.592245,502.187451 816.613469,501.639695 L816.63,501.22 C816.654,500.619997 816.6762,499.9912 816.6966,499.333601 L816.852422,493.737108 C816.864141,493.201953 816.87,492.731252 816.87,492.325 L816.868017,492.001693 C816.862066,491.563593 816.842727,491.336364 816.81,491.32 Z M818.19,500.44 L818.01,499.93 C817.97,500.410002 817.96,500.779999 817.98,501.04 C818,501.300001 818.04,501.629998 818.1,502.03 L818.19,502.03 L818.19,500.44 Z M827.79,505 C826.369993,505 825.175005,504.630004 824.205,503.89 C823.234995,503.149996 822.495003,502.225006 821.985,501.115 C821.474997,500.004994 821.205,498.800006 821.175,497.5 C821.145,496.199994 821.369998,494.995006 821.85,493.885 C822.330002,492.774994 823.059995,491.850004 824.04,491.11 C825.020005,490.369996 826.269992,490 827.79,490 C829.430008,490 830.784995,490.369996 831.855,491.11 C832.925005,491.850004 833.709997,492.774994 834.21,493.885 C834.710002,494.995006 834.94,496.199994 834.9,497.5 C834.86,498.800006 834.570003,500.004994 834.03,501.115 C833.489997,502.225006 832.695005,503.149996 831.645,503.89 C830.594995,504.630004 829.310008,505 827.79,505 Z M831.57,495.19 C831.389999,494.309996 831.015003,493.625002 830.445,493.135 C829.874997,492.644998 829.245003,492.36 828.555,492.28 C827.864997,492.2 827.195003,492.339998 826.545,492.7 C825.894997,493.060002 825.400002,493.649996 825.06,494.47 C824.899999,494.830002 824.765001,495.259997 824.655,495.76 C824.544999,496.260002 824.48,496.779997 824.46,497.32 C824.44,497.860003 824.47,498.394997 824.55,498.925 C824.63,499.455003 824.789999,499.944998 825.03,500.395 C825.270001,500.845002 825.589998,501.219998 825.99,501.52 C826.390002,501.820001 826.899997,502.01 827.52,502.09 C828.280004,502.210001 828.954997,502.105002 829.545,501.775 C830.135003,501.444998 830.609998,500.955003 830.97,500.305 C831.330002,499.654997 831.564999,498.890004 831.675,498.01 C831.785001,497.129996 831.750001,496.190005 831.57,495.19 Z M833.49,496.87 C833.59,496.85 833.66,496.760001 833.7,496.6 C833.74,496.439999 833.8,496.310001 833.88,496.21 L833.76,496 C833.619999,496.160001 833.53,496.304999 833.49,496.435 C833.45,496.565001 833.41,496.709999 833.37,496.87 L833.49,496.87 Z M823.53,499.78 L823.6404,499.7824 C823.6788,499.7848 823.692,499.789 823.68,499.795 L823.8,499.75 L823.8,499.75 C823.579999,499.589999 823.390001,499.440001 823.23,499.3 C823.069999,499.159999 822.820002,499.030001 822.48,498.91 L822.48,499.21 C822.613334,499.276667 822.737778,499.352222 822.853333,499.436666 L823.02,499.57 C823.180001,499.710001 823.349999,499.78 823.53,499.78 Z M845.307188,497.53 L845.31,497.41 C845.35,496.389995 845.260001,495.545003 845.04,494.875 C844.819999,494.204997 844.525002,493.695002 844.155,493.345 C843.784998,492.994998 843.365002,492.795 842.895,492.745 C842.424998,492.695 841.970002,492.759999 841.53,492.94 C841.089998,493.120001 840.690002,493.414998 840.33,493.825 C839.969998,494.235002 839.710001,494.719997 839.55,495.28 C839.461111,495.706669 839.403827,496.303207 839.378148,497.069629 L839.37,497.365 C839.355,498.047503 839.342812,498.755311 839.333438,499.488436 L839.3106,501.401201 C839.3022,501.9724 839.292,502.521997 839.28,503.05 L839.263704,503.602594 C839.241235,504.207533 839.206667,504.673332 839.16,505 C838.819998,504.899999 838.405002,504.800001 837.915,504.7 C837.424998,504.6 836.940002,504.440001 836.46,504.22 C836.42,504.14 836.415,503.815003 836.445,503.245 L836.625,500.059 C836.655,499.513001 836.685,498.940003 836.715,498.34 C836.765,497.339995 836.795,496.370005 836.805,495.43 C836.815,494.489995 836.79,493.645004 836.73,492.895 C836.67,492.144996 836.560001,491.590002 836.4,491.23 C836.46,491.129999 836.619999,491.144999 836.88,491.275 C837.140001,491.405001 837.419999,491.569999 837.72,491.77 C837.920001,491.903334 838.106667,492.036667 838.28,492.17 L838.84347,492.624694 C838.897347,492.666327 838.932857,492.691429 838.95,492.7 C839.110001,492.179997 839.449997,491.740002 839.97,491.38 C840.490003,491.019998 841.084997,490.765001 841.755,490.615 C842.425003,490.464999 843.119996,490.42 843.84,490.48 C844.560004,490.54 845.224997,490.734998 845.835,491.065 C846.445003,491.395002 846.934998,491.854997 847.305,492.445 C847.633891,492.969447 847.808704,493.616355 847.829445,494.38574 L847.825102,495.066938 L847.825102,495.066938 L847.815,495.55 C847.807,495.902002 847.8022,496.308399 847.8006,496.769199 L847.8,497.125 C847.8,497.735003 847.795,498.384997 847.785,499.075 L847.755,501.085 C847.747,501.605003 847.7358,502.086599 847.7214,502.529799 L847.684286,503.467552 C847.672857,503.709184 847.661429,503.909999 847.65,504.07 C847.514999,504.1 847.365938,504.144062 847.202813,504.202187 L846.801666,504.356667 L846.801666,504.356667 L846.315,504.55 C846.064999,504.65 845.820001,504.745 845.58,504.835 C845.339999,504.925 845.130001,504.98 844.95,505 C844.9375,505.025 844.932812,504.979688 844.935937,504.864063 L844.98,504.02125 L844.98,504.02125 L845.01,503.305 C845.025,502.907498 845.045625,502.481876 845.071875,502.028126 L845.1,501.565 C845.13,501.092498 845.154375,500.636875 845.173125,500.198126 L845.2164,499.112199 C845.226,498.905 845.2364,498.708201 845.2476,498.521801 L845.307188,497.53 L845.307188,497.53 Z M846.18,492.97 C846.12,492.689999 846.030001,492.480001 845.91,492.34 C845.91,492.540001 845.915,492.694999 845.925,492.805 C845.935,492.915001 845.95,493.019999 845.97,493.12 L846.03,493.06 L846.09,492.97 L846.18,492.97 Z M838.2,498.31 C838.099999,498.109999 838.06,497.925001 838.08,497.755 C838.1,497.584999 838.11,497.420001 838.11,497.26 L838.11,497.095 C838.11,497.025 838.09,496.99 838.05,496.99 L837.96,497.26 C837.92,497.380001 837.895,497.504999 837.885,497.635 C837.875,497.765001 837.89,497.894999 837.93,498.025 C837.97,498.155001 838.059999,498.25 838.2,498.31 Z M846.81,503.26 C846.649999,503.079999 846.55,502.815002 846.51,502.465 C846.47,502.114998 846.46,501.760002 846.48,501.4 C846.5,501.039998 846.535,500.705002 846.585,500.395 L846.69,499.72 L846.69,499.72 C846.71,499.74 846.72,499.834999 846.72,500.005 L846.72,500.47 C846.72,500.870002 846.71,501.304998 846.69,501.775 C846.67,502.245002 846.709999,502.739997 846.81,503.26 Z" id="Fusion"></path>
        </g>
    </g>
</svg>