<?xml version="1.0" encoding="utf-8"?>
<!-- Generator: Adobe Illustrator 21.0.0, SVG Export Plug-In . SVG Version: 6.00 Build 0)  -->
<svg version="1.1" id="图层_1" xmlns="http://www.w3.org/2000/svg" xmlns:xlink="http://www.w3.org/1999/xlink" x="0px" y="0px"
	 viewBox="0 0 50 50" style="enable-background:new 0 0 50 50;" xml:space="preserve">
<style type="text/css">
	.st0{fill:url(#Rectangle-3-Copy-2_1_);}
	.st1{fill:url(#Rectangle-3_1_);}
	.st2{fill:url(#Rectangle-3-Copy_1_);}
	.st3{fill:#FFFFFF;}
</style>
<title>首页 copy 3</title>
<desc>Created with Sketch.</desc>
<linearGradient id="Rectangle-3-Copy-2_1_" gradientUnits="userSpaceOnUse" x1="-243.9211" y1="299.7157" x2="-243.9211" y2="298.7157" gradientTransform="matrix(19 0 0 -28 4668 8408.04)">
	<stop  offset="0" style="stop-color:#FF2040;stop-opacity:0.2232"/>
	<stop  offset="1" style="stop-color:#FF1F1F;stop-opacity:0.7246"/>
</linearGradient>
<path id="Rectangle-3-Copy-2" class="st0" d="M25,16h17c0.6,0,1,0.4,1,1v26c0,0.6-0.4,1-1,1H25c-0.6,0-1-0.4-1-1V17
	C24,16.4,24.4,16,25,16z"/>
<linearGradient id="Rectangle-3_1_" gradientUnits="userSpaceOnUse" x1="-246.75" y1="301.7633" x2="-246.75" y2="300.7633" gradientTransform="matrix(24 0 0 -36 5942 10871.4805)">
	<stop  offset="0" style="stop-color:#FF2040;stop-opacity:0.2232"/>
	<stop  offset="1" style="stop-color:#FF1F1F;stop-opacity:0.7246"/>
</linearGradient>
<path id="Rectangle-3" class="st1" d="M9,8h22c0.6,0,1,0.4,1,1v34c0,0.6-0.4,1-1,1H9c-0.6,0-1-0.4-1-1V9C8,8.4,8.4,8,9,8z"/>
<linearGradient id="Rectangle-3-Copy_1_" gradientUnits="userSpaceOnUse" x1="-250.8571" y1="222.43" x2="-251.8571" y2="222.43" gradientTransform="matrix(42 0 0 -3 10583 709.79)">
	<stop  offset="0" style="stop-color:#FF2040;stop-opacity:0.2232"/>
	<stop  offset="1" style="stop-color:#FF1F1F;stop-opacity:0.7246"/>
</linearGradient>
<path id="Rectangle-3-Copy" class="st2" d="M6,41h40c0.6,0,1,0.4,1,1v1c0,0.6-0.4,1-1,1H6c-0.6,0-1-0.4-1-1v-1C5,41.4,5.4,41,6,41z"
	/>
<path id="Path" class="st3" d="M12,36.8V16.2c0-0.7,0.7-1.2,1.5-1.2s1.5,0.5,1.5,1.2v20.6c0,0.7-0.7,1.2-1.5,1.2S12,37.5,12,36.8z"
	/>
<path id="Path-Copy-2" class="st3" d="M18,36.8V16.2c0-0.7,0.7-1.2,1.5-1.2s1.5,0.5,1.5,1.2v20.6c0,0.7-0.7,1.2-1.5,1.2
	S18,37.5,18,36.8z"/>
<path id="Path-Copy-3" class="st3" d="M25,36.8V16.2c0-0.7,0.7-1.2,1.5-1.2s1.5,0.5,1.5,1.2v20.6c0,0.7-0.7,1.2-1.5,1.2
	S25,37.5,25,36.8z"/>
</svg>
