<?xml version="1.0" encoding="utf-8"?>
<!-- Generator: Adobe Illustrator 21.0.0, SVG Export Plug-In . SVG Version: 6.00 Build 0)  -->
<svg version="1.1" id="图层_1" xmlns="http://www.w3.org/2000/svg" xmlns:xlink="http://www.w3.org/1999/xlink" x="0px" y="0px"
	 viewBox="0 0 50 50" style="enable-background:new 0 0 50 50;" xml:space="preserve">
<style type="text/css">
	.st0{fill:url(#Shape_1_);}
	.st1{fill:#FC9633;}
	.st2{fill:url(#Rectangle-23_2_);}
	.st3{fill:url(#Rectangle-23-Copy_2_);}
	.st4{fill:url(#Rectangle-23_3_);}
	.st5{fill:url(#Rectangle-23-Copy_3_);}
	.st6{fill:url(#Rectangle-23-Copy-2_1_);}
</style>
<title>首页 copy 12</title>
<desc>Created with Sketch.</desc>
<g id="Group-19" transform="translate(948.000000, 685.000000)">
	
		<linearGradient id="Shape_1_" gradientUnits="userSpaceOnUse" x1="-1197.2682" y1="-382.3778" x2="-1197.2682" y2="-383.3778" gradientTransform="matrix(31.342 0 0 -40.9015 36601.8203 -16319.5107)">
		<stop  offset="0" style="stop-color:#FFDD00;stop-opacity:0.438"/>
		<stop  offset="1" style="stop-color:#FFDD00"/>
	</linearGradient>
	<path id="Shape" class="st0" d="M-938.6-664c0,8.7,7,15.7,15.7,15.7s15.7-7,15.7-15.7s-7-15.7-15.7-15.7S-938.6-672.7-938.6-664z
		 M-926-640.4c0,0.4,0.2,0.8,0.5,1.1c0.3,0.3,0.7,0.5,1.1,0.5h3.2c0.6,0,1.2-0.3,1.5-0.8s0.3-1.1,0-1.7s-0.9-0.8-1.5-0.8h-3.2
		c-0.4,0-0.8,0.2-1.1,0.5C-925.8-641.2-926-640.8-926-640.4L-926-640.4z M-929-645.4c0,0.4,0.2,0.8,0.5,1.1c0.3,0.3,0.7,0.5,1.1,0.5
		h9.6c0.9,0,1.6-0.7,1.6-1.6s-0.7-1.6-1.6-1.6h-9.6C-928.3-647-929-646.3-929-645.4L-929-645.4z"/>
	<polygon id="M" class="st1" points="-930,-670 -924.9,-670 -922.9,-662.3 -920.9,-670 -915.8,-670 -915.8,-657.4 -919,-657.4 
		-919,-667 -921.4,-657.4 -924.3,-657.4 -926.8,-667 -926.8,-657.4 -930,-657.4 	"/>
</g>
<linearGradient id="Rectangle-23_2_" gradientUnits="userSpaceOnUse" x1="-234.5455" y1="222.43" x2="-233.5455" y2="222.43" gradientTransform="matrix(11 0 0 -3 2584 690.79)">
	<stop  offset="0" style="stop-color:#FFDD00;stop-opacity:0.438"/>
	<stop  offset="1" style="stop-color:#FFDD00"/>
</linearGradient>
<path id="Rectangle-23" class="st2" d="M5.5,22h8c0.8,0,1.5,0.7,1.5,1.5l0,0c0,0.8-0.7,1.5-1.5,1.5h-8C4.7,25,4,24.3,4,23.5l0,0
	C4,22.7,4.7,22,5.5,22z"/>
<linearGradient id="Rectangle-23-Copy_2_" gradientUnits="userSpaceOnUse" x1="-224.8303" y1="308.43" x2="-223.8303" y2="308.43" gradientTransform="matrix(7.7782 7.7782 2.1213 -2.1213 1103.1011 2410.6587)">
	<stop  offset="0" style="stop-color:#FFDD00;stop-opacity:0.438"/>
	<stop  offset="1" style="stop-color:#FFDD00"/>
</linearGradient>
<path id="Rectangle-23-Copy" class="st3" d="M10.7,7.6l5.7,5.7c0.6,0.6,0.6,1.5,0,2.1l0,0c-0.6,0.6-1.5,0.6-2.1,0L8.6,9.7
	C8,9.1,8,8.2,8.6,7.6l0,0C9.2,7,10.1,7,10.7,7.6z"/>
<linearGradient id="Rectangle-23_3_" gradientUnits="userSpaceOnUse" x1="-281.4546" y1="222.43" x2="-280.4546" y2="222.43" gradientTransform="matrix(-11 0 0 -3 -3050 690.79)">
	<stop  offset="0" style="stop-color:#FFDD00;stop-opacity:0.438"/>
	<stop  offset="1" style="stop-color:#FFDD00"/>
</linearGradient>
<path id="Rectangle-23_1_" class="st4" d="M44.5,22h-8c-0.8,0-1.5,0.7-1.5,1.5l0,0c0,0.8,0.7,1.5,1.5,1.5h8c0.8,0,1.5-0.7,1.5-1.5
	l0,0C46,22.7,45.3,22,44.5,22z"/>
<linearGradient id="Rectangle-23-Copy_3_" gradientUnits="userSpaceOnUse" x1="-258" y1="186.8076" x2="-257" y2="186.8076" gradientTransform="matrix(-7.7782 7.7782 -2.1213 -2.1213 -1569.1012 2410.6587)">
	<stop  offset="0" style="stop-color:#FFDD00;stop-opacity:0.438"/>
	<stop  offset="1" style="stop-color:#FFDD00"/>
</linearGradient>
<path id="Rectangle-23-Copy_1_" class="st5" d="M39.3,7.6l-5.7,5.7c-0.6,0.6-0.6,1.5,0,2.1l0,0c0.6,0.6,1.5,0.6,2.1,0l5.7-5.7
	c0.6-0.6,0.6-1.5,0-2.1l0,0C40.8,7,39.9,7,39.3,7.6z"/>
<linearGradient id="Rectangle-23-Copy-2_1_" gradientUnits="userSpaceOnUse" x1="-233.5455" y1="394.43" x2="-234.5455" y2="394.43" gradientTransform="matrix(-2.020667e-15 11 3 5.510911e-16 -1158.79 2580)">
	<stop  offset="0" style="stop-color:#FFDD00;stop-opacity:0.438"/>
	<stop  offset="1" style="stop-color:#FFDD00"/>
</linearGradient>
<path id="Rectangle-23-Copy-2" class="st6" d="M26,1.5v8c0,0.8-0.7,1.5-1.5,1.5l0,0c-0.8,0-1.5-0.7-1.5-1.5v-8C23,0.7,23.7,0,24.5,0
	l0,0C25.3,0,26,0.7,26,1.5z"/>
</svg>
