<?xml version="1.0" encoding="utf-8"?>
<!-- Generator: Adobe Illustrator 21.0.0, SVG Export Plug-In . SVG Version: 6.00 Build 0)  -->
<svg version="1.1" id="图层_1" xmlns="http://www.w3.org/2000/svg" xmlns:xlink="http://www.w3.org/1999/xlink" x="0px" y="0px"
	 viewBox="0 0 50 50" style="enable-background:new 0 0 50 50;" xml:space="preserve">
<style type="text/css">
	.st0{fill:url(#Oval-Copy-7_1_);}
	.st1{fill:url(#Oval-Copy-4_1_);}
	.st2{fill:none;stroke:#FFFFFF;stroke-width:2;}
</style>
<title>首页 copy 13</title>
<desc>Created with Sketch.</desc>
<linearGradient id="Oval-Copy-7_1_" gradientUnits="userSpaceOnUse" x1="-243.9211" y1="297.2027" x2="-243.9211" y2="296.2027" gradientTransform="matrix(19 0 0 -22 4670 6562.46)">
	<stop  offset="0" style="stop-color:#8756CD;stop-opacity:0.3455"/>
	<stop  offset="1" style="stop-color:#8756CD"/>
</linearGradient>
<path id="Oval-Copy-7" class="st0" d="M35.5,46c6.3-5.2,9.5-9.5,9.5-12.9c0-5-4.3-9.1-9.5-9.1S26,28.1,26,33.1
	C26,36.5,29.2,40.8,35.5,46z"/>
<linearGradient id="Oval-Copy-4_1_" gradientUnits="userSpaceOnUse" x1="-249.4375" y1="302.3146" x2="-249.4375" y2="301.3146" gradientTransform="matrix(32 0 0 -39 8003 11797.2695)">
	<stop  offset="0" style="stop-color:#8756CD;stop-opacity:0.3455"/>
	<stop  offset="1" style="stop-color:#8756CD"/>
</linearGradient>
<path id="Oval-Copy-4" class="st1" d="M21,46c10.7-9.3,16-16.9,16-22.9C37,14.2,29.8,7,21,7S5,14.2,5,23.1C5,29.1,10.3,36.7,21,46z"
	/>
<g id="Group-16" transform="translate(1061.000000, 697.000000)">
	<path id="Oval-9-Copy" class="st2" d="M-1034-667c0-3.3-2.7-6-6-6s-6,2.7-6,6"/>
	<circle id="Oval-9" class="st2" cx="-1040.5" cy="-676.5" r="3.5"/>
</g>
</svg>
