<?xml version="1.0" encoding="utf-8"?>
<!-- Generator: Adobe Illustrator 21.0.0, SVG Export Plug-In . SVG Version: 6.00 Build 0)  -->
<svg version="1.1" id="图层_1" xmlns="http://www.w3.org/2000/svg" xmlns:xlink="http://www.w3.org/1999/xlink" x="0px" y="0px"
	 viewBox="0 0 50 50" style="enable-background:new 0 0 50 50;" xml:space="preserve">
<style type="text/css">
	.st0{fill:url(#Shape_1_);}
	.st1{fill:url(#Oval-11_1_);}
	.st2{fill:#FFFFFF;}
</style>
<title>首页 copy 4</title>
<desc>Created with Sketch.</desc>
<linearGradient id="Shape_1_" gradientUnits="userSpaceOnUse" x1="-251.3571" y1="302.48" x2="-251.3571" y2="301.48" gradientTransform="matrix(42 0 0 -40 10582 12105.2002)">
	<stop  offset="0" style="stop-color:#FDB370;stop-opacity:0.4954"/>
	<stop  offset="1" style="stop-color:#FB7C3D"/>
</linearGradient>
<path id="Shape" class="st0" d="M25.2,41.5c-8.6-0.1-15.5-7.1-15.4-15.6c0-2,0.4-3.9,1.1-5.8l4.2,1.6L12.4,13L4,17.6l2.7,1
	c-0.9,2.3-1.3,4.8-1.3,7.3c-0.1,5.3,2,10.3,5.7,14.1c3.7,3.8,8.8,5.9,14.1,6c3.4,0,6.8-0.9,9.8-2.7l-3.3-3.3
	C29.7,41,27.5,41.5,25.2,41.5z M42.8,33.2c0.9-2.3,1.3-4.7,1.3-7.2c0.1-5.3-2-10.3-5.6-14.1C34.8,8.2,29.9,6,24.6,6
	c-3.4,0-6.7,0.9-9.6,2.7l3.3,3.2c2-0.9,4.2-1.4,6.4-1.4c8.5,0.1,15.2,7,15.2,15.5c0,1.9-0.4,3.9-1.1,5.7l-3.7-1.4l2.6,8.7l8.3-4.6
	L42.8,33.2z"/>
<linearGradient id="Oval-11_1_" gradientUnits="userSpaceOnUse" x1="-246.75" y1="298.18" x2="-246.75" y2="297.18" gradientTransform="matrix(24 0 0 -24 5947 7170.3198)">
	<stop  offset="0" style="stop-color:#FDB370;stop-opacity:0.4954"/>
	<stop  offset="1" style="stop-color:#FB7C3D"/>
</linearGradient>
<circle id="Oval-11" class="st1" cx="25" cy="26" r="12"/>
<path id="R" class="st2" d="M20,19h5.3c1.2,0,2.2,0.3,2.9,0.9c0.7,0.7,1.1,1.6,1.1,2.8c0,0.7-0.2,1.3-0.5,1.8
	c-0.4,0.6-0.9,1-1.5,1.1v0c1,0.3,1.6,1,1.8,2.3l0.2,2.1c0.1,0.8,0.3,1.4,0.7,1.9h-2.1c-0.3-0.4-0.5-1-0.5-1.7l-0.2-1.6
	c-0.1-0.7-0.3-1.2-0.6-1.5c-0.4-0.3-0.9-0.5-1.5-0.5H22V32h-2V19z M22,21v4h2.9c0.7,0,1.3-0.2,1.6-0.5c0.3-0.4,0.5-0.9,0.5-1.5
	c0-0.7-0.2-1.2-0.5-1.5c-0.3-0.3-0.9-0.5-1.6-0.5H22z"/>
</svg>
