<?xml version="1.0" encoding="utf-8"?>
<!-- Generator: Adobe Illustrator 21.0.0, SVG Export Plug-In . SVG Version: 6.00 Build 0)  -->
<svg version="1.1" id="图层_1" xmlns="http://www.w3.org/2000/svg" xmlns:xlink="http://www.w3.org/1999/xlink" x="0px" y="0px"
	 viewBox="0 0 50 50" style="enable-background:new 0 0 50 50;" xml:space="preserve">
<style type="text/css">
	.st0{fill:url(#Shape-Copy-3_1_);}
	.st1{fill:url(#Oval-11-Copy_1_);}
	.st2{fill:#FFFFFF;}
</style>
<title>首页 copy 5</title>
<desc>Created with Sketch.</desc>
<linearGradient id="Shape-Copy-3_1_" gradientUnits="userSpaceOnUse" x1="-251.3571" y1="302.505" x2="-251.3571" y2="301.505" gradientTransform="matrix(42 0 0 -40 10583 12105.2002)">
	<stop  offset="0" style="stop-color:#FF2040;stop-opacity:0.2232"/>
	<stop  offset="1" style="stop-color:#FF1F1F;stop-opacity:0.7246"/>
</linearGradient>
<path id="Shape-Copy-3" class="st0" d="M26.2,40.5c-8.6-0.1-15.5-7.1-15.4-15.6c0-2,0.4-3.9,1.1-5.8l4.2,1.6L13.4,12L5,16.6l2.7,1
	c-0.9,2.3-1.3,4.8-1.3,7.3c-0.1,5.3,2,10.3,5.7,14.1c3.7,3.8,8.8,5.9,14.1,6c3.4,0,6.8-0.9,9.8-2.7l-3.3-3.3
	C30.7,40,28.5,40.5,26.2,40.5z M43.8,32.2c0.9-2.3,1.3-4.7,1.3-7.2c0.1-5.3-2-10.3-5.6-14.1C35.8,7.2,30.9,5,25.6,5
	c-3.4,0-6.7,0.9-9.6,2.7l3.3,3.2c2-0.9,4.2-1.4,6.4-1.4c8.5,0.1,15.2,7,15.2,15.5c0,1.9-0.4,3.9-1.1,5.7l-3.7-1.4l2.6,8.7l8.3-4.6
	L43.8,32.2z"/>
<linearGradient id="Oval-11-Copy_1_" gradientUnits="userSpaceOnUse" x1="-246.75" y1="298.2217" x2="-246.75" y2="297.2217" gradientTransform="matrix(24 0 0 -24 5948 7170.3198)">
	<stop  offset="0" style="stop-color:#FF2040;stop-opacity:0.2232"/>
	<stop  offset="1" style="stop-color:#FF1F1F;stop-opacity:0.7246"/>
</linearGradient>
<circle id="Oval-11-Copy" class="st1" cx="26" cy="25" r="12"/>
<g id="网店" transform="translate(1280.000000, 573.000000)">
	<path id="Shape" class="st2" d="M-1250.3-548.6c-0.3,0.6-0.9,0.9-1.6,0.9c-0.7,0-1.4-0.4-1.6-0.9c-0.3,0.6-0.9,0.9-1.6,0.9
		c-0.7,0-1.4-0.4-1.6-0.9c-0.3,0.6-0.9,0.9-1.6,0.9c-0.2,0-0.3,0-0.5-0.1v5.1c0,0.3,0.4,0.6,0.7,0.6h9.3c0.3,0,0.7-0.4,0.7-0.6v-5.1
		c-0.2,0-0.3,0.1-0.5,0.1C-1249.4-547.7-1250-548.1-1250.3-548.6z M-1258.9-552.6l-1.1,2.5c0,0.8,0.7,1.4,1.6,1.4s1.6-0.6,1.6-1.4
		c0,0.8,0.7,1.4,1.6,1.4s1.6-0.6,1.6-1.4c0,0.8,0.7,1.4,1.6,1.4s1.6-0.6,1.6-1.4c0,0.8,0.7,1.4,1.6,1.4c0.9,0,1.6-0.6,1.6-1.4
		l-1.2-2.5H-1258.9z M-1248.6-552.5l-0.1-0.1L-1248.6-552.5z M-1248.9-553c0.3,0,0.6-0.2,0.6-0.5c0-0.3-0.2-0.5-0.6-0.5h-9.3
		c-0.3,0-0.6,0.2-0.6,0.5c0,0.3,0.2,0.5,0.6,0.5H-1248.9z"/>
</g>
</svg>
