<?xml version="1.0" encoding="utf-8"?>
<!-- Generator: Adobe Illustrator 21.0.0, SVG Export Plug-In . SVG Version: 6.00 Build 0)  -->
<svg version="1.1" id="图层_1" xmlns="http://www.w3.org/2000/svg" xmlns:xlink="http://www.w3.org/1999/xlink" x="0px" y="0px"
	 viewBox="0 0 50 50" style="enable-background:new 0 0 50 50;" xml:space="preserve">
<style type="text/css">
	.st0{fill:url(#Shape-Copy-4_1_);}
	.st1{fill:url(#Oval-11-Copy-2_1_);}
	.st2{fill:#FFFFFF;}
</style>
<title>首页 copy 14</title>
<desc>Created with Sketch.</desc>
<linearGradient id="Shape-Copy-4_1_" gradientUnits="userSpaceOnUse" x1="-251.3571" y1="302.4923" x2="-251.3571" y2="301.4923" gradientTransform="matrix(42 0 0 -40 10582 12105.2002)">
	<stop  offset="0" style="stop-color:#69ACF2;stop-opacity:0.6223"/>
	<stop  offset="1" style="stop-color:#68ACF2"/>
</linearGradient>
<path id="Shape-Copy-4" class="st0" d="M25.2,41C16.6,40.9,9.7,34,9.8,25.4c0-2,0.4-3.9,1.1-5.8l4.2,1.6l-2.7-8.7L4,17.1l2.7,1
	c-0.9,2.3-1.3,4.8-1.3,7.3c-0.1,5.3,2,10.3,5.7,14.1c3.7,3.8,8.8,5.9,14.1,6c3.4,0,6.8-0.9,9.8-2.7l-3.3-3.3
	C29.7,40.5,27.5,41,25.2,41z M42.8,32.7c0.9-2.3,1.3-4.7,1.3-7.2c0.1-5.3-2-10.3-5.6-14.1c-3.7-3.8-8.6-5.9-13.9-5.9
	c-3.4,0-6.7,0.9-9.6,2.7l3.3,3.2c2-0.9,4.2-1.4,6.4-1.4c8.5,0.1,15.2,7,15.2,15.5c0,1.9-0.4,3.9-1.1,5.7l-3.7-1.4l2.6,8.7l8.3-4.6
	L42.8,32.7z"/>
<linearGradient id="Oval-11-Copy-2_1_" gradientUnits="userSpaceOnUse" x1="-246.75" y1="298.2005" x2="-246.75" y2="297.2005" gradientTransform="matrix(24 0 0 -24 5947 7170.3198)">
	<stop  offset="0" style="stop-color:#69ACF2;stop-opacity:0.6223"/>
	<stop  offset="1" style="stop-color:#68ACF2"/>
</linearGradient>
<circle id="Oval-11-Copy-2" class="st1" cx="25" cy="25.5" r="12"/>
<g id="自媒体" transform="translate(1178.000000, 706.000000) rotate(-15.000000) translate(-1178.000000, -706.000000) translate(1171.000000, 699.000000)">
	<path id="Shape" class="st2" d="M-930.6-949.7l2-3.3c0.2-0.3,0-0.6-0.3-0.8c-0.7-0.3-1.5-0.5-2.4-0.4c-2.9,0.1-5.4,2.3-5.4,5.1
		c0,2.9,2.4,5.2,5.5,5.2c2.8,0,5.1-1.9,5.5-4.5c0-0.3-0.2-0.6-0.6-0.6h-3.9C-930.5-948.9-930.8-949.3-930.6-949.7z M-925.7-949.7
		c0,0-0.1,0-0.1,0c-0.3-0.1-0.5-0.4-0.5-0.7c0.2-0.7-0.3-1.4-1-1.6c-0.3-0.1-0.5-0.4-0.5-0.7c0.1-0.3,0.4-0.5,0.8-0.4
		c1.4,0.3,2.3,1.7,1.9,3C-925.1-949.8-925.4-949.7-925.7-949.7z"/>
	<path id="Shape_1_" class="st2" d="M-923.4-949.4c0,0-0.1,0-0.1,0c-0.3-0.1-0.5-0.4-0.5-0.7c0.5-1.9-0.7-3.7-2.6-4.2
		c-0.3-0.1-0.5-0.4-0.5-0.7c0.1-0.3,0.4-0.5,0.7-0.4c2.6,0.6,4.2,3.1,3.5,5.6C-922.9-949.5-923.1-949.4-923.4-949.4z M-932.8-945.1
		l1.5,2.9c0.2,0.3,0.6,0.3,0.8,0l1.5-2.9c0.2-0.3-0.1-0.6-0.4-0.6h-3C-932.8-945.7-933-945.4-932.8-945.1z"/>
</g>
</svg>
