<?xml version="1.0" encoding="utf-8"?>
<!-- Generator: Adobe Illustrator 21.0.0, SVG Export Plug-In . SVG Version: 6.00 Build 0)  -->
<svg version="1.1" id="图层_1" xmlns="http://www.w3.org/2000/svg" xmlns:xlink="http://www.w3.org/1999/xlink" x="0px" y="0px"
	 viewBox="0 0 50 50" style="enable-background:new 0 0 50 50;" xml:space="preserve">
<style type="text/css">
	.st0{fill:url(#Rectangle-2_1_);}
	.st1{fill:#FFFFFF;}
	.st2{fill:url(#Rectangle-22-Copy_1_);}
</style>
<title>首页 copy 6</title>
<desc>Created with Sketch.</desc>
<linearGradient id="Rectangle-2_1_" gradientUnits="userSpaceOnUse" x1="-248.9" y1="301.1421" x2="-248.9" y2="300.1421" gradientTransform="matrix(30 0 0 -33 7489 9946.6904)">
	<stop  offset="0" style="stop-color:#69ACF2;stop-opacity:0.4713"/>
	<stop  offset="1" style="stop-color:#68ACF2"/>
</linearGradient>
<path id="Rectangle-2" class="st0" d="M11,9h22c2.2,0,4,1.8,4,4v25c0,2.2-1.8,4-4,4H11c-2.2,0-4-1.8-4-4V13C7,10.8,8.8,9,11,9z"/>
<path id="Rectangle-22" class="st1" d="M19.6,18l7.1,4.3c0.9,0.6,1.3,1.8,0.7,2.7c-0.2,0.3-0.4,0.5-0.7,0.7L19.6,30
	c-0.9,0.6-2.2,0.3-2.7-0.7c-0.2-0.3-0.3-0.7-0.3-1l0-8.5c0-1.1,0.9-2,2-2C19,17.8,19.3,17.8,19.6,18z"/>
<linearGradient id="Rectangle-22-Copy_1_" gradientUnits="userSpaceOnUse" x1="-278.583" y1="308.6002" x2="-279.1966" y2="308.0023" gradientTransform="matrix(-11.9756 -11.9756 11.9757 -11.9757 -6995.8896 377.4432)">
	<stop  offset="0" style="stop-color:#69ACF2;stop-opacity:0.4713"/>
	<stop  offset="1" style="stop-color:#68ACF2"/>
</linearGradient>
<path id="Rectangle-22-Copy" class="st2" d="M40.7,15.9l-11.4,6.9c-0.9,0.6-1.3,1.8-0.7,2.7c0.2,0.3,0.4,0.5,0.7,0.7l11.4,6.9
	c0.9,0.6,2.2,0.3,2.7-0.7c0.2-0.3,0.3-0.7,0.3-1l0-13.8c0-1.1-0.9-2-2-2C41.4,15.6,41,15.7,40.7,15.9z"/>
</svg>
