<?xml version="1.0" encoding="utf-8"?>
<!-- Generator: Adobe Illustrator 21.0.0, SVG Export Plug-In . SVG Version: 6.00 Build 0)  -->
<svg version="1.1" id="图层_1" xmlns="http://www.w3.org/2000/svg" xmlns:xlink="http://www.w3.org/1999/xlink" x="0px" y="0px"
	 viewBox="0 0 50 50" style="enable-background:new 0 0 50 50;" xml:space="preserve">
<style type="text/css">
	.st0{fill:url(#Shape_2_);}
	.st1{fill:url(#Shape_3_);}
	.st2{fill:#FFFFFF;}
</style>
<title>首页 copy 7</title>
<desc>Created with Sketch.</desc>
<g id="Group-14" transform="translate(1479.000000, 564.000000)">
	<g id="wechat-copy" transform="translate(15.500000, 13.500000) scale(-1, 1) translate(-15.500000, -13.500000) ">
		
			<linearGradient id="Shape_2_" gradientUnits="userSpaceOnUse" x1="1775.8549" y1="-264.5561" x2="1775.8549" y2="-265.5561" gradientTransform="matrix(-31 0 0 -27 56541 -7697.8901)">
			<stop  offset="0" style="stop-color:#68C4B2;stop-opacity:0.5425"/>
			<stop  offset="1" style="stop-color:#6AC5B3"/>
		</linearGradient>
		<path id="Shape" class="st0" d="M1505-542.3c0-7-7.3-12.6-15.5-12.6c-8.7,0-15.5,5.7-15.5,12.6c0,7,6.8,12.6,15.5,12.6
			c1.8,0,3.7-0.4,5.5-0.9l5,2.6l-1.4-4.3C1502.3-534.9,1505-538.3,1505-542.3z M1484.5-544.4c-0.9,0-1.8-0.9-1.8-1.8
			c0-0.9,0.9-1.7,1.8-1.7c1.4,0,2.3,0.9,2.3,1.7C1486.8-545.3,1485.9-544.4,1484.5-544.4z M1494.5-544.4c-0.9,0-1.8-0.9-1.8-1.8
			c0-0.9,0.9-1.7,1.8-1.7c1.4,0,2.3,0.9,2.3,1.7C1496.8-545.3,1495.9-544.4,1494.5-544.4z"/>
	</g>
	<g id="wechat" transform="translate(16.000000, 12.000000)">
		
			<linearGradient id="Shape_3_" gradientUnits="userSpaceOnUse" x1="-1741.7084" y1="-279.2664" x2="-1741.7084" y2="-280.2664" gradientTransform="matrix(24 0 0 -21 40339 -6419.4702)">
			<stop  offset="0" style="stop-color:#68C4B2;stop-opacity:0.5425"/>
			<stop  offset="1" style="stop-color:#6AC5B3"/>
		</linearGradient>
		<path id="Shape_1_" class="st1" d="M-1450-545.1c0-5.4-5.7-9.8-12-9.8c-6.7,0-12,4.4-12,9.8c0,5.4,5.3,9.8,12,9.8
			c1.4,0,2.8-0.3,4.2-0.7l3.9,2l-1.1-3.4C-1452.1-539.3-1450-542-1450-545.1z M-1458.1-546.8c-0.7,0-1.4-0.7-1.4-1.4
			c0-0.7,0.7-1.3,1.4-1.3c1,0,1.8,0.7,1.8,1.3C-1456.3-547.4-1457.1-546.8-1458.1-546.8z"/>
		<path id="Path" class="st2" d="M-1465.6-547.3c-0.8,0-1.5-0.6-1.5-1.3c0-0.6,0.8-1.2,1.5-1.2c1.2,0,1.9,0.6,1.9,1.2
			C-1463.7-547.9-1464.5-547.3-1465.6-547.3z"/>
	</g>
</g>
</svg>
