<?xml version="1.0" encoding="utf-8"?>
<!-- Generator: Adobe Illustrator 21.0.0, SVG Export Plug-In . SVG Version: 6.00 Build 0)  -->
<svg version="1.1" id="图层_1" xmlns="http://www.w3.org/2000/svg" xmlns:xlink="http://www.w3.org/1999/xlink" x="0px" y="0px"
	 viewBox="0 0 50 50" style="enable-background:new 0 0 50 50;" xml:space="preserve">
<style type="text/css">
	.st0{fill:#E57B1E;}
	.st1{fill:url(#Shape_4_);}
	.st2{fill:url(#Shape_5_);}
	.st3{fill:url(#Shape_6_);}
</style>
<title>首页 copy 8</title>
<desc>Created with Sketch.</desc>
<g id="weibo-3" transform="translate(1584.000000, 562.000000)">
	<path id="Shape" class="st0" d="M-1544.3-540c0.6,0,1.1-0.4,1.2-0.9v-0.1c0.9-7.2-6.7-5.9-6.7-5.9c-0.7,0-1.2,0.4-1.2,1.1
		s0.6,1.1,1.2,1.1c5.5-1.1,4.3,3.7,4.3,3.7C-1545.5-540.4-1545-540-1544.3-540z"/>
	
		<linearGradient id="Shape_4_" gradientUnits="userSpaceOnUse" x1="-1825.375" y1="-268.2465" x2="-1825.375" y2="-269.2465" gradientTransform="matrix(16 0 0 -17 27661 -5113.1899)">
		<stop  offset="0" style="stop-color:#FF2040;stop-opacity:0.2232"/>
		<stop  offset="1" style="stop-color:#FF1F1F;stop-opacity:0.7246"/>
	</linearGradient>
	<path id="Shape_1_" class="st1" d="M-1545.6-552.7c-2.6-0.6-5.2-0.1-5.9,0.1c-0.1,0-0.1,0.1-0.2,0.1c-0.8,0.2-1.2,0.9-1.2,1.7
		c0,1,0.8,1.8,1.7,1.8c0,0,1-0.1,1.5-0.4c0.7-0.3,5.9-0.2,8.5,4.3c1.4,3.3,0.7,5.5,0.6,5.9c0,0-0.4,0.9-0.4,1.7c0,1,0.8,1.6,1.7,1.6
		c0.8,0,1.4-0.1,1.6-1.5C-1534.9-547.1-1541.2-551.6-1545.6-552.7z"/>
	
		<linearGradient id="Shape_5_" gradientUnits="userSpaceOnUse" x1="-1834.7106" y1="-261.67" x2="-1834.7106" y2="-262.67" gradientTransform="matrix(38 0 0 -30 68157 -8399.0996)">
		<stop  offset="0" style="stop-color:#FF2040;stop-opacity:0.2232"/>
		<stop  offset="1" style="stop-color:#FF1F1F;stop-opacity:0.7246"/>
	</linearGradient>
	<path id="Shape_2_" class="st2" d="M-1548.1-537c-1.7-0.3-0.9-1.3-0.9-1.3s1.6-2.7-0.3-4.8c-2.5-2.4-8.6,0.3-8.6,0.3
		c-2.3,0.7-1.7-0.3-1.4-2c0-2-0.7-5.7-7-3.5c-6.3,2.1-11.6,9.5-11.6,9.5c-3.7,4.9-3.2,8.7-3.2,8.7c1,8.3,9.9,10.6,16.9,11.1
		c7.4,0.6,17.2-2.5,20.2-8.8C-1540.9-534.2-1546.3-536.6-1548.1-537z M-1563.6-521.4c-7.3,0.3-13.2-3.2-13.2-8.1
		c0-4.8,5.9-8.7,13.2-9s13.2,2.6,13.2,7.4C-1550.4-526.2-1556.3-521.7-1563.6-521.4z"/>
	
		<linearGradient id="Shape_6_" gradientUnits="userSpaceOnUse" x1="-1821.6538" y1="-274.57" x2="-1821.6538" y2="-275.57" gradientTransform="matrix(13 0 0 -12 22117 -3829.8401)">
		<stop  offset="0" style="stop-color:#FF2040;stop-opacity:0.2232"/>
		<stop  offset="1" style="stop-color:#FF1F1F;stop-opacity:0.7246"/>
	</linearGradient>
	<path id="Shape_3_" class="st3" d="M-1564.9-534.9c-6.9,0.9-6,7.6-6,7.6s-0.1,2.1,1.8,3.2c4,2.3,8.1,0.9,10.2-1.9
		C-1556.8-528.9-1558.1-535.8-1564.9-534.9z M-1566.6-525.5c-1.3,0.2-2.3-0.6-2.3-1.7c0-1.1,0.9-2.3,2.2-2.4
		c1.4-0.2,2.4,0.8,2.4,1.8C-1564.3-526.7-1565.4-525.6-1566.6-525.5z M-1562.6-529.1c-0.5,0.3-1,0.3-1.2-0.1
		c-0.3-0.4-0.2-1.1,0.3-1.4c0.5-0.4,1-0.3,1.3,0.1C-1562-530.1-1562.1-529.5-1562.6-529.1z"/>
</g>
</svg>
