<?xml version="1.0" encoding="UTF-8"?>
<svg width="50px" height="50px" viewBox="0 0 50 50" version="1.1" xmlns="http://www.w3.org/2000/svg" xmlns:xlink="http://www.w3.org/1999/xlink">
    <!-- Generator: Sketch 50.2 (55047) - http://www.bohemiancoding.com/sketch -->
    <title>扶뒬못 copy 19</title>
    <desc>Created with Sketch.</desc>
    <defs>
        <linearGradient x1="50%" y1="0%" x2="50%" y2="100%" id="linearGradient-1">
            <stop stop-color="#8756CD" stop-opacity="0.345476676" offset="0%"></stop>
            <stop stop-color="#8756CD" offset="100%"></stop>
        </linearGradient>
    </defs>
    <g id="Page-1" stroke="none" stroke-width="1" fill="none" fill-rule="evenodd">
        <g id="扶뒬못" transform="translate(-1581.000000, -680.000000)" fill="url(#linearGradient-1)">
            <g id="Group-26" transform="translate(1581.000000, 680.000000)">
                <path d="M28.7774,10.6330625 C28.7774,8.63122236 27.0859,7 25.00085,7 C22.91835,7 21.2226,8.62702034 21.2226,10.6330625 C21.2226,10.8381208 21.24045,11.0381367 21.2736,11.2322699 C16.058,12.9811486 12.267,17.4546142 12.267,23.8080614 L12.267,30.8086189 C12.267,30.8086189 11.77825,36.9040624 9.938,36.9670926 C8.8415,36.9670926 8,37.7806028 8,38.7823633 C8,39.7933682 8.84575,40.5984743 9.88955,40.5984743 L40.11215,40.5984743 C41.1602,40.5984743 42,39.7866449 42,38.7832037 C42,37.7730392 41.15425,36.9670926 40.113,36.9670926 C38.22345,36.9670926 37.75765,30.8086189 37.75765,30.8086189 L37.75765,23.8080614 C37.75765,17.4487314 34.22165,12.9727446 28.7281,11.2289082 C28.7610266,11.0322476 28.7775156,10.8332398 28.7774,10.6339029 L28.7774,10.6330625 Z" id="Shape" fill-rule="nonzero"></path>
                <circle id="Oval-12" cx="25" cy="37" r="8"></circle>
            </g>
        </g>
    </g>
</svg>