<?xml version="1.0" encoding="utf-8"?>
<!-- Generator: Adobe Illustrator 21.0.0, SVG Export Plug-In . SVG Version: 6.00 Build 0)  -->
<svg version="1.1" id="图层_1" xmlns="http://www.w3.org/2000/svg" xmlns:xlink="http://www.w3.org/1999/xlink" x="0px" y="0px"
	 viewBox="0 0 36 36" style="enable-background:new 0 0 36 36;" xml:space="preserve">
<style type="text/css">
	.st0{fill:#FFFFFF;}
</style>
<title>74C1627A-B5F6-4C56-91AD-755D2249AE0D</title>
<path class="st0" d="M18,0C8.1,0,0,8.1,0,18s8.1,18,18,18c9.9,0,18-8,18-18S27.9,0,18,0z M23.2,9c1,0,1.7,0.8,1.7,1.7
	s-0.8,1.7-1.7,1.7s-1.7-0.8-1.7-1.7S22.2,9,23.2,9z M12.8,9c1,0,1.7,0.8,1.7,1.7c0,1-0.8,1.7-1.7,1.7l0,0c-1,0-1.7-0.8-1.7-1.7
	C11.1,9.8,11.9,9,12.8,9z M18,26.8c-4.9,0-9-4-9-9c0,0,0-0.1,0-0.1h1.8c0,0,0,0.1,0,0.1c0,3.2,4,7.2,7.2,7.2c3.2,0,7.2-4,7.2-7.2
	c0,0,0-0.1,0-0.1H27c0,0,0,0.1,0,0.1C27,22.8,23,26.8,18,26.8L18,26.8z"/>
</svg>
