<?xml version="1.0" encoding="utf-8"?>
<!-- Generator: Adobe Illustrator 21.0.0, SVG Export Plug-In . SVG Version: 6.00 Build 0)  -->
<svg version="1.1" id="图层_1" xmlns="http://www.w3.org/2000/svg" xmlns:xlink="http://www.w3.org/1999/xlink" x="0px" y="0px"
	 viewBox="0 0 36 36" style="enable-background:new 0 0 36 36;" xml:space="preserve">
<style type="text/css">
	.st0{fill:#FFFFFF;}
</style>
<title>6674AE18-30FF-4AD7-8527-9B5C76038664</title>
<path class="st0" d="M18,0C8.1,0,0,8.1,0,18c0,9.9,8.1,18,18,18c9.9,0,18-8.1,18-18C36,8.1,27.9,0,18,0L18,0z M11.2,9
	c1.2,0,2.3,1,2.3,2.2c0,1.2-1,2.3-2.2,2.3c-1.2,0-2.3-1-2.3-2.2c0,0,0,0,0,0C9,10,10,9,11.2,9L11.2,9z M26.2,27.3
	c-0.7,0.4-1.7,0.1-2.1-0.6c0,0,0,0,0,0c-0.1-0.1-2-3.4-6.1-3.4c-4.2,0-6.1,3.4-6.1,3.4c-0.4,0.7-1.3,1-2.1,0.6
	c-0.7-0.4-1-1.3-0.6-2.1c0.1-0.2,2.8-5,8.8-5c6,0,8.7,4.8,8.8,5C27.2,26,26.9,26.9,26.2,27.3z M24.7,13.5c-1.2,0-2.3-1-2.3-2.2
	c0-1.2,1-2.3,2.2-2.3C26,9,27,10,27,11.2c0,0,0,0,0,0C27,12.5,26,13.5,24.7,13.5L24.7,13.5z"/>
</svg>
