<?xml version="1.0" encoding="UTF-8"?>
<svg width="18px" height="18px" viewBox="0 0 18 18" version="1.1" xmlns="http://www.w3.org/2000/svg" xmlns:xlink="http://www.w3.org/1999/xlink">
    <!-- Generator: Sketch 57 (83077) - https://sketch.com -->
    <title>路径</title>
    <desc>Created with Sketch.</desc>
    <g id="页面-1" stroke="none" stroke-width="1" fill="none" fill-rule="evenodd">
        <g id="商品详情" transform="translate(-560.000000, -858.000000)" fill="#FFFFFF" fill-rule="nonzero">
            <g id="编组-4" transform="translate(560.000000, 856.000000)">
                <g id="编组" transform="translate(0.000000, 2.000000)">
                    <g id="客服">
                        <path d="M16.0799063,7.38789509 C16.0298036,3.29964509 12.7039821,0 8.60345759,0 C4.50293304,0 1.1771317,3.29964509 1.12692857,7.38789509 C0.440618304,7.93661384 0,8.77907813 0,9.72568527 C0,11.3781094 1.33989509,12.7183661 2.9925,12.7183661 C3.71368527,12.7183661 4.37500446,12.4627098 4.89162054,12.0382031 L3.48175446,6.77635714 C3.32206473,6.75036161 3.15942188,6.73306473 2.99252009,6.73306473 C2.88255134,6.73306473 2.77445089,6.739875 2.66741518,6.75166741 C3.02809821,3.79151116 5.54556696,1.49629018 8.60355804,1.49629018 C11.6611272,1.49629018 14.1789777,3.79149107 14.5395603,6.75166741 C14.4329665,6.73995536 14.3245045,6.73306473 14.2145156,6.73306473 C14.0476741,6.73306473 13.8846295,6.75040179 13.7248393,6.77635714 L12.3153951,12.0357522 C12.7141071,12.3631071 13.198942,12.5893929 13.7308661,12.6759576 C13.0249687,13.4343482 12.1272388,14.0121161 11.1116652,14.3246451 L10.9878348,14.4483147 C10.6710268,13.8659263 10.0612768,13.4661094 9.35172321,13.4661094 C8.31859152,13.4661094 7.48137054,14.3033103 7.48137054,15.3367835 C7.48137054,16.3699955 8.31855134,17.2071763 9.35172321,17.2071763 C10.1997121,17.2071763 10.9070156,16.6392522 11.1366964,15.8660558 C13.2009107,15.3600268 14.9301362,14.0011875 15.9234107,12.1800335 C16.6987567,11.6392902 17.207096,10.742404 17.207096,9.725625 C17.207096,8.77925893 16.7660357,7.93651339 16.0800469,7.38781473 L16.0799063,7.38789509 Z" id="路径"></path>
                    </g>
                </g>
            </g>
        </g>
    </g>
</svg>