<?xml version="1.0" encoding="UTF-8"?>
<svg width="22px" height="22px" viewBox="0 0 22 22" version="1.1" xmlns="http://www.w3.org/2000/svg" xmlns:xlink="http://www.w3.org/1999/xlink">
    <!-- Generator: Sketch 59 (86127) - https://sketch.com -->
    <title>勾选</title>
    <desc>Created with Sketch.</desc>
    <g id="页面-1" stroke="none" stroke-width="1" fill="none" fill-rule="evenodd">
        <g id="商品详情备份-13" transform="translate(-80.000000, -237.000000)" fill-rule="nonzero">
            <g id="勾选" transform="translate(80.000000, 237.000000)">
                <rect id="矩形" fill="#000000" opacity="0" x="0" y="0" width="22" height="22"></rect>
                <path d="M11,0 C17.07475,0 22,4.92525 22,11 C22,17.07475 17.07475,22 11,22 C4.92525,22 0,17.07475 0,11 C0,4.92525 4.92525,0 11,0 Z M16.9629167,6.80991667 C16.709714,6.54747075 16.3626247,6.3963598 15.998006,6.38982726 C15.6333873,6.38329472 15.2811078,6.52187572 15.0186667,6.77508333 L9.25741667,12.3346667 L6.9795,10.1988333 L6.87225,10.1080833 C6.28990767,9.66181397 5.45977113,9.75136554 4.98600219,10.3115637 C4.51223326,10.8717618 4.56174347,11.7052453 5.0985,12.2054167 L8.118,15.0360833 L8.22616667,15.12775 C8.5305,15.3596667 8.90816667,15.44675 9.2675,15.39175 C9.67725,15.455 10.1108333,15.3321667 10.4316667,15.0223333 L16.9280833,8.75416667 L17.0243333,8.6515 C17.4790287,8.11267751 17.4525012,7.31724751 16.9629167,6.80991667 Z" id="形状" fill="#702A2A"></path>
            </g>
        </g>
    </g>
</svg>