<?xml version="1.0" encoding="UTF-8"?>
<svg width="16px" height="14px" viewBox="0 0 16 14" version="1.1" xmlns="http://www.w3.org/2000/svg" xmlns:xlink="http://www.w3.org/1999/xlink">
    <!-- Generator: Sketch 50.2 (55047) - http://www.bohemiancoding.com/sketch -->
    <title>微信</title>
    <desc>Created with Sketch.</desc>
    <defs></defs>
    <g id="Page-1" stroke="none" stroke-width="1" fill="none" fill-rule="evenodd" opacity="0.4">
        <g id="03注册_手机注册" transform="translate(-1133.000000, -650.000000)" fill="#000000" fill-rule="nonzero">
            <g id="微信" transform="translate(1133.000000, 649.000000)">
                <rect id="Rectangle-path" opacity="0" x="0" y="0" width="16" height="16"></rect>
                <path d="M10.83,5.426 C11.014,5.426 11.195,5.44 11.377,5.46 C10.887,3.178 8.448,1.483 5.663,1.483 C2.55,1.483 0,3.604 0,6.299 C0,7.854 0.848,9.131 2.266,10.123 L1.7,11.826 L3.68,10.834 C4.388,10.973 4.956,11.117 5.663,11.117 C5.841,11.117 6.017,11.109 6.191,11.096 C6.081,10.717 6.016,10.321 6.016,9.908 C6.017,7.434 8.141,5.426 10.83,5.426 Z M7.786,3.891 C8.214,3.891 8.495,4.172 8.495,4.598 C8.495,5.022 8.214,5.306 7.786,5.306 C7.363,5.306 6.937,5.022 6.937,4.598 C6.937,4.171 7.362,3.891 7.786,3.891 Z M3.823,5.306 C3.398,5.306 2.97,5.022 2.97,4.598 C2.97,4.172 3.398,3.891 3.823,3.891 C4.248,3.891 4.53,4.171 4.53,4.598 C4.53,5.022 4.248,5.306 3.823,5.306 Z M16,9.84 C16,7.576 13.734,5.731 11.189,5.731 C8.494,5.731 6.373,7.577 6.373,9.84 C6.373,12.11 8.495,13.949 11.189,13.949 C11.753,13.949 12.322,13.808 12.888,13.666 L14.441,14.518 L14.015,13.102 C15.152,12.248 16,11.117 16,9.84 Z M9.627,9.131 C9.346,9.131 9.061,8.851 9.061,8.565 C9.061,8.283 9.346,7.999 9.627,7.999 C10.057,7.999 10.336,8.283 10.336,8.565 C10.336,8.851 10.057,9.131 9.627,9.131 Z M12.742,9.131 C12.463,9.131 12.179,8.851 12.179,8.565 C12.179,8.283 12.462,7.999 12.742,7.999 C13.168,7.999 13.451,8.283 13.451,8.565 C13.451,8.851 13.168,9.131 12.742,9.131 Z" id="Shape"></path>
            </g>
        </g>
    </g>
</svg>