<?xml version="1.0" standalone="no"?><!DOCTYPE svg PUBLIC "-//W3C//DTD SVG 1.1//EN" "http://www.w3.org/Graphics/SVG/1.1/DTD/svg11.dtd"><svg t="1511252182694" class="icon" style="" viewBox="0 0 1024 1024" version="1.1" xmlns="http://www.w3.org/2000/svg" p-id="3271" xmlns:xlink="http://www.w3.org/1999/xlink" width="200" height="200"><defs><style type="text/css"></style></defs><path d="M533.018 647.763c12.499 12.499 12.499 32.755 0 45.253v0c-12.499 12.499-32.755 12.499-45.253 0l-316.781-316.781c-12.499-12.499-12.499-32.755 0-45.253v0c12.499-12.499 32.755-12.499 45.253 0l316.781 316.781z" p-id="3272" fill="#ffffff"></path><path d="M807.763 330.982c12.499-12.499 32.755-12.499 45.253 0v0c12.499 12.499 12.499 32.755 0 45.253l-316.781 316.781c-12.499 12.499-32.755 12.499-45.253 0v0c-12.499-12.499-12.499-32.755 0-45.253l316.781-316.781z" p-id="3273" fill="#ffffff"></path></svg>