<?xml version="1.0" standalone="no"?><!DOCTYPE svg PUBLIC "-//W3C//DTD SVG 1.1//EN" "http://www.w3.org/Graphics/SVG/1.1/DTD/svg11.dtd"><svg t="1511252004355" class="icon" style="" viewBox="0 0 1024 1024" version="1.1" xmlns="http://www.w3.org/2000/svg" p-id="1998" xmlns:xlink="http://www.w3.org/1999/xlink" width="200" height="200"><defs><style type="text/css"></style></defs><path d="M504.61696 435.38432c0.0512-0.0768 0.11776-0.13824 0.16384-0.21504a28.34944 28.34944 0 0 1-0.39936-2.17088c0.08192 0.7936 0.16896 1.5872 0.23552 2.38592z m169.41056 184.9856c0.01024 0 0.01024-0.01024 0.01024-0.01536-0.0256-0.01024-0.1024-0.01024-0.11776-0.03584 0.0256 0.0256 0.08704 0.0256 0.10752 0.0512z m4.34176 0.5376c-1.0496-0.16896-3.40992 0.13824-4.34176-0.5376-0.57344 1.98144 0.29184 2.72896 4.34176 0.5376z m-165.0176-551.7056c-243.61472 0-441.09824 197.4784-441.09824 441.09312 0 243.61472 197.48352 441.10336 441.09824 441.10336 243.6096 0 441.09824-197.48864 441.09824-441.10336s-197.48864-441.09312-441.09824-441.09312z m281.74336 172.30848c-15.19616 0.4608-25.77408 0.49152-37.98528 8.91904-4.92032 3.39968-8.25856 7.90528-14.50496 9.65632-5.60128 1.57696-11.64288 0.19456-17.19296 2.07872-20.03968 6.79936-16.8704 49.72544-43.27424 43.24352-12.40576-3.04128-21.1456-17.70496-27.392-27.27424-5.49888-8.4224-15.5136-15.3856-8.75008-25.92256-3.08736 0.78848-6.3744-0.11264-9.41568 0.46592 4.22912-9.28768 18.42176-8.4736 20.78208-13.22496 5.87776-11.89888-16.18432-13.13792-22.43072-14.79168 7.53152-8.02304 11.3408 2.69824 18.76992 0.88064 7.14752-1.76128-3.7632-11.16672-8.04864-12.22144-1.54112-0.384-26.69056 6.94784-12.12928-6.07744l-53.9136-34.37568c-3.02592 12.7488 23.92064 19.98848 32.72704 24.48384-1.37216 5.26336-9.55904 12.928-15.83104 10.68032-5.89824-2.11968-3.50208-11.904-12.42112-10.91584-6.36416 14.80192 13.46048 10.47552 15.29856 19.54304 2.09408 10.33216-7.49056 5.95456-11.18208 5.77536-0.88064-0.04608-7.75168-7.15776-8.12032-1.77664-0.45056 6.4 10.96192 3.90144 11.76064 10.35776-13.28128 0.5376-20.0704-4.25984-30.87872-11.4432-12.63104-8.38144-19.10272-7.62368-34.57024-7.62368 4.62336-1.90464 10.99264-3.30752 14.9504-6.36928 2.16064-1.66912 10.63936-9.91232 11.20256-11.7504 2.39616-7.94112-0.128-7.33696-7.72608-12.53888-6.75328-4.61824-14.94016-12.90752-23.12192-14.5408-29.63968-5.91872-9.14432 26.76224-31.6416 31.26272 0.384 0.02048 0.79872 0.03584 1.13152 0.03584h-1.29024c0.05632-0.00512 0.10752-0.0256 0.15872-0.03584-5.20704-0.18944-14.96064-1.45408-18.31424 1.29536-2.36544 1.93024-2.56512 9.69728-5.21216 12.50816-4.7104 5.0176-11.72992 6.02112-17.35168 9.64096-5.48864 3.53792-17.58208 12.61056-20.80256 18.76992-11.87328 22.68672 26.752 29.72672 41.3952 36.35712 6.61504 2.9952 25.95328 7.10144 29.55264 12.1088 4.83328 6.72256-4.16256 13.02528 5.92384 17.75104 3.22048 1.50528 9.86112 1.81248 12.64128-1.3056 4.5056-5.07904-1.83296-6.22592-2.91328-12.09344-2.08896-11.29984 1.3568-6.8096 7.03488-11.008 11.58144-8.5504 8.97536-9.07264 4.80768-22.69696-1.93536-6.34368-9.23648-24.04352-2.816-28.7232 8.37632-6.10816 26.22464 3.30752 32.64512 4.096 7.47008 0.91648 11.70944 11.26912 15.77984 15.49824 2.70848 2.81088 7.54688 8.77568 12.26752 8.13056 7.5008-1.024 4.36224-7.5776 8.70912-10.60352 11.66336-8.09472 14.74048 2.89792 19.38944 13.89568 4.37248 10.32704 8.50944 14.1568 16.30208 20.78208 3.61472 3.08224 19.46112 14.08512 17.96608 20.86912-1.01376 4.56704-19.11296 11.49952-23.95648 13.0304-17.69472 5.60128-50.88768-9.17504-54.4512 18.88256 6.8608-2.56 26.38848-18.5088 32.24576-10.95168 2.67264 3.4304-2.11456 8.42752-0.98816 11.83744 3.33824 10.2144 11.2128 6.656 19.4816 5.00736-0.5632 0.34816-1.14688 0.65536-1.75104 0.93184 11.28448-5.80096 10.11712-4.59264 15.29344-13.99808 1.6896-3.072 4.1984-10.51136 6.58432-12.71296 8.20736-7.54688 9.46688-2.35008 14.55104 3.47136 1.3312 1.536 13.89568 19.62496 9.42592 18.72384-14.6176-2.92864-28.65152-2.53952-40.77056 5.4528-6.9888 4.61312-13.58848 10.83904-21.93408 13.9008-1.9968 0.73216-16.80384 2.13504-15.0528-0.38912 2.56-3.68128 11.35104-6.1184 14.8224-10.09152-9.62048-3.95776-17.6384 4.7872-25.1904 9.89696-8.01792 3.79392-9.88672 10.86464-16.71168 17.05984-2.97984 2.70336-8.62208 3.16416-11.5456 6.72256-2.83648 3.45088-3.19488 8.87808-5.87776 12.15488-1.88416 2.29376-6.72256 0.90624-8.69376 4.36736-2.56512 4.51584 2.35008 8.70912 1.26976 11.96544-1.9712 5.9136-13.21984 10.92608-17.54112 15.18592 0.57344-0.55296 1.152-1.1264 1.7152-1.70496-4.33664 4.54656-9.82016 7.88992-13.20448 13.15328 1.55136 7.42912 6.4512 25.14944 5.08416 29.22496-4.5056 13.40928-13.2608-7.296-16.81408-12.6464-12.20096-18.3808-36.58752-6.08256-53.24288-4.5568-21.30432 1.9456-42.16832 29.5936-29.02528 52.03968 6.30784 10.76224 16.91648 14.92992 29.09184 12.43648 10.83392-2.21696 14.08512-17.37216 24.28928-17.64864 18.74432-0.50176 0.41472 18.37056-1.20832 25.2928-1.50016 6.42048 2.33984 7.00928 8.93952 8.6016 4.87936 1.17248 11.78112-2.08384 16.00512 0.70144 2.6624 1.76128 2.5344 11.38176 6.1952 8.3456-7.20896 5.97504-5.52448 20.1472 1.8688 25.27232 8.19712 5.6832 17.84832 0.41984 26.42432 2.60608 16.19968 4.13184 8.46848-1.23904 22.70208-9.8304 9.6-5.78048 11.17696 1.09568 17.7408 1.12128 4.46464 0.02048 7.30112-6.42048 14.7712-4.55168 6.08768 1.54112 8.48896 6.24128 15.75936 7.3216 2.97984 0.44032 6.06208-1.12128 8.89856-0.80896 13.44 1.48992 23.73632 10.08128 34.3296 17.84832 8.7296 6.38976 14.51008 5.09952 24.70912 8.00768 7.4496 2.1248 21.1968 12.90752 20.49024 22.36928-0.12288 1.69472-6.64064 10.20928-7.75168 14.03904 1.90976 1.32096 15.16544-1.6384 19.0464-1.92-1.27488 1.4848-10.30656 7.82848-10.30656 4.45952 0 1.73056 6.38976 5.26848 7.94624 6.3744 4.7104-15.28832 12.44672-5.4528 21.75488-1.664 7.91552 3.22048 17.65888 3.39968 26.10176 5.41184 7.168 1.70496 22.96832 6.53824 28.27776 12.40064 6.38976 7.05024 1.9712 18.49856-2.75968 25.50784-6.17984 9.20064-15.50848 12.72832-19.36896 23.552-3.05152 8.57088-0.75776 17.2288-2.50368 26.74176-2.3552 12.86144-4.24448 8.35072-12.52864 16.19968-6.96832 6.60992-0.11264 5.46304-9.60512 9.68192-9.53856 4.23424-17.93024 2.9696-24.52992 13.42976 0.26112-0.65024 0.48128-1.31072 0.66048-2.00192-2.78016 3.89632-4.17792 11.8784-5.49376 14.49984-3.328 6.6816-7.92064 10.89024-13.184 16.4608-2.01728 2.12992-20.56192 27.46368-21.632 25.43104-1.3824-2.65216-16 2.6624-16.69632-1.12128 0.58368 3.1744-0.13312 2.10944 3.49696 3.9424-3.36384 20.81792-12.17024 23.92576-32.6144 24.13568 1.75616 10.00448-7.40352 8.00768-11.66848 13.3888-2.48832 3.14368-3.68128 11.97568-5.40672 16.04608-1.08032 2.54976-9.0624 12.78976-9.0624 14.8224-0.01024 1.8688 2.68288 4.608 5.21216 7.22944a389.632 389.632 0 0 1-44.04224 6.05696c2.79552-3.52256 3.46624-6.61504-5.43744-7.03488 2.38592-6.4768 7.97696-10.16832 10.34752-16.4352 1.1264-2.95424 0.19456-4.12672 1.14688-7.05536 3.25632-10.12224 1.8432-6.2976 0.00512-14.16192-4.3008-18.41664 1.53088-23.4496 6.54848-40.30976 5.15584-17.3312 4.67968-39.78752 7.98208-58.45504 1.56672-8.9344 4.13184-27.51488 1.02912-35.95776-3.49696-9.50272-18.87232-16.99328-25.91232-23.38816-9.96864-9.08288-15.26784-18.8928-22.67136-30.12608-3.75808-5.69856-8.04352-11.29472-10.97216-17.48992-6.272-13.2608 0.00512-5.37088 1.05984-13.18912 1.01376-7.56224-0.90112-14.32064 2.10432-22.25152 3.31776-8.77056 11.60704-14.23872 14.33088-23.08608 2.45248-7.87456 0.57856-17.77152-7.50592-20.39296-4.5056-1.46944-9.48224 1.92-14.00832 1.17248-6.31808-1.01888-13.4656-5.73952-18.42176-9.50272-6.92224-5.2736-9.51296-13.83424-16.88064-18.83648-6.1696-4.16768-10.55744-1.67424-17.15712-3.61984-6.88128-2.02752-11.13088-10.5216-16.68096-13.17888-8.33024-3.98336-13.02528 1.7408-21.82144 0.57856-7.4752-0.97792-18.88256-9.27232-25.87136-12.39552-14.208-6.35904-22.8608-13.37856-28.544-27.8016-4.864-12.36992-11.96032-18.13504-20.31104-28.43648-8.46336-10.43456-11.1104-19.328-24.15616-22.10816-1.53088-0.3328 3.19488 10.9568 3.68128 11.85792 4.6592 8.63232 11.65824 16.51712 17.29024 24.5504 8.28416 11.83744 4.75648 14.05952-3.67104 2.6112-9.63584-13.09696-20.81792-26.11712-29.17888-39.9872-3.15904-5.23776-2.55488-8.6272-7.76704-13.60384-5.03296-4.80768-11.62752-7.14752-16.69632-11.7248-18.24256-16.4096-21.56032-38.31296-19.4816-61.70624 0.67584-7.62368 3.4304-13.7216 2.21696-21.05344-1.00352-6.08256-4.59776-11.11552-9.08288-15.60064-1.44896-2.304-5.07904-7.98208-5.28896-8.34048-4.14208-6.88128-7.36256-13.64992-13.94688-19.29216-3.77344-3.25632-13.5424-10.8544-22.73792-17.22368 41.32352-51.53792 95.39072-92.38016 157.41952-117.73952 0.49664 3.11808 1.83296 6.23104 3.84 9.21088 5.09952 7.56736 9.9584 6.9632 19.9168 9.0624-1.06496 11.55072-14.57152 11.64288-23.71584 10.3936-10.91584-1.49504-22.39488-5.12-31.8464 4.43904 5.2224 3.13856 19.55328 15.36512 17.64864 2.59072 10.45504-0.52736 20.5568-0.83968 30.78656 0.41472 4.10112 0.50176 17.82784 5.10976 21.55008 3.00544 1.5616-0.88064 3.2256-8.58624 4.87936-10.9568-2.91328 0.01536-6.0416-1.45408-8.94464-1.1776 6.77376-8.66816 13.52192-1.8688 22.13888 2.11968-9.49248 5.76512-3.86048 19.584 5.41696 8.35584 7.62368-9.23648-1.86368-15.92832-11.54048-21.30944 9.75872-12.20608 15.77472-13.30688 24.95488 0.46592 1.5104-8.49408 8.36608-5.0944 15.53408-4.46464v-2.1248c-3.15392 0.0768-6.52288-1.7408-9.64608-1.41312 7.30112-11.648 2.64192-14.30528 13.07648-18.10944 8.30976-3.02592 32.01536-0.20992 34.93888-8.01792-16.59392 3.2256-36.63872 3.99872-51.6096 11.54048-6.45632 3.2512-14.14656 13.52192-20.58752 6.84544-6.60992-6.84544 4.72576-17.85856 10.5216-21.21728h-1.38752a390.38976 390.38976 0 0 1 81.34144-8.58112c18.0224 0 35.7376 1.3312 53.12512 3.712-6.02112 3.15904-1.57184 5.29408-5.94944 8.5248-8.3712 6.15424-23.22944 11.2896-33.18784 15.1808 12.66176-0.03072 43.31008 11.87328 49.20832-5.88288l-12.25216-1.88416a107.37664 107.37664 0 0 1 25.06752-12.15488c80.61952 15.9744 152.33024 56.86272 206.88384 114.24256-0.39424-0.01536-0.78336-0.0256-1.15712-0.01536z m71.38816 154.86464c0.72704-1.55136 2.42688-2.05824 3.1232-3.33824 1.46944-2.688 1.14176-4.51072 2.95936-6.81984 1.94048-2.49344 4.56192-3.10272 6.72768-5.05344 0.8704-0.78336 1.36192-1.5104 1.76128-2.2528a387.3536 387.3536 0 0 1 15.46752 56.20736c-0.11264 0.13824-0.1792 0.34816-0.32256 0.4608-0.95232 0.74752-7.13216 1.66912-8.40192 1.71008-4.47488 0.17408-7.80288-2.79552-11.01312-5.59104-3.27168-2.8416-7.12192-6.64064-9.4464-10.3168-2.4832-3.93216-0.95232-7.96672-0.77312-12.45184 0.1536-3.77344-1.67936-9.14944-0.08192-12.55424z m5.04832 202.24512c-7.57248-6.5792-16.512-15.40096-21.89824-23.93088-5.74976-9.088-2.21184-18.44736-1.792-28.86144 0.34816-8.75008-3.92704-21.21216-0.19968-29.10208 1.70496-3.59936 5.62176-4.7872 7.22944-7.73632 3.4304-6.2464 2.66752-10.46528 6.87104-15.83616 4.51072-5.76512 10.57792-7.18336 15.60064-11.70944 5.26336-4.74112 5.12-8.47872 8.448-14.55104 2.44224-4.44416 8.17152-11.84768 13.5936-15.72352 2.944 19.28704 4.47488 39.03488 4.47488 59.12064 0 34.7648-4.62336 68.4544-13.18912 100.55168-7.30112-1.87904-13.312-7.1424-19.13856-12.22144z" fill="#ffffff" p-id="1999"></path></svg>