<svg xmlns="http://www.w3.org/2000/svg" width="34" height="34" viewBox="0 0 34 34">
    <g fill="none" fill-rule="evenodd" transform="translate(-1325 -1546)">
        <path fill="#1A1A1A" d="M0 1142h2507v681H0z"/>
        <rect width="34" height="34" x="1325" y="1546" fill="#FFF" rx="4"/>
        <path fill="#1A1A1A" fill-rule="nonzero" d="M1351.967 1560.192a.523.523 0 0 1-.51.535.523.523 0 0 1-.509-.535c0-.027.004-.052.008-.078h-.008c0-2.786-2.153-5.044-4.808-5.044-.05 0-.1.006-.15.008v-.016a.526.526 0 0 1-.434-.527c0-.269.188-.489.434-.527h.004c.023-.004.047-.008.071-.008l.024.002.047-.002c3.22 0 5.83 2.737 5.83 6.114h-.007c.003.026.008.051.008.078zm-2.989.535a.523.523 0 0 1-.509-.535c0-.07.014-.138.038-.2-.06-1.28-1.04-2.304-2.262-2.361a.481.481 0 0 1-.18.035.523.523 0 0 1-.51-.534c0-.27.19-.49.435-.528h.004c.023-.004.047-.008.071-.008l.024.003c.015-.001.031-.003.047-.003 1.85 0 3.351 1.575 3.351 3.518h-.007c.003.026.007.052.007.078a.523.523 0 0 1-.509.535zm-2.16 1.384a3.538 3.538 0 0 1 1.36.104c1.395.368 1.952 1.31 1.891 2.744-.062 1.462-1.602 4.078-3.904 5.478-1.537 1.032-3.541 1.746-5.623 1.746-4.403 0-8.542-2.681-8.542-5.989 0-.043.004-.087.006-.131v-.005a3.07 3.07 0 0 1 .014-.19c.27-3.274 5.384-8.475 6.914-8.631 1.43-.146 2.953.33 2.832 2.113-.01.134-.04.278-.077.425 1.144-.686 2.49-1.166 3.702-.932 1.664.32 2.07 1.977 1.427 3.268zm-6.657.563c-3.3 0-5.976 1.854-5.976 4.142 0 2.287 2.675 4.141 5.976 4.141 3.3 0 5.976-1.854 5.976-4.141 0-2.288-2.675-4.142-5.976-4.142zm-.655 7.211c-1.73 0-3.132-1.305-3.132-2.914 0-1.61 1.402-2.915 3.132-2.915 1.73 0 3.133 1.305 3.133 2.915s-1.403 2.914-3.133 2.914zm-.365-3.218c-.565 0-1.022.48-1.022 1.07 0 .591.457 1.07 1.022 1.07s1.022-.479 1.022-1.07c0-.59-.457-1.07-1.022-1.07z"/>
    </g>
</svg>
