<?xml version="1.0" encoding="UTF-8"?>
<svg width="32px" height="32px" viewBox="0 0 32 32" version="1.1" xmlns="http://www.w3.org/2000/svg" xmlns:xlink="http://www.w3.org/1999/xlink">
    <!-- Generator: Sketch 52.2 (67145) - http://www.bohemiancoding.com/sketch -->
    <title>分组 18</title>
    <desc>Created with Sketch.</desc>
    <g id="Page-1" stroke="none" stroke-width="1" fill="none" fill-rule="evenodd">
        <g id="分组-18">
            <rect id="矩形-copy-101" fill="#FFFFFF" x="0" y="0" width="32" height="32" rx="4"></rect>
            <g id="weixin-2" transform="translate(7.000000, 9.000000)" fill="#202020" fill-rule="nonzero">
                <path d="M12.2084641,4.91341464 C12.4155688,4.91341464 12.6198168,4.9290789 12.8220757,4.95180959 C12.2710166,2.32622928 9.52666164,0.375 6.39442172,0.375 C2.89232617,0.375 0.0234375,2.81720338 0.0234375,5.91807162 C0.0234375,7.70769208 0.978104314,9.17755149 2.57281307,10.3175862 L1.93571252,12.2787041 L4.16263358,11.1358691 C4.95998796,11.2969966 5.59901416,11.463156 6.39442172,11.463156 C6.59424701,11.463156 6.79210432,11.4530923 6.98900939,11.4369468 C6.86441219,11.0015415 6.79210434,10.5449369 6.79210434,10.0716179 C6.7921255,7.22430947 9.18222064,4.91341464 12.2084641,4.91341464 Z M8.78354346,3.14604358 C9.2633104,3.14604358 9.58087667,3.469305 9.58087667,3.95977591 C9.58087667,4.44821221 9.2633104,4.77552098 8.78354346,4.77552098 C8.30570219,4.77552098 7.82690867,4.44821221 7.82690867,3.95977591 C7.82690865,3.469305 8.30572335,3.14604358 8.78354346,3.14604358 Z M4.32483427,4.77549908 C3.846993,4.77549908 3.36525805,4.44819032 3.36525805,3.95975402 C3.36525805,3.46928311 3.846993,3.14602168 4.32483427,3.14602168 C4.80214652,3.14602168 5.12022065,3.46928311 5.12022065,3.95975402 C5.12022065,4.44821221 4.80214652,4.77549908 4.32483427,4.77549908 Z M18.0234375,9.99331843 C18.0234375,7.38744972 15.4745486,5.26345409 12.6120083,5.26345409 C9.58087667,5.26345409 7.19372295,7.38744974 7.19372295,9.99331843 C7.19372295,12.6029719 9.58087669,14.7224171 12.6120083,14.7224171 C13.2461675,14.7224171 13.8862094,14.5597362 14.5232676,14.3961147 L16.2709508,15.375 L15.7916282,13.746529 C17.0707598,12.7646026 18.0234375,11.463156 18.0234375,9.99331843 Z M10.8550777,9.17755149 C10.5380193,9.17755149 10.2179984,8.85479325 10.2179984,8.52544987 C10.2179984,8.20067888 10.5380194,7.87387329 10.8550777,7.87387329 C11.3368127,7.87387329 11.6524321,8.20067888 11.6524321,8.52544987 C11.6524321,8.85479325 11.3368127,9.17755149 10.8550777,9.17755149 Z M14.3591201,9.17755149 C14.0445164,9.17755149 13.7264423,8.85479325 13.7264423,8.52544987 C13.7264423,8.20067888 14.0445164,7.87387329 14.3591201,7.87387329 C14.8369614,7.87387329 15.1564745,8.20067888 15.1564745,8.52544987 C15.1564745,8.85479325 14.8369614,9.17755149 14.3591201,9.17755149 Z" id="形状"></path>
            </g>
        </g>
    </g>
</svg>