<?xml version="1.0" encoding="UTF-8"?>
<svg width="32px" height="32px" viewBox="0 0 32 32" version="1.1" xmlns="http://www.w3.org/2000/svg" xmlns:xlink="http://www.w3.org/1999/xlink">
    <!-- Generator: Sketch 52.2 (67145) - http://www.bohemiancoding.com/sketch -->
    <title>分组 17</title>
    <desc>Created with Sketch.</desc>
    <g id="Page-1" stroke="none" stroke-width="1" fill="none" fill-rule="evenodd">
        <g id="分组-17">
            <rect id="矩形" fill="#FFFFFF" x="0" y="0" width="32" height="32" rx="4"></rect>
            <g id="zhihu" transform="translate(9.000000, 9.000000)" fill="#202020" fill-rule="nonzero">
                <path d="M7.52280607,7.78402084 C7.52280607,7.78402084 7.52280607,6.63846092 6.97093803,6.57968011 C6.41906999,6.52089929 4.70540538,6.57968011 4.70540538,6.57968011 L4.70540538,3.0548532 L7.26136733,3.0548532 C7.26136733,3.0548532 7.23232916,1.87989485 6.73853746,1.87989485 L2.58504772,1.87989485 L3.28212248,0 C3.28212248,0 2.23647861,0.0587808142 1.85890306,0.734334928 C1.4813275,1.40988904 0.29046104,4.78791636 0.29046104,4.78791636 C0.29046104,4.78791636 0.697106497,4.96416252 1.36512722,4.46482248 C2.03317968,3.96549847 2.26551678,3.08423558 2.26551678,3.08423558 L3.48542141,3.02545477 L3.51445958,6.60904645 C3.51445958,6.60904645 1.39418126,6.57968011 0.958497632,6.60904645 C0.522814005,6.63841278 0.290445173,7.81338718 0.290445173,7.81338718 L3.51450718,7.81338718 C3.51450718,7.81338718 3.22401441,9.81077947 2.41078697,11.2501151 C1.56844201,12.6894186 0,13.8349625 0,13.8349625 C0,13.8349625 1.13275839,14.3049362 2.23652621,13.6587163 C3.34024643,12.9831141 4.15353734,10.0751246 4.15353734,10.0751246 L6.73860093,13.3356224 C6.73860093,13.3356224 6.9709539,11.7788375 6.70956276,11.3382301 C6.41906999,10.8976228 4.90872018,9.13522535 4.90872018,9.13522535 L4.24066772,9.72266441 L4.70538952,7.78398875 L7.52275847,7.78398875 L7.52280607,7.78402084 Z M8.19085853,1.79181189 L8.16182036,12.395675 L9.20746424,12.395675 L9.58503979,13.7174811 L11.4149364,12.395675 L14,12.395675 L14,1.79181189 L8.190922,1.79181189 L8.19085853,1.79181189 Z M12.8380765,11.2207166 L11.6181719,11.2207166 L10.0787839,12.4250574 L9.73024651,11.2207166 L9.41076316,11.2207166 L9.41076316,2.99610448 L12.8380765,2.99610448 L12.8380765,11.2207166 Z" id="形状"></path>
            </g>
        </g>
    </g>
</svg>