<?xml version="1.0" encoding="utf-8"?>
<!-- Generator: Adobe Illustrator 21.0.0, SVG Export Plug-In . SVG Version: 6.00 Build 0)  -->
<svg version="1.1" id="图层_1" xmlns="http://www.w3.org/2000/svg" xmlns:xlink="http://www.w3.org/1999/xlink" x="0px" y="0px"
	 viewBox="0 0 50 50" style="enable-background:new 0 0 50 50;" xml:space="preserve">
<style type="text/css">
	.st0{opacity:0.5;fill:#FDB129;enable-background:new    ;}
	.st1{fill:url(#Rectangle-2_1_);}
	.st2{fill:#FFFFFF;}
</style>
<title>首页</title>
<desc>Created with Sketch.</desc>
<path id="Rectangle-2-Copy" class="st0" d="M14,8h28c2.2,0,4,1.8,4,4v20c0,2.2-1.8,4-4,4H14c-2.2,0-4-1.8-4-4V12C10,9.8,11.8,8,14,8
	z"/>
<linearGradient id="Rectangle-2_1_" gradientUnits="userSpaceOnUse" x1="-250.3333" y1="299.7157" x2="-250.3333" y2="298.7157" gradientTransform="matrix(36 0 0 -28 9035 8407.04)">
	<stop  offset="0" style="stop-color:#FDB370;stop-opacity:0.4954"/>
	<stop  offset="1" style="stop-color:#FB7C3D"/>
</linearGradient>
<path id="Rectangle-2" class="st1" d="M9,15h28c2.2,0,4,1.8,4,4v20c0,2.2-1.8,4-4,4H9c-2.2,0-4-1.8-4-4V19C5,16.8,6.8,15,9,15z"/>
<path id="R" class="st2" d="M16,20h7.5c1.7,0,3.1,0.4,4.1,1.1c1,0.8,1.6,2,1.6,3.5c0,0.8-0.2,1.6-0.7,2.2c-0.5,0.7-1.2,1.2-2.1,1.4
	c1.5,0.4,2.3,1.3,2.5,2.8l0.3,2.6c0.1,1,0.4,1.8,1,2.4h-3c-0.4-0.5-0.6-1.2-0.7-2.1l-0.2-2c-0.1-0.9-0.4-1.5-0.8-1.9
	c-0.5-0.4-1.2-0.6-2.2-0.6h-4.3V36H16V20z M18.8,22v5h3.8c1.1,0,2-0.2,2.6-0.7c0.5-0.4,0.8-1.1,0.8-1.9c0-0.9-0.3-1.5-0.8-1.9
	c-0.5-0.4-1.4-0.6-2.6-0.6H18.8z"/>
</svg>
