<?xml version="1.0" encoding="UTF-8"?>
<svg width="50px" height="50px" viewBox="0 0 50 50" version="1.1" xmlns="http://www.w3.org/2000/svg" xmlns:xlink="http://www.w3.org/1999/xlink">
    <!-- Generator: Sketch 50.2 (55047) - http://www.bohemiancoding.com/sketch -->
    <title>扶뒬못 copy 10</title>
    <desc>Created with Sketch.</desc>
    <defs>
        <rect id="path-1" x="0" y="0" width="2512" height="579"></rect>
        <rect id="path-3" x="631" y="251" width="1200" height="585" rx="10"></rect>
        <filter x="-3.4%" y="-4.3%" width="106.8%" height="114.0%" filterUnits="objectBoundingBox" id="filter-4">
            <feOffset dx="0" dy="16" in="SourceAlpha" result="shadowOffsetOuter1"></feOffset>
            <feGaussianBlur stdDeviation="11" in="shadowOffsetOuter1" result="shadowBlurOuter1"></feGaussianBlur>
            <feColorMatrix values="0 0 0 0 0   0 0 0 0 0   0 0 0 0 0  0 0 0 0.109035326 0" type="matrix" in="shadowBlurOuter1"></feColorMatrix>
        </filter>
        <linearGradient x1="50%" y1="-2.48949813e-15%" x2="50%" y2="100%" id="linearGradient-5">
            <stop stop-color="#FF2040" stop-opacity="0.223222373" offset="0%"></stop>
            <stop stop-color="#FF1F1F" stop-opacity="0.724609375" offset="100%"></stop>
        </linearGradient>
    </defs>
    <g id="Page-1" stroke="none" stroke-width="1" fill="none" fill-rule="evenodd">
        <g id="扶뒬못" transform="translate(-725.000000, -680.000000)">
            <g id="Bitmap" transform="translate(-25.000000, 139.000000)">
                <mask id="mask-2" fill="white">
                    <use xlink:href="#path-1"></use>
                </mask>
                <use id="Mask" fill="#7D7D7D" xlink:href="#path-1"></use>
            </g>
            <g id="Rectangle-2-Copy-3">
                <use fill="black" fill-opacity="1" filter="url(#filter-4)" xlink:href="#path-3"></use>
                <use fill="#FFFFFF" fill-rule="evenodd" xlink:href="#path-3"></use>
            </g>
            <g id="Group-17" transform="translate(730.000000, 684.000000)" fill="url(#linearGradient-5)" fill-rule="nonzero">
                <path d="M33.3375,3.28695652 C28.2625,1.18695655 23.45,0 17.5,0 C11.55,0 6.73750001,1.18695655 1.66250003,3.28695652 C0.700000013,3.65217394 0,4.65652174 0,5.84347829 L0,23.0086956 C0,32.0478261 12.25,39.6260869 16.3625,41.726087 C16.7125,41.9086957 17.15,42 17.5,42 C17.85,42 18.2875,41.9086957 18.6375,41.726087 C22.75,39.6260869 35,32.0478261 35,23.0086956 L35,5.84347829 C35,4.65652178 34.3,3.65217394 33.3375,3.28695652 Z" id="Shape"></path>
                <path d="M40.3375,3.28695652 C35.2625,1.18695655 30.45,0 24.5,0 C18.55,0 13.7375,1.18695655 8.66250003,3.28695652 C7.70000001,3.65217394 7,4.65652174 7,5.84347829 L7,23.0086956 C7,32.0478261 19.25,39.6260869 23.3625,41.726087 C23.7125,41.9086957 24.15,42 24.5,42 C24.85,42 25.2875,41.9086957 25.6375,41.726087 C29.75,39.6260869 42,32.0478261 42,23.0086956 L42,5.84347829 C42,4.65652178 41.3,3.65217394 40.3375,3.28695652 Z" id="Shape-Copy"></path>
            </g>
            <path d="M751.822086,695 C753.754601,695 755.365031,695.504043 756.607362,696.512129 C757.803681,697.474394 758.516871,698.803235 758.769939,700.45283 L756.147239,700.45283 C755.871166,699.376011 755.365031,698.597035 754.605828,698.092992 C753.869632,697.588949 752.92638,697.359838 751.776074,697.359838 C750.050613,697.359838 748.76227,697.932615 747.888037,699.123989 C747.082822,700.177898 746.691718,701.644205 746.691718,703.522911 C746.691718,705.447439 747.082822,706.936658 747.865031,707.967655 C748.716258,709.067385 750.050613,709.640162 751.845092,709.640162 C753.018405,709.640162 753.984663,709.342318 754.720859,708.792453 C755.503067,708.173854 756.055215,707.234501 756.377301,705.997305 L759,705.997305 C758.631902,707.921833 757.780675,709.411051 756.423313,710.487871 C755.157975,711.495957 753.639571,712 751.868098,712 C749.130368,712 747.082822,711.12938 745.748466,709.433962 C744.575153,707.967655 744,705.997305 744,703.522911 C744,701.09434 744.59816,699.101078 745.817485,697.588949 C747.197853,695.847709 749.199387,695 751.822086,695 Z" id="C" fill="#FFFFFF"></path>
        </g>
    </g>
</svg>