<?xml version="1.0" encoding="utf-8"?>
<!-- Generator: Adobe Illustrator 23.0.1, SVG Export Plug-In . SVG Version: 6.00 Build 0)  -->
<svg version="1.1" id="图层_1" xmlns="http://www.w3.org/2000/svg" xmlns:xlink="http://www.w3.org/1999/xlink" x="0px" y="0px"
	 viewBox="0 0 23 19" style="enable-background:new 0 0 23 19;" xml:space="preserve">
<style type="text/css">
	.st0{fill-opacity:0;}
	.st1{fill:#34BC76;}
</style>
<title>微信</title>
<desc>Created with Sketch.</desc>
<g id="Page-1">
	<g transform="translate(-1022.000000, -289.000000)">
		<g id="微信" transform="translate(1020.000000, 286.000000)">
			<rect id="矩形" class="st0" width="26" height="26"/>
			<path id="形状" class="st1" d="M17.3,9c0.2,0,0.5,0,0.7,0c-0.7-3.2-4.1-5.7-8-5.7c-4.3,0-7.9,3-7.9,6.8c0,2.2,1.2,4.1,3.1,5.4
				l-0.8,2.4l2.8-1.4c1,0.2,1.8,0.4,2.8,0.4c0.2,0,0.5,0,0.8,0c-0.2-0.6-0.2-1.1-0.2-1.7C10.7,11.9,13.6,9,17.3,9z M13.1,6.8
				c0.6,0,1,0.4,1,1s-0.4,1-1,1c-0.6,0-1.2-0.4-1.2-1C11.9,7.2,12.5,6.8,13.1,6.8L13.1,6.8z M7.6,8.7c-0.6,0-1.2-0.4-1.2-1
				c0-0.6,0.6-1,1.2-1s1,0.4,1,1C8.6,8.3,8.2,8.7,7.6,8.7z"/>
			<path class="st1" d="M24.9,15.5c0-2.9-2.9-5.3-6.2-5.3c-3.5,0-6.2,2.4-6.2,5.3c0,2.9,2.8,5.3,6.2,5.3c0.7,0,1.5-0.2,2.2-0.4
				l2,1.1l-0.5-1.8C23.8,18.5,24.9,17.1,24.9,15.5L24.9,15.5z M16.6,14.6c-0.3,0-0.7-0.3-0.7-0.7c0-0.3,0.4-0.7,0.7-0.7
				c0.5,0,0.9,0.4,0.9,0.7C17.6,14.2,17.2,14.6,16.6,14.6z M20.8,14.4c-0.3,0-0.7-0.3-0.7-0.7c0-0.3,0.4-0.7,0.7-0.7
				c0.5,0,0.9,0.4,0.9,0.7C21.7,14,21.3,14.4,20.8,14.4z"/>
		</g>
	</g>
</g>
</svg>
