<?xml version="1.0" encoding="UTF-8"?>
<svg width="16px" height="18px" viewBox="0 0 16 18" version="1.1" xmlns="http://www.w3.org/2000/svg" xmlns:xlink="http://www.w3.org/1999/xlink">
    <!-- Generator: Sketch 50.2 (55047) - http://www.bohemiancoding.com/sketch -->
    <title>Group 2</title>
    <desc>Created with Sketch.</desc>
    <defs></defs>
    <g id="Page-1" stroke="none" stroke-width="1" fill="none" fill-rule="evenodd">
        <g id="02登录_补全手机号" transform="translate(-1055.000000, -458.000000)" stroke="#4C4C4C" stroke-width="2">
            <g id="Group-2" transform="translate(1056.000000, 459.000000)">
                <path d="M13.9660304,3.34422494 C13.9505888,2.86079805 13.5505114,2.40404299 13.0770864,2.32139542 C13.0770864,2.32139542 11.2416435,2.03116382 10.2116196,1.66477712 C8.9259322,1.2071447 7.65340524,0.201511495 7.65340524,0.201511495 C7.25666179,-0.0818766804 6.64777203,-0.0645048976 6.27963061,0.241870182 C6.27963061,0.241870182 5.37892999,1.15081801 3.69807839,1.68144702 C2.14532176,2.30542742 0.904204387,2.36929943 0.904204387,2.36929943 C0.436043613,2.43036388 0.0328076835,2.86272825 0.0236831107,3.34615514 C0.0236831107,3.34615514 -0.0393115363,5.83102198 0.0401775308,8.01179488 C0.0703588101,11.9132516 4.68897191,15.7703139 7.02310782,15.7703139 C9.3203945,15.7703139 13.2906365,13.0831272 13.9151433,8.06864799 C14.0695592,5.09140516 13.9660304,3.34422494 13.9660304,3.34422494" id="Fill-1"></path>
                <path d="M6,8 L8,8" id="Line" stroke-linecap="square"></path>
            </g>
        </g>
    </g>
</svg>