<?xml version="1.0" encoding="UTF-8"?>
<svg width="21px" height="20px" viewBox="0 0 21 20" version="1.1" xmlns="http://www.w3.org/2000/svg" xmlns:xlink="http://www.w3.org/1999/xlink">
    <!-- Generator: Sketch 57 (83077) - https://sketch.com -->
    <title>购物车</title>
    <desc>Created with Sketch.</desc>
    <g id="页面-1" stroke="none" stroke-width="1" fill="none" fill-rule="evenodd">
        <g id="首页" transform="translate(-1461.000000, -23.000000)" fill="#000000" fill-rule="nonzero">
            <g id="购物车" transform="translate(1461.000000, 23.000000)">
                <g id="add-cart">
                    <path d="M6.3888889,16.6666667 C7.15595105,16.6666667 7.77777779,17.2884934 7.77777779,18.0555556 C7.77777779,18.8226177 7.15595105,19.4444445 6.3888889,19.4444445 C5.62182674,19.4444445 5,18.8226177 5,18.0555556 C5,17.2884934 5.62182674,16.6666667 6.3888889,16.6666667 Z M16.3888889,16.6666667 C17.1559511,16.6666667 17.7777778,17.2884934 17.7777778,18.0555556 C17.7777778,18.8226177 17.1559511,19.4444445 16.3888889,19.4444445 C15.6218267,19.4444445 15,18.8226177 15,18.0555556 C15,17.2884934 15.6218267,16.6666667 16.3888889,16.6666667 L16.3888889,16.6666667 Z M1.67111111,0.833333333 C2.85290007,0.833333333 3.87324846,1.66089097 4.11722223,2.81722221 L4.46111111,4.44444445 L4.46666666,4.44444445 L5.58333332,9.79166667 L6.42944444,13.8888889 L16.9038889,13.8888889 L18.5094444,6.11111112 L5.94999999,6.11111112 L5.60166666,4.44444445 L18.51,4.44444445 C19.0111784,4.44443612 19.4857542,4.66996043 19.8022679,5.05854616 C20.1187816,5.44713189 20.2436273,5.95752095 20.1422222,6.44833333 L18.5366667,14.2261111 C18.3766788,15.0004711 17.6946034,15.5558322 16.9038889,15.5555557 L6.42944444,15.5555557 C5.6389386,15.5555557 4.95716792,15.0002667 4.79722223,14.2261111 L3.21944444,6.585 L3.2088889,6.58722221 L2.48666666,3.16111112 C2.40525183,2.77567299 2.0650539,2.49989945 1.67111111,2.5 L0.245555564,2.5 L0.245555564,0.833333333 L1.67111111,0.833333333 Z" id="形状"></path>
                </g>
            </g>
        </g>
    </g>
</svg>