<?xml version="1.0" encoding="UTF-8"?>
<svg width="31px" height="31px" viewBox="0 0 31 31" version="1.1" xmlns="http://www.w3.org/2000/svg" xmlns:xlink="http://www.w3.org/1999/xlink">
    <!-- Generator: Sketch 50.2 (55047) - http://www.bohemiancoding.com/sketch -->
    <title>Group 4 Copy 2</title>
    <desc>Created with Sketch.</desc>
    <defs></defs>
    <g id="Page-1" stroke="none" stroke-width="1" fill="none" fill-rule="evenodd">
        <g id="总站双11" transform="translate(-56.000000, -920.000000)">
            <g id="Group-4-Copy-2" transform="translate(56.000000, 920.000000)">
                <circle id="Oval-2" fill="#000000" opacity="0.5" cx="15.5" cy="15.5" r="12.5"></circle>
                <path d="M15.0918831,13.6160935 L20.2571466,8.45082998 C20.6646747,8.04330194 21.3254082,8.04330194 21.7329362,8.45082998 C22.1404642,8.85835802 22.1404642,9.51909152 21.7329362,9.92661956 L16.5676727,15.0918831 L21.7329362,20.2571466 C22.1404642,20.6646747 22.1404642,21.3254082 21.7329362,21.7329362 C21.3254082,22.1404642 20.6646747,22.1404642 20.2571466,21.7329362 L15.0918831,16.5676727 L9.92661956,21.7329362 C9.51909152,22.1404642 8.85835802,22.1404642 8.45082998,21.7329362 C8.04330194,21.3254082 8.04330194,20.6646747 8.45082998,20.2571466 L13.6160935,15.0918831 L8.45082998,9.92661956 C8.04330194,9.51909152 8.04330194,8.85835802 8.45082998,8.45082998 C8.85835802,8.04330194 9.51909152,8.04330194 9.92661956,8.45082998 L15.0918831,13.6160935 Z" id="Combined-Shape" fill="#FFFFFF"></path>
            </g>
        </g>
    </g>
</svg>