<?xml version="1.0" encoding="UTF-8"?>
<svg width="2497px" height="143px" viewBox="0 0 2497 143" version="1.1" xmlns="http://www.w3.org/2000/svg" xmlns:xlink="http://www.w3.org/1999/xlink">
    <!-- Generator: Sketch 50.2 (55047) - http://www.bohemiancoding.com/sketch -->
    <title>Group 2</title>
    <desc>Created with Sketch.</desc>
    <defs></defs>
    <g id="Page-1" stroke="none" stroke-width="1" fill="none" fill-rule="evenodd">
        <g id="总站双11" transform="translate(0.000000, -1354.000000)">
            <g id="Group-5" transform="translate(-1.000000, 1354.000000)">
                <g id="Group-2">
                    <path d="M0.765782564,74.7533914 C49.882235,62.9177971 86.001989,57 109.125044,57 C143.989627,57 152.40425,74.4284225 223.414105,74.9381359 C294.423959,75.4478494 287.74633,57 356.175821,57 C424.605313,57 441.759647,79.796654 503.328162,80.1772602 C564.896677,80.5578665 1902.56642,65.1596888 1969.8711,74.9381359 C2037.17579,84.7165831 2050.14568,57 2135.22266,57 C2220.29964,57 2209.87811,75.2272896 2313.1875,80.1772602 C2345.2397,81.7130106 2410.16019,79.9845433 2507.94897,74.9918583 L2507.94896,74.9918129 C2508.50055,74.9636509 2508.97054,75.3879744 2508.9987,75.9395658 C2508.99957,75.9565492 2509,75.973552 2509,75.9905575 L2509,141.999999 C2509,142.552284 2508.55228,142.999999 2508,142.999999 L1.00000001,143 C0.447715258,143 7.87076722e-09,142.552285 7.87076715e-09,142 C7.87076715e-09,142 7.87084472e-09,142 7.87099985e-09,141.999999 L5.10852712e-05,75.7255585 C5.14004888e-05,75.2635161 0.316597422,74.8616315 0.765782564,74.7533914 Z" id="Mask" fill="#FF0036"></path>
                    <path d="M1.44548699,85.4517079 C20.4342583,94.8988936 36.1139042,98.9002105 48.4844248,97.4556585 C75.7816251,94.2680622 109.075075,71.1856327 151.054735,69.3667385 C258.855203,64.6959612 277.42518,106.183256 345.527388,106.183256 C413.629595,106.183256 451.673424,97.0362664 495.527384,97.4556585 C539.381345,97.8750505 1893.46686,76.3530357 1960.44964,84.7253082 C2027.43242,93.0975807 2019.35197,104.903653 2115.06251,106.160202 C2169.09703,106.869602 2198.67986,84.7195609 2268.81641,84.7253082 C2338.95296,84.7310555 2351.63656,104.337806 2396.40625,106.183256 C2427.99202,107.485253 2461.05574,100.539638 2495.59741,85.3464114 L2495.59742,85.3464432 C2496.10295,85.1240872 2496.69301,85.3536406 2496.91537,85.8591651 C2496.97118,85.9860522 2497,86.1231573 2497,86.2617764 L2497,141.999999 C2497,142.552284 2496.55228,142.999999 2496,142.999999 L1,143 C0.44771525,143 3.59251084e-11,142.552285 3.59250407e-11,142 C3.59250407e-11,142 3.6050681e-11,141.999999 3.63017394e-11,141.999999 L3.68748911e-05,86.3470336 C3.73542611e-05,85.7947421 0.447758499,85.3470217 1.00005004,85.3470222 C1.15462428,85.3470224 1.30709426,85.3828555 1.44548699,85.4517079 Z" id="Mask-Copy" fill="#DA0C31" transform="translate(1248.500000, 106.000000) scale(-1, 1) translate(-1248.500000, -106.000000) "></path>
                    <rect id="Rectangle-4-Copy-4" stroke="#FF0036" stroke-width="8" fill="#DA0C31" transform="translate(1249.500000, 94.000000) scale(1, -1) translate(-1249.500000, -94.000000) " x="629" y="55" width="1241" height="78" rx="39"></rect>
                    <g id="红包" transform="translate(1054.953194, 77.574029) scale(-1, 1) rotate(-30.000000) translate(-1054.953194, -77.574029) translate(1007.953194, 37.074029)" fill-rule="nonzero">
                        <path d="M68.7823798,65.6267545 C78.0235067,63.4540359 86.8589875,64.0443121 93.1211504,66.7570705 C93.1084739,66.6817161 93.0957975,66.6189208 93.083121,66.5435664 L81.0278237,16.3072988 L64.9033882,26.291757 L64.9033882,4.96646135 L33.592574,15.4281641 C32.8573403,15.6667864 32.0714008,15.6667864 31.3361671,15.4281641 L0,4.96646135 L0,76.8671194 C7.59318937,71.2908937 19.2681934,67.7115596 32.362959,67.7115596 C45.5464597,67.7115596 57.2975224,71.3285709 64.8780353,76.980151 C64.8907118,76.8796784 64.8907118,76.7792059 64.8907118,76.6787334 L64.8907118,66.7068343 C66.1583561,66.3049441 67.4513533,65.9407312 68.7823798,65.6267545 Z M75.513571,43.3595289 C77.0093913,49.576267 73.1303997,55.8306823 66.8555605,57.3000931 C66.2217383,57.4508019 65.5625633,57.5512745 64.9160647,57.5889517 L64.9160647,34.4802686 C70.0246712,34.8193634 74.3219854,38.4112565 75.513571,43.3595289 Z M32.4516941,55.8306823 C23.4894489,55.8306823 16.2258471,48.634337 16.2258471,39.7550767 C16.2258471,30.8758164 23.4894489,23.679471 32.4516941,23.679471 C41.4139393,23.679471 48.6775412,30.8758164 48.6775412,39.7550767 C48.6775412,48.634337 41.4139393,55.8306823 32.4516941,55.8306823 Z" id="Shape" fill="#F40403"></path>
                        <path d="M65.5600446,38.9320636 C65.6764656,38.6243589 65.7670154,38.4320435 65.8575651,38.3679383 C65.9610505,38.2781911 66.0904072,38.226907 66.219764,38.1884439 C66.4396705,38.1243388 66.6725126,38.1756229 66.8536121,38.3038332 C67.0088402,38.4064014 67.1252612,38.5602537 67.1770039,38.7397481 C67.215811,38.9192425 67.1899396,39.0987369 67.1252612,39.2654103 L65.0943603,44.4194635 L67.2028753,43.9194434 C67.7979163,43.7784121 68.1601152,43.9450855 68.2765363,44.4322845 C68.3929574,44.9194836 68.1471796,45.2271883 67.5521385,45.3810406 L64.6157403,46.0733761 L64.5769333,46.2015864 L64.5769333,46.2913336 L64.9132608,47.7016467 L67.9402088,46.9836691 C68.5352498,46.8426378 68.884513,47.0221322 69.0009341,47.5093313 C69.1173552,47.9965303 68.884513,48.317056 68.289472,48.4452663 L65.262524,49.1632439 L65.8446294,51.6120602 C65.9998575,52.2787537 65.7928867,52.6762055 65.223717,52.8172368 C65.0038105,52.881342 64.7580327,52.8556999 64.5639976,52.7403107 L64.5639976,58.3559209 C71.1353205,57.945648 76.128491,52.3428588 75.7145494,45.8169556 C75.3394149,39.8679986 70.5532151,35.1370393 64.5639976,34.7652295 L64.5639976,41.6116584 L65.5600446,38.9320636 Z" id="Shape" fill="#FFB103"></path>
                        <path d="M67.8774065,45.8035337 C68.5372196,45.6605694 68.809751,45.3356506 68.6806572,44.841774 C68.5515633,44.3478974 68.149938,44.1659429 67.490125,44.3219039 L65.1520918,44.8287773 L67.4040624,39.6040828 C67.490125,39.4351251 67.5044687,39.2531705 67.4614374,39.071216 C67.4184062,38.8892615 67.2893123,38.7333004 67.1028434,38.6293264 C66.9020307,38.4993589 66.643843,38.4603686 66.3999991,38.5123556 C66.2565615,38.5513459 66.1131238,38.6033329 65.9983738,38.6943102 C65.8979674,38.7592939 65.7975611,38.9542452 65.6684672,39.2661673 L64.5639976,41.9954853 L64.5639976,46.6353259 L64.6070289,46.5053583 L67.8774065,45.8035337 Z M65.3098732,53.3546468 C65.9409987,53.2116825 66.1704989,52.8087832 65.9983738,52.1329521 L65.3529045,49.6505724 L68.7093447,48.9227543 C69.3691577,48.77979 69.6273454,48.4678679 69.4982516,47.9739913 C69.3691577,47.4801148 68.9818762,47.2981602 68.3220631,47.4411245 L64.9656229,48.1689426 L64.5926851,46.7392999 L64.5926851,53.2766663 C64.7934978,53.3936371 65.0660293,53.4196306 65.3098732,53.3546468 Z" id="Shape" fill="#FFFFFF"></path>
                        <path d="M93.1211504,67.3116216 L93.1211504,67.1997599 C93.1211504,67.1624727 93.1211504,67.1376145 93.108333,67.1003273 L93.108333,67.0878982 C93.108333,67.050611 93.0955156,67.0257528 93.0955156,66.9884656 C86.7637232,64.3162141 77.8299999,63.7196184 68.48612,65.8698487 C67.1402937,66.1805756 65.8329196,66.5410188 64.5639976,66.9387493 L64.5639976,75.7385356 L91.2754457,69.5861426 L91.3908022,69.5612845 L91.4292544,69.5488554 L91.5061588,69.5239973 L91.544611,69.5115682 L91.6086979,69.48671 L91.6599675,69.4618519 L91.7240545,69.4369937 L91.7753241,69.4121356 L91.8265936,69.3872774 L91.8778632,69.3624193 L91.9291328,69.3375611 L91.9804024,69.312703 L92.0316719,69.2754157 L92.0829415,69.2505576 L92.1342111,69.2132703 L92.1854806,69.1759831 L92.2239328,69.1386959 L92.262385,69.1014086 L92.3008372,69.0641214 L92.3392894,69.0268342 L92.3777416,68.989547 L92.4161937,68.9522597 L92.4546459,68.9149725 L92.4930981,68.8652562 L92.5187329,68.827969 L92.5571851,68.7782527 L92.5828198,68.7533945 L92.621272,68.6912491 L92.6340894,68.666391 L92.685359,68.6042456 L92.685359,68.5918165 C92.7878981,68.4550967 92.8648025,68.2935187 92.9288895,68.1319407 C92.9417069,68.1070825 92.9545243,68.0697953 92.9673417,68.0449371 L92.9673417,68.032508 C92.980159,68.0076499 92.9929764,67.9703627 92.9929764,67.9455045 L92.9929764,67.9330754 C93.0057938,67.9082173 93.0057938,67.87093 93.0186112,67.8460719 L93.0186112,67.8212137 C93.0186112,67.7963556 93.0314286,67.7590684 93.044246,67.7342102 L93.044246,67.7093521 C93.044246,67.6844939 93.0570634,67.6472067 93.0570634,67.6223485 L93.0570634,67.5974904 C93.0570634,67.5726322 93.0570634,67.535345 93.0698808,67.5104868 L93.0698808,67.4856287 L93.0698808,67.373767 L93.0698808,67.2867634 C93.1211504,67.3240507 93.1211504,67.3240507 93.1211504,67.3116216 Z" id="Shape" fill="#FF2E2E"></path>
                        <path d="M80.704997,17.057601 L80.349692,15.5202025 C80.0451448,14.2153516 78.7635089,13.4143541 77.4945624,13.7244176 L64.5639976,16.850892 L64.5639976,27.3155374 L80.704997,17.057601 Z" id="Shape" fill="#FFB103"></path>
                        <path d="M0.178812258,79.231894 C0.076633825,78.9092144 0.0127723042,78.5725051 0,78.2217663 C0.0127723042,78.5725051 0.076633825,78.9092144 0.178812258,79.231894 Z M64.3085515,80.704997 C64.3979576,80.6208197 64.4873638,80.5226128 64.5639976,80.4103764 C64.4873638,80.5226128 64.3979576,80.6067901 64.3085515,80.704997 Z" id="Shape" fill="#F40403"></path>
                        <path d="M32.2819988,23.5906914 C23.3666187,23.5906914 16.1409994,30.8163107 16.1409994,39.7316908 C16.1409994,48.647071 23.3666187,55.8726902 32.2819988,55.8726902 C41.1973789,55.8726902 48.4229982,48.647071 48.4229982,39.7316908 C48.4229982,30.8163107 41.1973789,23.5906914 32.2819988,23.5906914 Z M37.6034845,41.5853837 C38.4231447,41.5853837 38.8392798,41.9258579 38.8392798,42.6194165 C38.8392798,43.3129751 38.4231447,43.6534493 37.6034845,43.6408391 L33.3916925,43.6408391 L33.3916925,47.0834116 C33.3916925,48.0165632 32.9881675,48.4831389 32.1937277,48.4831389 C31.3992879,48.4831389 31.0083731,48.0165632 31.0083731,47.0834116 L31.0083731,43.6408391 L26.8596318,43.6408391 C26.0399717,43.6408391 25.6238365,43.3003649 25.6238365,42.6194165 C25.6238365,41.9384681 26.0399717,41.5853837 26.8596318,41.5853837 L30.9957629,41.5853837 L30.9957629,39.3281658 L26.8596318,39.3281658 C26.0399717,39.3281658 25.6238365,38.9876916 25.6238365,38.3067432 C25.6238365,37.6257948 26.0399717,37.2727105 26.8596318,37.2727105 L29.7599676,37.2727105 L25.90126,31.1820052 C25.7499381,30.9802427 25.661667,30.7280396 25.6490569,30.4758365 C25.6490569,30.1858029 25.7877686,29.9083795 26.0147514,29.7192271 C26.2039037,29.542685 26.468717,29.4418037 26.7335303,29.4418037 C27.1496654,29.4418037 27.5153599,29.6940068 27.8180037,30.1858029 L32.2441683,37.3609815 L37.0234174,30.1605826 C37.2630103,29.7822779 37.4521627,29.5679053 37.6034845,29.5048545 C37.7674166,29.4291936 37.9565689,29.3787529 38.1331111,29.3787529 C38.4357548,29.3661428 38.7383986,29.4922443 38.940161,29.7318373 C39.1167032,29.9083795 39.2175845,30.1479724 39.2175845,30.4001755 C39.2049743,30.6397685 39.1293134,30.8793615 38.9779915,31.0685138 L34.6653182,37.2727105 L37.6034845,37.2727105 C38.4357548,37.2727105 38.85189,37.6131847 38.85189,38.2941331 C38.85189,38.9750815 38.4357548,39.3281658 37.6034845,39.3281658 L33.5177941,39.3281658 L33.3916925,39.5425385 L33.3916925,41.5853837 L37.6034845,41.5853837 Z" id="Shape" fill="#FFB103"></path>
                        <path d="M34.0103642,39.49849 L38.1114921,39.49849 C38.9469071,39.49849 39.3646146,39.1665868 39.3646146,38.4904876 C39.3646146,37.8143885 38.9469071,37.4824853 38.1114921,37.4947781 L35.1622242,37.4947781 L39.4911926,31.4467642 C39.6430862,31.2623735 39.719033,31.028812 39.7316908,30.7952505 C39.7316908,30.5493963 39.6304284,30.3158348 39.4532192,30.1437368 C39.2506943,29.922468 38.9595649,29.7872482 38.6431198,29.7995409 C38.4532528,29.7995409 38.2760436,29.8487118 38.1114921,29.922468 C37.9722563,29.9839316 37.7823893,30.2052004 37.5292332,30.561689 L32.7319261,37.580827 L28.2890375,30.5862744 C27.9852503,30.1068587 27.6308318,29.8610045 27.2004665,29.8610045 C26.9346527,29.8610045 26.6814966,29.9593462 26.4789718,30.1314441 C26.2511313,30.3158348 26.1118955,30.5862744 26.1118955,30.8690068 C26.1245533,31.114861 26.2131579,31.3484225 26.3650516,31.5573986 L30.2383391,37.4947781 L27.3270445,37.4947781 C26.5042874,37.4947781 26.0865799,37.8266813 26.0865799,38.5027804 C26.0865799,39.1788795 26.5042874,39.5107827 27.3270445,39.49849 L31.4788037,39.49849 L31.4788037,41.6988852 L27.3143867,41.6988852 C26.4916296,41.6988852 26.0739221,42.0307884 26.0739221,42.7068875 C26.0739221,43.3829867 26.4916296,43.7148899 27.3143867,43.7025971 L31.4661459,43.7025971 L31.4661459,47.0585073 C31.4661459,47.9681679 31.8585378,48.4229982 32.6559793,48.4229982 C33.4534209,48.4229982 33.8458127,47.9681679 33.8584705,47.0585073 L33.8584705,43.7025971 L38.0861765,43.7025971 C38.9089337,43.7025971 39.3266412,43.3706939 39.3266412,42.7068875 C39.3266412,42.0430811 38.9089337,41.6988852 38.0861765,41.6988852 L33.8584705,41.6988852 L33.8584705,39.6951733 L34.0103642,39.49849 Z" id="Shape" fill="#FFFFFF"></path>
                        <path d="M32.1748752,68.2888436 C19.1562124,68.2888436 7.54906003,71.9144622 0,77.5627942 C0.0126027713,77.8681095 0.0756166281,78.1861462 0.176438799,78.47874 L0.18904157,78.5041829 L0.226849884,78.6186761 L0.239452656,78.6568405 C0.252055427,78.6950049 0.264658198,78.7204479 0.289863741,78.7586123 L0.302466512,78.7967767 C0.315069284,78.8349411 0.327672055,78.860384 0.352877598,78.885827 L0.37808314,78.9367129 C0.390685912,78.9621558 0.415891454,79.0003202 0.428494226,79.0257631 L0.453699768,79.076649 L0.504110854,79.1656993 L0.541919168,79.2165852 L0.592330253,79.292914 L0.630138567,79.3437998 L0.680549653,79.4201287 L0.718357967,79.4710145 L0.781371823,79.5346219 L0.819180137,79.5855078 L0.882193994,79.6491151 L0.932605079,79.700001 L0.995618936,79.7636083 L1.04603002,79.8144942 L1.10904388,79.8781015 L1.15945496,79.9289874 L1.22246882,79.9798733 L1.27287991,80.0180377 L1.33589376,80.0689236 L1.39890762,80.107088 L1.46192148,80.1579738 L1.52493533,80.1961382 L1.58794919,80.2343027 L1.65096305,80.2724671 L1.72657967,80.3106315 L1.8021963,80.3487959 L1.87781293,80.3869603 L1.95342956,80.4251247 L2.02904619,80.4505676 L2.10466281,80.4760106 L2.18027944,80.5014535 L2.25589607,80.5268964 L2.3315127,80.5523394 L2.40712933,80.5777823 L2.48274595,80.6032252 L2.57096535,80.6286682 L2.64658198,80.6413896 L2.73480138,80.6541111 L2.81041801,80.6668326 L2.91124018,80.6795541 L2.97425404,80.6922755 L3.08767898,80.704997 L61.4889214,80.704997 L61.5897436,80.6922755 L61.6527574,80.6795541 L61.7535796,80.6668326 L61.8165934,80.6541111 L61.9048128,80.6413896 L61.9678267,80.6286682 L62.0560461,80.6032252 L62.1316627,80.5777823 L62.2072794,80.5523394 L62.282896,80.5268964 L62.3585126,80.5014535 L62.4341292,80.4760106 L62.5097459,80.4505676 L62.5853625,80.4251247 L62.6483763,80.3869603 L62.723993,80.3487959 L62.7870068,80.3106315 L62.8626235,80.2724671 L62.9256373,80.2343027 L63.0012539,80.1961382 L63.0642678,80.1579738 L63.1398844,80.107088 L63.1902955,80.0689236 L63.2659121,80.0180377 L63.3037205,79.9798733 L63.3793371,79.9162659 L63.4171454,79.890823 L63.5053648,79.8144942 L63.5179676,79.8017727 C63.6944064,79.6363936 63.8582424,79.4455716 63.9968729,79.2547496 L63.9968729,79.2420281 L64.0724895,79.1275349 L64.0850923,79.1148134 C64.1102978,79.076649 64.1229006,79.0384846 64.1481061,79.0003202 L64.1607089,78.9748773 C64.1859145,78.9367129 64.1985172,78.8985484 64.2237228,78.860384 L64.2363255,78.8349411 C64.2489283,78.7967767 64.2741339,78.7586123 64.2867366,78.7204479 L64.2993394,78.6950049 C64.3119422,78.6568405 64.3371477,78.6186761 64.3497505,78.5805117 L64.3623533,78.5550688 L64.4001616,78.4405756 L64.4127643,78.4151326 C64.4253671,78.3769682 64.4379699,78.3388038 64.4505727,78.287918 L64.4631754,78.262475 C64.4757782,78.2243106 64.488381,78.1734247 64.5009837,78.1352603 L64.5009837,78.1098174 C64.5135865,78.071653 64.5261893,78.0207671 64.5261893,77.9826027 L64.5261893,77.9571598 C64.5387921,77.9062739 64.5387921,77.8681095 64.5513948,77.8172236 L64.5513948,77.8045021 C64.5513948,77.7536163 64.5639976,77.7027304 64.5639976,77.6518445 C56.9771292,71.9526266 45.2943602,68.2888436 32.1748752,68.2888436 Z" id="Shape" fill="#FF2E2E"></path>
                        <path d="M33.4169128,15.9624499 L64.5639976,5.43456332 L64.5639976,3.28601503 C64.5639976,1.46606824 63.1012195,0 61.2853571,0 L3.2786405,0 C1.46277807,0 0,1.46606824 0,3.28601503 L0,5.4219248 L31.1723051,15.9498114 C31.9036941,16.2025818 32.6855238,16.2025818 33.4169128,15.9624499 Z" id="Shape" fill="#FFB103"></path>
                    </g>
                    <g id="红包-copy" transform="translate(635.363509, 86.043843) rotate(-17.000000) translate(-635.363509, -86.043843) translate(597.863509, 53.543843)" fill-rule="nonzero">
                        <path d="M55.3974952,52.855947 C62.8403213,51.1060342 69.9564389,51.581444 75,53.7663062 C74.9897904,53.7056156 74.9795807,53.6550401 74.9693711,53.5943495 L65.2600054,13.1339379 L52.273346,21.1754447 L52.273346,4 L27.0555404,12.4258807 C26.4633814,12.6180677 25.8303839,12.6180677 25.2382249,12.4258807 L0,4 L0,61.9089641 C6.1155731,57.4178584 15.5186496,54.5350541 26.0652056,54.5350541 C36.683229,54.5350541 46.1475633,57.4482037 52.2529268,62 C52.2631364,61.9190792 52.2631364,61.8381584 52.2631364,61.7572375 L52.2631364,53.7258458 C53.2841002,53.4021625 54.3254833,53.1088246 55.3974952,52.855947 Z M60.818813,34.9218696 C62.0235502,39.9288455 58.899401,44.9661667 53.8456303,46.1496338 C53.3351484,46.271015 52.8042472,46.3519358 52.2835557,46.3822811 L52.2835557,27.7704918 C56.3980397,28.0435996 59.859107,30.936519 60.818813,34.9218696 Z M26.136673,44.9661667 C18.918459,44.9661667 13.0683365,39.1702128 13.0683365,32.018835 C13.0683365,24.8674573 18.918459,19.0715033 26.136673,19.0715033 C33.354887,19.0715033 39.2050095,24.8674573 39.2050095,32.018835 C39.2050095,39.1702128 33.354887,44.9661667 26.136673,44.9661667 Z" id="Shape" fill="#F40403"></path>
                        <path d="M52.8022186,31.3559783 C52.8959845,31.1081522 52.9689134,30.9532609 53.0418424,30.9016304 C53.1251898,30.8293478 53.229374,30.7880435 53.3335583,30.7570652 C53.5106715,30.7054348 53.6982031,30.7467391 53.844061,30.85 C53.9690821,30.9326087 54.0628479,31.0565217 54.1045216,31.201087 C54.1357769,31.3456522 54.1149401,31.4902174 54.0628479,31.6244565 L52.4271554,35.7755435 L54.1253585,35.3728261 C54.604606,35.2592391 54.8963219,35.3934783 54.9900877,35.7858696 C55.0838535,36.1782609 54.8859034,36.426087 54.4066559,36.55 L52.0416737,37.1076087 L52.0104184,37.2108696 L52.0104184,37.2831522 L52.2812974,38.4190217 L54.7192087,37.8407609 C55.1984562,37.7271739 55.4797536,37.8717391 55.5735194,38.2641304 C55.6672852,38.6565217 55.4797536,38.9146739 55.0005061,39.0179348 L52.5625949,39.5961957 L53.031424,41.5684783 C53.1564451,42.1054348 52.9897503,42.4255435 52.5313396,42.5391304 C52.3542264,42.5907609 52.1562764,42.5701087 52,42.4771739 L52,47 C57.2925594,46.6695652 61.314071,42.1570652 60.9806814,36.901087 C60.6785472,32.1097826 56.8237303,28.2994565 52,28 L52,33.5141304 L52.8022186,31.3559783 Z" id="Shape" fill="#FFB103"></path>
                        <path d="M54.6686276,36.890277 C55.2000426,36.7751332 55.4195401,36.5134428 55.3155676,36.1156734 C55.2115951,35.717904 54.8881251,35.5713574 54.3567101,35.6969688 L52.4736525,36.1052058 L54.2873951,31.8972242 C54.3567101,31.7611452 54.3682626,31.6145986 54.3336051,31.468052 C54.2989476,31.3215053 54.1949751,31.195894 54.0447926,31.112153 C53.8830576,31.0074769 53.6751125,30.976074 53.47872,31.0179445 C53.363195,31.0493473 53.24767,31.0912178 53.15525,31.1644911 C53.0743825,31.2168292 52.993515,31.3738434 52.8895425,31.6250662 L52,33.8232655 L52,37.5602044 L52.0346575,37.4555282 L54.6686276,36.890277 Z M52.60073,42.9719617 C53.10904,42.856818 53.29388,42.5323219 53.15525,41.9880059 L52.6353875,39.9886912 L55.3386726,39.4025048 C55.8700876,39.287361 56.0780326,39.0361382 55.9740601,38.6383688 C55.8700876,38.2405994 55.5581701,38.0940528 55.0267551,38.2091965 L52.32347,38.795383 L52.023105,37.6439453 L52.023105,42.909156 C52.18484,43.0033646 52.4043375,43.0242998 52.60073,42.9719617 Z" id="Shape" fill="#FFFFFF"></path>
                        <path d="M75,54.212943 L75,54.1228493 C75,54.0928181 75,54.0727973 74.9896768,54.0427661 L74.9896768,54.0327557 C74.9896768,54.0027244 74.9793537,53.9827036 74.9793537,53.9526724 C69.8797127,51.8004346 62.6844704,51.319935 55.1588869,53.0517356 C54.0749551,53.3019958 53.0219928,53.5922977 52,53.9126308 L52,61 L73.513465,56.0448478 L73.6063734,56.024827 L73.6373429,56.0148166 L73.6992819,55.9947957 L73.7302513,55.9847853 L73.7818671,55.9647645 L73.8231598,55.9447437 L73.8747756,55.9247229 L73.9160682,55.9047021 L73.9573609,55.8846812 L73.9986535,55.8646604 L74.0399461,55.8446396 L74.0812388,55.8246188 L74.1225314,55.7945876 L74.1638241,55.7745668 L74.2051167,55.7445355 L74.2464093,55.7145043 L74.2773788,55.6844731 L74.3083483,55.6544418 L74.3393178,55.6244106 L74.3702873,55.5943794 L74.4012567,55.5643482 L74.4322262,55.5343169 L74.4631957,55.5042857 L74.4941652,55.4642441 L74.5148115,55.4342129 L74.545781,55.3941712 L74.5664273,55.3741504 L74.5973968,55.3240984 L74.6077199,55.3040776 L74.6490126,55.2540255 L74.6490126,55.2440151 C74.7315978,55.1339006 74.7935368,55.0037653 74.8451526,54.87363 C74.8554758,54.8536092 74.8657989,54.8235779 74.8761221,54.8035571 L74.8761221,54.7935467 C74.8864452,54.7735259 74.8967684,54.7434947 74.8967684,54.7234739 L74.8967684,54.7134634 C74.9070916,54.6934426 74.9070916,54.6634114 74.9174147,54.6433906 L74.9174147,54.6233698 C74.9174147,54.603349 74.9277379,54.5733177 74.938061,54.5532969 L74.938061,54.5332761 C74.938061,54.5132553 74.9483842,54.4832241 74.9483842,54.4632032 L74.9483842,54.4431824 C74.9483842,54.4231616 74.9483842,54.3931304 74.9587074,54.3731096 L74.9587074,54.3530887 L74.9587074,54.2629951 L74.9587074,54.1929222 C75,54.2229534 75,54.2229534 75,54.212943 Z" id="Shape" fill="#FF2E2E"></path>
                        <path d="M65,13.7382332 L64.7138365,12.5000087 C64.4685535,11.4490786 63.4363208,10.8039532 62.4143082,11.0536792 L52,13.5717492 L52,22 L65,13.7382332 Z" id="Shape" fill="#FFB103"></path>
                        <path d="M0.144015826,63.8135593 C0.0617210682,63.5536723 0.0102868447,63.2824859 0,63 C0.0102868447,63.2824859 0.0617210682,63.5536723 0.144015826,63.8135593 Z M51.7942631,65 C51.866271,64.9322034 51.9382789,64.8531073 52,64.7627119 C51.9382789,64.8531073 51.866271,64.920904 51.7942631,65 Z" id="Shape" fill="#F40403"></path>
                        <path d="M26,19 C18.8195313,19 13,24.8195313 13,32 C13,39.1804688 18.8195313,45 26,45 C33.1804688,45 39,39.1804688 39,32 C39,24.8195312 33.1804688,19 26,19 Z M30.2859375,33.4929688 C30.9460937,33.4929688 31.28125,33.7671875 31.28125,34.3257813 C31.28125,34.884375 30.9460937,35.1585938 30.2859375,35.1484375 L26.89375,35.1484375 L26.89375,37.9210937 C26.89375,38.6726562 26.56875,39.0484375 25.9289062,39.0484375 C25.2890625,39.0484375 24.9742187,38.6726562 24.9742187,37.9210937 L24.9742187,35.1484375 L21.6328125,35.1484375 C20.9726562,35.1484375 20.6375,34.8742187 20.6375,34.3257812 C20.6375,33.7773438 20.9726562,33.4929687 21.6328125,33.4929687 L24.9640625,33.4929687 L24.9640625,31.675 L21.6328125,31.675 C20.9726562,31.675 20.6375,31.4007812 20.6375,30.8523437 C20.6375,30.3039062 20.9726562,30.0195312 21.6328125,30.0195312 L23.96875,30.0195312 L20.8609375,25.1140625 C20.7390625,24.9515625 20.6679687,24.7484375 20.6578125,24.5453125 C20.6578125,24.3117187 20.7695312,24.0882812 20.9523437,23.9359375 C21.1046875,23.79375 21.3179687,23.7125 21.53125,23.7125 C21.8664062,23.7125 22.1609375,23.915625 22.4046875,24.3117187 L25.9695312,30.090625 L29.81875,24.2914062 C30.0117187,23.9867187 30.1640625,23.8140625 30.2859375,23.7632812 C30.4179687,23.7023437 30.5703125,23.6617187 30.7125,23.6617187 C30.95625,23.6515625 31.2,23.753125 31.3625,23.9460937 C31.5046875,24.0882812 31.5859375,24.28125 31.5859375,24.484375 C31.5757812,24.6773437 31.5148437,24.8703125 31.3929687,25.0226562 L27.9195312,30.0195312 L30.2859375,30.0195312 C30.95625,30.0195312 31.2914062,30.29375 31.2914062,30.8421875 C31.2914062,31.390625 30.95625,31.675 30.2859375,31.675 L26.9953125,31.675 L26.89375,31.8476562 L26.89375,33.4929687 L30.2859375,33.4929687 Z" id="Shape" fill="#FFB103"></path>
                        <path d="M27.3920297,31.8121795 L30.695088,31.8121795 C31.3679333,31.8121795 31.7043559,31.5448638 31.7043559,31.000332 C31.7043559,30.4558001 31.3679333,30.1884845 30.695088,30.198385 L28.3197405,30.198385 L31.8063021,25.3273 C31.9286376,25.1787913 31.9898054,24.9906803 32,24.8025693 C32,24.6045577 31.918443,24.4164467 31.7757183,24.2778386 C31.6126043,24.0996282 31.3781279,23.9907218 31.1232623,24.0006224 C30.9703429,24.0006224 30.8276182,24.0402247 30.695088,24.0996282 C30.5829472,24.1491311 30.4300278,24.3273415 30.2261353,24.6144583 L26.3623726,30.2676891 L22.7840593,24.6342595 C22.5393883,24.2481369 22.2539388,24.0501253 21.9073216,24.0501253 C21.6932345,24.0501253 21.489342,24.1293299 21.326228,24.2679381 C21.1427247,24.4164467 21.0305839,24.6342595 21.0305839,24.8619728 C21.0407785,25.0599844 21.1121409,25.2480954 21.2344764,25.4164052 L24.3540315,30.198385 L22.0092678,30.198385 C21.3466172,30.198385 21.0101946,30.4657007 21.0101946,31.0102325 C21.0101946,31.5547644 21.3466172,31.82208 22.0092678,31.8121795 L25.3531047,31.8121795 L25.3531047,33.5843831 L21.9990732,33.5843831 C21.3364226,33.5843831 21,33.8516988 21,34.3962306 C21,34.9407625 21.3364226,35.2080781 21.9990732,35.1981776 L25.3429101,35.1981776 L25.3429101,37.9010357 C25.3429101,38.6336786 25.6589435,39 26.3012048,39 C26.9434662,39 27.2594995,38.6336786 27.2696942,37.9010357 L27.2696942,35.1981776 L30.6746988,35.1981776 C31.3373494,35.1981776 31.673772,34.9308619 31.673772,34.3962306 C31.673772,33.8615994 31.3373494,33.5843831 30.6746988,33.5843831 L27.2696942,33.5843831 L27.2696942,31.9705887 L27.3920297,31.8121795 Z" id="Shape" fill="#FFFFFF"></path>
                        <path d="M25.9137224,55 C15.4284599,55 6.08003123,57.920082 0,62.4692623 C0.0101503026,62.7151639 0.0609018153,62.9713115 0.142104236,63.2069672 L0.152254538,63.227459 L0.182705446,63.3196721 L0.192855749,63.3504098 C0.203006051,63.3811475 0.213156354,63.4016393 0.233456959,63.432377 L0.243607261,63.4631148 C0.253757564,63.4938525 0.263907866,63.5143443 0.284208472,63.5348361 L0.304509077,63.5758197 C0.314659379,63.5963115 0.334959984,63.6270492 0.345110287,63.647541 L0.365410892,63.6885246 L0.406012102,63.7602459 L0.43646301,63.8012295 L0.47706422,63.8627049 L0.507515128,63.9036885 L0.548116338,63.9651639 L0.578567246,64.0061475 L0.629318759,64.057377 L0.659769666,64.0983607 L0.710521179,64.1495902 L0.751122389,64.1905738 L0.801873902,64.2418033 L0.842475112,64.2827869 L0.893226625,64.3340164 L0.933827835,64.375 L0.984579348,64.4159836 L1.02518056,64.4467213 L1.07593207,64.4877049 L1.12668358,64.5184426 L1.1774351,64.5594262 L1.22818661,64.5901639 L1.27893812,64.6209016 L1.32968963,64.6516393 L1.39059145,64.682377 L1.45149327,64.7131148 L1.51239508,64.7438525 L1.5732969,64.7745902 L1.63419871,64.795082 L1.69510053,64.8155738 L1.75600234,64.8360656 L1.81690416,64.8565574 L1.87780597,64.8770492 L1.93870779,64.897541 L1.9996096,64.9180328 L2.07066172,64.9385246 L2.13156354,64.9487705 L2.20261565,64.9590164 L2.26351747,64.9692623 L2.34471989,64.9795082 L2.3954714,64.9897541 L2.48682413,65 L49.5233262,65 L49.6045286,64.9897541 L49.6552801,64.9795082 L49.7364825,64.9692623 L49.787234,64.9590164 L49.8582862,64.9487705 L49.9090377,64.9385246 L49.9800898,64.9180328 L50.0409916,64.897541 L50.1018934,64.8770492 L50.1627952,64.8565574 L50.2236971,64.8360656 L50.2845989,64.8155738 L50.3455007,64.795082 L50.4064025,64.7745902 L50.457154,64.7438525 L50.5180558,64.7131148 L50.5688073,64.682377 L50.6297092,64.6516393 L50.6804607,64.6209016 L50.7413625,64.5901639 L50.792114,64.5594262 L50.8530158,64.5184426 L50.893617,64.4877049 L50.9545188,64.4467213 L50.9849697,64.4159836 L51.0458716,64.3647541 L51.0763225,64.3442623 L51.1473746,64.2827869 L51.1575249,64.272541 C51.2996291,64.1393443 51.4315831,63.9856557 51.5432364,63.8319672 L51.5432364,63.8217213 L51.6041382,63.7295082 L51.6142885,63.7192623 C51.6345891,63.6885246 51.6447394,63.6577869 51.66504,63.6270492 L51.6751903,63.6065574 C51.6954909,63.5758197 51.7056412,63.545082 51.7259418,63.5143443 L51.7360921,63.4938525 C51.7462424,63.4631148 51.766543,63.432377 51.7766933,63.4016393 L51.7868436,63.3811475 C51.7969939,63.3504098 51.8172946,63.3196721 51.8274449,63.2889344 L51.8375952,63.2684426 L51.8680461,63.1762295 L51.8781964,63.1557377 C51.8883467,63.125 51.898497,63.0942623 51.9086473,63.0532787 L51.9187976,63.0327869 C51.9289479,63.0020492 51.9390982,62.9610656 51.9492485,62.9303279 L51.9492485,62.9098361 C51.9593988,62.8790984 51.9695491,62.8381148 51.9695491,62.807377 L51.9695491,62.7868852 C51.9796994,62.7459016 51.9796994,62.7151639 51.9898497,62.6741803 L51.9898497,62.6639344 C51.9898497,62.6229508 52,62.5819672 52,62.5409836 C45.8895179,57.9508197 36.4801874,55 25.9137224,55 Z" id="Shape" fill="#FF2E2E"></path>
                        <path d="M26.9140625,12.8561958 L52,4.37701045 L52,2.64656446 C52,1.18077491 50.821875,0 49.359375,0 L2.640625,0 C1.178125,0 0,1.18077491 0,2.64656446 L0,4.36683136 L25.10625,12.8460167 C25.6953125,13.0495986 26.325,13.0495986 26.9140625,12.8561958 Z" id="Shape" fill="#FFB103"></path>
                    </g>
                    <g id="笑脸" transform="translate(675.262433, 38.262433) rotate(-27.000000) translate(-675.262433, -38.262433) translate(652.762433, 15.762433)" fill-rule="nonzero">
                        <path d="M0,22.0901083 C1.49407276e-15,34.2901383 9.89007838,44.1802167 22.0901083,44.1802167 C34.2901383,44.1802167 44.1802167,34.2901383 44.1802167,22.0901083 C44.1802167,9.89007838 34.2901383,7.47036381e-16 22.0901083,0 C9.89007838,-7.47036381e-16 1.49407276e-15,9.89007838 0,22.0901083 Z" id="Shape" fill="#FFC400"></path>
                        <path d="M30.222785,22.1572317 C31.8143149,22.534719 31.9079342,24.2334117 31.9079342,25.6489891 C31.9079342,30.933811 27.6950612,35.1805429 22.5459941,35.1805429 L22.4523747,35.1805429 C17.3033077,35.1805429 13.0904346,30.933811 13.0904346,25.6489891 C13.0904346,24.2334118 13.184054,22.534719 14.7755838,22.1572317 C16.3671136,21.7797444 17.9586434,23.8559245 22.3587553,23.8559245 C26.7588672,23.8559245 28.5376358,21.6853726 30.222785,22.1572317 Z" id="Shape" fill="#F86604"></path>
                        <path d="M9.81782592,16.7721193 C9.81782592,18.3536046 11.0998731,19.6356518 12.6813585,19.6356518 C14.2628438,19.6356518 15.544891,18.3536046 15.544891,16.7721193 C15.544891,15.1906339 14.2628438,13.9085867 12.6813585,13.9085867 C11.0998731,13.9085867 9.81782592,15.1906339 9.81782592,16.7721193 Z" id="Shape" fill="#F86604"></path>
                        <path d="M28.6353256,16.7721193 C28.6353256,18.3536046 29.9173728,19.6356518 31.4988582,19.6356518 C33.0803435,19.6356518 34.3623907,18.3536046 34.3623907,16.7721193 C34.3623907,15.1906339 33.0803435,13.9085867 31.4988582,13.9085867 C29.9173728,13.9085867 28.6353256,15.1906339 28.6353256,16.7721193 Z" id="Shape" fill="#F86604"></path>
                    </g>
                    <g id="笑脸-copy" transform="translate(1904.262433, 97.262433) rotate(-27.000000) translate(-1904.262433, -97.262433) translate(1881.762433, 74.762433)" fill-rule="nonzero">
                        <path d="M0,22.0901083 C1.49407276e-15,34.2901383 9.89007838,44.1802167 22.0901083,44.1802167 C34.2901383,44.1802167 44.1802167,34.2901383 44.1802167,22.0901083 C44.1802167,9.89007838 34.2901383,7.47036381e-16 22.0901083,0 C9.89007838,-7.47036381e-16 1.49407276e-15,9.89007838 0,22.0901083 Z" id="Shape" fill="#FFC400"></path>
                        <path d="M30.222785,22.1572317 C31.8143149,22.534719 31.9079342,24.2334117 31.9079342,25.6489891 C31.9079342,30.933811 27.6950612,35.1805429 22.5459941,35.1805429 L22.4523747,35.1805429 C17.3033077,35.1805429 13.0904346,30.933811 13.0904346,25.6489891 C13.0904346,24.2334118 13.184054,22.534719 14.7755838,22.1572317 C16.3671136,21.7797444 17.9586434,23.8559245 22.3587553,23.8559245 C26.7588672,23.8559245 28.5376358,21.6853726 30.222785,22.1572317 Z" id="Shape" fill="#F86604"></path>
                        <path d="M9.81782592,16.7721193 C9.81782592,18.3536046 11.0998731,19.6356518 12.6813585,19.6356518 C14.2628438,19.6356518 15.544891,18.3536046 15.544891,16.7721193 C15.544891,15.1906339 14.2628438,13.9085867 12.6813585,13.9085867 C11.0998731,13.9085867 9.81782592,15.1906339 9.81782592,16.7721193 Z" id="Shape" fill="#F86604"></path>
                        <path d="M28.6353256,16.7721193 C28.6353256,18.3536046 29.9173728,19.6356518 31.4988582,19.6356518 C33.0803435,19.6356518 34.3623907,18.3536046 34.3623907,16.7721193 C34.3623907,15.1906339 33.0803435,13.9085867 31.4988582,13.9085867 C29.9173728,13.9085867 28.6353256,15.1906339 28.6353256,16.7721193 Z" id="Shape" fill="#F86604"></path>
                    </g>
                    <circle id="Oval-3" stroke="#98F773" stroke-width="12" transform="translate(649.500000, 116.500000) scale(-1, -1) translate(-649.500000, -116.500000) " cx="649.5" cy="116.5" r="13.5"></circle>
                    <g id="Group-3" transform="translate(1856.386207, 46.699673) rotate(-330.000000) translate(-1856.386207, -46.699673) translate(1808.886207, 20.199673)">
                        <polygon id="Rectangle-10" fill="#8711B7" points="0 0 94.3984375 0 94.3984375 37.5117188 59.9648438 37.5117187 46.375 52.5898438 31.3164062 37.5117187 0 37.5117188"></polygon>
                        <text id="for-sale" font-family="PingFangHK-Regular, PingFang HK" font-size="14" font-weight="normal" fill="#FFFFFF">
                            <tspan x="14.931" y="22">FOR SALE</tspan>
                        </text>
                    </g>
                    <g id="钱-copy" transform="translate(572.013594, 106.013594) rotate(-31.000000) translate(-572.013594, -106.013594) translate(554.513594, 88.513594)" fill-rule="nonzero">
                        <path d="M0,17.4660447 C1.18132249e-15,27.1122749 7.81981459,34.9320895 17.4660447,34.9320895 C27.1122749,34.9320895 34.9320895,27.1122749 34.9320895,17.4660447 C34.9320895,7.81981459 27.1122749,5.90661244e-16 17.4660447,0 C7.81981459,-5.90661244e-16 1.18132249e-15,7.81981459 0,17.4660447 Z" id="Shape" fill="#FFF458"></path>
                        <path d="M2.58756218,18.1129353 C2.58756218,26.6873621 9.53850849,33.6383084 18.1129353,33.6383084 C26.6873621,33.6383084 33.6383084,26.6873621 33.6383084,18.1129353 C33.6383084,9.53850849 26.6873621,2.58756218 18.1129353,2.58756218 C9.53850849,2.58756218 2.58756218,9.53850849 2.58756218,18.1129353 Z" id="Shape" fill="#FBDA30"></path>
                        <path d="M19.0644852,3.37639661 C23.0333623,3.37049582 26.8559283,4.87428287 29.7569651,7.58278901 C26.7919346,4.39227634 22.6312054,2.58205181 18.2756634,2.58757478 C9.61045553,2.58757478 2.58757478,9.61045553 2.58757478,18.2756634 C2.58205181,22.6312054 4.39227634,26.7919346 7.58278901,29.7569651 C4.87428287,26.8559283 3.37049582,23.0333623 3.37639661,19.0644852 C3.37639661,10.3992774 10.3992774,3.37639661 19.0644852,3.37639661 Z" id="Shape" fill="#EBB400"></path>
                        <path d="M11.2343862,22.3996779 L11.2343862,20.5359231 L16.6072835,20.5359231 L16.6072835,17.3696988 L11.2674155,17.3696988 L11.2674155,15.4107974 C12.846779,15.4107974 14.290803,15.6942384 16.1718609,15.6942384 L10.3502487,9.07275182 L13.2101011,7.76268655 L14.6086092,9.20947517 C14.6086092,9.20947517 17.0559983,11.9679282 18.3691136,13.4510964 C19.2552651,12.462051 23.3456595,7.78387463 23.3456595,7.78387467 L25.8756218,8.82049329 L20.1329578,15.3368388 L25.1332686,15.3368388 L25.1332686,17.7354936 L20.1434305,17.7354936 L20.1434305,20.4275839 L25.1240043,20.4275839 L25.1240043,22.797055 L20.1027481,22.797055 L20.1027481,27.1694029 L16.6842175,27.1694029 L16.6842175,22.3996779 L11.2343862,22.3996779 Z" id="Shape" fill="#F38500"></path>
                        <path d="M11.0683023,22.4024903 L11.0683023,20.5384283 L15.7952334,20.5384283 L15.7952334,17.3732815 L11.0996216,17.3732815 L11.0996216,15.4112583 L15.8700944,15.4112583 L10.3502487,8.78948001 L12.5727772,7.76268655 L13.8988846,9.20971364 C13.8988846,9.20971364 16.2195725,11.9686213 17.464708,13.452034 C18.3046014,12.4628256 22.1828544,7.78427798 22.1828544,7.78427798 L24.5818407,8.8210675 L19.1364741,15.3384871 L23.8798288,15.3384871 L23.8798288,17.3105063 L19.1486963,17.3105063 L19.1486963,20.4292715 L23.8710441,20.4292715 L23.8710441,22.3713026 L19.109738,22.3713026 L19.109738,27.1694029 L15.8681847,27.1694029 L15.8681847,22.4024903 L11.0683023,22.4024903 Z" id="Shape" fill="#F7BF0D"></path>
                    </g>
                    <g id="Group-2-Copy-5" transform="translate(1763.000000, 77.000000)" fill="#FFFFFF">
                        <path d="M13.5906272,0 C17.268091,0 20.1461061,0.808625337 22.2646451,2.46630728 C24.3032391,4.08355795 25.582357,6.4690027 26.1019986,9.70350404 L21.3852516,9.70350404 C20.9855272,7.84366577 20.1061337,6.4690027 18.8270159,5.53908356 C17.5079256,4.60916442 15.7491385,4.16442049 13.5906272,4.16442049 C10.9124742,4.16442049 8.79393522,5.05390836 7.23501034,6.91374663 C5.51619573,8.85444744 4.67677464,11.5633423 4.67677464,15.1212938 C4.67677464,18.5175202 5.43625086,21.1455526 6.95520331,22.9649596 C8.59407305,24.9056604 11.1523088,25.8760108 14.6299104,25.8760108 C15.9889731,25.8760108 17.268091,25.7142857 18.467264,25.3908356 C19.5864921,25.0673854 20.5858029,24.6226415 21.5451413,24.0566038 L21.5451413,18.1132075 L13.9903515,18.1132075 L13.9903515,14.0700809 L26.2219159,14.0700809 L26.2219159,26.2803235 C24.7029635,27.4932615 22.9841489,28.3827493 21.0254997,29.0296496 C18.9469331,29.6765499 16.6685045,30 14.1102688,30 C9.55341144,30 6.03583735,28.5444744 3.51757409,25.6334232 C1.15920055,22.9245283 0,19.4070081 0,15.1212938 C0,10.7951482 1.15920055,7.23719677 3.51757409,4.44743935 C5.99586492,1.45552561 9.35354928,0 13.5906272,0 Z M44.0895934,0 C48.4465886,0 51.8842178,1.41509434 54.402481,4.28571429 C56.800827,6.99460916 58,10.5929919 58,15.0404313 C58,19.4878706 56.800827,23.0458221 54.402481,25.754717 C51.8842178,28.5849057 48.4465886,30 44.0895934,30 C39.6926258,30 36.2549966,28.5444744 33.7767057,25.7142857 C31.3783598,22.9649596 30.2191592,19.4070081 30.2191592,15.0404313 C30.2191592,10.6334232 31.3783598,7.0754717 33.7767057,4.32614555 C36.2549966,1.41509434 39.6926258,0 44.0895934,0 Z M44.0895934,4.16442049 C41.1316334,4.16442049 38.8532047,5.17520216 37.2143349,7.1967655 C35.6554101,9.13746631 34.8959338,11.7250674 34.8959338,15.0404313 C34.8959338,18.3153639 35.6554101,20.902965 37.2143349,22.8436658 C38.8132323,24.8247978 41.1316334,25.8355795 44.0895934,25.8355795 C47.0475534,25.8355795 49.3259821,24.8652291 50.9248794,22.9649596 C52.4838043,21.06469 53.2832529,18.4366577 53.2832529,15.0404313 C53.2832529,11.6442049 52.4838043,8.97574124 50.9248794,7.03504043 C49.3259821,5.09433962 47.0475534,4.16442049 44.0895934,4.16442049 Z" id="GO"></path>
                    </g>
                    <path d="M1823.01651,86.3278171 L1838.73062,82.9348176 C1839.81031,82.7016907 1840.87455,83.3879639 1841.10768,84.4676516 C1841.16775,84.7458822 1841.16775,85.0337313 1841.10766,85.3119594 L1837.71432,101.024492 C1837.48115,102.10417 1836.41688,102.7904 1835.3372,102.557228 C1834.96146,102.476083 1834.61707,102.288379 1834.34525,102.016582 L1822.02449,89.6970489 C1821.2434,88.9160393 1821.24333,87.6497094 1822.02434,86.8686218 C1822.29621,86.5967305 1822.64068,86.408967 1823.01651,86.3278171 Z" id="Rectangle-8-Copy-3" fill="#FFFFFF" transform="translate(1832.020815, 92.020815) rotate(-315.000000) translate(-1832.020815, -92.020815) "></path>
                    <text id="拍信双十一狂欢大促-copy" font-family="PingFangHK-Semibold, PingFang HK" font-size="31" font-weight="500" fill="#FFFFFF">
                        <tspan x="702" y="93">拍信双十一狂欢大促</tspan>
                    </text>
                    <text id="20万家企业选择，领先的知产内容平台-copy" opacity="0.800000012" font-family="PingFangHK-Semibold, PingFang HK" font-size="14" font-weight="500" fill="#FFFFFF">
                        <tspan x="721.1" y="117">20万家企业选择，领先的知产内容平台</tspan>
                    </text>
                </g>
            </g>
        </g>
    </g>
</svg>