<?xml version="1.0" encoding="UTF-8"?>
<svg width="162px" height="162px" viewBox="0 0 162 162" version="1.1" xmlns="http://www.w3.org/2000/svg" xmlns:xlink="http://www.w3.org/1999/xlink">
    <!-- Generator: Sketch 57 (83077) - https://sketch.com -->
    <title>形状结合</title>
    <desc>Created with Sketch.</desc>
    <g id="页面-1" stroke="none" stroke-width="1" fill="none" fill-rule="evenodd">
        <g id="支付弹窗" transform="translate(-773.000000, -406.000000)" fill="#702A2A">
            <path d="M775,549 L775,566 L793,566 L793,568 L773,568 L773,549 L775,549 Z M935,549 L935,568 L915,568 L915,566 L933,566 L933,549 L935,549 Z M793,406 L793,408 L775,408 L775,425 L773,425 L773,406 L793,406 Z M935,406 L935,425 L933,425 L933,408 L915,408 L915,406 L935,406 Z" id="形状结合"></path>
        </g>
    </g>
</svg>