<?xml version="1.0" encoding="UTF-8"?>
<svg width="10px" height="10px" viewBox="0 0 10 10" version="1.1" xmlns="http://www.w3.org/2000/svg" xmlns:xlink="http://www.w3.org/1999/xlink">
    <!-- Generator: Sketch 57 (83077) - https://sketch.com -->
    <title>编组</title>
    <desc>Created with Sketch.</desc>
    <g id="页面-1" stroke="none" stroke-width="1" fill="none" fill-rule="evenodd">
        <g id="订单结算备份" transform="translate(-1107.000000, -192.000000)" fill="#702A2A" fill-rule="nonzero">
            <g id="编组" transform="translate(1107.000000, 192.000000)">
                <g id="箭头" transform="translate(4.714286, 7.076028) rotate(90.000000) translate(-4.714286, -7.076028) translate(1.571429, 2.361742)">
                    <path d="M5.80169851,4.70298092 L1.19968975,9.30310772 C1.03188204,9.47091543 0.760566777,9.46966079 0.594013712,9.30028479 C0.427485305,9.13037541 0.428603947,8.85812538 0.596522981,8.6895902 L4.5828186,4.70517654 L0.597463962,0.748364893 C0.428849903,0.580417823 0.426891247,0.308024741 0.593072731,0.137670306 C0.672453645,0.0561525844 0.78114962,0.00978316811 0.894928736,0.00888646269 C1.00870785,0.00801549487 1.11811106,0.0526907158 1.19874878,0.132965412 L5.80169851,4.70298092 L5.80169851,4.70298092 Z" id="路径"></path>
                </g>
                <g id="箭头备份" transform="translate(4.714286, 3.142857) rotate(90.000000) translate(-4.714286, -3.142857) translate(1.571429, -1.571429)">
                    <path d="M5.80169851,4.70298092 L1.19968975,9.30310772 C1.03188204,9.47091543 0.760566777,9.46966079 0.594013712,9.30028479 C0.427485305,9.13037541 0.428603947,8.85812538 0.596522981,8.6895902 L4.5828186,4.70517654 L0.597463962,0.748364893 C0.428849903,0.580417823 0.426891247,0.308024741 0.593072731,0.137670306 C0.672453645,0.0561525844 0.78114962,0.00978316811 0.894928736,0.00888646269 C1.00870785,0.00801549487 1.11811106,0.0526907158 1.19874878,0.132965412 L5.80169851,4.70298092 L5.80169851,4.70298092 Z" id="路径"></path>
                </g>
            </g>
        </g>
    </g>
</svg>