<?xml version="1.0" encoding="utf-8"?>
<!-- Generator: Adobe Illustrator 21.0.0, SVG Export Plug-In . SVG Version: 6.00 Build 0)  -->
<svg version="1.1" id="图层_1" xmlns="http://www.w3.org/2000/svg" xmlns:xlink="http://www.w3.org/1999/xlink" x="0px" y="0px"
	 viewBox="0 0 98 98" style="enable-background:new 0 0 98 98;" xml:space="preserve">
<style type="text/css">
	.st0{fill:none;stroke:#DDDDDD;}
	.st1{fill:#C1C1C1;}
</style>
<title>Group 11</title>
<desc>Created with Sketch.</desc>
<circle id="Oval" class="st0" cx="49" cy="49" r="48"/>
<path id="Shape" class="st1" d="M60.9,48.4c1.2-3.2-0.9-4.5-0.9-4.5C60,38.2,55.2,33,49.4,33s-10.5,4.5-10.6,10.8
	c0,0-2.1,1.9-1.2,4.7c-2,1-4.9,6.4-3,9.8c0.4,0.8,1.7-0.1,2.8-2.1c0.6,2.1,1.2,2.9,2.5,4.2c-3.7,0.7-3.4,3.4-2.2,4.2
	c0.9,0.6,2.5,1.2,4.4,1.3c3.6,0.2,5.6-1.1,6.4-1.8c0.2,0,0.9,0,1.1,0c0.7,0.7,2.7,2,6.3,1.8c1.9-0.1,3.4-0.6,4.3-1.2
	c0.7-0.5,1.4-1.9,0-3.1c-0.6-0.5-1.4-1-2.2-1.2c1.2-1.3,2.1-2.8,2.6-4.5c1,2.1,2.2,3.1,2.7,2.3C65.4,54.5,62.4,49.7,60.9,48.4z"/>
</svg>
