<?xml version="1.0" encoding="utf-8"?>
<!-- Generator: Adobe Illustrator 21.0.0, SVG Export Plug-In . SVG Version: 6.00 Build 0)  -->
<svg version="1.1" id="图层_1" xmlns="http://www.w3.org/2000/svg" xmlns:xlink="http://www.w3.org/1999/xlink" x="0px" y="0px"
	 viewBox="0 0 98 98" style="enable-background:new 0 0 98 98;" xml:space="preserve">
<style type="text/css">
	.st0{fill:none;stroke:#DDDDDD;}
	.st1{fill:#C1C1C1;}
</style>
<title>Group 12</title>
<desc>Created with Sketch.</desc>
<g id="Page-1">
	<g id="会员" transform="translate(-1197.000000, -2659.000000)">
		<g id="Group-12" transform="translate(1197.000000, 2659.000000)">
			<circle id="Oval-Copy" class="st0" cx="49" cy="49" r="48"/>
			<path id="Shape" class="st1" d="M65.8,57.9l-0.1-0.2c0.1,0.1-0.4-0.4-0.4-0.4s-0.4-0.5-1.4-1.3c-0.9-0.7-1.9-1.5-2.7-2
				c-1-0.7-1.7-1.1-1.7-1l-0.7-0.4c-0.3-0.2-0.9-0.2-1.3,0c-0.3,0.1-0.7,0.4-0.8,0.6c0.1-0.1-0.2,0.2-0.9,1.3
				c-0.3,0.5-0.6,1.1-0.9,1.8c-0.5,0.9-1.8,1.8-3.1,1c-1.7-1-3.8-2.3-6-4.3c-2.5-2.4-3.9-4.2-4.7-5.9c-0.3-0.6-0.2-1.9,0.9-2.4
				c1-0.5,1.6-0.6,2.3-1c0.6-0.4,0.5-0.2,1.2-0.7c0,0,0.2-0.2,0.3-0.2l0.1-0.1c0.4-0.4,0.5-0.9,0.3-1.5L46.1,41c0,0-0.5-1.1-1.3-2.4
				c-0.4-0.7-1-1.5-1.4-2.1c-1.2-1.6-2.3-2.1-2.3-2.1s-0.3-0.2-0.5-0.2c-0.6-0.3-1.2-0.2-1.7,0c-1.2,0.4-1.8,1-2.7,1.7
				c-2,1.6-3.4,3.8-3.1,5.8c0.4,3,4.3,9.7,9.4,14.5c5.1,4.7,12.2,8.4,15.5,8.8c2.2,0.3,4-0.8,5.9-2.5c0.6-0.6,1.5-1.6,1.9-2.5
				C65.9,59.5,66.2,58.5,65.8,57.9z"/>
		</g>
	</g>
</g>
</svg>
