<?xml version="1.0" encoding="utf-8"?>
<!-- Generator: Adobe Illustrator 21.0.0, SVG Export Plug-In . SVG Version: 6.00 Build 0)  -->
<svg version="1.1" id="图层_1" xmlns="http://www.w3.org/2000/svg" xmlns:xlink="http://www.w3.org/1999/xlink" x="0px" y="0px"
	 viewBox="0 0 98 98" style="enable-background:new 0 0 98 98;" xml:space="preserve">
<style type="text/css">
	.st0{fill:none;stroke:#DDDDDD;}
	.st1{fill:#C1C1C1;}
</style>
<title>Group 13</title>
<desc>Created with Sketch.</desc>
<g id="Page-1">
	<g id="会员" transform="translate(-1511.000000, -2659.000000)">
		<g id="Group-13" transform="translate(1511.000000, 2659.000000)">
			<circle id="Oval-Copy-2" class="st0" cx="49" cy="49" r="48"/>
			<path id="Shape" class="st1" d="M49,32c-9.4,0-17,7.6-17,17s7.6,17,17,17s17-7.6,17-17S58.4,32,49,32z M48.9,59
				c-1.1,0-2-0.8-1.9-2s0.9-2,2-2c1.2,0,2,0.9,2,2.1C51,58.3,50.1,59,48.9,59z M55.1,48c-0.3,0.4-1.1,1-2,1.7l-1,0.7
				c-0.5,0.4-0.9,0.8-1.1,1.3c-0.1,0.3-0.1,0.5-0.2,1c0,0.1-0.1,0.3-0.3,0.3h-2.9c-0.3,0-0.4-0.2-0.4-0.3c0-1.3,0.1-2.1,0.6-2.7
				c0.9-1,2.9-2.3,2.9-2.3c0.3-0.2,0.6-0.5,0.7-0.7c0.3-0.5,0.6-1,0.6-1.5c0-0.6-0.2-1.2-0.6-1.7C51,43.3,50.3,43,49.3,43
				s-1.7,0.3-2.1,1c-0.3,0.4-0.5,0.9-0.6,1.3c0,0.6-0.2,0.6-0.6,0.6h-2.8c-0.2,0-0.3-0.1-0.4-0.6c0.2-2.1,1-3.5,2.5-4.4
				c1-0.6,2.3-0.9,3.7-0.9c1.9,0,3.5,0.4,4.8,1.3c1.3,0.9,1.9,2.2,1.9,4C56,46.4,55.6,47.3,55.1,48z"/>
		</g>
	</g>
</g>
</svg>
