<?xml version="1.0" encoding="UTF-8"?>
<svg width="29px" height="29px" viewBox="0 0 29 29" version="1.1" xmlns="http://www.w3.org/2000/svg" xmlns:xlink="http://www.w3.org/1999/xlink">
    <!-- Generator: Sketch 50.2 (55047) - http://www.bohemiancoding.com/sketch -->
    <title>二维码 copy</title>
    <desc>Created with Sketch.</desc>
    <defs></defs>
    <g id="Page-1" stroke="none" stroke-width="1" fill="none" fill-rule="evenodd">
        <g id="全站通用底部栏和侧边栏" transform="translate(-2447.000000, -630.000000)" fill="#3D3D3D" fill-rule="nonzero">
            <g id="Group-4" transform="translate(2447.000000, 630.000000)">
                <g id="购物袋" transform="translate(3.000000, 2.000000)">
                    <path d="M22.1382291,26 L1.85358836,26 C0.830879388,25.9976556 0.00229278384,25.150555 0,24.1047035 L0.699681202,6.86235001 C0.715093804,5.82756915 1.54100549,4.99766058 2.55326956,5.00000495 L21.4506487,5.00000495 C22.4727208,5.00234933 23.3002884,5.8501012 23.3002884,6.89530149 L23.9998422,24.0718822 C24.0130894,25.1230737 23.1904895,25.9863245 22.1625581,26 L22.1382291,26 Z M2.55326956,6.64445342 C2.41777872,6.64445342 2.30794169,6.75676193 2.30794169,6.89530149 L1.60838786,24.1377852 C1.62288684,24.2642125 1.72913102,24.3585696 1.85358836,24.3555515 L22.1382291,24.3555515 C22.2022234,24.3556207 22.2636198,24.3296755 22.3088946,24.2834309 C22.3541693,24.2371863 22.3796083,24.1744358 22.3796083,24.1090015 L22.3796083,24.1048337 L21.6840032,6.94049582 C21.6952115,6.79564202 21.5895053,6.66890184 21.4478464,6.65734748 L21.4386753,6.65682651 L2.55326956,6.64445342 Z" id="Shape"></path>
                    <path d="M15.2563229,11.3950879 C14.8455364,11.3950879 14.5125281,11.0260716 14.5125281,10.5708668 L14.5125281,4.98658311 C14.5125281,3.14295479 13.1638477,1.64844212 11.5001178,1.64844212 C9.8363879,1.64844212 8.48758967,3.14308535 8.48758967,4.98658311 L8.48758967,10.5707363 C8.4875272,10.7893439 8.40908346,10.9989667 8.2695218,11.1534722 C8.12996014,11.3079776 7.9407176,11.3947042 7.74344138,11.3945657 C7.33290393,11.3944215 7.00013006,11.025665 7,10.5707363 L7,4.98658311 C7,2.23256457 9.01471434,0 11.5,0 C13.9854034,0 16,2.23256457 16,4.98658311 L16,10.5707363 C16.0000625,10.7893439 15.9217386,10.9990216 15.7822653,11.1536251 C15.6427921,11.3082285 15.4535992,11.3950879 15.2563229,11.3950879 Z M13.445083,17 L9.9677567,17 C9.55693762,17 9.22390296,16.6309544 9.22390296,16.1757137 C9.22390296,15.7204729 9.55693762,15.3514273 9.9677567,15.3514273 L13.445083,15.3514273 C13.855902,15.3514273 14.1889367,15.7204729 14.1889367,16.1757137 C14.1889367,16.6309544 13.855902,17 13.445083,17 Z" id="Shape"></path>
                </g>
            </g>
        </g>
    </g>
</svg>