<?xml version="1.0" encoding="utf-8"?>
<!-- Generator: Adobe Illustrator 21.0.0, SVG Export Plug-In . SVG Version: 6.00 Build 0)  -->
<svg version="1.1" id="图层_1" xmlns="http://www.w3.org/2000/svg" xmlns:xlink="http://www.w3.org/1999/xlink" x="0px" y="0px"
	 viewBox="0 0 47.3 44.3" style="enable-background:new 0 0 47.3 44.3;" xml:space="preserve">
<style type="text/css">
	.st0{fill:#FFFFFF;}
</style>
<title>Shape</title>
<desc>Created with Sketch.</desc>
<g id="Page-1">
	<g id="首页购物车" transform="translate(-2418.000000, -1405.000000)">
		<g id="聊天-4" transform="translate(2418.000000, 1405.000000)">
			<g id="Group-3">
				<path id="Shape" class="st0" d="M46.4,36.5c0.4,0.9,0.3,1.9-0.3,2.6c-0.6,0.7-1.6,1.1-2.5,0.9L34,38.1
					c-8.4,5.5-19.7,4.3-26.7-2.9S-0.5,17,5.6,9S22.7-1.5,31.8,3s13.5,14.8,10.5,24.3L46.4,36.5z M38.1,27.5l0.4-1.4
					c2.4-7.7-1.1-16-8.5-19.7S13.7,4.8,8.7,11.3S4.4,26.8,10,32.7s14.8,6.9,21.7,2.4l1.3-0.9l8.7,1.7L38.1,27.5z M15.2,25.1
					c-1.4,0-2.7-0.7-3.4-1.9c-0.7-1.2-0.7-2.6,0-3.8c0.7-1.2,2-1.9,3.4-1.9c2.2,0,3.9,1.7,3.9,3.8S17.3,25.1,15.2,25.1z M28.2,25.1
					c-1.4,0-2.7-0.7-3.4-1.9s-0.7-2.6,0-3.8s2-1.9,3.4-1.9c2.2,0,3.9,1.7,3.9,3.8S30.4,25.1,28.2,25.1z"/>
			</g>
		</g>
	</g>
</g>
</svg>
