<?xml version="1.0" encoding="UTF-8"?>
<svg width="29px" height="29px" viewBox="0 0 29 29" version="1.1" xmlns="http://www.w3.org/2000/svg" xmlns:xlink="http://www.w3.org/1999/xlink">
    <!-- Generator: Sketch 50.2 (55047) - http://www.bohemiancoding.com/sketch -->
    <title>二维码</title>
    <desc>Created with Sketch.</desc>
    <defs></defs>
    <g id="Page-1" stroke="none" stroke-width="1" fill="none" fill-rule="evenodd">
        <g id="全站通用底部栏和侧边栏" transform="translate(-2447.000000, -697.000000)" fill="#29272A" fill-rule="nonzero">
            <g id="Group-3" transform="translate(2447.000000, 697.000000)">
                <g id="二维码" transform="translate(4.000000, 4.000000)">
                    <path d="M0,10 L10,10 L10,0 L0,0 L0,10 Z M1.81818181,1.81818181 L8.18181819,1.81818181 L8.18181819,8.18181819 L1.81818181,8.18181819 L1.81818181,1.81818181 Z" id="Shape"></path>
                    <path d="M4,3.63636365 L6.7,3.63636365 L6.7,6.36363638 L4,6.36363638 L4,3.63636365 Z M12.1,0 L12.1,10 L22,10 L22,0 L12.1,0 Z M20.2,8.18181819 L13.9,8.18181819 L13.9,1.81818181 L20.2,1.81818181 L20.2,8.18181819 Z" id="Shape"></path>
                    <path d="M15.3,4 L18,4 L18,6.7 L15.3,6.7 L15.3,4 Z M0,22 L9.9,22 L9.9,12.1 L0,12.1 L0,22 Z M1.79999999,13.9 L8.1,13.9 L8.1,20.2 L1.79999999,20.2 L1.79999999,13.9 Z" id="Shape"></path>
                    <path d="M4,15.6363636 L6.7,15.6363636 L6.7,18.3636364 L4,18.3636364 L4,15.6363636 Z M20.2,16.5454545 L17.5,16.5454545 L17.5,12 L12.1,12 L12.1,22 L13.9,22 L13.9,13.8181818 L15.7,13.8181818 L15.7,18.3636364 L22,18.3636364 L22,12 L20.2,12 L20.2,16.5454545 Z" id="Shape"></path>
                    <path d="M16,19 L18.5714286,19 L18.5714286,22 L16,22 L16,19 Z M19.4285714,19 L22,19 L22,22 L19.4285714,22 L19.4285714,19 Z" id="Shape"></path>
                </g>
            </g>
        </g>
    </g>
</svg>